<?xml version="1.0" encoding="utf-8"?>
<!-- Generator: Adobe Illustrator 16.0.0, SVG Export Plug-In . SVG Version: 6.00 Build 0)  -->
<!DOCTYPE svg PUBLIC "-//W3C//DTD SVG 1.1//EN" "http://www.w3.org/Graphics/SVG/1.1/DTD/svg11.dtd">
<svg version="1.1" id="Layer_2" xmlns="http://www.w3.org/2000/svg" xmlns:xlink="http://www.w3.org/1999/xlink" x="0px" y="0px"
	 width="256px" height="193.445px" viewBox="0 0 256 193.445" enable-background="new 0 0 256 193.445" xml:space="preserve">
<rect x="15.735" y="72.566" fill="#FFFFFF" width="224.047" height="115.799"/>
<path d="M181.023,67.188V0H74.977v67.188H9.688v126.281h236.578V67.188H181.023z M235.266,182.469H20.688V78.188h214.578V182.469z"
	/>
<g>
	<path d="M107.688,155h-10.22l-4.063-10.567H74.807L70.966,155H61l18.123-46.527h9.934L107.688,155z M90.39,136.592l-6.411-17.266
		l-6.284,17.266H90.39z"/>
	<path d="M153.836,149.318l-5.396,6.888c-2.645-1.29-5.184-3.066-7.617-5.332c-1.883,1.692-3.883,2.94-5.996,3.745
		c-2.117,0.804-4.637,1.206-7.555,1.206c-5.798,0-10.156-1.63-13.076-4.888c-2.264-2.52-3.396-5.416-3.396-8.697
		c0-2.982,0.889-5.664,2.666-8.045c1.777-2.381,4.433-4.448,7.966-6.205c-1.587-1.883-2.782-3.676-3.586-5.379
		c-0.805-1.703-1.206-3.316-1.206-4.84c0-2.814,1.127-5.2,3.38-7.157c2.254-1.957,5.464-2.936,9.631-2.936
		c4.021,0,7.162,1.025,9.428,3.078c2.264,2.054,3.396,4.561,3.396,7.522c0,1.883-0.562,3.671-1.683,5.363s-3.388,3.606-6.793,5.745
		l6.476,8.536c0.762-1.354,1.418-3.12,1.969-5.3l8.062,1.84c-0.803,2.856-1.502,4.946-2.094,6.27
		c-0.595,1.324-1.229,2.43-1.904,3.316c0.994,0.932,2.279,1.951,3.854,3.063C151.936,148.225,153.094,148.959,153.836,149.318z
		 M126.063,133.703c-2.053,1.037-3.586,2.285-4.602,3.746c-1.016,1.459-1.523,2.951-1.523,4.475c0,1.927,0.629,3.497,1.889,4.714
		c1.258,1.217,2.945,1.824,5.062,1.824c1.396,0,2.74-0.273,4.031-0.824s2.697-1.459,4.221-2.729L126.063,133.703z M129.555,124.023
		l2.412-1.841c1.777-1.375,2.666-2.74,2.666-4.096c0-1.143-0.428-2.114-1.285-2.919c-0.854-0.804-2.016-1.206-3.475-1.206
		c-1.419,0-2.529,0.354-3.333,1.063c-0.805,0.709-1.206,1.529-1.206,2.46c0,1.101,0.677,2.434,2.031,3.999L129.555,124.023z"/>
	<path d="M159.611,155v-46.527h34.5v7.871h-25.105v10.314h23.359v7.839h-23.359v12.663H195V155H159.611z"/>
</g>
</svg>
