<?xml version="1.0" encoding="utf-8"?>
<!-- Generator: Adobe Illustrator 16.0.0, SVG Export Plug-In . SVG Version: 6.00 Build 0)  -->
<!DOCTYPE svg PUBLIC "-//W3C//DTD SVG 1.1//EN" "http://www.w3.org/Graphics/SVG/1.1/DTD/svg11.dtd">
<svg version="1.1" id="Layer_1" xmlns="http://www.w3.org/2000/svg" xmlns:xlink="http://www.w3.org/1999/xlink" x="0px" y="0px"
	 width="256px" height="256px" viewBox="0 0 256 256" enable-background="new 0 0 256 256" xml:space="preserve">
<rect x="15.5" y="73" fill="#FFFFFF" width="224" height="176.5"/>
<g>
	<g>
		<path d="M39.442,235.667v-33.644H53.74c3.595,0,6.208,0.303,7.837,0.906c1.629,0.604,2.933,1.68,3.913,3.225
			c0.979,1.546,1.469,3.313,1.469,5.302c0,2.522-0.742,4.608-2.226,6.253c-1.484,1.646-3.703,2.682-6.655,3.109
			c1.469,0.857,2.681,1.799,3.638,2.822c0.956,1.025,2.245,2.846,3.867,5.463l4.108,6.563h-8.124l-4.911-7.32
			c-1.744-2.617-2.938-4.265-3.58-4.945c-0.643-0.682-1.324-1.147-2.042-1.399c-0.719-0.253-1.859-0.379-3.419-0.379h-1.377v14.045
			H39.442L39.442,235.667z M46.235,216.252h5.026c3.259,0,5.293-0.139,6.104-0.413c0.811-0.274,1.446-0.749,1.905-1.423
			c0.459-0.673,0.688-1.516,0.688-2.523c0-1.133-0.302-2.047-0.906-2.742c-0.605-0.696-1.458-1.137-2.559-1.32
			c-0.551-0.076-2.203-0.114-4.957-0.114h-5.301V216.252z"/>
	</g>
</g>
<g>
	<rect x="90" y="189" fill="#FFCC00" width="74" height="61"/>
	<g>
		<path d="M144.258,235.667h-7.389l-2.938-7.644h-13.45l-2.776,7.644H110.5l13.104-33.644h7.184L144.258,235.667z M131.751,222.355
			l-4.636-12.483l-4.544,12.483H131.751z"/>
	</g>
</g>
<g>
	<g>
		<path d="M202.07,223.297v-5.669h14.643v13.401c-1.424,1.377-3.484,2.591-6.186,3.639s-5.437,1.572-8.204,1.572
			c-3.521,0-6.587-0.738-9.202-2.215c-2.617-1.478-4.583-3.588-5.898-6.334s-1.974-5.733-1.974-8.963
			c0-3.502,0.733-6.617,2.203-9.34c1.469-2.724,3.618-4.812,6.448-6.266c2.158-1.116,4.843-1.676,8.056-1.676
			c4.177,0,7.438,0.877,9.788,2.628c2.348,1.752,3.857,4.174,4.531,7.264l-6.746,1.263c-0.475-1.652-1.365-2.957-2.674-3.912
			c-1.309-0.957-2.941-1.436-4.899-1.436c-2.97,0-5.328,0.939-7.08,2.823c-1.752,1.881-2.628,4.674-2.628,8.376
			c0,3.992,0.889,6.988,2.662,8.984c1.775,1.996,4.102,2.994,6.977,2.994c1.424,0,2.85-0.279,4.28-0.838
			c1.431-0.558,2.658-1.234,3.685-2.031v-4.268h-7.781V223.297z"/>
	</g>
</g>
<path d="M181,67.188V0H75v67.188H9.672V256h236.609V67.188H181z M85.5,245H20.672v-51.5H85.5V245z M163,245H92.5v-51.5H163V245z
	 M235.281,245H170v-51.5h65.281V245z M235.281,182.5H20.672V78.188h214.609V182.5L235.281,182.5z"/>
<g>
	<path d="M107.688,156h-10.22l-4.063-10.568H74.807L70.966,156H61l18.123-46.528h9.934L107.688,156z M90.39,137.592l-6.411-17.266
		l-6.284,17.266H90.39z"/>
	<path d="M153.836,150.318l-5.396,6.888c-2.645-1.29-5.184-3.067-7.617-5.332c-1.883,1.692-3.883,2.94-5.997,3.745
		c-2.117,0.804-4.636,1.206-7.555,1.206c-5.798,0-10.156-1.63-13.076-4.888c-2.264-2.519-3.396-5.416-3.396-8.697
		c0-2.982,0.889-5.664,2.666-8.045c1.777-2.381,4.433-4.448,7.966-6.205c-1.587-1.883-2.782-3.676-3.586-5.379
		c-0.805-1.703-1.206-3.316-1.206-4.84c0-2.814,1.127-5.2,3.38-7.157c2.254-1.957,5.464-2.936,9.632-2.936
		c4.021,0,7.162,1.026,9.427,3.079c2.264,2.053,3.396,4.56,3.396,7.522c0,1.883-0.561,3.671-1.682,5.363
		c-1.121,1.693-3.387,3.607-6.793,5.745l6.475,8.537c0.762-1.354,1.418-3.121,1.969-5.3l8.062,1.84
		c-0.803,2.856-1.502,4.946-2.094,6.269c-0.595,1.324-1.229,2.43-1.904,3.317c0.994,0.931,2.279,1.951,3.854,3.063
		C151.936,149.225,153.094,149.959,153.836,150.318z M126.063,134.703c-2.053,1.037-3.586,2.285-4.602,3.746
		c-1.016,1.459-1.523,2.951-1.523,4.475c0,1.926,0.629,3.497,1.889,4.713c1.258,1.217,2.945,1.825,5.062,1.825
		c1.396,0,2.74-0.274,4.031-0.825c1.291-0.55,2.697-1.459,4.221-2.729L126.063,134.703z M129.555,125.023l2.412-1.841
		c1.777-1.375,2.666-2.74,2.666-4.095c0-1.143-0.428-2.115-1.285-2.919c-0.854-0.804-2.016-1.206-3.475-1.206
		c-1.419,0-2.529,0.354-3.333,1.063c-0.805,0.709-1.206,1.529-1.206,2.46c0,1.101,0.677,2.434,2.031,3.999L129.555,125.023z"/>
	<path d="M159.611,156v-46.528h34.5v7.871h-25.105v10.315h23.359v7.839h-23.359v12.663H195V156H159.611z"/>
</g>
</svg>
