<?xml version="1.0" encoding="utf-8"?>
<!-- Generator: Adobe Illustrator 16.0.0, SVG Export Plug-In . SVG Version: 6.00 Build 0)  -->
<!DOCTYPE svg PUBLIC "-//W3C//DTD SVG 1.1//EN" "http://www.w3.org/Graphics/SVG/1.1/DTD/svg11.dtd">
<svg version="1.1" id="Layer_2" xmlns="http://www.w3.org/2000/svg" xmlns:xlink="http://www.w3.org/1999/xlink" x="0px" y="0px"
	 width="256px" height="193.445px" viewBox="0 0 256 193.445" enable-background="new 0 0 256 193.445" xml:space="preserve">
<rect x="15.734" y="73.566" fill="#FFFFFF" width="224.048" height="115.799"/>
<path d="M181.023,67.188V0H74.977v67.188H9.688v126.281h236.578V67.188H181.023z M235.266,182.469H20.688V78.188h214.578V182.469z"
	/>
<g>
	<path d="M70.68,119.5V96.594h7.422c2.813,0,4.646,0.114,5.5,0.344c1.313,0.344,2.411,1.092,3.297,2.242
		c0.886,1.15,1.328,2.639,1.328,4.461c0,1.405-0.255,2.589-0.766,3.547c-0.511,0.959-1.159,1.711-1.945,2.258
		c-0.787,0.547-1.586,0.909-2.397,1.086c-1.104,0.219-2.703,0.328-4.798,0.328h-3.016v8.641L70.68,119.5L70.68,119.5z
		 M75.305,100.469v6.5h2.531c1.823,0,3.042-0.119,3.656-0.359c0.613-0.239,1.096-0.614,1.444-1.125
		c0.35-0.51,0.523-1.104,0.523-1.781c0-0.833-0.245-1.521-0.734-2.063c-0.49-0.541-1.108-0.88-1.858-1.017
		c-0.553-0.104-1.662-0.155-3.328-0.155H75.305z"/>
	<path d="M95.086,119.5l-5.25-16.594h4.266l3.109,10.875l2.858-10.875h4.234l2.766,10.875l3.173-10.875h4.327l-5.327,16.594h-4.22
		l-2.858-10.672L99.352,119.5H95.086z"/>
	<path d="M121.086,119.5h-4.392v-16.594h4.078v2.359c0.698-1.114,1.325-1.85,1.883-2.203c0.558-0.354,1.19-0.531,1.898-0.531
		c1,0,1.963,0.276,2.891,0.828l-1.358,3.828c-0.74-0.479-1.427-0.719-2.063-0.719c-0.614,0-1.136,0.17-1.563,0.508
		c-0.427,0.339-0.764,0.951-1.008,1.836c-0.245,0.886-0.367,2.74-0.367,5.563L121.086,119.5L121.086,119.5z"/>
	<path d="M137.086,112.047l4.5-0.438c0.271,1.511,0.82,2.62,1.648,3.328c0.828,0.709,1.945,1.063,3.352,1.063
		c1.489,0,2.611-0.313,3.367-0.944c0.755-0.631,1.133-1.367,1.133-2.211c0-0.541-0.158-1.003-0.477-1.384
		c-0.318-0.38-0.873-0.711-1.664-0.991c-0.543-0.188-1.776-0.521-3.703-1c-2.479-0.614-4.219-1.369-5.219-2.267
		c-1.406-1.26-2.109-2.797-2.109-4.608c0-1.166,0.33-2.259,0.992-3.273c0.66-1.016,1.613-1.789,2.859-2.32
		c1.242-0.53,2.746-0.797,4.508-0.797c2.875,0,5.039,0.631,6.492,1.892c1.451,1.261,2.215,2.942,2.289,5.047l-4.625,0.203
		c-0.199-1.178-0.623-2.023-1.273-2.539c-0.651-0.517-1.629-0.773-2.93-0.773c-1.346,0-2.396,0.276-3.156,0.828
		c-0.49,0.354-0.734,0.828-0.734,1.422c0,0.542,0.229,1.006,0.688,1.391c0.584,0.49,2,1,4.25,1.531s3.914,1.081,4.992,1.648
		s1.922,1.344,2.531,2.328c0.609,0.983,0.914,2.2,0.914,3.647c0,1.313-0.365,2.542-1.094,3.688
		c-0.729,1.146-1.762,1.998-3.094,2.555c-1.334,0.557-2.996,0.836-4.984,0.836c-2.896,0-5.12-0.669-6.672-2.008
		C138.314,116.561,137.389,114.609,137.086,112.047z"/>
	<path d="M167.18,102.906v3.5h-3v6.688c0,1.354,0.028,2.144,0.086,2.366c0.057,0.226,0.188,0.409,0.393,0.556
		c0.201,0.146,0.449,0.219,0.74,0.219c0.406,0,0.994-0.141,1.768-0.422l0.375,3.406c-1.021,0.438-2.18,0.655-3.471,0.655
		c-0.791,0-1.506-0.133-2.141-0.397c-0.636-0.267-1.102-0.609-1.396-1.031c-0.297-0.422-0.504-0.992-0.617-1.711
		c-0.096-0.51-0.143-1.541-0.143-3.094v-7.234h-2.016v-3.5h2.016V99.61l4.406-2.563v5.859H167.18z"/>
	<path d="M185.32,119.5h-4.391v-8.469c0-1.791-0.096-2.95-0.281-3.477c-0.188-0.525-0.492-0.936-0.914-1.228
		c-0.422-0.291-0.93-0.438-1.523-0.438c-0.761,0-1.443,0.209-2.047,0.625c-0.604,0.417-1.02,0.969-1.242,1.655
		c-0.225,0.688-0.336,1.959-0.336,3.813v7.516h-4.391v-16.594h4.078v2.438c1.447-1.875,3.271-2.813,5.469-2.813
		c0.969,0,1.854,0.175,2.656,0.523c0.802,0.35,1.408,0.795,1.818,1.336c0.411,0.542,0.697,1.155,0.859,1.844
		c0.16,0.688,0.24,1.672,0.24,2.953V119.5H185.32z"/>
</g>
<g>
	<path d="M68.22,165.234h-3.017c-1.594-2.406-2.808-4.906-3.641-7.5s-1.25-5.104-1.25-7.531c0-3.01,0.516-5.858,1.547-8.547
		c0.896-2.334,2.031-4.484,3.406-6.453h3c-1.428,3.156-2.409,5.842-2.945,8.055c-0.537,2.216-0.805,4.562-0.805,7.039
		c0,1.709,0.158,3.459,0.477,5.25c0.317,1.792,0.752,3.494,1.305,5.109C66.661,161.719,67.303,163.244,68.22,165.234z"/>
	<path d="M71.672,158.5v-22.905h4.5l9.375,15.297v-15.297h4.298V158.5h-4.642l-9.233-14.938V158.5H71.672z"/>
	<path d="M105.625,158.5v-2.483c-0.604,0.887-1.397,1.584-2.383,2.094c-0.985,0.511-2.022,0.767-3.117,0.767
		c-1.115,0-2.115-0.245-3-0.732c-0.886-0.49-1.525-1.179-1.922-2.063c-0.396-0.886-0.594-2.107-0.594-3.672v-10.5H99v7.625
		c0,2.334,0.081,3.764,0.242,4.288c0.161,0.527,0.456,0.943,0.883,1.25c0.428,0.309,0.97,0.462,1.625,0.462
		c0.75,0,1.422-0.205,2.017-0.617c0.594-0.411,1-0.922,1.219-1.53c0.219-0.608,0.328-2.104,0.328-4.479v-7h4.391V158.5H105.625z"/>
	<path d="M128.719,146.813l-4.327,0.781c-0.146-0.863-0.478-1.517-0.992-1.953c-0.516-0.438-1.186-0.656-2.008-0.656
		c-1.095,0-1.967,0.379-2.617,1.134c-0.651,0.756-0.978,2.02-0.978,3.788c0,1.97,0.331,3.359,0.992,4.173
		c0.661,0.814,1.549,1.219,2.664,1.219c0.833,0,1.517-0.234,2.047-0.711c0.531-0.474,0.906-1.289,1.125-2.443l4.313,0.732
		c-0.446,1.979-1.308,3.477-2.577,4.483c-1.271,1.012-2.974,1.517-5.109,1.517c-2.427,0-4.361-0.767-5.805-2.297
		c-1.443-1.531-2.164-3.648-2.164-6.357c0-2.74,0.724-4.873,2.172-6.398c1.448-1.525,3.406-2.289,5.875-2.289
		c2.021,0,3.627,0.437,4.82,1.305C127.341,143.706,128.198,145.031,128.719,146.813z"/>
	<path d="M132.047,158.5v-22.905h4.391V158.5H132.047z"/>
	<path d="M150.547,153.219l4.375,0.733c-0.563,1.604-1.451,2.826-2.664,3.664c-1.214,0.839-2.732,1.258-4.555,1.258
		c-2.887,0-5.021-0.94-6.406-2.828c-1.094-1.51-1.641-3.416-1.641-5.719c0-2.75,0.719-4.903,2.156-6.461
		c1.438-1.557,3.254-2.336,5.453-2.336c2.469,0,4.416,0.814,5.844,2.445c1.427,1.631,2.107,4.127,2.047,7.492h-11
		c0.031,1.303,0.385,2.313,1.063,3.037c0.678,0.727,1.521,1.088,2.531,1.088c0.688,0,1.266-0.189,1.734-0.564
		C149.952,154.654,150.307,154.053,150.547,153.219z M150.797,148.781c-0.031-1.271-0.359-2.236-0.984-2.898
		c-0.625-0.659-1.385-0.991-2.279-0.991c-0.961,0-1.75,0.351-2.375,1.047c-0.625,0.699-0.934,1.646-0.924,2.844L150.797,148.781
		L150.797,148.781z"/>
	<path d="M162.016,146.969l-3.982-0.72c0.445-1.604,1.219-2.791,2.313-3.563s2.719-1.156,4.875-1.156
		c1.957,0,3.416,0.232,4.375,0.695c0.957,0.463,1.633,1.053,2.022,1.766c0.391,0.714,0.586,2.023,0.586,3.93l-0.047,5.125
		c0,1.459,0.069,2.534,0.211,3.228c0.141,0.692,0.403,1.437,0.789,2.228h-4.345c-0.114-0.291-0.256-0.724-0.422-1.297
		c-0.072-0.261-0.125-0.433-0.156-0.517c-0.75,0.729-1.553,1.275-2.405,1.642c-0.854,0.364-1.767,0.547-2.733,0.547
		c-1.709,0-3.056-0.463-4.039-1.392c-0.983-0.926-1.478-2.098-1.478-3.516c0-0.938,0.224-1.773,0.672-2.509
		c0.447-0.733,1.075-1.297,1.883-1.688c0.808-0.393,1.972-0.731,3.492-1.023c2.052-0.385,3.474-0.744,4.267-1.078v-0.438
		c0-0.844-0.209-1.445-0.625-1.805c-0.418-0.359-1.203-0.539-2.358-0.539c-0.781,0-1.392,0.152-1.828,0.461
		C162.641,145.659,162.286,146.197,162.016,146.969z M167.891,150.531c-0.563,0.188-1.453,0.412-2.672,0.672
		c-1.219,0.261-2.016,0.517-2.391,0.767c-0.573,0.405-0.859,0.922-0.859,1.547c0,0.614,0.229,1.146,0.688,1.594
		c0.458,0.449,1.041,0.672,1.75,0.672c0.791,0,1.547-0.26,2.266-0.78c0.531-0.396,0.88-0.88,1.048-1.453
		c0.113-0.375,0.172-1.088,0.172-2.142v-0.875L167.891,150.531L167.891,150.531z"/>
	<path d="M180.734,158.5h-4.393v-16.594h4.078v2.359c0.697-1.115,1.325-1.851,1.885-2.203c0.557-0.354,1.188-0.531,1.896-0.531
		c1,0,1.963,0.275,2.891,0.828l-1.357,3.828c-0.74-0.479-1.428-0.719-2.063-0.719c-0.614,0-1.136,0.17-1.563,0.508
		c-0.426,0.338-0.764,0.951-1.008,1.836s-0.367,2.74-0.367,5.563v5.125H180.734z"/>
	<path d="M187.766,165.234c0.864-1.854,1.476-3.276,1.828-4.268c0.354-0.988,0.682-2.131,0.984-3.422
		c0.302-1.291,0.525-2.519,0.672-3.68s0.219-2.353,0.219-3.57c0-2.479-0.266-4.824-0.797-7.039
		c-0.531-2.213-1.511-4.896-2.938-8.055h2.982c1.572,2.239,2.795,4.614,3.664,7.125s1.307,5.058,1.307,7.642
		c0,2.179-0.346,4.511-1.031,7c-0.781,2.79-2.068,5.548-3.859,8.267H187.766z"/>
</g>
</svg>
