<?xml version="1.0" encoding="utf-8"?>
<!-- Generator: Adobe Illustrator 16.0.0, SVG Export Plug-In . SVG Version: 6.00 Build 0)  -->
<!DOCTYPE svg PUBLIC "-//W3C//DTD SVG 1.1//EN" "http://www.w3.org/Graphics/SVG/1.1/DTD/svg11.dtd">
<svg version="1.1" id="Layer_1" xmlns="http://www.w3.org/2000/svg" xmlns:xlink="http://www.w3.org/1999/xlink" x="0px" y="0px"
	 width="256px" height="256px" viewBox="0 0 256 256" enable-background="new 0 0 256 256" xml:space="preserve">
<rect x="15.5" y="73" fill="#FFFFFF" width="224" height="176.5"/>
<g>
	<g>
		<path d="M39.442,235.667v-33.644H53.74c3.595,0,6.208,0.303,7.837,0.906c1.629,0.604,2.933,1.68,3.913,3.225
			c0.979,1.546,1.469,3.313,1.469,5.302c0,2.522-0.742,4.608-2.226,6.253c-1.484,1.646-3.703,2.682-6.655,3.109
			c1.469,0.857,2.681,1.799,3.638,2.822c0.956,1.025,2.245,2.846,3.867,5.463l4.108,6.563h-8.124l-4.911-7.32
			c-1.744-2.617-2.938-4.265-3.58-4.945c-0.643-0.682-1.324-1.147-2.042-1.399c-0.719-0.253-1.859-0.379-3.419-0.379h-1.377v14.045
			H39.442L39.442,235.667z M46.235,216.252h5.026c3.259,0,5.293-0.139,6.104-0.413c0.811-0.274,1.446-0.749,1.905-1.423
			c0.459-0.673,0.688-1.516,0.688-2.523c0-1.133-0.302-2.047-0.906-2.742c-0.605-0.696-1.458-1.137-2.559-1.32
			c-0.551-0.076-2.203-0.114-4.957-0.114h-5.301V216.252z"/>
	</g>
</g>
<g>
	<rect x="90" y="189" fill="#FFCC00" width="74" height="61"/>
	<g>
		<path d="M144.258,235.667h-7.389l-2.938-7.644h-13.45l-2.776,7.644H110.5l13.104-33.644h7.184L144.258,235.667z M131.751,222.355
			l-4.636-12.483l-4.544,12.483H131.751z"/>
	</g>
</g>
<g>
	<g>
		<path d="M202.07,223.297v-5.669h14.643v13.401c-1.424,1.377-3.484,2.591-6.186,3.639s-5.437,1.572-8.204,1.572
			c-3.521,0-6.587-0.738-9.202-2.215c-2.617-1.478-4.583-3.588-5.898-6.334s-1.974-5.733-1.974-8.963
			c0-3.502,0.733-6.617,2.203-9.34c1.469-2.724,3.618-4.812,6.448-6.266c2.158-1.116,4.843-1.676,8.056-1.676
			c4.177,0,7.438,0.877,9.788,2.628c2.348,1.752,3.857,4.174,4.531,7.264l-6.746,1.263c-0.475-1.652-1.365-2.957-2.674-3.912
			c-1.309-0.957-2.941-1.436-4.899-1.436c-2.97,0-5.328,0.939-7.08,2.823c-1.752,1.881-2.628,4.674-2.628,8.376
			c0,3.992,0.889,6.988,2.662,8.984c1.775,1.996,4.102,2.994,6.977,2.994c1.424,0,2.85-0.279,4.28-0.838
			c1.431-0.558,2.658-1.234,3.685-2.031v-4.268h-7.781V223.297z"/>
	</g>
</g>
<path d="M181,67.188V0H75v67.188H9.672V256h236.609V67.188H181z M85.5,245H20.672v-51.5H85.5V245z M163,245H92.5v-51.5H163V245z
	 M235.281,245H170v-51.5h65.281V245z M235.281,182.5H20.672V78.188h214.609V182.5L235.281,182.5z"/>
<g>
	<path d="M70.68,121.5V98.594h7.422c2.813,0,4.646,0.115,5.5,0.344c1.313,0.344,2.411,1.092,3.297,2.242
		c0.885,1.151,1.328,2.639,1.328,4.461c0,1.406-0.255,2.589-0.766,3.547c-0.511,0.959-1.159,1.711-1.945,2.258
		c-0.787,0.547-1.586,0.909-2.398,1.086c-1.104,0.219-2.703,0.328-4.797,0.328h-3.016v8.641L70.68,121.5L70.68,121.5z
		 M75.305,102.469v6.5h2.531c1.823,0,3.042-0.119,3.656-0.359c0.614-0.239,1.096-0.614,1.445-1.125
		c0.349-0.51,0.523-1.104,0.523-1.781c0-0.833-0.245-1.521-0.734-2.063c-0.49-0.541-1.109-0.88-1.859-1.016
		c-0.552-0.104-1.662-0.156-3.328-0.156H75.305z"/>
	<path d="M95.086,121.5l-5.25-16.594h4.266l3.109,10.875l2.859-10.875h4.234l2.766,10.875l3.172-10.875h4.328l-5.328,16.594h-4.219
		l-2.859-10.672L99.352,121.5H95.086z"/>
	<path d="M121.086,121.5h-4.391v-16.594h4.078v2.359c0.698-1.114,1.325-1.849,1.883-2.203c0.557-0.354,1.19-0.531,1.898-0.531
		c1,0,1.963,0.276,2.891,0.828l-1.359,3.828c-0.74-0.479-1.427-0.719-2.063-0.719c-0.615,0-1.136,0.17-1.563,0.508
		c-0.427,0.339-0.763,0.951-1.008,1.836c-0.245,0.886-0.367,2.74-0.367,5.563L121.086,121.5L121.086,121.5z"/>
	<path d="M137.086,114.047l4.5-0.438c0.271,1.511,0.82,2.62,1.648,3.328c0.828,0.709,1.945,1.063,3.352,1.063
		c1.489,0,2.611-0.314,3.367-0.945c0.755-0.63,1.133-1.367,1.133-2.211c0-0.541-0.158-1.002-0.477-1.383
		c-0.318-0.38-0.873-0.711-1.664-0.992c-0.543-0.188-1.776-0.521-3.703-1c-2.479-0.614-4.219-1.369-5.219-2.266
		c-1.406-1.26-2.109-2.797-2.109-4.609c0-1.166,0.33-2.258,0.992-3.273c0.66-1.016,1.613-1.789,2.859-2.32
		c1.243-0.531,2.746-0.797,4.508-0.797c2.875,0,5.039,0.631,6.492,1.891c1.452,1.261,2.215,2.943,2.289,5.047l-4.625,0.203
		c-0.199-1.177-0.623-2.023-1.273-2.539c-0.651-0.516-1.629-0.773-2.93-0.773c-1.345,0-2.396,0.276-3.156,0.828
		c-0.49,0.354-0.734,0.828-0.734,1.422c0,0.542,0.229,1.006,0.688,1.391c0.584,0.49,2,1,4.25,1.531
		c2.25,0.531,3.914,1.081,4.992,1.648c1.078,0.568,1.922,1.344,2.531,2.328c0.609,0.984,0.914,2.201,0.914,3.648
		c0,1.313-0.365,2.542-1.094,3.688s-1.762,1.998-3.094,2.555c-1.334,0.557-2.996,0.836-4.984,0.836c-2.896,0-5.12-0.669-6.672-2.008
		C138.314,118.561,137.389,116.609,137.086,114.047z"/>
	<path d="M167.18,104.906v3.5h-3v6.688c0,1.354,0.028,2.144,0.086,2.367c0.057,0.225,0.188,0.409,0.392,0.555
		c0.202,0.146,0.45,0.219,0.741,0.219c0.406,0,0.994-0.141,1.767-0.422l0.375,3.406c-1.021,0.438-2.179,0.656-3.47,0.656
		c-0.791,0-1.506-0.133-2.141-0.398c-0.636-0.266-1.102-0.609-1.397-1.031c-0.296-0.422-0.503-0.992-0.617-1.711
		c-0.095-0.51-0.142-1.541-0.142-3.094v-7.234h-2.016v-3.5h2.016v-3.297l4.406-2.563v5.859H167.18z"/>
	<path d="M185.32,121.5h-4.391v-8.469c0-1.791-0.095-2.95-0.281-3.477c-0.188-0.525-0.492-0.935-0.914-1.227
		c-0.422-0.291-0.93-0.438-1.523-0.438c-0.761,0-1.443,0.209-2.047,0.625c-0.604,0.417-1.02,0.969-1.242,1.656
		c-0.225,0.688-0.336,1.959-0.336,3.813v7.516h-4.391v-16.594h4.078v2.438c1.447-1.875,3.271-2.813,5.469-2.813
		c0.969,0,1.854,0.175,2.656,0.523c0.802,0.35,1.408,0.795,1.819,1.336c0.411,0.542,0.697,1.156,0.859,1.844
		c0.161,0.688,0.241,1.672,0.241,2.953V121.5H185.32z"/>
</g>
<g>
	<path d="M68.219,167.234h-3.016c-1.594-2.406-2.808-4.906-3.641-7.5s-1.25-5.104-1.25-7.531c0-3.01,0.516-5.859,1.547-8.547
		c0.896-2.334,2.031-4.484,3.406-6.453h3c-1.427,3.156-2.409,5.842-2.945,8.055c-0.537,2.215-0.805,4.561-0.805,7.039
		c0,1.709,0.159,3.459,0.477,5.25c0.317,1.792,0.752,3.494,1.305,5.109C66.661,163.719,67.302,165.244,68.219,167.234z"/>
	<path d="M71.672,160.5v-22.906h4.5l9.375,15.297v-15.297h4.297V160.5h-4.641l-9.234-14.938V160.5H71.672z"/>
	<path d="M105.625,160.5v-2.484c-0.604,0.887-1.398,1.584-2.383,2.094c-0.985,0.511-2.023,0.767-3.117,0.767
		c-1.115,0-2.115-0.245-3-0.733c-0.886-0.49-1.526-1.178-1.922-2.063s-0.594-2.108-0.594-3.672v-10.5H99v7.625
		c0,2.334,0.081,3.764,0.242,4.288c0.161,0.527,0.456,0.943,0.883,1.25c0.427,0.309,0.969,0.462,1.625,0.462
		c0.75,0,1.422-0.205,2.016-0.617c0.594-0.411,1-0.922,1.219-1.531c0.219-0.608,0.328-2.103,0.328-4.478v-7h4.391V160.5H105.625z"/>
	<path d="M128.719,148.813l-4.328,0.781c-0.146-0.863-0.477-1.516-0.992-1.953c-0.515-0.437-1.185-0.656-2.008-0.656
		c-1.094,0-1.966,0.379-2.617,1.134c-0.651,0.756-0.977,2.019-0.977,3.788c0,1.97,0.331,3.359,0.992,4.173s1.549,1.219,2.664,1.219
		c0.833,0,1.516-0.235,2.047-0.711c0.531-0.474,0.906-1.289,1.125-2.444l4.313,0.733c-0.448,1.979-1.308,3.476-2.578,4.483
		c-1.271,1.012-2.974,1.517-5.109,1.517c-2.427,0-4.362-0.767-5.805-2.297c-1.443-1.531-2.164-3.649-2.164-6.358
		c0-2.74,0.724-4.873,2.172-6.398c1.448-1.525,3.406-2.289,5.875-2.289c2.021,0,3.627,0.436,4.82,1.305
		C127.341,145.706,128.198,147.031,128.719,148.813z"/>
	<path d="M132.047,160.5v-22.906h4.391V160.5H132.047z"/>
	<path d="M150.547,155.219l4.375,0.734c-0.563,1.604-1.451,2.826-2.664,3.664c-1.214,0.839-2.732,1.258-4.555,1.258
		c-2.887,0-5.021-0.941-6.406-2.828c-1.094-1.51-1.641-3.416-1.641-5.719c0-2.75,0.719-4.903,2.156-6.461
		c1.438-1.557,3.254-2.336,5.453-2.336c2.469,0,4.416,0.814,5.844,2.445c1.427,1.631,2.108,4.127,2.047,7.492h-11
		c0.031,1.303,0.385,2.314,1.063,3.038c0.678,0.726,1.521,1.087,2.531,1.087c0.688,0,1.266-0.189,1.734-0.564
		C149.952,156.654,150.307,156.053,150.547,155.219z M150.797,150.781c-0.031-1.271-0.359-2.236-0.984-2.898
		c-0.625-0.66-1.385-0.992-2.28-0.992c-0.96,0-1.75,0.351-2.375,1.047c-0.625,0.699-0.933,1.646-0.923,2.844H150.797
		L150.797,150.781z"/>
	<path d="M162.016,148.969l-3.983-0.719c0.446-1.604,1.219-2.791,2.313-3.563c1.094-0.771,2.719-1.156,4.875-1.156
		c1.957,0,3.416,0.232,4.375,0.695c0.957,0.463,1.633,1.053,2.022,1.766c0.391,0.714,0.586,2.023,0.586,3.93l-0.047,5.125
		c0,1.459,0.069,2.534,0.211,3.227c0.141,0.693,0.403,1.437,0.789,2.228h-4.345c-0.114-0.291-0.256-0.724-0.422-1.297
		c-0.072-0.261-0.125-0.433-0.156-0.517c-0.75,0.729-1.553,1.276-2.405,1.642c-0.854,0.364-1.767,0.547-2.733,0.547
		c-1.709,0-3.056-0.463-4.039-1.392c-0.984-0.926-1.478-2.098-1.478-3.516c0-0.938,0.224-1.773,0.672-2.508
		c0.447-0.734,1.075-1.297,1.883-1.688c0.808-0.392,1.972-0.731,3.492-1.023c2.052-0.385,3.474-0.744,4.267-1.078v-0.438
		c0-0.844-0.209-1.445-0.625-1.805c-0.418-0.359-1.203-0.539-2.359-0.539c-0.781,0-1.391,0.153-1.828,0.461
		C162.641,147.659,162.286,148.197,162.016,148.969z M167.891,152.531c-0.563,0.188-1.453,0.412-2.672,0.672
		c-1.219,0.261-2.016,0.516-2.391,0.766c-0.573,0.406-0.859,0.922-0.859,1.547c0,0.615,0.229,1.146,0.688,1.594
		c0.458,0.449,1.041,0.672,1.75,0.672c0.791,0,1.547-0.26,2.266-0.78c0.531-0.396,0.88-0.88,1.048-1.453
		c0.113-0.375,0.172-1.088,0.172-2.142v-0.875H167.891z"/>
	<path d="M180.734,160.5h-4.392v-16.594h4.078v2.359c0.697-1.115,1.325-1.85,1.884-2.203c0.557-0.354,1.188-0.531,1.897-0.531
		c1,0,1.963,0.275,2.891,0.828l-1.358,3.828c-0.74-0.479-1.428-0.719-2.063-0.719c-0.614,0-1.136,0.17-1.563,0.508
		s-0.764,0.951-1.008,1.836s-0.367,2.74-0.367,5.563v5.125H180.734z"/>
	<path d="M187.766,167.234c0.864-1.854,1.475-3.276,1.828-4.267c0.354-0.989,0.682-2.131,0.984-3.422
		c0.302-1.291,0.525-2.519,0.672-3.68s0.219-2.353,0.219-3.57c0-2.479-0.266-4.825-0.797-7.039
		c-0.531-2.213-1.511-4.897-2.938-8.055h2.983c1.572,2.239,2.794,4.614,3.664,7.125c0.869,2.511,1.306,5.058,1.306,7.642
		c0,2.178-0.345,4.51-1.031,7c-0.781,2.79-2.068,5.547-3.859,8.266H187.766z"/>
</g>
</svg>
