<?xml version="1.0" encoding="utf-8"?>
<!-- Generator: Adobe Illustrator 16.0.0, SVG Export Plug-In . SVG Version: 6.00 Build 0)  -->
<!DOCTYPE svg PUBLIC "-//W3C//DTD SVG 1.1//EN" "http://www.w3.org/Graphics/SVG/1.1/DTD/svg11.dtd">
<svg version="1.1" id="Layer_2" xmlns="http://www.w3.org/2000/svg" xmlns:xlink="http://www.w3.org/1999/xlink" x="0px" y="0px"
	 width="256px" height="193.445px" viewBox="0 0 256 193.445" enable-background="new 0 0 256 193.445" xml:space="preserve">
<rect x="15.734" y="72.566" fill="#FFFFFF" width="224.048" height="115.799"/>
<path d="M181.023,67.188V0H74.977v67.188H9.688v126.281h236.578V67.188H181.023z M235.266,182.469H20.688V78.188h214.578V182.469z"
	/>
<g>
	<path d="M62.429,108.471H79.6c3.872,0,6.822,0.297,8.854,0.889c2.729,0.805,5.067,2.231,7.016,4.284
		c1.945,2.053,3.428,4.564,4.442,7.538c1.017,2.974,1.523,6.639,1.523,10.998c0,3.828-0.478,7.131-1.43,9.9
		c-1.164,3.386-2.823,6.126-4.981,8.223c-1.63,1.586-3.83,2.822-6.603,3.713c-2.073,0.654-4.846,0.982-8.314,0.982H62.429V108.471z
		 M71.822,116.342v30.817h7.015c2.623,0,4.518-0.146,5.682-0.443c1.522-0.381,2.788-1.025,3.793-1.937
		c1.005-0.909,1.825-2.406,2.46-4.491c0.635-2.084,0.952-4.925,0.952-8.521c0-3.599-0.317-6.358-0.952-8.284
		c-0.635-1.926-1.523-3.428-2.666-4.508c-1.144-1.078-2.593-1.81-4.35-2.189c-1.312-0.296-3.883-0.444-7.712-0.444H71.822
		L71.822,116.342z"/>
	<path d="M109.434,154.999v-46.527h19.771c4.975,0,8.586,0.418,10.839,1.254c2.254,0.836,4.06,2.321,5.411,4.459
		c1.354,2.138,2.029,4.581,2.029,7.331c0,3.491-1.023,6.375-3.076,8.648c-2.055,2.273-5.121,3.708-9.204,4.3
		c2.03,1.188,3.708,2.487,5.028,3.904c1.322,1.418,3.105,3.938,5.35,7.554l5.684,9.077h-11.236l-6.791-10.125
		c-2.412-3.617-4.063-5.896-4.951-6.839c-0.888-0.942-1.831-1.588-2.825-1.938c-0.994-0.35-2.569-0.522-4.729-0.522h-1.904v19.424
		H109.434L109.434,154.999z M118.827,128.148h6.95c4.507,0,7.321-0.19,8.442-0.571s2-1.036,2.635-1.968
		c0.635-0.931,0.951-2.095,0.951-3.491c0-1.564-0.418-2.83-1.254-3.793c-0.836-0.962-2.016-1.57-3.539-1.824
		c-0.762-0.105-3.047-0.159-6.854-0.159h-7.331V128.148L118.827,128.148z"/>
	<path d="M156.373,154.999v-46.527h9.396v18.313h18.408v-18.313h9.395v46.527h-9.395v-20.345H165.77v20.345H156.373z"/>
</g>
</svg>
