<?xml version="1.0" encoding="utf-8"?>
<!-- Generator: Adobe Illustrator 16.0.0, SVG Export Plug-In . SVG Version: 6.00 Build 0)  -->
<!DOCTYPE svg PUBLIC "-//W3C//DTD SVG 1.1//EN" "http://www.w3.org/Graphics/SVG/1.1/DTD/svg11.dtd">
<svg version="1.1" id="Layer_1" xmlns="http://www.w3.org/2000/svg" xmlns:xlink="http://www.w3.org/1999/xlink" x="0px" y="0px"
	 width="256px" height="256px" viewBox="0 0 256 256" enable-background="new 0 0 256 256" xml:space="preserve">
<rect x="15.5" y="73" fill="#FFFFFF" width="224" height="176.5"/>
<g>
	<g>
		<path d="M39.442,235.667v-33.644H53.74c3.595,0,6.208,0.303,7.837,0.906c1.629,0.604,2.933,1.68,3.913,3.225
			c0.979,1.546,1.469,3.313,1.469,5.302c0,2.522-0.742,4.608-2.226,6.253c-1.484,1.646-3.703,2.682-6.655,3.109
			c1.469,0.857,2.681,1.799,3.638,2.822c0.956,1.025,2.245,2.846,3.867,5.463l4.108,6.563h-8.124l-4.911-7.32
			c-1.744-2.617-2.938-4.265-3.58-4.945c-0.643-0.682-1.324-1.147-2.042-1.399c-0.719-0.253-1.859-0.379-3.419-0.379h-1.377v14.045
			H39.442L39.442,235.667z M46.235,216.252h5.026c3.259,0,5.293-0.139,6.104-0.413c0.811-0.274,1.446-0.749,1.905-1.423
			c0.459-0.673,0.688-1.516,0.688-2.523c0-1.133-0.302-2.047-0.906-2.742c-0.605-0.696-1.458-1.137-2.559-1.32
			c-0.551-0.076-2.203-0.114-4.957-0.114h-5.301V216.252z"/>
	</g>
</g>
<g>
	<rect x="90" y="189" fill="#FFCC00" width="74" height="61"/>
	<g>
		<path d="M144.258,235.667h-7.389l-2.938-7.644h-13.45l-2.776,7.644H110.5l13.104-33.644h7.184L144.258,235.667z M131.751,222.355
			l-4.636-12.483l-4.544,12.483H131.751z"/>
	</g>
</g>
<g>
	<g>
		<path d="M202.07,223.297v-5.669h14.643v13.401c-1.424,1.377-3.484,2.591-6.186,3.639s-5.437,1.572-8.204,1.572
			c-3.521,0-6.587-0.738-9.202-2.215c-2.617-1.478-4.583-3.588-5.898-6.334s-1.974-5.733-1.974-8.963
			c0-3.502,0.733-6.617,2.203-9.34c1.469-2.724,3.618-4.812,6.448-6.266c2.158-1.116,4.843-1.676,8.056-1.676
			c4.177,0,7.438,0.877,9.788,2.628c2.348,1.752,3.857,4.174,4.531,7.264l-6.746,1.263c-0.475-1.652-1.365-2.957-2.674-3.912
			c-1.309-0.957-2.941-1.436-4.899-1.436c-2.97,0-5.328,0.939-7.08,2.823c-1.752,1.881-2.628,4.674-2.628,8.376
			c0,3.992,0.889,6.988,2.662,8.984c1.775,1.996,4.102,2.994,6.977,2.994c1.424,0,2.85-0.279,4.28-0.838
			c1.431-0.558,2.658-1.234,3.685-2.031v-4.268h-7.781V223.297z"/>
	</g>
</g>
<path d="M181,67.188V0H75v67.188H9.672V256h236.609V67.188H181z M85.5,245H20.672v-51.5H85.5V245z M163,245H92.5v-51.5H163V245z
	 M235.281,245H170v-51.5h65.281V245z M235.281,182.5H20.672V78.188h214.609V182.5L235.281,182.5z"/>
<g>
	<path d="M62.429,108.471H79.6c3.872,0,6.823,0.297,8.854,0.889c2.729,0.805,5.067,2.232,7.015,4.284
		c1.946,2.053,3.428,4.565,4.443,7.538c1.016,2.974,1.523,6.639,1.523,10.998c0,3.829-0.477,7.131-1.429,9.901
		c-1.164,3.386-2.824,6.126-4.982,8.222c-1.63,1.586-3.83,2.823-6.602,3.713c-2.074,0.655-4.846,0.983-8.315,0.983H62.429V108.471z
		 M71.823,116.342v30.817h7.015c2.623,0,4.517-0.147,5.681-0.443c1.523-0.381,2.788-1.026,3.793-1.937
		c1.005-0.909,1.825-2.406,2.46-4.491c0.635-2.084,0.952-4.925,0.952-8.521c0-3.598-0.317-6.358-0.952-8.284
		c-0.635-1.926-1.523-3.428-2.666-4.508c-1.143-1.078-2.593-1.809-4.349-2.189c-1.312-0.296-3.883-0.444-7.712-0.444h-4.222V116.342
		z"/>
	<path d="M109.434,154.999v-46.528h19.772c4.974,0,8.586,0.418,10.839,1.254c2.254,0.836,4.059,2.322,5.411,4.459
		c1.354,2.138,2.03,4.581,2.03,7.331c0,3.492-1.024,6.375-3.077,8.649c-2.054,2.273-5.121,3.708-9.204,4.3
		c2.031,1.187,3.708,2.487,5.029,3.904c1.322,1.418,3.105,3.937,5.349,7.554l5.683,9.077h-11.236l-6.791-10.125
		c-2.412-3.617-4.063-5.897-4.951-6.839c-0.888-0.942-1.831-1.588-2.825-1.938c-0.994-0.349-2.57-0.522-4.729-0.522h-1.904v19.424
		H109.434z M118.828,128.148h6.95c4.507,0,7.322-0.19,8.443-0.571c1.121-0.381,2-1.036,2.635-1.968
		c0.635-0.931,0.951-2.095,0.951-3.491c0-1.565-0.418-2.83-1.254-3.793c-0.836-0.962-2.016-1.57-3.539-1.824
		c-0.762-0.106-3.047-0.159-6.854-0.159h-7.331V128.148L118.828,128.148z"/>
	<path d="M156.374,154.999v-46.528h9.396v18.313h18.408v-18.313h9.395v46.528h-9.395v-20.345H165.77v20.345H156.374z"/>
</g>
</svg>
