<?xml version="1.0" encoding="utf-8"?>
<!-- Generator: Adobe Illustrator 16.0.0, SVG Export Plug-In . SVG Version: 6.00 Build 0)  -->
<!DOCTYPE svg PUBLIC "-//W3C//DTD SVG 1.1//EN" "http://www.w3.org/Graphics/SVG/1.1/DTD/svg11.dtd">
<svg version="1.1" id="Layer_1" xmlns="http://www.w3.org/2000/svg" xmlns:xlink="http://www.w3.org/1999/xlink" x="0px" y="0px"
	 width="256px" height="256px" viewBox="0 0 256 256" enable-background="new 0 0 256 256" xml:space="preserve">
<rect x="15.5" y="73" fill="#FFFFFF" width="224" height="176.5"/>
<g>
	<g>
		<path d="M39.442,235.667v-33.644H53.74c3.595,0,6.208,0.303,7.837,0.906c1.629,0.604,2.933,1.68,3.913,3.225
			c0.979,1.546,1.469,3.313,1.469,5.302c0,2.522-0.742,4.608-2.226,6.253c-1.484,1.646-3.703,2.682-6.655,3.109
			c1.469,0.857,2.681,1.799,3.638,2.822c0.956,1.025,2.245,2.846,3.867,5.463l4.108,6.563h-8.124l-4.911-7.32
			c-1.744-2.617-2.938-4.265-3.58-4.945c-0.643-0.682-1.324-1.147-2.042-1.399c-0.719-0.253-1.859-0.379-3.419-0.379h-1.377v14.045
			H39.442L39.442,235.667z M46.235,216.252h5.026c3.259,0,5.293-0.139,6.104-0.413c0.811-0.274,1.446-0.749,1.905-1.423
			c0.459-0.673,0.688-1.516,0.688-2.523c0-1.133-0.302-2.047-0.906-2.742c-0.605-0.696-1.458-1.137-2.559-1.32
			c-0.551-0.076-2.203-0.114-4.957-0.114h-5.301V216.252z"/>
	</g>
</g>
<g>
	<rect x="90" y="189" fill="#FFCC00" width="74" height="61"/>
	<g>
		<path d="M144.258,235.667h-7.389l-2.938-7.644h-13.45l-2.776,7.644H110.5l13.104-33.644h7.184L144.258,235.667z M131.751,222.355
			l-4.636-12.483l-4.544,12.483H131.751z"/>
	</g>
</g>
<g>
	<g>
		<path d="M202.07,223.297v-5.669h14.643v13.401c-1.424,1.377-3.484,2.591-6.186,3.639s-5.437,1.572-8.204,1.572
			c-3.521,0-6.587-0.738-9.202-2.215c-2.617-1.478-4.583-3.588-5.898-6.334s-1.974-5.733-1.974-8.963
			c0-3.502,0.733-6.617,2.203-9.34c1.469-2.724,3.618-4.812,6.448-6.266c2.158-1.116,4.843-1.676,8.056-1.676
			c4.177,0,7.438,0.877,9.788,2.628c2.348,1.752,3.857,4.174,4.531,7.264l-6.746,1.263c-0.475-1.652-1.365-2.957-2.674-3.912
			c-1.309-0.957-2.941-1.436-4.899-1.436c-2.97,0-5.328,0.939-7.08,2.823c-1.752,1.881-2.628,4.674-2.628,8.376
			c0,3.992,0.889,6.988,2.662,8.984c1.775,1.996,4.102,2.994,6.977,2.994c1.424,0,2.85-0.279,4.28-0.838
			c1.431-0.558,2.658-1.234,3.685-2.031v-4.268h-7.781V223.297z"/>
	</g>
</g>
<path d="M181,67.188V0H75v67.188H9.672V256h236.609V67.188H181z M85.5,245H20.672v-51.5H85.5V245z M163,245H92.5v-51.5H163V245z
	 M235.281,245H170v-51.5h65.281V245z M235.281,182.5H20.672V78.188h214.609V182.5L235.281,182.5z"/>
<g>
	<path d="M71,124V96.799h20.169v4.602H76.492v6.03h13.656v4.583H76.492v7.403h15.196V124H71z"/>
	<path d="M96.309,124V96.799h5.214V124H96.309z"/>
	<path d="M116.069,115.149l5.344-0.52c0.321,1.794,0.974,3.111,1.958,3.952c0.983,0.842,2.31,1.262,3.98,1.262
		c1.769,0,3.102-0.374,3.999-1.123c0.896-0.748,1.346-1.623,1.346-2.625c0-0.643-0.189-1.19-0.566-1.643
		c-0.377-0.451-1.035-0.844-1.977-1.178c-0.644-0.223-2.108-0.618-4.396-1.188c-2.944-0.729-5.01-1.626-6.197-2.69
		c-1.67-1.496-2.505-3.321-2.505-5.474c0-1.385,0.393-2.682,1.178-3.887c0.785-1.207,1.917-2.125,3.396-2.756
		c1.478-0.631,3.262-0.946,5.353-0.946c3.414,0,5.984,0.749,7.708,2.245c1.728,1.497,2.633,3.495,2.72,5.993l-5.492,0.241
		c-0.235-1.397-0.739-2.402-1.513-3.016c-0.772-0.611-1.933-0.918-3.479-0.918c-1.596,0-2.845,0.328-3.748,0.983
		c-0.582,0.421-0.872,0.983-0.872,1.688c0,0.644,0.272,1.194,0.816,1.651c0.692,0.582,2.375,1.188,5.047,1.818
		s4.647,1.283,5.929,1.958c1.28,0.674,2.282,1.596,3.006,2.764c0.725,1.17,1.086,2.614,1.086,4.333c0,1.559-0.435,3.019-1.299,4.379
		c-0.867,1.361-2.092,2.372-3.675,3.034c-1.584,0.661-3.557,0.992-5.919,0.992c-3.439,0-6.08-0.795-7.923-2.385
		C117.529,120.509,116.428,118.192,116.069,115.149z"/>
	<path d="M155.738,124v-2.95c-0.717,1.052-1.659,1.881-2.829,2.486c-1.168,0.605-2.402,0.909-3.701,0.909
		c-1.324,0-2.513-0.291-3.563-0.872c-1.052-0.581-1.813-1.397-2.281-2.449c-0.471-1.051-0.705-2.505-0.705-4.36v-12.469h5.214v9.055
		c0,2.771,0.096,4.469,0.287,5.094c0.19,0.624,0.541,1.119,1.049,1.484c0.507,0.364,1.149,0.547,1.931,0.547
		c0.891,0,1.688-0.244,2.393-0.732c0.705-0.489,1.189-1.096,1.447-1.818c0.26-0.725,0.391-2.496,0.391-5.316v-8.313h5.214V124
		H155.738z"/>
	<path d="M165.759,124V96.799h5.214v9.797c1.608-1.83,3.514-2.746,5.715-2.746c2.399,0,4.385,0.869,5.957,2.607
		c1.569,1.737,2.355,4.233,2.355,7.486c0,3.365-0.803,5.956-2.402,7.774c-1.602,1.818-3.548,2.728-5.836,2.728
		c-1.125,0-2.234-0.281-3.33-0.844c-1.095-0.563-2.037-1.395-2.83-2.496V124H165.759z M170.936,113.721
		c0,2.041,0.321,3.551,0.965,4.527c0.904,1.386,2.104,2.078,3.601,2.078c1.149,0,2.13-0.492,2.94-1.475
		c0.811-0.984,1.216-2.533,1.216-4.648c0-2.251-0.408-3.875-1.226-4.871c-0.815-0.995-1.861-1.493-3.136-1.493
		c-1.25,0-2.289,0.485-3.116,1.456C171.35,110.267,170.936,111.742,170.936,113.721z"/>
</g>
<g>
	<path d="M99.76,157.148l5.344-0.52c0.321,1.794,0.974,3.111,1.957,3.952c0.983,0.842,2.311,1.262,3.98,1.262
		c1.769,0,3.102-0.374,3.998-1.122s1.346-1.623,1.346-2.625c0-0.644-0.189-1.191-0.566-1.644c-0.377-0.451-1.036-0.845-1.976-1.179
		c-0.644-0.223-2.109-0.617-4.397-1.188c-2.944-0.729-5.01-1.626-6.197-2.689c-1.67-1.496-2.505-3.321-2.505-5.475
		c0-1.385,0.393-2.682,1.178-3.887c0.785-1.207,1.917-2.125,3.396-2.756s3.263-0.946,5.354-0.946c3.414,0,5.983,0.749,7.709,2.245
		c1.726,1.497,2.632,3.494,2.719,5.992l-5.492,0.242c-0.235-1.397-0.739-2.402-1.513-3.017c-0.773-0.61-1.933-0.918-3.479-0.918
		c-1.596,0-2.846,0.328-3.748,0.983c-0.582,0.42-0.872,0.982-0.872,1.688c0,0.645,0.271,1.194,0.816,1.651
		c0.692,0.581,2.375,1.188,5.047,1.817c2.672,0.631,4.647,1.283,5.928,1.959c1.28,0.674,2.282,1.596,3.006,2.764
		c0.724,1.17,1.086,2.613,1.086,4.332c0,1.56-0.434,3.02-1.299,4.38c-0.866,1.36-2.091,2.372-3.674,3.034
		c-1.584,0.66-3.557,0.992-5.919,0.992c-3.439,0-6.08-0.795-7.923-2.386C101.219,162.509,100.118,160.191,99.76,157.148z"/>
	<path d="M135.496,146.295v4.156h-3.563v7.941c0,1.607,0.032,2.545,0.102,2.811c0.068,0.268,0.223,0.486,0.464,0.658
		c0.241,0.175,0.534,0.261,0.882,0.261c0.482,0,1.182-0.167,2.096-0.501l0.445,4.045c-1.212,0.52-2.585,0.779-4.119,0.779
		c-0.939,0-1.787-0.158-2.541-0.473c-0.755-0.316-1.309-0.726-1.661-1.226c-0.353-0.502-0.597-1.179-0.732-2.032
		c-0.111-0.605-0.167-1.83-0.167-3.674v-8.591h-2.394v-4.156h2.394v-3.915l5.231-3.043v6.958L135.496,146.295L135.496,146.295z"/>
	<path d="M143.01,152.307l-4.73-0.854c0.531-1.904,1.447-3.314,2.746-4.23c1.3-0.914,3.229-1.373,5.789-1.373
		c2.324,0,4.058,0.275,5.195,0.826c1.137,0.551,1.938,1.249,2.402,2.096c0.464,0.849,0.695,2.403,0.695,4.668l-0.055,6.086
		c0,1.731,0.082,3.009,0.25,3.83c0.166,0.824,0.479,1.705,0.938,2.646h-5.158c-0.137-0.347-0.305-0.858-0.502-1.54
		c-0.086-0.309-0.148-0.514-0.186-0.611c-0.892,0.865-1.844,1.516-2.857,1.947c-1.014,0.434-2.096,0.648-3.246,0.648
		c-2.029,0-3.628-0.549-4.797-1.65s-1.754-2.492-1.754-4.175c0-1.113,0.266-2.104,0.799-2.979c0.531-0.871,1.275-1.539,2.234-2.004
		c0.959-0.463,2.342-0.867,4.147-1.215c2.437-0.457,4.125-0.884,5.063-1.279v-0.521c0-1.002-0.246-1.716-0.741-2.144
		c-0.494-0.426-1.429-0.641-2.802-0.641c-0.928,0-1.651,0.184-2.172,0.549C143.752,150.751,143.332,151.393,143.01,152.307z
		 M149.986,156.537c-0.668,0.223-1.725,0.488-3.172,0.798s-2.396,0.612-2.84,0.909c-0.681,0.482-1.021,1.095-1.021,1.837
		c0,0.729,0.271,1.36,0.815,1.894c0.543,0.531,1.236,0.797,2.078,0.797c0.939,0,1.836-0.309,2.689-0.928
		c0.631-0.47,1.045-1.045,1.244-1.726c0.135-0.445,0.203-1.292,0.203-2.542v-1.039H149.986z"/>
</g>
</svg>
