<?xml version="1.0" encoding="utf-8"?>
<!-- Generator: Adobe Illustrator 16.0.0, SVG Export Plug-In . SVG Version: 6.00 Build 0)  -->
<!DOCTYPE svg PUBLIC "-//W3C//DTD SVG 1.1//EN" "http://www.w3.org/Graphics/SVG/1.1/DTD/svg11.dtd">
<svg version="1.1" id="Layer_2" xmlns="http://www.w3.org/2000/svg" xmlns:xlink="http://www.w3.org/1999/xlink" x="0px" y="0px"
	 width="256px" height="193.445px" viewBox="0 0 256 193.445" enable-background="new 0 0 256 193.445" xml:space="preserve">
<rect x="16.531" y="72.822" fill="#FFFFFF" width="224.048" height="115.799"/>
<path d="M181.023,67.188V0H74.977v67.188H9.688v126.281h236.578V67.188H181.023z M235.266,182.469H20.688V78.188h214.578V182.469z"
	/>
<g>
	<path d="M71,124V96.799h20.169v4.603H76.492v6.03h13.656v4.583H76.492v7.402h15.196V124H71z"/>
	<path d="M96.309,124V96.799h5.214V124H96.309z"/>
	<path d="M116.069,115.149l5.344-0.521c0.321,1.794,0.974,3.111,1.958,3.952c0.983,0.842,2.31,1.263,3.98,1.263
		c1.769,0,3.102-0.374,3.999-1.123c0.896-0.748,1.346-1.623,1.346-2.625c0-0.644-0.188-1.19-0.565-1.644
		c-0.377-0.451-1.034-0.844-1.978-1.178c-0.644-0.223-2.107-0.618-4.396-1.188c-2.944-0.729-5.01-1.626-6.197-2.689
		c-1.67-1.496-2.505-3.321-2.505-5.475c0-1.385,0.393-2.682,1.178-3.887c0.785-1.207,1.917-2.125,3.396-2.756
		c1.478-0.631,3.262-0.946,5.353-0.946c3.415,0,5.984,0.749,7.708,2.245c1.729,1.497,2.633,3.495,2.721,5.993l-5.492,0.241
		c-0.234-1.397-0.738-2.402-1.514-3.017c-0.771-0.61-1.932-0.918-3.479-0.918c-1.596,0-2.845,0.328-3.748,0.983
		c-0.582,0.421-0.872,0.983-0.872,1.688c0,0.645,0.272,1.194,0.816,1.651c0.692,0.582,2.375,1.188,5.047,1.818
		s4.647,1.283,5.929,1.958c1.28,0.674,2.282,1.596,3.006,2.764c0.726,1.17,1.086,2.614,1.086,4.333c0,1.559-0.435,3.019-1.299,4.379
		c-0.867,1.361-2.092,2.372-3.675,3.034c-1.584,0.661-3.557,0.992-5.919,0.992c-3.439,0-6.08-0.795-7.923-2.385
		C117.529,120.509,116.428,118.192,116.069,115.149z"/>
	<path d="M155.738,124v-2.95c-0.717,1.053-1.659,1.882-2.829,2.486c-1.168,0.605-2.402,0.909-3.701,0.909
		c-1.324,0-2.513-0.291-3.563-0.872c-1.052-0.581-1.813-1.397-2.281-2.449c-0.471-1.051-0.704-2.505-0.704-4.359v-12.47h5.214v9.056
		c0,2.771,0.096,4.469,0.287,5.094c0.189,0.624,0.541,1.119,1.049,1.484c0.507,0.363,1.148,0.547,1.932,0.547
		c0.891,0,1.688-0.244,2.393-0.732c0.705-0.489,1.189-1.096,1.447-1.818c0.26-0.725,0.391-2.495,0.391-5.315v-8.313h5.214V124
		H155.738z"/>
	<path d="M165.759,124V96.799h5.214v9.798c1.608-1.83,3.514-2.746,5.715-2.746c2.399,0,4.385,0.869,5.957,2.606
		c1.569,1.737,2.355,4.233,2.355,7.486c0,3.365-0.803,5.956-2.402,7.773c-1.602,1.818-3.548,2.729-5.836,2.729
		c-1.125,0-2.234-0.281-3.33-0.844c-1.095-0.563-2.037-1.396-2.83-2.496V124H165.759z M170.936,113.721
		c0,2.041,0.321,3.551,0.965,4.526c0.904,1.386,2.104,2.078,3.602,2.078c1.148,0,2.13-0.492,2.939-1.475
		c0.812-0.984,1.217-2.533,1.217-4.648c0-2.251-0.408-3.875-1.227-4.871c-0.814-0.995-1.861-1.493-3.136-1.493
		c-1.25,0-2.289,0.485-3.116,1.456C171.35,110.267,170.936,111.742,170.936,113.721z"/>
</g>
<g>
	<path d="M99.76,157.148l5.344-0.521c0.321,1.794,0.974,3.111,1.957,3.952c0.983,0.842,2.311,1.262,3.98,1.262
		c1.769,0,3.102-0.374,3.998-1.121c0.896-0.748,1.346-1.623,1.346-2.625c0-0.645-0.189-1.191-0.566-1.645
		c-0.377-0.451-1.036-0.845-1.976-1.179c-0.644-0.224-2.109-0.617-4.397-1.188c-2.944-0.729-5.01-1.626-6.197-2.688
		c-1.67-1.496-2.505-3.321-2.505-5.476c0-1.385,0.393-2.682,1.178-3.887c0.785-1.207,1.917-2.125,3.396-2.756
		s3.263-0.946,5.354-0.946c3.414,0,5.983,0.749,7.709,2.245c1.726,1.497,2.632,3.494,2.719,5.992l-5.492,0.242
		c-0.235-1.397-0.739-2.402-1.513-3.018c-0.773-0.609-1.933-0.918-3.479-0.918c-1.596,0-2.846,0.328-3.748,0.983
		c-0.582,0.42-0.872,0.981-0.872,1.688c0,0.646,0.271,1.194,0.816,1.651c0.692,0.581,2.375,1.188,5.047,1.817
		c2.672,0.631,4.647,1.282,5.928,1.959c1.28,0.674,2.282,1.596,3.006,2.764c0.724,1.17,1.086,2.613,1.086,4.332
		c0,1.56-0.434,3.02-1.299,4.38c-0.866,1.36-2.091,2.372-3.674,3.034c-1.584,0.66-3.557,0.992-5.919,0.992
		c-3.439,0-6.08-0.795-7.923-2.387C101.219,162.509,100.118,160.191,99.76,157.148z"/>
	<path d="M135.496,146.295v4.156h-3.563v7.941c0,1.606,0.031,2.545,0.102,2.811c0.068,0.269,0.223,0.486,0.464,0.658
		c0.241,0.175,0.534,0.261,0.882,0.261c0.482,0,1.182-0.167,2.096-0.501l0.445,4.045c-1.212,0.521-2.585,0.779-4.119,0.779
		c-0.939,0-1.787-0.158-2.541-0.473c-0.755-0.316-1.309-0.727-1.661-1.227c-0.353-0.502-0.597-1.179-0.732-2.032
		c-0.111-0.604-0.167-1.83-0.167-3.674v-8.591h-2.394v-4.156h2.394v-3.915l5.231-3.043v6.958L135.496,146.295L135.496,146.295z"/>
	<path d="M143.01,152.307l-4.73-0.854c0.531-1.904,1.447-3.313,2.746-4.229c1.301-0.914,3.229-1.373,5.789-1.373
		c2.324,0,4.059,0.274,5.195,0.826c1.137,0.551,1.938,1.248,2.402,2.096c0.464,0.849,0.695,2.402,0.695,4.668l-0.055,6.086
		c0,1.73,0.081,3.009,0.25,3.83c0.166,0.824,0.479,1.705,0.938,2.646h-5.158c-0.137-0.347-0.305-0.857-0.502-1.54
		c-0.086-0.309-0.148-0.514-0.186-0.61c-0.893,0.864-1.845,1.516-2.857,1.946c-1.014,0.435-2.096,0.648-3.246,0.648
		c-2.029,0-3.628-0.549-4.797-1.65c-1.169-1.101-1.754-2.491-1.754-4.175c0-1.113,0.266-2.104,0.799-2.979
		c0.531-0.871,1.275-1.539,2.234-2.004c0.959-0.464,2.342-0.867,4.146-1.216c2.438-0.457,4.125-0.884,5.063-1.278v-0.521
		c0-1.002-0.246-1.716-0.74-2.144c-0.494-0.426-1.43-0.642-2.803-0.642c-0.928,0-1.65,0.185-2.172,0.55
		C143.752,150.751,143.332,151.393,143.01,152.307z M149.986,156.537c-0.668,0.224-1.725,0.488-3.172,0.798
		c-1.447,0.311-2.396,0.612-2.84,0.909c-0.682,0.482-1.021,1.095-1.021,1.837c0,0.729,0.271,1.36,0.814,1.895
		c0.543,0.53,1.236,0.797,2.078,0.797c0.939,0,1.836-0.31,2.689-0.928c0.631-0.471,1.045-1.046,1.244-1.727
		c0.135-0.445,0.203-1.292,0.203-2.542v-1.039H149.986z"/>
</g>
</svg>
