<?xml version="1.0" encoding="utf-8"?>
<!-- Generator: Adobe Illustrator 16.0.0, SVG Export Plug-In . SVG Version: 6.00 Build 0)  -->
<!DOCTYPE svg PUBLIC "-//W3C//DTD SVG 1.1//EN" "http://www.w3.org/Graphics/SVG/1.1/DTD/svg11.dtd">
<svg version="1.1" id="Layer_2" xmlns="http://www.w3.org/2000/svg" xmlns:xlink="http://www.w3.org/1999/xlink" x="0px" y="0px"
	 width="256px" height="193.445px" viewBox="0 0 256 193.445" enable-background="new 0 0 256 193.445" xml:space="preserve">
<rect x="15.734" y="70.566" fill="#FFFFFF" width="224.048" height="115.799"/>
<path d="M181.023,67.188V0H74.977v67.188H9.688v126.281h236.578V67.188H181.023z M235.266,182.469H20.688V78.188h214.578V182.469z"
	/>
<g>
	<path d="M78.213,137.734v-6.994h18.068v16.539c-1.756,1.699-4.3,3.195-7.632,4.488c-3.333,1.293-6.708,1.938-10.125,1.938
		c-4.343,0-8.128-0.911-11.356-2.731c-3.229-1.822-5.655-4.429-7.278-7.816c-1.624-3.389-2.436-7.075-2.436-11.059
		c0-4.324,0.906-8.167,2.719-11.527s4.465-5.938,7.958-7.731c2.662-1.378,5.976-2.066,9.94-2.066c5.154,0,9.18,1.081,12.079,3.243
		c2.898,2.161,4.762,5.148,5.593,8.963l-8.326,1.558c-0.585-2.039-1.685-3.647-3.299-4.829c-1.614-1.18-3.63-1.77-6.046-1.77
		c-3.663,0-6.575,1.161-8.737,3.482c-2.162,2.322-3.243,5.769-3.243,10.337c0,4.929,1.095,8.623,3.285,11.089
		c2.19,2.463,5.06,3.694,8.609,3.694c1.756,0,3.516-0.346,5.282-1.033c1.765-0.688,3.28-1.524,4.545-2.507v-5.269L78.213,137.734
		L78.213,137.734z"/>
	<path d="M109.903,132.1l-7.222-1.304c0.812-2.906,2.209-5.06,4.191-6.457c1.982-1.396,4.928-2.096,8.836-2.096
		c3.549,0,6.192,0.42,7.93,1.26c1.737,0.842,2.959,1.907,3.667,3.201c0.708,1.293,1.062,3.667,1.062,7.122l-0.085,9.289
		c0,2.645,0.127,4.593,0.383,5.849c0.254,1.257,0.729,2.603,1.431,4.035h-7.874c-0.208-0.526-0.463-1.313-0.765-2.352
		c-0.132-0.471-0.227-0.782-0.283-0.936c-1.359,1.321-2.813,2.313-4.361,2.975c-1.548,0.662-3.2,0.992-4.956,0.992
		c-3.097,0-5.537-0.842-7.321-2.521c-1.784-1.682-2.676-3.805-2.676-6.372c0-1.699,0.406-3.216,1.218-4.545
		c0.812-1.332,1.949-2.353,3.413-3.06c1.463-0.709,3.573-1.326,6.33-1.854c3.719-0.698,6.296-1.351,7.731-1.954v-0.793
		c0-1.528-0.378-2.62-1.133-3.271c-0.755-0.651-2.181-0.979-4.276-0.979c-1.416,0-2.521,0.278-3.313,0.835
		C111.036,129.727,110.394,130.702,109.903,132.1z M120.552,138.557c-1.02,0.34-2.634,0.746-4.843,1.219
		c-2.209,0.472-3.653,0.935-4.333,1.388c-1.039,0.735-1.558,1.671-1.558,2.805c0,1.113,0.415,2.076,1.246,2.889
		s1.888,1.219,3.172,1.219c1.435,0,2.804-0.473,4.106-1.416c0.963-0.719,1.595-1.596,1.897-2.635
		c0.208-0.68,0.312-1.973,0.312-3.879v-1.588L120.552,138.557L120.552,138.557z"/>
	<path d="M133.409,144.419l7.985-1.218c0.34,1.548,1.027,2.724,2.066,3.525c1.038,0.803,2.492,1.203,4.359,1.203
		c2.06,0,3.605-0.377,4.646-1.134c0.698-0.526,1.049-1.235,1.049-2.124c0-0.604-0.188-1.104-0.565-1.501
		c-0.396-0.378-1.284-0.727-2.662-1.048c-6.419-1.416-10.488-2.709-12.206-3.88c-2.379-1.624-3.568-3.881-3.568-6.77
		c0-2.604,1.029-4.795,3.088-6.57c2.059-1.774,5.248-2.662,9.571-2.662c4.116,0,7.175,0.67,9.177,2.011
		c2,1.341,3.379,3.323,4.135,5.947l-7.506,1.388c-0.319-1.171-0.93-2.066-1.826-2.689c-0.896-0.623-2.176-0.936-3.838-0.936
		c-2.096,0-3.596,0.293-4.502,0.878c-0.604,0.415-0.905,0.953-0.905,1.614c0,0.565,0.265,1.048,0.793,1.444
		c0.718,0.526,3.194,1.272,7.435,2.235c4.238,0.964,7.197,2.144,8.879,3.541c1.66,1.415,2.491,3.39,2.491,5.919
		c0,2.758-1.149,5.127-3.455,7.107c-2.304,1.981-5.712,2.974-10.224,2.974c-4.1,0-7.342-0.829-9.729-2.491
		C135.707,149.525,134.146,147.27,133.409,144.419z"/>
	<path d="M177.872,153v-34.494h-12.319v-7.022h32.993v7.022h-12.291V153H177.872z"/>
</g>
</svg>
