<?xml version="1.0" encoding="utf-8"?>
<!-- Generator: Adobe Illustrator 16.0.0, SVG Export Plug-In . SVG Version: 6.00 Build 0)  -->
<!DOCTYPE svg PUBLIC "-//W3C//DTD SVG 1.1//EN" "http://www.w3.org/Graphics/SVG/1.1/DTD/svg11.dtd">
<svg version="1.1" id="Layer_1" xmlns="http://www.w3.org/2000/svg" xmlns:xlink="http://www.w3.org/1999/xlink" x="0px" y="0px"
	 width="256px" height="256px" viewBox="0 0 256 256" enable-background="new 0 0 256 256" xml:space="preserve">
<rect x="15.5" y="73" fill="#FFFFFF" width="224" height="176.5"/>
<g>
	<g>
		<path d="M39.442,235.667v-33.644H53.74c3.595,0,6.208,0.303,7.837,0.906c1.629,0.604,2.933,1.68,3.913,3.225
			c0.979,1.546,1.469,3.313,1.469,5.302c0,2.522-0.742,4.608-2.226,6.253c-1.484,1.646-3.703,2.682-6.655,3.109
			c1.469,0.857,2.681,1.799,3.638,2.822c0.956,1.025,2.245,2.846,3.867,5.463l4.108,6.563h-8.124l-4.911-7.32
			c-1.744-2.617-2.938-4.265-3.58-4.945c-0.643-0.682-1.324-1.147-2.042-1.399c-0.719-0.253-1.859-0.379-3.419-0.379h-1.377v14.045
			H39.442L39.442,235.667z M46.235,216.252h5.026c3.259,0,5.293-0.139,6.104-0.413c0.811-0.274,1.446-0.749,1.905-1.423
			c0.459-0.673,0.688-1.516,0.688-2.523c0-1.133-0.302-2.047-0.906-2.742c-0.605-0.696-1.458-1.137-2.559-1.32
			c-0.551-0.076-2.203-0.114-4.957-0.114h-5.301V216.252z"/>
	</g>
</g>
<g>
	<rect x="90" y="189" fill="#FFCC00" width="74" height="61"/>
	<g>
		<path d="M144.258,235.667h-7.389l-2.938-7.644h-13.45l-2.776,7.644H110.5l13.104-33.644h7.184L144.258,235.667z M131.751,222.355
			l-4.636-12.483l-4.544,12.483H131.751z"/>
	</g>
</g>
<g>
	<g>
		<path d="M202.07,223.297v-5.669h14.643v13.401c-1.424,1.377-3.484,2.591-6.186,3.639s-5.437,1.572-8.204,1.572
			c-3.521,0-6.587-0.738-9.202-2.215c-2.617-1.478-4.583-3.588-5.898-6.334s-1.974-5.733-1.974-8.963
			c0-3.502,0.733-6.617,2.203-9.34c1.469-2.724,3.618-4.812,6.448-6.266c2.158-1.116,4.843-1.676,8.056-1.676
			c4.177,0,7.438,0.877,9.788,2.628c2.348,1.752,3.857,4.174,4.531,7.264l-6.746,1.263c-0.475-1.652-1.365-2.957-2.674-3.912
			c-1.309-0.957-2.941-1.436-4.899-1.436c-2.97,0-5.328,0.939-7.08,2.823c-1.752,1.881-2.628,4.674-2.628,8.376
			c0,3.992,0.889,6.988,2.662,8.984c1.775,1.996,4.102,2.994,6.977,2.994c1.424,0,2.85-0.279,4.28-0.838
			c1.431-0.558,2.658-1.234,3.685-2.031v-4.268h-7.781V223.297z"/>
	</g>
</g>
<path d="M181,67.188V0H75v67.188H9.672V256h236.609V67.188H181z M85.5,245H20.672v-51.5H85.5V245z M163,245H92.5v-51.5H163V245z
	 M235.281,245H170v-51.5h65.281V245z M235.281,182.5H20.672V78.188h214.609V182.5L235.281,182.5z"/>
<g>
	<path d="M65.097,136.229v-6.151h15.888v14.543c-1.544,1.493-3.781,2.812-6.711,3.946c-2.93,1.137-5.898,1.707-8.902,1.707
		c-3.819,0-7.147-0.801-9.986-2.403c-2.839-1.603-4.972-3.894-6.4-6.873c-1.428-2.979-2.142-6.222-2.142-9.726
		c0-3.801,0.797-7.18,2.391-10.135c1.594-2.954,3.926-5.221,6.998-6.798c2.341-1.212,5.254-1.817,8.741-1.817
		c4.532,0,8.072,0.95,10.621,2.851c2.548,1.901,4.187,4.528,4.918,7.882l-7.321,1.369c-0.515-1.793-1.481-3.208-2.901-4.245
		c-1.419-1.037-3.191-1.557-5.316-1.557c-3.221,0-5.782,1.021-7.683,3.063c-1.901,2.041-2.851,5.071-2.851,9.089
		c0,4.334,0.962,7.584,2.889,9.75c1.926,2.166,4.449,3.25,7.57,3.25c1.544,0,3.092-0.304,4.644-0.91
		c1.552-0.604,2.885-1.34,3.997-2.203v-4.631H65.097z"/>
	<path d="M92.962,131.271l-6.35-1.146c0.713-2.557,1.942-4.449,3.686-5.678c1.744-1.229,4.333-1.843,7.77-1.843
		c3.121,0,5.445,0.37,6.973,1.108c1.527,0.738,2.603,1.677,3.225,2.813c0.623,1.138,0.934,3.226,0.934,6.263l-0.075,8.168
		c0,2.325,0.112,4.039,0.336,5.144c0.225,1.104,0.644,2.287,1.258,3.549h-6.923c-0.183-0.465-0.407-1.153-0.672-2.066
		c-0.116-0.415-0.199-0.689-0.249-0.822c-1.195,1.162-2.474,2.034-3.835,2.615c-1.361,0.58-2.814,0.871-4.358,0.871
		c-2.723,0-4.868-0.738-6.438-2.217c-1.568-1.477-2.353-3.346-2.353-5.604c0-1.494,0.357-2.826,1.071-3.996
		c0.713-1.17,1.714-2.066,3.001-2.689c1.286-0.622,3.141-1.166,5.565-1.631c3.271-0.614,5.537-1.188,6.798-1.719v-0.697
		c0-1.344-0.333-2.303-0.996-2.877c-0.664-0.571-1.917-0.857-3.76-0.857c-1.245,0-2.216,0.245-2.914,0.734
		C93.958,129.182,93.394,130.043,92.962,131.271z M102.326,136.949c-0.896,0.299-2.316,0.656-4.258,1.07
		c-1.942,0.416-3.212,0.821-3.81,1.221c-0.913,0.646-1.37,1.47-1.37,2.466c0,0.979,0.365,1.826,1.096,2.539
		c0.73,0.715,1.66,1.071,2.789,1.071c1.261,0,2.465-0.416,3.611-1.246c0.847-0.631,1.403-1.401,1.668-2.315
		c0.183-0.598,0.274-1.733,0.274-3.411V136.949z"/>
	<path d="M113.631,142.104l7.022-1.07c0.299,1.361,0.905,2.395,1.818,3.101c0.913,0.706,2.191,1.06,3.835,1.06
		c1.809,0,3.172-0.332,4.084-0.996c0.612-0.465,0.922-1.088,0.922-1.868c0-0.531-0.166-0.972-0.498-1.319
		c-0.351-0.332-1.129-0.64-2.341-0.922c-5.645-1.244-9.223-2.382-10.733-3.412c-2.092-1.427-3.138-3.41-3.138-5.951
		c0-2.291,0.905-4.217,2.714-5.777c1.809-1.561,4.615-2.341,8.417-2.341c3.621,0,6.309,0.59,8.069,1.769
		c1.761,1.179,2.972,2.922,3.636,5.229l-6.599,1.221c-0.282-1.029-0.817-1.818-1.606-2.365c-0.79-0.549-1.915-0.822-3.375-0.822
		c-1.843,0-3.163,0.258-3.959,0.771c-0.532,0.365-0.797,0.839-0.797,1.42c0,0.498,0.232,0.922,0.697,1.27
		c0.631,0.467,2.81,1.121,6.537,1.969c3.727,0.847,6.33,1.885,7.807,3.111c1.461,1.246,2.19,2.98,2.19,5.205
		c0,2.424-1.013,4.508-3.037,6.25c-2.024,1.744-5.021,2.615-8.99,2.615c-3.603,0-6.454-0.73-8.554-2.191
		S114.279,144.611,113.631,142.104z"/>
	<path d="M167.869,136.229l7.146,2.266c-1.097,3.984-2.918,6.943-5.466,8.878c-2.549,1.935-5.782,2.901-9.698,2.901
		c-4.851,0-8.834-1.656-11.953-4.969c-3.123-3.313-4.683-7.841-4.683-13.584c0-6.077,1.568-10.796,4.705-14.158
		c3.14-3.361,7.265-5.042,12.377-5.042c4.466,0,8.095,1.319,10.884,3.959c1.659,1.561,2.903,3.802,3.733,6.724l-7.295,1.743
		c-0.435-1.893-1.334-3.387-2.703-4.482c-1.369-1.095-3.033-1.644-4.992-1.644c-2.707,0-4.901,0.972-6.588,2.913
		c-1.685,1.943-2.526,5.089-2.526,9.438c0,4.615,0.83,7.902,2.489,9.861c1.66,1.959,3.818,2.938,6.476,2.938
		c1.959,0,3.645-0.623,5.057-1.867C166.242,140.857,167.254,138.9,167.869,136.229z"/>
	<path d="M179.473,137.771l7.172-0.697c0.433,2.408,1.31,4.176,2.627,5.305c1.32,1.129,3.103,1.693,5.342,1.693
		c2.375,0,4.162-0.502,5.367-1.508c1.203-1.004,1.806-2.178,1.806-3.522c0-0.862-0.252-1.599-0.761-2.204
		c-0.506-0.605-1.391-1.133-2.649-1.581c-0.864-0.299-2.832-0.829-5.901-1.594c-3.951-0.979-6.726-2.183-8.318-3.61
		c-2.24-2.009-3.361-4.458-3.361-7.347c0-1.859,0.527-3.599,1.582-5.217c1.053-1.619,2.572-2.852,4.557-3.698
		c1.982-0.847,4.379-1.27,7.185-1.27c4.582,0,8.03,1.004,10.348,3.013c2.317,2.009,3.531,4.69,3.648,8.044l-7.371,0.323
		c-0.315-1.876-0.992-3.225-2.029-4.047c-1.039-0.821-2.596-1.232-4.67-1.232c-2.142,0-3.817,0.44-5.028,1.319
		c-0.781,0.565-1.172,1.32-1.172,2.267c0,0.863,0.364,1.603,1.096,2.216c0.93,0.781,3.188,1.594,6.772,2.441
		c3.586,0.846,6.238,1.722,7.957,2.627c1.72,0.904,3.063,2.142,4.033,3.71c0.973,1.569,1.457,3.508,1.457,5.815
		c0,2.092-0.58,4.051-1.742,5.877s-2.808,3.184-4.933,4.07s-4.772,1.332-7.942,1.332c-4.614,0-8.16-1.066-10.633-3.199
		C181.432,144.964,179.955,141.854,179.473,137.771z"/>
</g>
</svg>
