<?xml version="1.0" encoding="utf-8"?>
<!-- Generator: Adobe Illustrator 16.0.0, SVG Export Plug-In . SVG Version: 6.00 Build 0)  -->
<!DOCTYPE svg PUBLIC "-//W3C//DTD SVG 1.1//EN" "http://www.w3.org/Graphics/SVG/1.1/DTD/svg11.dtd">
<svg version="1.1" id="Layer_2" xmlns="http://www.w3.org/2000/svg" xmlns:xlink="http://www.w3.org/1999/xlink" x="0px" y="0px"
	 width="256px" height="193.445px" viewBox="0 0 256 193.445" enable-background="new 0 0 256 193.445" xml:space="preserve">
<rect x="15.213" y="72.907" fill="#FFFFFF" width="224.048" height="115.799"/>
<path d="M181.023,67.188V0H74.977v67.188H9.688v126.281h236.578V67.188H181.023z M235.266,182.469H20.688V78.188h214.578V182.469z"
	/>
<g>
	<path d="M65.096,136.229v-6.151h15.888v14.543c-1.544,1.493-3.781,2.813-6.711,3.946c-2.93,1.137-5.898,1.707-8.902,1.707
		c-3.818,0-7.146-0.801-9.985-2.403c-2.84-1.603-4.973-3.894-6.4-6.873c-1.427-2.979-2.142-6.222-2.142-9.726
		c0-3.801,0.797-7.181,2.391-10.135c1.594-2.954,3.926-5.222,6.998-6.799c2.341-1.212,5.254-1.816,8.741-1.816
		c4.531,0,8.071,0.95,10.621,2.851c2.548,1.901,4.187,4.528,4.918,7.882l-7.321,1.369c-0.515-1.793-1.481-3.208-2.901-4.245
		c-1.419-1.037-3.19-1.557-5.315-1.557c-3.222,0-5.782,1.021-7.684,3.063c-1.9,2.041-2.851,5.07-2.851,9.089
		c0,4.334,0.962,7.584,2.889,9.75c1.926,2.166,4.449,3.25,7.57,3.25c1.544,0,3.092-0.305,4.644-0.91
		c1.553-0.604,2.886-1.34,3.997-2.203v-4.631L65.096,136.229L65.096,136.229z"/>
	<path d="M92.96,131.271l-6.35-1.146c0.713-2.557,1.942-4.449,3.686-5.678c1.744-1.229,4.333-1.843,7.771-1.843
		c3.121,0,5.445,0.37,6.973,1.107c1.527,0.738,2.604,1.678,3.226,2.813c0.623,1.138,0.934,3.226,0.934,6.263l-0.075,8.168
		c0,2.325,0.112,4.039,0.336,5.145c0.226,1.104,0.645,2.287,1.259,3.549h-6.924c-0.183-0.465-0.406-1.153-0.672-2.066
		c-0.116-0.415-0.199-0.688-0.249-0.821c-1.194,1.161-2.474,2.033-3.835,2.614c-1.36,0.58-2.813,0.871-4.357,0.871
		c-2.724,0-4.868-0.738-6.438-2.217c-1.568-1.477-2.353-3.346-2.353-5.604c0-1.493,0.356-2.825,1.07-3.995
		c0.713-1.17,1.714-2.066,3.001-2.689c1.286-0.622,3.142-1.166,5.565-1.631c3.271-0.614,5.537-1.188,6.798-1.719v-0.697
		c0-1.344-0.333-2.303-0.996-2.877c-0.664-0.571-1.917-0.857-3.76-0.857c-1.245,0-2.216,0.245-2.914,0.734
		C93.956,129.182,93.393,130.043,92.96,131.271z M102.324,136.949c-0.896,0.299-2.316,0.656-4.258,1.07
		c-1.942,0.416-3.212,0.82-3.811,1.221c-0.912,0.646-1.369,1.47-1.369,2.466c0,0.979,0.364,1.826,1.096,2.539
		c0.729,0.715,1.66,1.071,2.789,1.071c1.261,0,2.465-0.416,3.61-1.246c0.848-0.631,1.403-1.401,1.668-2.315
		c0.184-0.598,0.274-1.732,0.274-3.41v-1.396H102.324z"/>
	<path d="M113.629,142.104l7.022-1.07c0.299,1.361,0.905,2.396,1.818,3.102c0.912,0.705,2.19,1.06,3.835,1.06
		c1.809,0,3.172-0.332,4.084-0.996c0.611-0.465,0.922-1.088,0.922-1.868c0-0.531-0.166-0.972-0.498-1.318
		c-0.352-0.332-1.129-0.641-2.341-0.923c-5.646-1.243-9.224-2.382-10.733-3.411c-2.092-1.428-3.138-3.41-3.138-5.951
		c0-2.291,0.904-4.218,2.714-5.777c1.809-1.561,4.615-2.341,8.417-2.341c3.621,0,6.309,0.59,8.068,1.769
		c1.762,1.18,2.973,2.922,3.637,5.229l-6.6,1.221c-0.281-1.029-0.816-1.818-1.605-2.365c-0.79-0.549-1.915-0.821-3.375-0.821
		c-1.843,0-3.163,0.258-3.959,0.771c-0.532,0.365-0.797,0.839-0.797,1.42c0,0.498,0.231,0.922,0.696,1.271
		c0.632,0.467,2.811,1.121,6.537,1.969c3.728,0.847,6.33,1.885,7.808,3.111c1.461,1.246,2.189,2.979,2.189,5.205
		c0,2.424-1.014,4.508-3.037,6.25c-2.023,1.743-5.021,2.614-8.989,2.614c-3.604,0-6.454-0.729-8.555-2.19
		C115.65,146.598,114.277,144.611,113.629,142.104z"/>
	<path d="M167.867,136.229l7.146,2.266c-1.098,3.984-2.918,6.943-5.467,8.878c-2.549,1.936-5.781,2.901-9.697,2.901
		c-4.852,0-8.834-1.656-11.953-4.969c-3.123-3.313-4.684-7.842-4.684-13.584c0-6.077,1.568-10.797,4.705-14.158
		c3.141-3.361,7.266-5.042,12.377-5.042c4.467,0,8.096,1.318,10.885,3.959c1.658,1.561,2.902,3.802,3.732,6.724l-7.295,1.743
		c-0.436-1.893-1.334-3.387-2.703-4.482c-1.369-1.095-3.033-1.644-4.992-1.644c-2.707,0-4.9,0.972-6.588,2.913
		c-1.686,1.943-2.525,5.089-2.525,9.438c0,4.615,0.83,7.902,2.488,9.861c1.66,1.959,3.818,2.938,6.477,2.938
		c1.959,0,3.645-0.623,5.057-1.867C166.24,140.857,167.252,138.9,167.867,136.229z"/>
	<path d="M179.471,137.771l7.172-0.697c0.434,2.408,1.311,4.176,2.627,5.305c1.32,1.129,3.104,1.693,5.342,1.693
		c2.375,0,4.162-0.502,5.367-1.508c1.203-1.004,1.807-2.178,1.807-3.522c0-0.861-0.252-1.599-0.762-2.204
		c-0.506-0.604-1.391-1.133-2.648-1.581c-0.863-0.299-2.832-0.828-5.9-1.594c-3.951-0.979-6.727-2.183-8.318-3.609
		c-2.24-2.01-3.361-4.458-3.361-7.348c0-1.858,0.527-3.599,1.582-5.217c1.053-1.619,2.572-2.852,4.557-3.698
		c1.982-0.847,4.379-1.27,7.186-1.27c4.582,0,8.029,1.004,10.348,3.013c2.317,2.009,3.531,4.69,3.648,8.044l-7.371,0.323
		c-0.314-1.876-0.992-3.226-2.029-4.047c-1.039-0.821-2.596-1.232-4.67-1.232c-2.143,0-3.816,0.44-5.027,1.319
		c-0.781,0.564-1.172,1.32-1.172,2.267c0,0.863,0.363,1.604,1.096,2.216c0.93,0.781,3.188,1.595,6.771,2.441
		c3.586,0.846,6.238,1.722,7.957,2.627c1.721,0.904,3.063,2.142,4.033,3.71c0.973,1.569,1.457,3.508,1.457,5.815
		c0,2.092-0.58,4.051-1.742,5.877s-2.809,3.184-4.934,4.069c-2.125,0.887-4.771,1.332-7.941,1.332c-4.613,0-8.16-1.065-10.633-3.198
		C181.43,144.964,179.953,141.854,179.471,137.771z"/>
</g>
</svg>
