<?xml version="1.0" encoding="utf-8"?>
<!-- Generator: Adobe Illustrator 16.0.0, SVG Export Plug-In . SVG Version: 6.00 Build 0)  -->
<!DOCTYPE svg PUBLIC "-//W3C//DTD SVG 1.1//EN" "http://www.w3.org/Graphics/SVG/1.1/DTD/svg11.dtd">
<svg version="1.1" id="Layer_1" xmlns="http://www.w3.org/2000/svg" xmlns:xlink="http://www.w3.org/1999/xlink" x="0px" y="0px"
	 width="256px" height="256px" viewBox="0 0 256 256" enable-background="new 0 0 256 256" xml:space="preserve">
<rect x="15.5" y="73" fill="#FFFFFF" width="224" height="176.5"/>
<g>
	<g>
		<path d="M39.442,235.667v-33.644H53.74c3.595,0,6.208,0.303,7.837,0.906c1.629,0.604,2.933,1.68,3.913,3.225
			c0.979,1.546,1.469,3.313,1.469,5.302c0,2.522-0.742,4.608-2.226,6.253c-1.484,1.646-3.703,2.682-6.655,3.109
			c1.469,0.857,2.681,1.799,3.638,2.822c0.956,1.025,2.245,2.846,3.867,5.463l4.108,6.563h-8.124l-4.911-7.32
			c-1.744-2.617-2.938-4.265-3.58-4.945c-0.643-0.682-1.324-1.147-2.042-1.399c-0.719-0.253-1.859-0.379-3.419-0.379h-1.377v14.045
			H39.442L39.442,235.667z M46.235,216.252h5.026c3.259,0,5.293-0.139,6.104-0.413c0.811-0.274,1.446-0.749,1.905-1.423
			c0.459-0.673,0.688-1.516,0.688-2.523c0-1.133-0.302-2.047-0.906-2.742c-0.605-0.696-1.458-1.137-2.559-1.32
			c-0.551-0.076-2.203-0.114-4.957-0.114h-5.301V216.252z"/>
	</g>
</g>
<g>
	<rect x="90" y="189" fill="#FFCC00" width="74" height="61"/>
	<g>
		<path d="M144.258,235.667h-7.389l-2.938-7.644h-13.45l-2.776,7.644H110.5l13.104-33.644h7.184L144.258,235.667z M131.751,222.355
			l-4.636-12.483l-4.544,12.483H131.751z"/>
	</g>
</g>
<g>
	<g>
		<path d="M202.07,223.297v-5.669h14.643v13.401c-1.424,1.377-3.484,2.591-6.186,3.639s-5.437,1.572-8.204,1.572
			c-3.521,0-6.587-0.738-9.202-2.215c-2.617-1.478-4.583-3.588-5.898-6.334s-1.974-5.733-1.974-8.963
			c0-3.502,0.733-6.617,2.203-9.34c1.469-2.724,3.618-4.812,6.448-6.266c2.158-1.116,4.843-1.676,8.056-1.676
			c4.177,0,7.438,0.877,9.788,2.628c2.348,1.752,3.857,4.174,4.531,7.264l-6.746,1.263c-0.475-1.652-1.365-2.957-2.674-3.912
			c-1.309-0.957-2.941-1.436-4.899-1.436c-2.97,0-5.328,0.939-7.08,2.823c-1.752,1.881-2.628,4.674-2.628,8.376
			c0,3.992,0.889,6.988,2.662,8.984c1.775,1.996,4.102,2.994,6.977,2.994c1.424,0,2.85-0.279,4.28-0.838
			c1.431-0.558,2.658-1.234,3.685-2.031v-4.268h-7.781V223.297z"/>
	</g>
</g>
<path d="M181,67.188V0H75v67.188H9.672V256h236.609V67.188H181z M85.5,245H20.672v-51.5H85.5V245z M163,245H92.5v-51.5H163V245z
	 M235.281,245H170v-51.5h65.281V245z M235.281,182.5H20.672V78.188h214.609V182.5L235.281,182.5z"/>
<g>
	<path d="M78.213,136.734v-6.994h18.068v16.539c-1.756,1.699-4.3,3.195-7.632,4.488c-3.333,1.293-6.708,1.939-10.125,1.939
		c-4.343,0-8.128-0.911-11.356-2.732c-3.229-1.822-5.655-4.428-7.278-7.816c-1.624-3.389-2.436-7.075-2.436-11.059
		c0-4.324,0.906-8.167,2.719-11.527c1.813-3.36,4.465-5.938,7.958-7.731c2.662-1.378,5.976-2.067,9.94-2.067
		c5.154,0,9.18,1.081,12.079,3.243c2.898,2.161,4.762,5.149,5.593,8.963l-8.326,1.558c-0.585-2.039-1.685-3.648-3.299-4.829
		c-1.614-1.18-3.63-1.77-6.046-1.77c-3.663,0-6.575,1.161-8.737,3.483c-2.162,2.322-3.243,5.768-3.243,10.337
		c0,4.928,1.095,8.623,3.285,11.088c2.19,2.463,5.06,3.695,8.609,3.695c1.756,0,3.516-0.346,5.282-1.033
		c1.765-0.689,3.28-1.525,4.545-2.507v-5.269H78.213z"/>
	<path d="M109.903,131.1l-7.222-1.303c0.812-2.907,2.209-5.06,4.191-6.457s4.928-2.096,8.836-2.096c3.549,0,6.192,0.42,7.93,1.26
		c1.737,0.841,2.959,1.907,3.667,3.201c0.708,1.293,1.062,3.667,1.062,7.122l-0.085,9.289c0,2.644,0.127,4.593,0.383,5.849
		c0.254,1.256,0.729,2.602,1.431,4.035h-7.874c-0.208-0.527-0.463-1.313-0.765-2.352c-0.132-0.471-0.227-0.782-0.283-0.935
		c-1.359,1.321-2.813,2.313-4.361,2.974c-1.548,0.662-3.2,0.992-4.956,0.992c-3.097,0-5.537-0.841-7.321-2.521
		c-1.784-1.682-2.676-3.805-2.676-6.372c0-1.699,0.406-3.216,1.218-4.545c0.812-1.332,1.949-2.353,3.413-3.06
		c1.463-0.709,3.573-1.326,6.33-1.854c3.719-0.698,6.296-1.351,7.731-1.954v-0.793c0-1.529-0.378-2.62-1.133-3.271
		c-0.755-0.652-2.181-0.978-4.276-0.978c-1.416,0-2.521,0.278-3.313,0.835C111.036,128.727,110.394,129.702,109.903,131.1z
		 M120.552,137.557c-1.02,0.34-2.634,0.746-4.843,1.219c-2.209,0.472-3.653,0.935-4.333,1.388c-1.039,0.735-1.558,1.671-1.558,2.804
		c0,1.114,0.415,2.077,1.246,2.889c0.831,0.813,1.888,1.219,3.172,1.219c1.435,0,2.804-0.473,4.106-1.416
		c0.963-0.719,1.595-1.596,1.897-2.635c0.208-0.68,0.312-1.973,0.312-3.879v-1.588H120.552z"/>
	<path d="M133.409,143.419l7.985-1.218c0.34,1.548,1.028,2.724,2.067,3.525c1.038,0.803,2.492,1.203,4.36,1.203
		c2.059,0,3.605-0.377,4.646-1.133c0.698-0.527,1.048-1.236,1.048-2.124c0-0.604-0.188-1.104-0.565-1.501
		c-0.396-0.378-1.284-0.727-2.662-1.048c-6.419-1.416-10.488-2.709-12.206-3.88c-2.379-1.624-3.568-3.881-3.568-6.77
		c0-2.604,1.029-4.795,3.088-6.57c2.058-1.774,5.248-2.662,9.571-2.662c4.116,0,7.175,0.67,9.177,2.011
		c2,1.341,3.379,3.323,4.135,5.947l-7.506,1.388c-0.32-1.171-0.93-2.067-1.826-2.69c-0.896-0.623-2.176-0.935-3.838-0.935
		c-2.096,0-3.596,0.293-4.502,0.878c-0.604,0.415-0.906,0.953-0.906,1.614c0,0.565,0.265,1.048,0.793,1.444
		c0.718,0.527,3.195,1.273,7.435,2.236c4.238,0.963,7.197,2.143,8.878,3.541c1.661,1.415,2.492,3.389,2.492,5.918
		c0,2.758-1.15,5.127-3.455,7.108c-2.304,1.981-5.712,2.974-10.224,2.974c-4.099,0-7.341-0.83-9.729-2.492
		C135.707,148.525,134.146,146.27,133.409,143.419z"/>
	<path d="M177.872,152v-34.494h-12.319v-7.023h32.993v7.023h-12.291V152H177.872z"/>
</g>
</svg>
