<?xml version="1.0" encoding="utf-8"?>
<!-- Generator: Adobe Illustrator 16.0.0, SVG Export Plug-In . SVG Version: 6.00 Build 0)  -->
<!DOCTYPE svg PUBLIC "-//W3C//DTD SVG 1.1//EN" "http://www.w3.org/Graphics/SVG/1.1/DTD/svg11.dtd">
<svg version="1.1" id="Layer_2" xmlns="http://www.w3.org/2000/svg" xmlns:xlink="http://www.w3.org/1999/xlink" x="0px" y="0px"
	 width="256px" height="193.445px" viewBox="0 0 256 193.445" enable-background="new 0 0 256 193.445" xml:space="preserve">
<rect x="14.735" y="72.566" fill="#FFFFFF" width="224.047" height="115.799"/>
<path d="M181.023,67.188V0H74.977v67.188H9.688v126.281h236.578V67.188H181.023z M235.266,182.469H20.688V78.188h214.578V182.469z"
	/>
<g>
	<path d="M49.27,153v-41.518h8.383v16.341H74.08v-16.341h8.383V153H74.08v-18.151H57.651V153H49.27z"/>
	<path d="M89.428,132.496c0-4.229,0.633-7.777,1.897-10.647c0.943-2.114,2.231-4.013,3.865-5.692
		c1.634-1.681,3.422-2.927,5.366-3.738c2.587-1.095,5.569-1.643,8.949-1.643c6.117,0,11.012,1.896,14.685,5.691
		c3.672,3.796,5.509,9.072,5.509,15.831c0,6.702-1.822,11.946-5.467,15.731c-3.644,3.785-8.515,5.679-14.612,5.679
		c-6.175,0-11.083-1.884-14.728-5.648C91.25,144.291,89.428,139.104,89.428,132.496z M98.064,132.213
		c0,4.701,1.086,8.267,3.257,10.691c2.172,2.426,4.929,3.639,8.271,3.639c3.342,0,6.084-1.203,8.228-3.61
		c2.144-2.406,3.215-6.019,3.215-10.832c0-4.759-1.043-8.309-3.13-10.647c-2.087-2.341-4.856-3.512-8.313-3.512
		s-6.24,1.185-8.354,3.555C99.123,123.863,98.064,127.437,98.064,132.213z"/>
	<path d="M134.117,139.491l8.156-0.794c0.49,2.738,1.485,4.748,2.988,6.033c1.5,1.283,3.523,1.926,6.072,1.926
		c2.7,0,4.732-0.571,6.104-1.713c1.369-1.145,2.054-2.479,2.054-4.008c0-0.981-0.287-1.817-0.863-2.506
		c-0.575-0.689-1.582-1.289-3.017-1.801c-0.981-0.34-3.221-0.943-6.713-1.813c-4.492-1.113-7.646-2.481-9.459-4.105
		c-2.549-2.282-3.821-5.068-3.821-8.354c0-2.114,0.599-4.092,1.798-5.935c1.197-1.84,2.927-3.241,5.184-4.205
		c2.256-0.963,4.979-1.443,8.17-1.443c5.211,0,9.135,1.143,11.769,3.427s4.017,5.334,4.147,9.147l-8.383,0.367
		c-0.357-2.134-1.129-3.668-2.309-4.602c-1.182-0.936-2.95-1.402-5.311-1.402c-2.437,0-4.345,0.5-5.722,1.501
		c-0.89,0.643-1.332,1.501-1.332,2.577c0,0.981,0.416,1.822,1.246,2.521c1.058,0.888,3.625,1.813,7.703,2.774
		s7.095,1.959,9.049,2.986c1.954,1.029,3.483,2.438,4.589,4.222c1.104,1.783,1.655,3.988,1.655,6.612
		c0,2.379-0.66,4.605-1.981,6.684c-1.322,2.077-3.189,3.62-5.606,4.632c-2.416,1.01-5.429,1.516-9.033,1.516
		c-5.25,0-9.278-1.213-12.094-3.639C136.346,147.671,134.665,144.137,134.117,139.491z"/>
	<path d="M174.928,153v-41.518h13.451c5.098,0,8.421,0.208,9.969,0.623c2.379,0.623,4.371,1.978,5.979,4.063
		c1.604,2.086,2.404,4.781,2.404,8.085c0,2.55-0.463,4.691-1.387,6.431c-0.926,1.735-2.102,3.102-3.525,4.092
		c-1.426,0.992-2.875,1.646-4.348,1.969c-2.002,0.396-4.9,0.595-8.695,0.595h-5.465V153H174.928z M183.311,118.506v11.781h4.588
		c3.305,0,5.514-0.217,6.627-0.649c1.113-0.437,1.986-1.115,2.619-2.04c0.633-0.926,0.949-2.001,0.949-3.229
		c0-1.511-0.443-2.757-1.332-3.738c-0.887-0.98-2.01-1.596-3.369-1.841c-1.002-0.188-3.012-0.283-6.033-0.283H183.311
		L183.311,118.506z"/>
</g>
</svg>
