<?xml version="1.0" encoding="utf-8"?>
<!-- Generator: Adobe Illustrator 16.0.0, SVG Export Plug-In . SVG Version: 6.00 Build 0)  -->
<!DOCTYPE svg PUBLIC "-//W3C//DTD SVG 1.1//EN" "http://www.w3.org/Graphics/SVG/1.1/DTD/svg11.dtd">
<svg version="1.1" id="Layer_1" xmlns="http://www.w3.org/2000/svg" xmlns:xlink="http://www.w3.org/1999/xlink" x="0px" y="0px"
	 width="256px" height="256px" viewBox="0 0 256 256" enable-background="new 0 0 256 256" xml:space="preserve">
<rect x="15.5" y="73" fill="#FFFFFF" width="224" height="176.5"/>
<g>
	<g>
		<path d="M39.442,235.667v-33.644H53.74c3.595,0,6.208,0.303,7.837,0.906c1.629,0.604,2.933,1.68,3.913,3.225
			c0.979,1.546,1.469,3.313,1.469,5.302c0,2.522-0.742,4.608-2.226,6.253c-1.484,1.646-3.703,2.682-6.655,3.109
			c1.469,0.857,2.681,1.799,3.638,2.822c0.956,1.025,2.245,2.846,3.867,5.463l4.108,6.563h-8.124l-4.911-7.32
			c-1.744-2.617-2.938-4.265-3.58-4.945c-0.643-0.682-1.324-1.147-2.042-1.399c-0.719-0.253-1.859-0.379-3.419-0.379h-1.377v14.045
			H39.442L39.442,235.667z M46.235,216.252h5.026c3.259,0,5.293-0.139,6.104-0.413c0.811-0.274,1.446-0.749,1.905-1.423
			c0.459-0.673,0.688-1.516,0.688-2.523c0-1.133-0.302-2.047-0.906-2.742c-0.605-0.696-1.458-1.137-2.559-1.32
			c-0.551-0.076-2.203-0.114-4.957-0.114h-5.301V216.252z"/>
	</g>
</g>
<g>
	<g>
		<path d="M144.258,235.667h-7.389l-2.938-7.644h-13.45l-2.776,7.644H110.5l13.104-33.644h7.184L144.258,235.667z M131.751,222.355
			l-4.636-12.483l-4.544,12.483H131.751z"/>
	</g>
</g>
<g>
	<rect x="167" y="189" fill="#33FF33" width="71.5" height="61"/>
	<g>
		<path d="M202.07,223.297v-5.669h14.643v13.401c-1.424,1.377-3.484,2.591-6.186,3.639s-5.437,1.572-8.204,1.572
			c-3.521,0-6.587-0.738-9.202-2.215c-2.617-1.478-4.583-3.588-5.898-6.334s-1.974-5.733-1.974-8.963
			c0-3.502,0.733-6.617,2.203-9.34c1.469-2.724,3.618-4.812,6.448-6.266c2.158-1.116,4.843-1.676,8.056-1.676
			c4.177,0,7.438,0.877,9.788,2.628c2.348,1.752,3.857,4.174,4.531,7.264l-6.746,1.263c-0.475-1.652-1.365-2.957-2.674-3.912
			c-1.309-0.957-2.941-1.436-4.899-1.436c-2.97,0-5.328,0.939-7.08,2.823c-1.752,1.881-2.628,4.674-2.628,8.376
			c0,3.992,0.889,6.988,2.662,8.984c1.775,1.996,4.102,2.994,6.977,2.994c1.424,0,2.85-0.279,4.28-0.838
			c1.431-0.558,2.658-1.234,3.685-2.031v-4.268h-7.781V223.297z"/>
	</g>
</g>
<path d="M181,67.188V0H75v67.188H9.672V256h236.609V67.188H181z M85.5,245H20.672v-51.5H85.5V245z M163,245H92.5v-51.5H163V245z
	 M235.281,245H170v-51.5h65.281V245z M235.281,182.5H20.672V78.188h214.609V182.5L235.281,182.5z"/>
<g>
	<path d="M49.27,152v-41.518h8.383v16.341h16.426v-16.341h8.383V152h-8.383v-18.152H57.652V152H49.27z"/>
	<path d="M89.428,131.496c0-4.229,0.633-7.778,1.897-10.648c0.944-2.114,2.232-4.012,3.866-5.692
		c1.633-1.681,3.422-2.927,5.366-3.738c2.587-1.095,5.569-1.643,8.949-1.643c6.117,0,11.012,1.897,14.685,5.692
		c3.672,3.795,5.508,9.072,5.508,15.831c0,6.702-1.822,11.946-5.466,15.731s-8.515,5.679-14.613,5.679
		c-6.174,0-11.083-1.884-14.727-5.649C91.25,143.291,89.428,138.104,89.428,131.496z M98.065,131.213
		c0,4.701,1.086,8.266,3.257,10.691c2.171,2.426,4.928,3.639,8.27,3.639c3.342,0,6.084-1.203,8.228-3.611
		c2.143-2.406,3.214-6.018,3.214-10.832c0-4.758-1.043-8.308-3.129-10.647c-2.087-2.341-4.857-3.512-8.313-3.512
		c-3.456,0-6.24,1.185-8.354,3.555C99.123,122.863,98.065,126.437,98.065,131.213z"/>
	<path d="M134.117,138.491l8.156-0.794c0.49,2.738,1.486,4.748,2.988,6.033c1.5,1.283,3.524,1.926,6.073,1.926
		c2.7,0,4.733-0.571,6.104-1.713c1.369-1.144,2.053-2.479,2.053-4.008c0-0.981-0.287-1.817-0.863-2.506
		c-0.576-0.689-1.582-1.289-3.016-1.8c-0.982-0.34-3.221-0.944-6.713-1.813c-4.493-1.113-7.646-2.481-9.459-4.105
		c-2.549-2.284-3.822-5.069-3.822-8.354c0-2.114,0.599-4.092,1.798-5.934c1.198-1.84,2.927-3.242,5.183-4.205
		c2.256-0.963,4.979-1.444,8.17-1.444c5.211,0,9.135,1.143,11.769,3.427c2.634,2.284,4.017,5.334,4.147,9.147l-8.383,0.368
		c-0.357-2.134-1.128-3.668-2.308-4.602c-1.181-0.936-2.95-1.402-5.31-1.402c-2.437,0-4.345,0.5-5.722,1.501
		c-0.889,0.642-1.332,1.501-1.332,2.577c0,0.981,0.416,1.822,1.246,2.521c1.058,0.888,3.625,1.813,7.703,2.775
		s7.095,1.959,9.049,2.986c1.954,1.029,3.483,2.438,4.589,4.222c1.104,1.783,1.655,3.988,1.655,6.612
		c0,2.379-0.66,4.605-1.981,6.684c-1.322,2.077-3.19,3.62-5.607,4.631c-2.416,1.01-5.428,1.516-9.033,1.516
		c-5.25,0-9.279-1.213-12.094-3.639C136.346,146.671,134.665,143.137,134.117,138.491z"/>
	<path d="M174.928,152v-41.518h13.451c5.098,0,8.421,0.208,9.969,0.623c2.379,0.623,4.371,1.978,5.978,4.064
		c1.604,2.086,2.405,4.781,2.405,8.085c0,2.549-0.463,4.691-1.387,6.43c-0.926,1.736-2.102,3.102-3.525,4.092
		c-1.426,0.992-2.875,1.646-4.348,1.969c-2.002,0.396-4.9,0.595-8.695,0.595h-5.465V152H174.928z M183.311,117.506v11.781h4.588
		c3.304,0,5.513-0.217,6.627-0.65c1.113-0.436,1.986-1.115,2.619-2.04c0.633-0.925,0.949-2.001,0.949-3.229
		c0-1.511-0.443-2.757-1.332-3.738c-0.887-0.981-2.01-1.596-3.369-1.841c-1.002-0.188-3.012-0.283-6.033-0.283H183.311z"/>
</g>
</svg>
