<?xml version="1.0" encoding="utf-8"?>
<!-- Generator: Adobe Illustrator 16.0.0, SVG Export Plug-In . SVG Version: 6.00 Build 0)  -->
<!DOCTYPE svg PUBLIC "-//W3C//DTD SVG 1.1//EN" "http://www.w3.org/Graphics/SVG/1.1/DTD/svg11.dtd">
<svg version="1.1" id="Layer_1" xmlns="http://www.w3.org/2000/svg" xmlns:xlink="http://www.w3.org/1999/xlink" x="0px" y="0px"
	 width="256px" height="256px" viewBox="0 0 256 256" enable-background="new 0 0 256 256" xml:space="preserve">
<rect x="15.5" y="73" fill="#FFFFFF" width="224" height="176.5"/>
<g>
	<g>
		<path d="M39.442,235.667v-33.644H53.74c3.595,0,6.208,0.303,7.837,0.906c1.629,0.604,2.933,1.68,3.913,3.225
			c0.979,1.546,1.469,3.313,1.469,5.302c0,2.522-0.742,4.608-2.226,6.253c-1.484,1.646-3.703,2.682-6.655,3.109
			c1.469,0.857,2.681,1.799,3.638,2.822c0.956,1.025,2.245,2.846,3.867,5.463l4.108,6.563h-8.124l-4.911-7.32
			c-1.744-2.617-2.938-4.265-3.58-4.945c-0.643-0.682-1.324-1.147-2.042-1.399c-0.719-0.253-1.859-0.379-3.419-0.379h-1.377v14.045
			H39.442L39.442,235.667z M46.235,216.252h5.026c3.259,0,5.293-0.139,6.104-0.413c0.811-0.274,1.446-0.749,1.905-1.423
			c0.459-0.673,0.688-1.516,0.688-2.523c0-1.133-0.302-2.047-0.906-2.742c-0.605-0.696-1.458-1.137-2.559-1.32
			c-0.551-0.076-2.203-0.114-4.957-0.114h-5.301V216.252z"/>
	</g>
</g>
<g>
	<g>
		<path d="M144.258,235.667h-7.389l-2.938-7.644h-13.45l-2.776,7.644H110.5l13.104-33.644h7.184L144.258,235.667z M131.751,222.355
			l-4.636-12.483l-4.544,12.483H131.751z"/>
	</g>
</g>
<g>
	<rect x="167" y="189" fill="#33FF33" width="71.5" height="61"/>
	<g>
		<path d="M202.07,223.297v-5.669h14.643v13.401c-1.424,1.377-3.484,2.591-6.186,3.639s-5.437,1.572-8.204,1.572
			c-3.521,0-6.587-0.738-9.202-2.215c-2.617-1.478-4.583-3.588-5.898-6.334s-1.974-5.733-1.974-8.963
			c0-3.502,0.733-6.617,2.203-9.34c1.469-2.724,3.618-4.812,6.448-6.266c2.158-1.116,4.843-1.676,8.056-1.676
			c4.177,0,7.438,0.877,9.788,2.628c2.348,1.752,3.857,4.174,4.531,7.264l-6.746,1.263c-0.475-1.652-1.365-2.957-2.674-3.912
			c-1.309-0.957-2.941-1.436-4.899-1.436c-2.97,0-5.328,0.939-7.08,2.823c-1.752,1.881-2.628,4.674-2.628,8.376
			c0,3.992,0.889,6.988,2.662,8.984c1.775,1.996,4.102,2.994,6.977,2.994c1.424,0,2.85-0.279,4.28-0.838
			c1.431-0.558,2.658-1.234,3.685-2.031v-4.268h-7.781V223.297z"/>
	</g>
</g>
<path d="M181,67.188V0H75v67.188H9.672V256h236.609V67.188H181z M85.5,245H20.672v-51.5H85.5V245z M163,245H92.5v-51.5H163V245z
	 M235.281,245H170v-51.5h65.281V245z M235.281,182.5H20.672V78.188h214.609V182.5L235.281,182.5z"/>
<g>
	<path d="M90.501,125V98.021h5.492v22.396h13.656V125H90.501z"/>
	<path d="M113.62,125V97.799h5.344l11.134,18.165V97.799h5.104V125h-5.512l-10.966-17.738V125H113.62z"/>
	<path d="M153.661,114.999v-4.583h11.838v10.836c-1.149,1.113-2.815,2.094-5,2.941c-2.185,0.847-4.396,1.271-6.633,1.271
		c-2.847,0-5.326-0.597-7.441-1.791c-2.114-1.193-3.704-2.9-4.768-5.121c-1.064-2.22-1.597-4.635-1.597-7.246
		c0-2.833,0.594-5.35,1.781-7.552c1.188-2.202,2.926-3.89,5.213-5.065c1.744-0.903,3.916-1.354,6.514-1.354
		c3.377,0,6.015,0.708,7.914,2.125c1.897,1.417,3.119,3.374,3.664,5.873l-5.455,1.021c-0.385-1.336-1.104-2.39-2.162-3.164
		c-1.057-0.773-2.379-1.16-3.961-1.16c-2.399,0-4.309,0.761-5.725,2.282s-2.125,3.779-2.125,6.772c0,3.229,0.719,5.65,2.152,7.264
		c1.436,1.614,3.314,2.421,5.641,2.421c1.15,0,2.305-0.226,3.461-0.677c1.156-0.451,2.148-0.999,2.979-1.642v-3.451H153.661z"/>
</g>
<g>
	<path d="M90.445,158.148l5.344-0.52c0.321,1.794,0.974,3.111,1.958,3.952c0.983,0.842,2.31,1.262,3.98,1.262
		c1.769,0,3.102-0.374,3.999-1.122c0.896-0.748,1.345-1.623,1.345-2.625c0-0.644-0.189-1.191-0.566-1.644
		c-0.377-0.451-1.036-0.845-1.976-1.179c-0.644-0.223-2.109-0.617-4.397-1.188c-2.944-0.729-5.01-1.626-6.197-2.689
		c-1.67-1.496-2.505-3.321-2.505-5.475c0-1.385,0.393-2.682,1.178-3.887c0.785-1.207,1.917-2.125,3.396-2.756
		c1.478-0.631,3.262-0.946,5.353-0.946c3.414,0,5.984,0.749,7.709,2.245c1.726,1.497,2.631,3.494,2.718,5.992l-5.492,0.242
		c-0.235-1.397-0.739-2.402-1.512-3.017c-0.773-0.61-1.933-0.918-3.479-0.918c-1.596,0-2.845,0.328-3.748,0.983
		c-0.582,0.42-0.872,0.982-0.872,1.688c0,0.645,0.272,1.194,0.816,1.651c0.692,0.581,2.375,1.188,5.047,1.817
		c2.672,0.631,4.648,1.283,5.928,1.959c1.28,0.674,2.282,1.596,3.006,2.764c0.724,1.17,1.085,2.613,1.085,4.332
		c0,1.56-0.433,3.02-1.299,4.38c-0.866,1.36-2.091,2.372-3.674,3.034c-1.583,0.66-3.557,0.992-5.919,0.992
		c-3.439,0-6.08-0.795-7.923-2.386C91.905,163.509,90.804,161.191,90.445,158.148z"/>
	<path d="M126.182,147.295v4.156h-3.563v7.941c0,1.607,0.034,2.545,0.102,2.811c0.068,0.268,0.223,0.486,0.464,0.658
		c0.241,0.175,0.535,0.261,0.881,0.261c0.482,0,1.181-0.167,2.097-0.501l0.445,4.045c-1.212,0.52-2.585,0.779-4.119,0.779
		c-0.94,0-1.788-0.158-2.542-0.473c-0.755-0.316-1.308-0.726-1.661-1.226c-0.353-0.502-0.597-1.179-0.733-2.032
		c-0.111-0.605-0.167-1.83-0.167-3.674v-8.591h-2.394v-4.156h2.394v-3.915l5.232-3.043v6.958L126.182,147.295L126.182,147.295z"/>
	<path d="M128.594,156.869c0-1.73,0.428-3.407,1.28-5.028c0.854-1.62,2.063-2.856,3.628-3.711s3.313-1.28,5.241-1.28
		c2.981,0,5.424,0.969,7.329,2.904c1.904,1.936,2.857,4.383,2.857,7.338c0,2.98-0.963,5.452-2.886,7.412
		c-1.924,1.961-4.347,2.941-7.265,2.941c-1.807,0-3.528-0.408-5.168-1.225c-1.639-0.816-2.885-2.015-3.738-3.591
		C129.021,161.053,128.594,159.133,128.594,156.869z M133.938,157.146c0,1.955,0.465,3.451,1.393,4.49s2.07,1.559,3.434,1.559
		c1.359,0,2.502-0.52,3.424-1.559c0.92-1.039,1.381-2.548,1.381-4.527c0-1.93-0.461-3.414-1.381-4.452
		c-0.922-1.039-2.063-1.56-3.424-1.56c-1.361,0-2.506,0.521-3.434,1.56C134.402,153.695,133.938,155.193,133.938,157.146z"/>
	<path d="M158.003,167h-5.214v-19.705h4.843v2.803c0.829-1.324,1.573-2.195,2.235-2.617c0.662-0.42,1.414-0.631,2.255-0.631
		c1.188,0,2.331,0.328,3.433,0.983l-1.613,4.546c-0.879-0.568-1.694-0.854-2.449-0.854c-0.729,0-1.35,0.201-1.855,0.604
		c-0.507,0.4-0.906,1.129-1.195,2.18c-0.291,1.053-0.438,3.254-0.438,6.605L158.003,167L158.003,167z"/>
</g>
</svg>
