<?xml version="1.0" encoding="utf-8"?>
<!-- Generator: Adobe Illustrator 16.0.0, SVG Export Plug-In . SVG Version: 6.00 Build 0)  -->
<!DOCTYPE svg PUBLIC "-//W3C//DTD SVG 1.1//EN" "http://www.w3.org/Graphics/SVG/1.1/DTD/svg11.dtd">
<svg version="1.1" id="Layer_2" xmlns="http://www.w3.org/2000/svg" xmlns:xlink="http://www.w3.org/1999/xlink" x="0px" y="0px"
	 width="256px" height="193.445px" viewBox="0 0 256 193.445" enable-background="new 0 0 256 193.445" xml:space="preserve">
<rect x="15.735" y="71.566" fill="#FFFFFF" width="224.047" height="115.799"/>
<path d="M181.023,67.188V0H74.977v67.188H9.688v126.281h236.578V67.188H181.023z M235.266,182.469H20.688V78.188h214.578V182.469z"
	/>
<g>
	<path d="M90.501,123V96.021h5.492v22.396h13.656V123H90.501z"/>
	<path d="M113.62,123V95.799h5.344l11.134,18.165V95.799h5.104V123h-5.513l-10.965-17.737V123H113.62z"/>
	<path d="M153.661,112.999v-4.583h11.838v10.836c-1.149,1.113-2.815,2.095-5,2.941s-4.396,1.271-6.633,1.271
		c-2.847,0-5.326-0.597-7.441-1.791c-2.114-1.192-3.704-2.899-4.768-5.12c-1.064-2.221-1.597-4.636-1.597-7.246
		c0-2.833,0.594-5.351,1.78-7.553c1.188-2.201,2.927-3.89,5.214-5.064c1.743-0.903,3.916-1.354,6.514-1.354
		c3.377,0,6.015,0.708,7.914,2.125c1.896,1.417,3.119,3.374,3.664,5.873l-5.455,1.021c-0.385-1.336-1.104-2.391-2.162-3.164
		c-1.057-0.773-2.379-1.16-3.961-1.16c-2.399,0-4.31,0.761-5.726,2.282c-1.416,1.521-2.125,3.778-2.125,6.771
		c0,3.229,0.72,5.65,2.152,7.265c1.437,1.613,3.313,2.421,5.642,2.421c1.149,0,2.305-0.227,3.461-0.678
		c1.155-0.45,2.147-0.999,2.979-1.642v-3.451H153.661z"/>
</g>
<g>
	<path d="M90.445,156.148l5.344-0.521c0.321,1.794,0.975,3.111,1.958,3.952c0.983,0.842,2.311,1.262,3.98,1.262
		c1.769,0,3.102-0.374,3.999-1.121c0.896-0.748,1.345-1.623,1.345-2.625c0-0.645-0.189-1.191-0.566-1.645
		c-0.377-0.451-1.035-0.845-1.976-1.179c-0.644-0.224-2.109-0.617-4.397-1.188c-2.943-0.729-5.01-1.626-6.196-2.688
		c-1.67-1.496-2.505-3.321-2.505-5.476c0-1.385,0.393-2.682,1.178-3.887c0.785-1.207,1.917-2.125,3.396-2.756
		s3.263-0.946,5.354-0.946c3.414,0,5.983,0.749,7.709,2.245c1.726,1.497,2.631,3.494,2.718,5.992l-5.492,0.242
		c-0.234-1.397-0.738-2.402-1.512-3.018c-0.773-0.609-1.933-0.918-3.479-0.918c-1.596,0-2.845,0.328-3.747,0.983
		c-0.582,0.42-0.872,0.981-0.872,1.688c0,0.646,0.271,1.194,0.815,1.651c0.692,0.581,2.375,1.188,5.047,1.817
		c2.672,0.631,4.648,1.282,5.929,1.959c1.279,0.674,2.281,1.596,3.006,2.764c0.724,1.17,1.085,2.613,1.085,4.332
		c0,1.56-0.434,3.02-1.299,4.38c-0.866,1.36-2.092,2.372-3.675,3.034c-1.583,0.66-3.557,0.992-5.919,0.992
		c-3.438,0-6.08-0.795-7.923-2.387C91.905,161.509,90.805,159.191,90.445,156.148z"/>
	<path d="M126.183,145.295v4.156h-3.563v7.941c0,1.606,0.034,2.545,0.103,2.811c0.067,0.269,0.223,0.486,0.464,0.658
		c0.24,0.175,0.535,0.261,0.881,0.261c0.481,0,1.181-0.167,2.097-0.501l0.445,4.045c-1.212,0.521-2.585,0.779-4.119,0.779
		c-0.94,0-1.788-0.158-2.542-0.473c-0.755-0.316-1.308-0.727-1.661-1.227c-0.353-0.502-0.597-1.179-0.732-2.032
		c-0.111-0.604-0.168-1.83-0.168-3.674v-8.591h-2.394v-4.156h2.394v-3.915l5.232-3.043v6.958L126.183,145.295L126.183,145.295z"/>
	<path d="M128.594,154.869c0-1.729,0.428-3.407,1.28-5.028c0.854-1.619,2.063-2.855,3.628-3.711
		c1.564-0.854,3.313-1.279,5.241-1.279c2.981,0,5.424,0.969,7.329,2.903c1.904,1.937,2.857,4.384,2.857,7.338
		c0,2.98-0.964,5.452-2.887,7.412c-1.924,1.961-4.348,2.941-7.266,2.941c-1.807,0-3.527-0.408-5.168-1.225
		c-1.639-0.816-2.885-2.016-3.737-3.592C129.021,159.053,128.594,157.133,128.594,154.869z M133.938,155.146
		c0,1.955,0.465,3.451,1.394,4.49c0.928,1.038,2.069,1.559,3.435,1.559c1.358,0,2.502-0.521,3.424-1.559
		c0.92-1.039,1.381-2.549,1.381-4.527c0-1.93-0.461-3.414-1.381-4.452c-0.922-1.039-2.063-1.56-3.424-1.56
		c-1.361,0-2.507,0.521-3.435,1.56C134.402,151.695,133.938,153.193,133.938,155.146z"/>
	<path d="M158.003,165h-5.214v-19.705h4.843v2.804c0.829-1.324,1.573-2.195,2.235-2.617c0.662-0.42,1.414-0.631,2.255-0.631
		c1.188,0,2.331,0.328,3.433,0.982l-1.613,4.546c-0.879-0.567-1.693-0.854-2.448-0.854c-0.729,0-1.351,0.201-1.854,0.604
		c-0.508,0.4-0.906,1.129-1.195,2.181c-0.291,1.053-0.438,3.254-0.438,6.604L158.003,165L158.003,165z"/>
</g>
</svg>
