<?xml version="1.0" encoding="utf-8"?>
<!-- Generator: Adobe Illustrator 16.0.0, SVG Export Plug-In . SVG Version: 6.00 Build 0)  -->
<!DOCTYPE svg PUBLIC "-//W3C//DTD SVG 1.1//EN" "http://www.w3.org/Graphics/SVG/1.1/DTD/svg11.dtd">
<svg version="1.1" id="Layer_1" xmlns="http://www.w3.org/2000/svg" xmlns:xlink="http://www.w3.org/1999/xlink" x="0px" y="0px"
	 width="256px" height="256px" viewBox="0 0 256 256" enable-background="new 0 0 256 256" xml:space="preserve">
<rect x="15.5" y="73" fill="#FFFFFF" width="224" height="176.5"/>
<g>
	<g>
		<path d="M39.442,235.667v-33.644H53.74c3.595,0,6.208,0.303,7.837,0.906c1.629,0.604,2.933,1.68,3.913,3.225
			c0.979,1.546,1.469,3.313,1.469,5.302c0,2.522-0.742,4.608-2.226,6.253c-1.484,1.646-3.703,2.682-6.655,3.109
			c1.469,0.857,2.681,1.799,3.638,2.822c0.956,1.025,2.245,2.846,3.867,5.463l4.108,6.563h-8.124l-4.911-7.32
			c-1.744-2.617-2.938-4.265-3.58-4.945c-0.643-0.682-1.324-1.147-2.042-1.399c-0.719-0.253-1.859-0.379-3.419-0.379h-1.377v14.045
			H39.442L39.442,235.667z M46.235,216.252h5.026c3.259,0,5.293-0.139,6.104-0.413c0.811-0.274,1.446-0.749,1.905-1.423
			c0.459-0.673,0.688-1.516,0.688-2.523c0-1.133-0.302-2.047-0.906-2.742c-0.605-0.696-1.458-1.137-2.559-1.32
			c-0.551-0.076-2.203-0.114-4.957-0.114h-5.301V216.252z"/>
	</g>
</g>
<g>
	<g>
		<path d="M144.258,235.667h-7.389l-2.938-7.644h-13.45l-2.776,7.644H110.5l13.104-33.644h7.184L144.258,235.667z M131.751,222.355
			l-4.636-12.483l-4.544,12.483H131.751z"/>
	</g>
</g>
<g>
	<rect x="167" y="189" fill="#33FF33" width="71.5" height="61"/>
	<g>
		<path d="M202.07,223.297v-5.669h14.643v13.401c-1.424,1.377-3.484,2.591-6.186,3.639s-5.437,1.572-8.204,1.572
			c-3.521,0-6.587-0.738-9.202-2.215c-2.617-1.478-4.583-3.588-5.898-6.334s-1.974-5.733-1.974-8.963
			c0-3.502,0.733-6.617,2.203-9.34c1.469-2.724,3.618-4.812,6.448-6.266c2.158-1.116,4.843-1.676,8.056-1.676
			c4.177,0,7.438,0.877,9.788,2.628c2.348,1.752,3.857,4.174,4.531,7.264l-6.746,1.263c-0.475-1.652-1.365-2.957-2.674-3.912
			c-1.309-0.957-2.941-1.436-4.899-1.436c-2.97,0-5.328,0.939-7.08,2.823c-1.752,1.881-2.628,4.674-2.628,8.376
			c0,3.992,0.889,6.988,2.662,8.984c1.775,1.996,4.102,2.994,6.977,2.994c1.424,0,2.85-0.279,4.28-0.838
			c1.431-0.558,2.658-1.234,3.685-2.031v-4.268h-7.781V223.297z"/>
	</g>
</g>
<path d="M181,67.188V0H75v67.188H9.672V256h236.609V67.188H181z M85.5,245H20.672v-51.5H85.5V245z M163,245H92.5v-51.5H163V245z
	 M235.281,245H170v-51.5h65.281V245z M235.281,182.5H20.672V78.188h214.609V182.5L235.281,182.5z"/>
<g>
	<path d="M89.388,111.499l5.325,1.688c-0.816,2.969-2.174,5.174-4.073,6.615c-1.899,1.44-4.308,2.161-7.227,2.161
		c-3.612,0-6.581-1.233-8.906-3.702c-2.326-2.467-3.488-5.841-3.488-10.121c0-4.527,1.169-8.043,3.507-10.549
		c2.338-2.504,5.412-3.757,9.222-3.757c3.327,0,6.03,0.983,8.108,2.95c1.237,1.163,2.165,2.833,2.783,5.01l-5.437,1.299
		c-0.322-1.41-0.993-2.523-2.013-3.34s-2.261-1.225-3.72-1.225c-2.017,0-3.652,0.724-4.908,2.171
		c-1.256,1.447-1.883,3.792-1.883,7.032c0,3.439,0.618,5.889,1.855,7.348c1.237,1.46,2.845,2.189,4.824,2.189
		c1.459,0,2.715-0.464,3.767-1.392C88.175,114.95,88.93,113.491,89.388,111.499z"/>
	<path d="M98.183,111.369c0-1.731,0.427-3.407,1.28-5.028c0.854-1.62,2.063-2.857,3.627-3.711s3.312-1.28,5.242-1.28
		c2.981,0,5.424,0.968,7.329,2.904c1.905,1.936,2.857,4.382,2.857,7.338c0,2.981-0.962,5.452-2.885,7.412
		c-1.924,1.961-4.345,2.941-7.264,2.941c-1.806,0-3.529-0.408-5.167-1.225c-1.639-0.816-2.885-2.014-3.739-3.59
		C98.609,115.553,98.183,113.633,98.183,111.369z M103.526,111.647c0,1.955,0.464,3.451,1.392,4.49
		c0.928,1.039,2.072,1.559,3.433,1.559c1.36,0,2.501-0.52,3.423-1.559c0.921-1.039,1.382-2.548,1.382-4.527
		c0-1.93-0.461-3.414-1.382-4.453c-0.922-1.039-2.063-1.559-3.423-1.559c-1.361,0-2.505,0.52-3.433,1.559
		C103.99,108.196,103.526,109.693,103.526,111.647z"/>
	<path d="M122.211,101.795h4.806v2.69c1.719-2.09,3.767-3.136,6.142-3.136c1.262,0,2.356,0.26,3.284,0.779s1.688,1.306,2.281,2.356
		c0.865-1.051,1.801-1.837,2.803-2.356s2.07-0.779,3.209-0.779c1.447,0,2.673,0.294,3.675,0.881c1.002,0.588,1.75,1.451,2.245,2.589
		c0.357,0.842,0.537,2.202,0.537,4.082V121.5h-5.213v-11.263c0-1.954-0.181-3.216-0.539-3.785c-0.481-0.742-1.225-1.113-2.227-1.113
		c-0.73,0-1.416,0.223-2.061,0.668c-0.643,0.445-1.106,1.098-1.391,1.958c-0.285,0.859-0.428,2.217-0.428,4.072v9.463h-5.214
		v-10.799c0-1.917-0.093-3.154-0.278-3.711c-0.185-0.557-0.474-0.971-0.861-1.243c-0.392-0.271-0.92-0.408-1.588-0.408
		c-0.804,0-1.527,0.217-2.17,0.649c-0.645,0.434-1.104,1.058-1.383,1.874c-0.278,0.816-0.417,2.171-0.417,4.063v9.574h-5.214
		V101.795L122.211,101.795z"/>
	<path d="M155.999,101.795h4.806v2.69c1.719-2.09,3.768-3.136,6.143-3.136c1.262,0,2.355,0.26,3.283,0.779
		c0.929,0.519,1.688,1.306,2.283,2.356c0.865-1.051,1.799-1.837,2.801-2.356s2.072-0.779,3.211-0.779
		c1.447,0,2.672,0.294,3.674,0.881c1.002,0.588,1.75,1.451,2.244,2.589c0.358,0.842,0.539,2.202,0.539,4.082V121.5h-5.215v-11.263
		c0-1.954-0.18-3.216-0.537-3.785c-0.482-0.742-1.226-1.113-2.228-1.113c-0.729,0-1.417,0.223-2.06,0.668
		c-0.645,0.445-1.107,1.098-1.393,1.958c-0.283,0.859-0.427,2.217-0.427,4.072v9.463h-5.214v-10.799
		c0-1.917-0.094-3.154-0.278-3.711c-0.185-0.557-0.473-0.971-0.862-1.243c-0.39-0.271-0.918-0.408-1.586-0.408
		c-0.806,0-1.527,0.217-2.172,0.649c-0.644,0.434-1.104,1.058-1.382,1.874c-0.278,0.816-0.418,2.171-0.418,4.063v9.574h-5.214
		L155.999,101.795L155.999,101.795z"/>
</g>
<g>
	<path d="M81.697,162v-22.6h-8.071v-4.603h21.616v4.603h-8.053V162H81.697z"/>
	<path d="M94.723,151.869c0-1.73,0.427-3.407,1.28-5.028c0.854-1.62,2.063-2.856,3.627-3.711s3.313-1.28,5.242-1.28
		c2.98,0,5.424,0.969,7.329,2.904c1.904,1.936,2.857,4.383,2.857,7.338c0,2.98-0.962,5.452-2.886,7.412
		c-1.924,1.961-4.345,2.941-7.264,2.941c-1.807,0-3.529-0.408-5.168-1.225c-1.639-0.818-2.885-2.015-3.738-3.591
		C95.149,156.053,94.723,154.133,94.723,151.869z M100.066,152.146c0,1.955,0.464,3.451,1.392,4.49s2.071,1.559,3.433,1.559
		c1.36,0,2.501-0.52,3.423-1.559s1.383-2.548,1.383-4.527c0-1.93-0.461-3.414-1.383-4.452c-0.922-1.039-2.063-1.56-3.423-1.56
		c-1.361,0-2.505,0.521-3.433,1.56C100.53,148.695,100.066,150.193,100.066,152.146z"/>
	<path d="M122.814,162l-6.234-19.705h5.065l3.692,12.914l3.396-12.914h5.027l3.285,12.914l3.766-12.914h5.142L139.624,162h-5.011
		l-3.395-12.673L127.88,162H122.814z"/>
	<path d="M160.107,155.729l5.195,0.873c-0.668,1.904-1.723,3.354-3.162,4.351c-1.441,0.995-3.244,1.493-5.41,1.493
		c-3.426,0-5.961-1.118-7.606-3.357c-1.299-1.793-1.946-4.057-1.946-6.791c0-3.266,0.854-5.822,2.561-7.673
		c1.707-1.849,3.865-2.772,6.475-2.772c2.932,0,5.245,0.967,6.939,2.903c1.695,1.937,2.506,4.901,2.432,8.896h-13.063
		c0.037,1.547,0.457,2.75,1.262,3.609c0.803,0.859,1.805,1.289,3.006,1.289c0.816,0,1.502-0.223,2.059-0.668
		S159.824,156.719,160.107,155.729z M160.404,150.459c-0.036-1.509-0.426-2.656-1.168-3.441c-0.741-0.785-1.646-1.179-2.709-1.179
		c-1.139,0-2.077,0.415-2.819,1.243c-0.742,0.829-1.106,1.955-1.097,3.377H160.404z"/>
	<path d="M174.822,162h-5.215v-19.705h4.845v2.803c0.827-1.324,1.573-2.195,2.235-2.617c0.66-0.42,1.412-0.631,2.254-0.631
		c1.188,0,2.332,0.328,3.433,0.983l-1.612,4.546c-0.88-0.568-1.695-0.854-2.449-0.854c-0.73,0-1.351,0.201-1.855,0.604
		c-0.508,0.4-0.906,1.129-1.197,2.18c-0.291,1.053-0.436,3.254-0.436,6.605V162H174.822z"/>
</g>
</svg>
