<?xml version="1.0" encoding="utf-8"?>
<!-- Generator: Adobe Illustrator 16.0.0, SVG Export Plug-In . SVG Version: 6.00 Build 0)  -->
<!DOCTYPE svg PUBLIC "-//W3C//DTD SVG 1.1//EN" "http://www.w3.org/Graphics/SVG/1.1/DTD/svg11.dtd">
<svg version="1.1" id="Layer_2" xmlns="http://www.w3.org/2000/svg" xmlns:xlink="http://www.w3.org/1999/xlink" x="0px" y="0px"
	 width="256px" height="193.445px" viewBox="0 0 256 193.445" enable-background="new 0 0 256 193.445" xml:space="preserve">
<rect x="15.735" y="71.566" fill="#FFFFFF" width="224.047" height="115.799"/>
<path d="M181.023,67.188V0H74.977v67.188H9.688v126.281h236.578V67.188H181.023z M235.266,182.469H20.688V78.188h214.578V182.469z"
	/>
<g>
	<path d="M89.388,113.499l5.324,1.688c-0.815,2.969-2.174,5.174-4.072,6.615c-1.899,1.439-4.309,2.16-7.228,2.16
		c-3.612,0-6.581-1.232-8.906-3.701c-2.325-2.468-3.487-5.842-3.487-10.121c0-4.527,1.169-8.043,3.507-10.55
		c2.338-2.504,5.412-3.757,9.222-3.757c3.327,0,6.03,0.983,8.108,2.95c1.236,1.163,2.165,2.833,2.783,5.01l-5.438,1.3
		c-0.322-1.41-0.993-2.523-2.013-3.341c-1.021-0.816-2.261-1.225-3.72-1.225c-2.018,0-3.652,0.724-4.908,2.171
		s-1.883,3.792-1.883,7.032c0,3.438,0.617,5.889,1.854,7.348c1.237,1.46,2.845,2.189,4.824,2.189c1.459,0,2.715-0.464,3.767-1.393
		C88.174,116.95,88.93,115.491,89.388,113.499z"/>
	<path d="M98.183,113.369c0-1.73,0.427-3.407,1.279-5.028c0.854-1.619,2.063-2.856,3.627-3.711c1.564-0.854,3.313-1.279,5.242-1.279
		c2.981,0,5.424,0.968,7.329,2.903c1.905,1.937,2.857,4.383,2.857,7.338c0,2.981-0.962,5.452-2.886,7.412
		c-1.924,1.961-4.345,2.941-7.264,2.941c-1.806,0-3.529-0.408-5.167-1.225c-1.639-0.816-2.885-2.015-3.739-3.591
		C98.608,117.553,98.183,115.633,98.183,113.369z M103.525,113.647c0,1.955,0.464,3.451,1.392,4.49
		c0.929,1.038,2.072,1.559,3.434,1.559c1.359,0,2.501-0.521,3.423-1.559c0.921-1.039,1.382-2.549,1.382-4.527
		c0-1.93-0.461-3.414-1.382-4.453c-0.922-1.039-2.063-1.559-3.423-1.559c-1.361,0-2.505,0.52-3.434,1.559
		C103.989,110.196,103.525,111.693,103.525,113.647z"/>
	<path d="M122.21,103.795h4.807v2.69c1.719-2.09,3.767-3.136,6.142-3.136c1.262,0,2.356,0.26,3.284,0.778
		c0.928,0.52,1.688,1.307,2.281,2.356c0.864-1.051,1.801-1.837,2.803-2.356c1.002-0.519,2.07-0.778,3.209-0.778
		c1.447,0,2.673,0.294,3.675,0.881c1.002,0.588,1.75,1.451,2.245,2.589c0.357,0.842,0.537,2.202,0.537,4.082V123.5h-5.213v-11.263
		c0-1.954-0.182-3.216-0.539-3.785c-0.481-0.742-1.226-1.113-2.228-1.113c-0.729,0-1.416,0.224-2.062,0.668
		c-0.643,0.445-1.105,1.099-1.391,1.958s-0.428,2.218-0.428,4.072v9.463h-5.214v-10.799c0-1.917-0.093-3.154-0.278-3.711
		s-0.474-0.971-0.861-1.243c-0.392-0.271-0.92-0.408-1.588-0.408c-0.804,0-1.526,0.218-2.17,0.649
		c-0.645,0.434-1.104,1.058-1.383,1.874c-0.277,0.816-0.417,2.171-0.417,4.063v9.574h-5.214L122.21,103.795L122.21,103.795z"/>
	<path d="M155.998,103.795h4.807v2.69c1.719-2.09,3.768-3.136,6.143-3.136c1.262,0,2.355,0.26,3.283,0.778
		c0.929,0.52,1.688,1.307,2.283,2.356c0.864-1.051,1.799-1.837,2.801-2.356c1.002-0.519,2.072-0.778,3.211-0.778
		c1.447,0,2.672,0.294,3.674,0.881c1.002,0.588,1.75,1.451,2.244,2.589c0.357,0.842,0.539,2.202,0.539,4.082V123.5h-5.215v-11.263
		c0-1.954-0.181-3.216-0.537-3.785c-0.482-0.742-1.227-1.113-2.229-1.113c-0.729,0-1.417,0.224-2.061,0.668
		c-0.645,0.445-1.106,1.099-1.393,1.958c-0.283,0.859-0.427,2.218-0.427,4.072v9.463h-5.214v-10.799
		c0-1.917-0.094-3.154-0.278-3.711s-0.473-0.971-0.862-1.243c-0.39-0.271-0.918-0.408-1.586-0.408c-0.806,0-1.527,0.218-2.172,0.649
		c-0.644,0.434-1.104,1.058-1.382,1.874s-0.418,2.171-0.418,4.063v9.574h-5.214L155.998,103.795L155.998,103.795z"/>
</g>
<g>
	<path d="M81.697,164v-22.6h-8.071v-4.604h21.616v4.604h-8.053V164H81.697z"/>
	<path d="M94.723,153.869c0-1.729,0.427-3.407,1.28-5.028c0.854-1.619,2.063-2.855,3.627-3.711c1.564-0.854,3.313-1.279,5.242-1.279
		c2.98,0,5.424,0.969,7.329,2.903c1.904,1.937,2.857,4.384,2.857,7.338c0,2.98-0.962,5.452-2.886,7.412
		c-1.924,1.961-4.345,2.941-7.264,2.941c-1.807,0-3.529-0.408-5.168-1.225c-1.639-0.818-2.885-2.016-3.738-3.592
		C95.149,158.053,94.723,156.133,94.723,153.869z M100.066,154.146c0,1.955,0.464,3.451,1.392,4.49
		c0.928,1.038,2.071,1.559,3.433,1.559c1.36,0,2.501-0.521,3.423-1.559c0.922-1.039,1.383-2.549,1.383-4.527
		c0-1.93-0.461-3.414-1.383-4.452c-0.922-1.039-2.063-1.56-3.423-1.56c-1.361,0-2.505,0.521-3.433,1.56
		C100.53,150.695,100.066,152.193,100.066,154.146z"/>
	<path d="M122.814,164l-6.234-19.705h5.065l3.692,12.914l3.396-12.914h5.027l3.285,12.914l3.766-12.914h5.143L139.624,164h-5.011
		l-3.396-12.673L127.88,164H122.814z"/>
	<path d="M160.107,157.729l5.195,0.873c-0.669,1.903-1.724,3.354-3.162,4.351c-1.441,0.995-3.244,1.493-5.41,1.493
		c-3.426,0-5.961-1.118-7.606-3.357c-1.299-1.793-1.946-4.057-1.946-6.791c0-3.266,0.854-5.821,2.561-7.673
		c1.707-1.849,3.865-2.771,6.476-2.771c2.933,0,5.245,0.967,6.938,2.902c1.695,1.938,2.507,4.901,2.433,8.896h-13.063
		c0.037,1.547,0.457,2.75,1.263,3.609c0.803,0.858,1.805,1.288,3.006,1.288c0.815,0,1.502-0.223,2.06-0.668
		C159.406,159.437,159.824,158.719,160.107,157.729z M160.404,152.459c-0.036-1.509-0.426-2.655-1.168-3.44
		c-0.741-0.785-1.646-1.18-2.709-1.18c-1.139,0-2.077,0.415-2.819,1.243c-0.742,0.829-1.106,1.955-1.097,3.377H160.404z"/>
	<path d="M174.822,164h-5.215v-19.705h4.845v2.804c0.827-1.324,1.573-2.195,2.235-2.617c0.66-0.42,1.412-0.631,2.254-0.631
		c1.188,0,2.332,0.328,3.433,0.982l-1.612,4.546c-0.88-0.567-1.695-0.854-2.449-0.854c-0.729,0-1.351,0.201-1.854,0.604
		c-0.508,0.4-0.905,1.129-1.196,2.181c-0.291,1.053-0.437,3.254-0.437,6.604V164H174.822z"/>
</g>
</svg>
