<?xml version="1.0" encoding="utf-8"?>
<!-- Generator: Adobe Illustrator 16.0.0, SVG Export Plug-In . SVG Version: 6.00 Build 0)  -->
<!DOCTYPE svg PUBLIC "-//W3C//DTD SVG 1.1//EN" "http://www.w3.org/Graphics/SVG/1.1/DTD/svg11.dtd">
<svg version="1.1" id="Layer_1" xmlns="http://www.w3.org/2000/svg" xmlns:xlink="http://www.w3.org/1999/xlink" x="0px" y="0px"
	 width="256px" height="256px" viewBox="0 0 256 256" enable-background="new 0 0 256 256" xml:space="preserve">
<rect x="15.5" y="73" fill="#FFFFFF" width="224" height="175.5"/>
<g>
	<g>
		<path d="M39.442,235.667v-33.644H53.74c3.595,0,6.208,0.303,7.837,0.906c1.629,0.604,2.933,1.68,3.913,3.225
			c0.979,1.546,1.469,3.313,1.469,5.302c0,2.522-0.742,4.608-2.226,6.253c-1.484,1.646-3.703,2.682-6.655,3.109
			c1.469,0.857,2.681,1.799,3.638,2.822c0.956,1.025,2.245,2.846,3.867,5.463l4.108,6.563h-8.124l-4.911-7.32
			c-1.744-2.617-2.938-4.265-3.58-4.945c-0.643-0.682-1.324-1.147-2.042-1.399c-0.719-0.253-1.859-0.379-3.419-0.379h-1.377v14.045
			H39.442L39.442,235.667z M46.235,216.252h5.026c3.259,0,5.293-0.139,6.104-0.413c0.811-0.274,1.446-0.749,1.905-1.423
			c0.459-0.673,0.688-1.516,0.688-2.523c0-1.133-0.302-2.047-0.906-2.742c-0.605-0.696-1.458-1.137-2.559-1.32
			c-0.551-0.076-2.203-0.114-4.957-0.114h-5.301V216.252z"/>
	</g>
</g>
<g>
	<g>
		<path d="M144.258,235.667h-7.389l-2.938-7.644h-13.45l-2.776,7.644H110.5l13.104-33.644h7.184L144.258,235.667z M131.751,222.355
			l-4.636-12.483l-4.544,12.483H131.751z"/>
	</g>
</g>
<g>
	<rect x="167" y="189" fill="#33FF33" width="71.5" height="61"/>
	<g>
		<path d="M202.07,223.297v-5.669h14.643v13.401c-1.424,1.377-3.484,2.591-6.186,3.639s-5.437,1.572-8.204,1.572
			c-3.521,0-6.587-0.738-9.202-2.215c-2.617-1.478-4.583-3.588-5.898-6.334s-1.974-5.733-1.974-8.963
			c0-3.502,0.733-6.617,2.203-9.34c1.469-2.724,3.618-4.812,6.448-6.266c2.158-1.116,4.843-1.676,8.056-1.676
			c4.177,0,7.438,0.877,9.788,2.628c2.348,1.752,3.857,4.174,4.531,7.264l-6.746,1.263c-0.475-1.652-1.365-2.957-2.674-3.912
			c-1.309-0.957-2.941-1.436-4.899-1.436c-2.97,0-5.328,0.939-7.08,2.823c-1.752,1.881-2.628,4.674-2.628,8.376
			c0,3.992,0.889,6.988,2.662,8.984c1.775,1.996,4.102,2.994,6.977,2.994c1.424,0,2.85-0.279,4.28-0.838
			c1.431-0.558,2.658-1.234,3.685-2.031v-4.268h-7.781V223.297z"/>
	</g>
</g>
<path d="M181,67.188V0H75v67.188H9.672V256h236.609V67.188H181z M85.5,245H20.672v-51.5H85.5V245z M163,245H92.5v-51.5H163V245z
	 M235.281,245H170v-51.5h65.281V245z M235.281,182.5H20.672V78.188h214.609V182.5L235.281,182.5z"/>
<g>
	<path d="M52.601,130.533c0-3.426,0.512-6.302,1.537-8.628c0.765-1.713,1.81-3.251,3.133-4.613c1.323-1.361,2.772-2.371,4.349-3.029
		c2.096-0.887,4.514-1.33,7.252-1.33c4.957,0,8.924,1.537,11.899,4.612c2.975,3.075,4.464,7.352,4.464,12.829
		c0,5.433-1.477,9.683-4.43,12.748c-2.953,3.067-6.9,4.603-11.842,4.603c-5.003,0-8.98-1.525-11.934-4.578
		C54.075,140.094,52.601,135.889,52.601,130.533z M59.6,130.305c0,3.809,0.88,6.697,2.64,8.662c1.759,1.967,3.993,2.949,6.701,2.949
		s4.93-0.975,6.666-2.926s2.605-4.877,2.605-8.777c0-3.856-0.846-6.732-2.536-8.629c-1.69-1.896-3.936-2.846-6.735-2.846
		c-2.799,0-5.057,0.96-6.771,2.88C60.456,123.539,59.6,126.434,59.6,130.305z"/>
	<path d="M90.489,119.472v-5.967h6.449v5.967H90.489z M90.489,147.148v-24.373h6.449v24.373H90.489z"/>
	<path d="M103.548,147.148v-33.644h6.448v33.644H103.548z"/>
	<path d="M129.732,147.148v-33.644h14.297c3.596,0,6.207,0.303,7.838,0.906c1.629,0.604,2.934,1.68,3.912,3.225
		c0.979,1.546,1.469,3.313,1.469,5.302c0,2.523-0.742,4.608-2.227,6.253c-1.483,1.645-3.701,2.682-6.654,3.108
		c1.469,0.856,2.682,1.8,3.638,2.822c0.956,1.024,2.245,2.846,3.866,5.463l4.107,6.563h-8.123l-4.912-7.32
		c-1.743-2.617-2.938-4.264-3.58-4.945c-0.641-0.681-1.322-1.148-2.041-1.4c-0.721-0.252-1.859-0.379-3.42-0.379h-1.377v14.045
		H129.732L129.732,147.148z M136.525,127.734h5.024c3.261,0,5.294-0.138,6.104-0.413c0.812-0.275,1.445-0.749,1.904-1.423
		c0.459-0.673,0.688-1.515,0.688-2.524c0-1.132-0.302-2.046-0.906-2.742c-0.604-0.696-1.458-1.137-2.56-1.32
		c-0.551-0.076-2.203-0.114-4.957-0.114h-5.301v8.536H136.525z"/>
	<path d="M177.719,139.393l6.426,1.078c-0.826,2.355-2.131,4.15-3.912,5.381c-1.782,1.232-4.012,1.849-6.688,1.849
		c-4.237,0-7.375-1.386-9.41-4.154c-1.604-2.217-2.409-5.019-2.409-8.397c0-4.039,1.057-7.203,3.168-9.49
		c2.11-2.287,4.78-3.431,8.01-3.431c3.625,0,6.486,1.197,8.582,3.592s3.099,6.063,3.007,11.003h-16.156
		c0.046,1.912,0.565,3.4,1.562,4.464c0.994,1.063,2.232,1.596,3.717,1.596c1.011,0,1.859-0.274,2.548-0.825
		C176.848,141.504,177.367,140.617,177.719,139.393z M178.086,132.875c-0.045-1.867-0.527-3.285-1.445-4.258
		c-0.918-0.971-2.035-1.457-3.351-1.457c-1.407,0-2.569,0.513-3.488,1.537c-0.918,1.025-1.37,2.418-1.354,4.178H178.086z"/>
	<path d="M186.922,122.777h3.58v-1.836c0-2.05,0.219-3.58,0.654-4.59c0.436-1.01,1.238-1.832,2.408-2.467
		c1.172-0.635,2.651-0.952,4.44-0.952c1.836,0,3.634,0.275,5.394,0.826l-0.871,4.498c-1.025-0.245-2.012-0.367-2.961-0.367
		c-0.935,0-1.604,0.218-2.008,0.653c-0.406,0.437-0.607,1.274-0.607,2.513v1.722h4.818v5.071h-4.818v19.3h-6.449v-19.3h-3.58
		V122.777L186.922,122.777z"/>
</g>
</svg>
