<?xml version="1.0" encoding="utf-8"?>
<!-- Generator: Adobe Illustrator 16.0.0, SVG Export Plug-In . SVG Version: 6.00 Build 0)  -->
<!DOCTYPE svg PUBLIC "-//W3C//DTD SVG 1.1//EN" "http://www.w3.org/Graphics/SVG/1.1/DTD/svg11.dtd">
<svg version="1.1" id="Layer_2" xmlns="http://www.w3.org/2000/svg" xmlns:xlink="http://www.w3.org/1999/xlink" x="0px" y="0px"
	 width="256px" height="193.445px" viewBox="0 0 256 193.445" enable-background="new 0 0 256 193.445" xml:space="preserve">
<rect x="15.735" y="71.566" fill="#FFFFFF" width="224.047" height="115.799"/>
<path d="M181.023,67.188V0H74.977v67.188H9.688v126.281h236.578V67.188H181.023z M235.266,182.469H20.688V78.188h214.578V182.469z"
	/>
<g>
	<path d="M52.602,132.533c0-3.426,0.512-6.302,1.537-8.628c0.765-1.713,1.81-3.251,3.133-4.613c1.323-1.36,2.771-2.371,4.349-3.028
		c2.096-0.888,4.514-1.33,7.252-1.33c4.957,0,8.924,1.537,11.899,4.611c2.975,3.075,4.464,7.353,4.464,12.829
		c0,5.434-1.478,9.684-4.43,12.748c-2.953,3.067-6.9,4.604-11.843,4.604c-5.003,0-8.979-1.525-11.934-4.578
		C54.074,142.094,52.602,137.889,52.602,132.533z M59.601,132.305c0,3.809,0.88,6.696,2.64,8.661
		c1.759,1.968,3.993,2.949,6.701,2.949s4.93-0.975,6.666-2.926c1.735-1.951,2.604-4.877,2.604-8.777
		c0-3.855-0.846-6.731-2.536-8.629c-1.689-1.896-3.936-2.846-6.734-2.846c-2.798,0-5.058,0.96-6.771,2.88
		C60.456,125.539,59.601,128.434,59.601,132.305z"/>
	<path d="M90.489,121.472v-5.968h6.449v5.968H90.489z M90.489,149.148v-24.373h6.449v24.373H90.489z"/>
	<path d="M103.548,149.148v-33.645h6.448v33.645H103.548z"/>
	<path d="M129.732,149.148v-33.645h14.297c3.596,0,6.207,0.304,7.838,0.906c1.629,0.604,2.934,1.68,3.912,3.226
		s1.469,3.313,1.469,5.302c0,2.522-0.742,4.607-2.227,6.253c-1.483,1.645-3.701,2.682-6.654,3.107
		c1.469,0.856,2.682,1.801,3.638,2.822c0.956,1.024,2.245,2.846,3.866,5.463l4.107,6.563h-8.123l-4.912-7.32
		c-1.743-2.617-2.938-4.264-3.58-4.945c-0.641-0.681-1.322-1.147-2.041-1.399c-0.721-0.252-1.859-0.379-3.42-0.379h-1.377v14.045
		L129.732,149.148L129.732,149.148z M136.525,129.734h5.023c3.262,0,5.294-0.139,6.104-0.414c0.813-0.274,1.445-0.749,1.904-1.422
		s0.688-1.516,0.688-2.524c0-1.132-0.302-2.046-0.906-2.742c-0.604-0.695-1.458-1.137-2.56-1.319
		c-0.551-0.076-2.203-0.114-4.957-0.114h-5.301v8.537L136.525,129.734L136.525,129.734z"/>
	<path d="M177.719,141.393l6.426,1.078c-0.826,2.354-2.131,4.149-3.912,5.381s-4.012,1.849-6.688,1.849
		c-4.236,0-7.375-1.386-9.41-4.154c-1.604-2.217-2.408-5.019-2.408-8.396c0-4.039,1.057-7.203,3.168-9.49
		c2.109-2.287,4.779-3.431,8.01-3.431c3.625,0,6.486,1.196,8.582,3.592c2.096,2.395,3.099,6.063,3.007,11.003h-16.156
		c0.046,1.912,0.565,3.4,1.562,4.464c0.994,1.063,2.232,1.596,3.717,1.596c1.012,0,1.859-0.273,2.549-0.824
		C176.848,143.504,177.367,142.617,177.719,141.393z M178.086,134.875c-0.045-1.867-0.527-3.285-1.445-4.258
		c-0.918-0.971-2.035-1.457-3.351-1.457c-1.407,0-2.569,0.513-3.488,1.537c-0.918,1.025-1.37,2.418-1.354,4.178H178.086z"/>
	<path d="M186.922,124.777h3.58v-1.836c0-2.05,0.219-3.58,0.654-4.59c0.436-1.011,1.238-1.832,2.408-2.468
		c1.172-0.635,2.65-0.951,4.439-0.951c1.836,0,3.635,0.274,5.395,0.825l-0.871,4.498c-1.025-0.244-2.012-0.366-2.961-0.366
		c-0.936,0-1.604,0.218-2.008,0.652c-0.406,0.438-0.607,1.274-0.607,2.514v1.722h4.818v5.071h-4.818v19.301h-6.449v-19.301h-3.58
		V124.777L186.922,124.777z"/>
</g>
</svg>
