<?xml version="1.0" encoding="utf-8"?>
<!-- Generator: Adobe Illustrator 16.0.0, SVG Export Plug-In . SVG Version: 6.00 Build 0)  -->
<!DOCTYPE svg PUBLIC "-//W3C//DTD SVG 1.1//EN" "http://www.w3.org/Graphics/SVG/1.1/DTD/svg11.dtd">
<svg version="1.1" id="Layer_1" xmlns="http://www.w3.org/2000/svg" xmlns:xlink="http://www.w3.org/1999/xlink" x="0px" y="0px"
	 width="256px" height="256px" viewBox="0 0 256 256" enable-background="new 0 0 256 256" xml:space="preserve">
<rect x="15.5" y="73" fill="#FFFFFF" width="224" height="177.5"/>
<g>
	<rect x="16.5" y="188.5" fill="#FF3333" width="71.5" height="61"/>
	<g>
		<path d="M39.442,235.667v-33.644H53.74c3.595,0,6.208,0.303,7.837,0.906c1.629,0.604,2.933,1.68,3.913,3.225
			c0.979,1.546,1.469,3.313,1.469,5.302c0,2.522-0.742,4.608-2.226,6.253c-1.484,1.646-3.703,2.682-6.655,3.109
			c1.469,0.857,2.681,1.799,3.638,2.822c0.956,1.025,2.245,2.846,3.867,5.463l4.108,6.563h-8.124l-4.911-7.32
			c-1.744-2.617-2.938-4.265-3.58-4.945c-0.643-0.682-1.324-1.147-2.042-1.399c-0.719-0.253-1.859-0.379-3.419-0.379h-1.377v14.045
			H39.442L39.442,235.667z M46.235,216.252h5.026c3.259,0,5.293-0.139,6.104-0.413c0.811-0.274,1.446-0.749,1.905-1.423
			c0.459-0.673,0.688-1.516,0.688-2.523c0-1.133-0.302-2.047-0.906-2.742c-0.605-0.696-1.458-1.137-2.559-1.32
			c-0.551-0.076-2.203-0.114-4.957-0.114h-5.301V216.252z"/>
	</g>
</g>
<g>
	<g>
		<path d="M144.258,235.667h-7.389l-2.938-7.644h-13.45l-2.776,7.644H110.5l13.104-33.644h7.184L144.258,235.667z M131.751,222.355
			l-4.636-12.483l-4.544,12.483H131.751z"/>
	</g>
</g>
<g>
	<g>
		<path d="M202.07,223.297v-5.669h14.643v13.401c-1.424,1.377-3.484,2.591-6.186,3.639s-5.437,1.572-8.204,1.572
			c-3.521,0-6.587-0.738-9.202-2.215c-2.617-1.478-4.583-3.588-5.898-6.334s-1.974-5.733-1.974-8.963
			c0-3.502,0.733-6.617,2.203-9.34c1.469-2.724,3.618-4.812,6.448-6.266c2.158-1.116,4.843-1.676,8.056-1.676
			c4.177,0,7.438,0.877,9.788,2.628c2.348,1.752,3.857,4.174,4.531,7.264l-6.746,1.263c-0.475-1.652-1.365-2.957-2.674-3.912
			c-1.309-0.957-2.941-1.436-4.899-1.436c-2.97,0-5.328,0.939-7.08,2.823c-1.752,1.881-2.628,4.674-2.628,8.376
			c0,3.992,0.889,6.988,2.662,8.984c1.775,1.996,4.102,2.994,6.977,2.994c1.424,0,2.85-0.279,4.28-0.838
			c1.431-0.558,2.658-1.234,3.685-2.031v-4.268h-7.781V223.297z"/>
	</g>
</g>
<path d="M181,67.188V0H75v67.188H9.672V256h236.609V67.188H181z M85.5,245H20.672v-51.5H85.5V245z M163,245H92.5v-51.5H163V245z
	 M235.281,245H170v-51.5h65.281V245z M235.281,182.5H20.672V78.188h214.609V182.5L235.281,182.5z"/>
<g>
	<path d="M63.048,140.527l9.141-0.889c0.55,3.067,1.666,5.321,3.349,6.76c1.682,1.439,3.951,2.158,6.808,2.158
		c3.025,0,5.305-0.64,6.84-1.92c1.533-1.279,2.301-2.777,2.301-4.49c0-1.101-0.323-2.037-0.968-2.81
		c-0.646-0.772-1.772-1.444-3.381-2.017c-1.101-0.381-3.607-1.057-7.521-2.03c-5.036-1.248-8.569-2.782-10.601-4.603
		c-2.856-2.561-4.285-5.682-4.285-9.362c0-2.369,0.672-4.586,2.016-6.649c1.344-2.063,3.279-3.634,5.809-4.713
		c2.527-1.079,5.58-1.619,9.156-1.619c5.84,0,10.235,1.281,13.188,3.841c2.951,2.561,4.501,5.978,4.649,10.251l-9.395,0.413
		c-0.402-2.391-1.265-4.11-2.587-5.157c-1.322-1.048-3.307-1.571-5.951-1.571c-2.729,0-4.866,0.561-6.411,1.683
		c-0.994,0.719-1.491,1.682-1.491,2.888c0,1.101,0.465,2.042,1.396,2.825c1.185,0.994,4.063,2.031,8.633,3.109
		c4.57,1.08,7.95,2.196,10.141,3.349c2.189,1.153,3.903,2.729,5.142,4.729c1.237,1.999,1.856,4.47,1.856,7.409
		c0,2.666-0.741,5.164-2.222,7.49c-1.481,2.328-3.576,4.059-6.284,5.189c-2.709,1.132-6.084,1.698-10.125,1.698
		c-5.882,0-10.399-1.359-13.552-4.078C65.544,149.695,63.661,145.732,63.048,140.527z"/>
	<path d="M138.553,138.561l9.109,2.889c-1.396,5.078-3.719,8.85-6.967,11.314s-7.369,3.696-12.362,3.696
		c-6.179,0-11.257-2.11-15.234-6.331c-3.978-4.222-5.967-9.992-5.967-17.313c0-7.745,2-13.759,5.999-18.043
		c3.999-4.285,9.257-6.428,15.773-6.428c5.691,0,10.314,1.683,13.869,5.047c2.115,1.989,3.703,4.846,4.762,8.569l-9.301,2.222
		c-0.549-2.412-1.696-4.316-3.442-5.713c-1.745-1.396-3.867-2.095-6.363-2.095c-3.449,0-6.248,1.237-8.395,3.714
		c-2.148,2.475-3.222,6.485-3.222,12.028c0,5.883,1.058,10.072,3.174,12.568c2.115,2.496,4.866,3.744,8.252,3.744
		c2.497,0,4.644-0.793,6.442-2.381C136.479,144.464,137.77,141.967,138.553,138.561z"/>
	<path d="M155.755,155.667v-46.528h9.396v18.313h18.408v-18.313h9.395v46.528h-9.395v-20.345H165.15v20.345H155.755z"/>
</g>
</svg>
