<?xml version="1.0" encoding="utf-8"?>
<!-- Generator: Adobe Illustrator 16.0.0, SVG Export Plug-In . SVG Version: 6.00 Build 0)  -->
<!DOCTYPE svg PUBLIC "-//W3C//DTD SVG 1.1//EN" "http://www.w3.org/Graphics/SVG/1.1/DTD/svg11.dtd">
<svg version="1.1" id="Layer_2" xmlns="http://www.w3.org/2000/svg" xmlns:xlink="http://www.w3.org/1999/xlink" x="0px" y="0px"
	 width="256px" height="193.445px" viewBox="0 0 256 193.445" enable-background="new 0 0 256 193.445" xml:space="preserve">
<rect x="15.735" y="71.566" fill="#FFFFFF" width="224.047" height="115.799"/>
<path d="M181.023,67.188V0H74.977v67.188H9.688v126.281h236.578V67.188H181.023z M235.266,182.469H20.688V78.188h214.578V182.469z"
	/>
<g>
	<path d="M63.047,140.527l9.141-0.889c0.55,3.066,1.666,5.32,3.349,6.76c1.682,1.438,3.951,2.158,6.808,2.158
		c3.025,0,5.305-0.641,6.84-1.92c1.533-1.279,2.301-2.777,2.301-4.49c0-1.102-0.323-2.037-0.968-2.811
		c-0.646-0.771-1.772-1.443-3.381-2.017c-1.101-0.381-3.607-1.057-7.521-2.03c-5.036-1.248-8.569-2.782-10.601-4.603
		c-2.856-2.562-4.285-5.683-4.285-9.362c0-2.369,0.672-4.586,2.016-6.649c1.344-2.063,3.279-3.634,5.809-4.713
		c2.527-1.079,5.58-1.619,9.156-1.619c5.84,0,10.235,1.281,13.188,3.842c2.951,2.561,4.501,5.978,4.649,10.251l-9.395,0.413
		c-0.402-2.392-1.265-4.11-2.587-5.157c-1.322-1.048-3.307-1.571-5.951-1.571c-2.729,0-4.866,0.562-6.411,1.684
		c-0.994,0.719-1.491,1.682-1.491,2.888c0,1.101,0.465,2.042,1.396,2.825c1.185,0.994,4.063,2.03,8.633,3.108
		c4.57,1.08,7.95,2.196,10.141,3.35c2.189,1.152,3.903,2.729,5.142,4.729c1.237,1.999,1.856,4.47,1.856,7.409
		c0,2.666-0.741,5.164-2.222,7.49c-1.481,2.328-3.576,4.059-6.284,5.188c-2.709,1.132-6.084,1.698-10.125,1.698
		c-5.882,0-10.399-1.359-13.552-4.078C65.543,149.695,63.661,145.732,63.047,140.527z"/>
	<path d="M138.553,138.561l9.109,2.889c-1.396,5.078-3.719,8.85-6.967,11.314c-3.248,2.464-7.369,3.695-12.363,3.695
		c-6.179,0-11.257-2.109-15.234-6.331c-3.978-4.222-5.967-9.991-5.967-17.313c0-7.745,2-13.759,5.999-18.043
		c3.999-4.285,9.257-6.428,15.772-6.428c5.693,0,10.315,1.683,13.871,5.047c2.115,1.988,3.703,4.846,4.762,8.568l-9.301,2.223
		c-0.549-2.412-1.697-4.316-3.443-5.713c-1.744-1.396-3.867-2.096-6.362-2.096c-3.449,0-6.248,1.237-8.395,3.714
		c-2.148,2.476-3.222,6.485-3.222,12.028c0,5.883,1.058,10.072,3.174,12.568c2.115,2.496,4.866,3.744,8.252,3.744
		c2.497,0,4.644-0.793,6.442-2.382C136.479,144.464,137.77,141.967,138.553,138.561z"/>
	<path d="M155.754,155.667v-46.527h9.396v18.313h18.408v-18.313h9.395v46.527h-9.395v-20.345H165.15v20.345H155.754z"/>
</g>
</svg>
