<?xml version="1.0" encoding="utf-8"?>
<!-- Generator: Adobe Illustrator 16.0.0, SVG Export Plug-In . SVG Version: 6.00 Build 0)  -->
<!DOCTYPE svg PUBLIC "-//W3C//DTD SVG 1.1//EN" "http://www.w3.org/Graphics/SVG/1.1/DTD/svg11.dtd">
<svg version="1.1" id="Layer_2" xmlns="http://www.w3.org/2000/svg" xmlns:xlink="http://www.w3.org/1999/xlink" x="0px" y="0px"
	 width="256px" height="193.445px" viewBox="0 0 256 193.445" enable-background="new 0 0 256 193.445" xml:space="preserve">
<rect x="16.735" y="72.566" fill="#FFFFFF" width="224.047" height="115.799"/>
<path d="M181.023,67.188V0H74.977v67.188H9.688v126.281h236.578V67.188H181.023z M235.266,182.469H20.688V78.188h214.578V182.469z"
	/>
<g>
	<path d="M63.366,150.001V119.67H52.533v-6.176h29.012v6.176H70.737v30.331H63.366L63.366,150.001z"/>
	<path d="M97.781,141.584l6.973,1.171c-0.896,2.559-2.313,4.503-4.246,5.84c-1.935,1.338-4.354,2.006-7.259,2.006
		c-4.599,0-8.003-1.502-10.21-4.51c-1.743-2.404-2.615-5.443-2.615-9.111c0-4.383,1.146-7.815,3.437-10.298
		c2.291-2.481,5.188-3.724,8.691-3.724c3.935,0,7.038,1.299,9.313,3.897c2.274,2.599,3.361,6.578,3.262,11.939H87.596
		c0.05,2.075,0.614,3.688,1.693,4.846c1.079,1.153,2.424,1.729,4.034,1.729c1.096,0,2.018-0.3,2.765-0.896
		C96.835,143.875,97.398,142.912,97.781,141.584z M98.18,134.512c-0.05-2.025-0.573-3.564-1.569-4.619
		c-0.996-1.056-2.208-1.58-3.636-1.58c-1.527,0-2.789,0.556-3.785,1.668c-0.996,1.11-1.485,2.623-1.469,4.531H98.18z"/>
	<path d="M110.83,150.001v-36.507h6.997v36.507H110.83z"/>
	<path d="M139.219,150.001v-36.507h27.068v6.176H146.59v8.095h18.328v6.149H146.59v9.938h20.395v6.148H139.219L139.219,150.001z"/>
	<path d="M169.525,150.001l12.477-19.051l-11.307-17.456h8.617l7.318,11.729l7.174-11.729h8.541l-11.355,17.73L203.467,150h-8.891
		l-8.092-12.625L178.365,150L169.525,150.001L169.525,150.001z"/>
</g>
</svg>
