<?xml version="1.0" encoding="utf-8"?>
<!-- Generator: Adobe Illustrator 16.0.0, SVG Export Plug-In . SVG Version: 6.00 Build 0)  -->
<!DOCTYPE svg PUBLIC "-//W3C//DTD SVG 1.1//EN" "http://www.w3.org/Graphics/SVG/1.1/DTD/svg11.dtd">
<svg version="1.1" id="Layer_1" xmlns="http://www.w3.org/2000/svg" xmlns:xlink="http://www.w3.org/1999/xlink" x="0px" y="0px"
	 width="256px" height="256px" viewBox="0 0 256 256" enable-background="new 0 0 256 256" xml:space="preserve">
<rect x="15.5" y="73" fill="#FFFFFF" width="224" height="176.5"/>
<g>
	<g>
		<path d="M39.442,235.667v-33.644H53.74c3.595,0,6.208,0.303,7.837,0.906c1.629,0.604,2.933,1.68,3.913,3.225
			c0.979,1.546,1.469,3.313,1.469,5.302c0,2.522-0.742,4.608-2.226,6.253c-1.484,1.646-3.703,2.682-6.655,3.109
			c1.469,0.856,2.681,1.799,3.638,2.822c0.956,1.024,2.245,2.846,3.867,5.463l4.108,6.563h-8.124l-4.911-7.32
			c-1.744-2.617-2.938-4.265-3.58-4.945c-0.643-0.682-1.324-1.146-2.042-1.398c-0.719-0.253-1.859-0.379-3.419-0.379h-1.377v14.045
			L39.442,235.667L39.442,235.667z M46.235,216.252h5.026c3.259,0,5.293-0.139,6.104-0.413c0.811-0.274,1.446-0.749,1.905-1.423
			c0.459-0.673,0.688-1.516,0.688-2.523c0-1.133-0.302-2.047-0.906-2.742c-0.605-0.695-1.458-1.137-2.559-1.319
			c-0.551-0.076-2.203-0.114-4.957-0.114h-5.301V216.252z"/>
	</g>
</g>
<g>
	<g>
		<path d="M144.258,235.667h-7.389l-2.938-7.644h-13.451l-2.776,7.644H110.5l13.104-33.644h7.184L144.258,235.667z M131.751,222.355
			l-4.636-12.483l-4.544,12.483H131.751z"/>
	</g>
</g>
<g>
	<rect x="167" y="189" fill="#33FF33" width="71.5" height="61"/>
	<g>
		<path d="M202.07,223.297v-5.669h14.643v13.401c-1.424,1.377-3.484,2.591-6.186,3.639c-2.702,1.048-5.438,1.572-8.204,1.572
			c-3.521,0-6.587-0.738-9.202-2.215c-2.617-1.479-4.583-3.588-5.898-6.334c-1.314-2.746-1.974-5.733-1.974-8.963
			c0-3.502,0.733-6.617,2.203-9.34c1.469-2.725,3.618-4.813,6.448-6.267c2.158-1.116,4.843-1.677,8.056-1.677
			c4.177,0,7.438,0.877,9.788,2.629c2.348,1.752,3.857,4.174,4.531,7.264l-6.746,1.264c-0.475-1.652-1.365-2.957-2.674-3.912
			c-1.31-0.957-2.941-1.437-4.899-1.437c-2.97,0-5.328,0.938-7.08,2.823c-1.752,1.881-2.628,4.674-2.628,8.376
			c0,3.991,0.889,6.987,2.662,8.983c1.775,1.996,4.102,2.994,6.977,2.994c1.424,0,2.85-0.279,4.28-0.838
			c1.431-0.558,2.658-1.234,3.685-2.031v-4.268h-7.781V223.297L202.07,223.297z"/>
	</g>
</g>
<path d="M181,67.188V0H75v67.188H9.672V256h236.609V67.188H181z M85.5,245H20.672v-51.5H85.5V245z M163,245H92.5v-51.5H163V245z
	 M235.281,245H170v-51.5h65.281V245z M235.281,182.5H20.672V78.188h214.609V182.5L235.281,182.5z"/>
<g>
	<path d="M63.366,151.001V120.67H52.533v-6.176h29.012v6.176H70.737v30.331H63.366L63.366,151.001z"/>
	<path d="M97.781,142.584l6.973,1.171c-0.896,2.558-2.313,4.503-4.246,5.839c-1.935,1.338-4.354,2.006-7.259,2.006
		c-4.599,0-8.003-1.502-10.21-4.509c-1.743-2.405-2.615-5.444-2.615-9.112c0-4.383,1.146-7.814,3.437-10.297
		c2.291-2.481,5.188-3.723,8.691-3.723c3.935,0,7.038,1.299,9.313,3.897c2.274,2.599,3.361,6.579,3.262,11.94H87.596
		c0.05,2.075,0.614,3.688,1.693,4.846c1.079,1.153,2.424,1.729,4.034,1.729c1.096,0,2.018-0.301,2.765-0.896
		C96.835,144.875,97.398,143.912,97.781,142.584z M98.18,135.512c-0.05-2.025-0.573-3.564-1.569-4.619
		c-0.996-1.055-2.208-1.58-3.636-1.58c-1.527,0-2.789,0.557-3.785,1.668s-1.485,2.623-1.469,4.531H98.18z"/>
	<path d="M110.83,151.001v-36.507h6.997v36.507H110.83z"/>
	<path d="M139.219,151.001v-36.507h27.068v6.176H146.59v8.094h18.328v6.15H146.59v9.938h20.395v6.149H139.219L139.219,151.001z"/>
	<path d="M169.525,151.001l12.477-19.051l-11.307-17.456h8.617l7.318,11.729l7.174-11.729h8.541l-11.355,17.73L203.467,151h-8.891
		l-8.092-12.625L178.365,151L169.525,151.001L169.525,151.001z"/>
</g>
</svg>
