<?xml version="1.0" encoding="utf-8"?>
<!-- Generator: Adobe Illustrator 16.0.0, SVG Export Plug-In . SVG Version: 6.00 Build 0)  -->
<!DOCTYPE svg PUBLIC "-//W3C//DTD SVG 1.1//EN" "http://www.w3.org/Graphics/SVG/1.1/DTD/svg11.dtd">
<svg version="1.1" id="Layer_2" xmlns="http://www.w3.org/2000/svg" xmlns:xlink="http://www.w3.org/1999/xlink" x="0px" y="0px"
	 width="256px" height="193.445px" viewBox="0 0 256 193.445" enable-background="new 0 0 256 193.445" xml:space="preserve">
<rect x="15.735" y="72.566" fill="#FFFFFF" width="224.047" height="115.799"/>
<path d="M181.023,67.188V0H74.977v67.188H9.688v126.281h236.578V67.188H181.023z M235.266,182.469H20.688V78.188h214.578V182.469z"
	/>
<g>
	<path d="M61.582,152.334l-9.912-41.518h8.581l6.259,28.519l7.59-28.519h9.969l7.278,29l6.372-29h8.439l-10.082,41.518h-8.893
		l-8.27-31.039l-8.241,31.039H61.582z"/>
	<path d="M123.78,152.334V117.84h-12.319v-7.022h32.993v7.022h-12.291v34.494H123.78z"/>
	<path d="M159.754,152.334l-9.912-41.518h8.581l6.259,28.519l7.59-28.519h9.971l7.277,29l6.371-29h8.439l-10.082,41.518h-8.893
		l-8.271-31.039l-8.241,31.039H159.754z"/>
</g>
</svg>
