<?xml version="1.0" encoding="utf-8"?>
<!-- Generator: Adobe Illustrator 16.0.0, SVG Export Plug-In . SVG Version: 6.00 Build 0)  -->
<!DOCTYPE svg PUBLIC "-//W3C//DTD SVG 1.1//EN" "http://www.w3.org/Graphics/SVG/1.1/DTD/svg11.dtd">
<svg version="1.1" id="Layer_1" xmlns="http://www.w3.org/2000/svg" xmlns:xlink="http://www.w3.org/1999/xlink" x="0px" y="0px"
	 width="256px" height="256px" viewBox="0 0 256 256" enable-background="new 0 0 256 256" xml:space="preserve">
<rect x="15.5" y="73" fill="#FFFFFF" width="224" height="176.5"/>
<g>
	<rect x="16.5" y="188.5" fill="#FF3333" width="71.5" height="61"/>
	<g>
		<path d="M39.442,235.667v-33.644H53.74c3.595,0,6.208,0.303,7.837,0.906c1.629,0.604,2.933,1.68,3.913,3.225
			c0.979,1.546,1.469,3.313,1.469,5.302c0,2.522-0.742,4.608-2.226,6.253c-1.484,1.646-3.703,2.682-6.655,3.109
			c1.469,0.856,2.681,1.799,3.638,2.822c0.956,1.024,2.245,2.846,3.867,5.463l4.108,6.563h-8.124l-4.911-7.32
			c-1.744-2.617-2.938-4.265-3.58-4.945c-0.643-0.682-1.324-1.146-2.042-1.398c-0.719-0.253-1.859-0.379-3.419-0.379h-1.377v14.045
			L39.442,235.667L39.442,235.667z M46.235,216.252h5.026c3.259,0,5.293-0.139,6.104-0.413c0.811-0.274,1.446-0.749,1.905-1.423
			c0.459-0.673,0.688-1.516,0.688-2.523c0-1.133-0.302-2.047-0.906-2.742c-0.605-0.695-1.458-1.137-2.559-1.319
			c-0.551-0.076-2.203-0.114-4.957-0.114h-5.301V216.252z"/>
	</g>
</g>
<g>
	<g>
		<path d="M144.258,235.667h-7.389l-2.938-7.644h-13.451l-2.776,7.644H110.5l13.104-33.644h7.184L144.258,235.667z M131.751,222.355
			l-4.636-12.483l-4.544,12.483H131.751z"/>
	</g>
</g>
<g>
	<g>
		<path d="M202.07,223.297v-5.669h14.643v13.401c-1.424,1.377-3.484,2.591-6.186,3.639c-2.702,1.048-5.438,1.572-8.204,1.572
			c-3.521,0-6.587-0.738-9.202-2.215c-2.617-1.479-4.583-3.588-5.898-6.334c-1.314-2.746-1.974-5.733-1.974-8.963
			c0-3.502,0.733-6.617,2.203-9.34c1.469-2.725,3.618-4.813,6.448-6.267c2.158-1.116,4.843-1.677,8.056-1.677
			c4.177,0,7.438,0.877,9.788,2.629c2.348,1.752,3.857,4.174,4.531,7.264l-6.746,1.264c-0.475-1.652-1.365-2.957-2.674-3.912
			c-1.31-0.957-2.941-1.437-4.899-1.437c-2.97,0-5.328,0.938-7.08,2.823c-1.752,1.881-2.628,4.674-2.628,8.376
			c0,3.991,0.889,6.987,2.662,8.983c1.775,1.996,4.102,2.994,6.977,2.994c1.424,0,2.85-0.279,4.28-0.838
			c1.431-0.558,2.658-1.234,3.685-2.031v-4.268h-7.781V223.297L202.07,223.297z"/>
	</g>
</g>
<path d="M181,67.188V0H75v67.188H9.672V256h236.609V67.188H181z M85.5,245H20.672v-51.5H85.5V245z M163,245H92.5v-51.5H163V245z
	 M235.281,245H170v-51.5h65.281V245z M235.281,182.5H20.672V78.188h214.609V182.5L235.281,182.5z"/>
<g>
	<path d="M61.582,153.334l-9.912-41.518h8.581l6.259,28.519l7.59-28.519h9.969l7.278,29l6.372-29h8.439l-10.082,41.518h-8.893
		l-8.27-31.039l-8.241,31.039H61.582z"/>
	<path d="M123.78,153.334V118.84h-12.319v-7.023h32.993v7.023h-12.291v34.494H123.78z"/>
	<path d="M159.754,153.334l-9.912-41.518h8.581l6.259,28.519l7.59-28.519h9.971l7.277,29l6.371-29h8.439l-10.082,41.518h-8.893
		l-8.271-31.039l-8.241,31.039H159.754z"/>
</g>
</svg>
