<?xml version="1.0" encoding="utf-8"?>
<!-- Generator: Adobe Illustrator 16.0.0, SVG Export Plug-In . SVG Version: 6.00 Build 0)  -->
<!DOCTYPE svg PUBLIC "-//W3C//DTD SVG 1.1//EN" "http://www.w3.org/Graphics/SVG/1.1/DTD/svg11.dtd">
<svg version="1.1" id="Layer_1" xmlns="http://www.w3.org/2000/svg" xmlns:xlink="http://www.w3.org/1999/xlink" x="0px" y="0px"
	 width="256px" height="256px" viewBox="0 0 256 256" enable-background="new 0 0 256 256" xml:space="preserve">
<g>
	
		<rect x="41.037" y="41.038" transform="matrix(-0.7071 0.7071 -0.7071 -0.7071 309.0193 128.0007)" fill="#FFFFFF" width="173.926" height="173.925"/>
</g>
<g>
	<path d="M128,15.572L240.427,128L128,240.427L15.572,128L128,15.572 M128,0.016L0.016,128L128,255.983L255.983,128L128,0.016
		L128,0.016z"/>
</g>
<g>
	<path d="M58.457,102.087h8.584c1.699,0,2.966,0.071,3.801,0.212s1.582,0.437,2.241,0.886s1.209,1.047,1.648,1.794
		s0.659,1.584,0.659,2.512c0,1.006-0.271,1.929-0.813,2.769s-1.276,1.47-2.204,1.89c1.309,0.381,2.314,1.03,3.018,1.948
		s1.055,1.997,1.055,3.237c0,0.977-0.228,1.927-0.682,2.849c-0.454,0.924-1.074,1.661-1.86,2.213s-1.755,0.891-2.907,1.018
		c-0.723,0.078-2.466,0.127-5.229,0.146h-7.31V102.087z M62.793,105.661v4.966h2.842c1.689,0,2.739-0.024,3.149-0.073
		c0.742-0.088,1.325-0.344,1.75-0.769s0.638-0.984,0.638-1.677c0-0.664-0.184-1.204-0.55-1.619s-0.91-0.667-1.633-0.754
		c-0.43-0.049-1.665-0.073-3.706-0.073H62.793z M62.793,114.201v5.742h4.014c1.563,0,2.554-0.044,2.974-0.132
		c0.645-0.117,1.169-0.402,1.574-0.857c0.405-0.454,0.608-1.062,0.608-1.823c0-0.645-0.156-1.191-0.469-1.641
		s-0.765-0.776-1.355-0.981s-1.872-0.308-3.845-0.308H62.793z"/>
	<path d="M80.078,105.896v-3.809h4.116v3.809H80.078z M80.078,123.562v-15.557h4.116v15.557H80.078z"/>
	<path d="M87.461,115.563c0-1.367,0.337-2.69,1.011-3.97s1.628-2.256,2.863-2.93s2.615-1.011,4.139-1.011
		c2.354,0,4.282,0.764,5.786,2.292s2.256,3.459,2.256,5.793c0,2.354-0.76,4.305-2.278,5.852c-1.519,1.549-3.43,2.322-5.734,2.322
		c-1.426,0-2.786-0.322-4.08-0.967s-2.277-1.59-2.951-2.834C87.798,118.866,87.461,117.351,87.461,115.563z M91.68,115.783
		c0,1.543,0.366,2.725,1.099,3.545s1.636,1.23,2.71,1.23s1.975-0.41,2.702-1.23s1.092-2.012,1.092-3.574
		c0-1.523-0.364-2.695-1.092-3.516s-1.628-1.23-2.702-1.23s-1.978,0.41-2.71,1.23S91.68,114.24,91.68,115.783z"/>
	<path d="M106.738,123.562v-21.475h4.116v21.475H106.738z"/>
	<path d="M114.121,115.563c0-1.367,0.337-2.69,1.011-3.97s1.628-2.256,2.863-2.93s2.615-1.011,4.139-1.011
		c2.354,0,4.282,0.764,5.786,2.292s2.256,3.459,2.256,5.793c0,2.354-0.76,4.305-2.277,5.852c-1.52,1.549-3.431,2.322-5.735,2.322
		c-1.426,0-2.786-0.322-4.08-0.967s-2.277-1.59-2.951-2.834C114.458,118.866,114.121,117.351,114.121,115.563z M118.34,115.783
		c0,1.543,0.366,2.725,1.099,3.545s1.636,1.23,2.71,1.23s1.975-0.41,2.703-1.23c0.727-0.82,1.091-2.012,1.091-3.574
		c0-1.523-0.364-2.695-1.091-3.516c-0.729-0.82-1.629-1.23-2.703-1.23s-1.978,0.41-2.71,1.23S118.34,114.24,118.34,115.783z"/>
	<path d="M133.018,124.587l4.701,0.571c0.078,0.547,0.26,0.923,0.543,1.128c0.391,0.293,1.006,0.439,1.846,0.439
		c1.074,0,1.879-0.161,2.416-0.483c0.361-0.215,0.635-0.562,0.82-1.04c0.127-0.342,0.191-0.972,0.191-1.89v-2.271
		c-1.23,1.68-2.783,2.52-4.658,2.52c-2.09,0-3.746-0.884-4.967-2.651c-0.957-1.396-1.436-3.135-1.436-5.215
		c0-2.607,0.627-4.6,1.883-5.977c1.254-1.377,2.814-2.065,4.68-2.065c1.924,0,3.512,0.845,4.762,2.534v-2.183h3.852v13.96
		c0,1.836-0.15,3.208-0.453,4.116s-0.729,1.621-1.275,2.139s-1.277,0.923-2.189,1.216c-0.914,0.293-2.068,0.439-3.465,0.439
		c-2.637,0-4.506-0.452-5.609-1.354c-1.104-0.904-1.656-2.049-1.656-3.436C133.002,124.948,133.008,124.782,133.018,124.587z
		 M136.693,115.461c0,1.65,0.32,2.859,0.959,3.626c0.641,0.767,1.43,1.149,2.367,1.149c1.006,0,1.855-0.393,2.549-1.179
		s1.039-1.951,1.039-3.494c0-1.611-0.332-2.808-0.996-3.589s-1.504-1.172-2.52-1.172c-0.986,0-1.799,0.383-2.439,1.15
		C137.014,112.719,136.693,113.889,136.693,115.461z"/>
	<path d="M151.723,105.896v-3.809h4.117v3.809H151.723z M151.723,123.562v-15.557h4.117v15.557H151.723z"/>
	<path d="M173.623,112.604l-4.059,0.732c-0.137-0.811-0.447-1.421-0.93-1.831c-0.484-0.41-1.111-0.615-1.883-0.615
		c-1.025,0-1.844,0.354-2.453,1.062c-0.611,0.708-0.916,1.892-0.916,3.552c0,1.846,0.311,3.149,0.93,3.911
		c0.621,0.762,1.453,1.143,2.498,1.143c0.781,0,1.422-0.222,1.92-0.667c0.498-0.443,0.85-1.208,1.055-2.292l4.043,0.688
		c-0.42,1.855-1.227,3.257-2.418,4.204s-2.787,1.421-4.789,1.421c-2.275,0-4.09-0.718-5.443-2.153
		c-1.352-1.436-2.027-3.423-2.027-5.962c0-2.568,0.678-4.568,2.035-5.999s3.193-2.146,5.508-2.146c1.895,0,3.4,0.408,4.52,1.223
		C172.33,109.692,173.135,110.935,173.623,112.604z"/>
	<path d="M179.818,112.751l-3.734-0.674c0.42-1.504,1.143-2.617,2.168-3.34s2.549-1.084,4.57-1.084c1.836,0,3.203,0.217,4.102,0.652
		s1.531,0.986,1.896,1.655c0.367,0.669,0.549,1.897,0.549,3.684l-0.043,4.805c0,1.367,0.066,2.376,0.197,3.024
		c0.133,0.65,0.379,1.346,0.74,2.088h-4.072c-0.107-0.273-0.24-0.679-0.396-1.216c-0.068-0.244-0.117-0.405-0.146-0.483
		c-0.703,0.684-1.455,1.196-2.256,1.538s-1.654,0.513-2.563,0.513c-1.602,0-2.863-0.435-3.787-1.304
		c-0.922-0.869-1.385-1.968-1.385-3.296c0-0.879,0.211-1.663,0.631-2.351s1.008-1.216,1.766-1.582
		c0.756-0.366,1.848-0.686,3.273-0.959c1.924-0.361,3.256-0.698,3.998-1.011V113c0-0.791-0.195-1.355-0.586-1.692
		s-1.127-0.505-2.211-0.505c-0.732,0-1.305,0.144-1.715,0.432S180.072,112.028,179.818,112.751z M185.326,116.091
		c-0.527,0.176-1.361,0.386-2.504,0.63s-1.891,0.483-2.242,0.718c-0.537,0.381-0.805,0.864-0.805,1.45
		c0,0.576,0.215,1.074,0.645,1.494s0.977,0.63,1.641,0.63c0.742,0,1.449-0.244,2.123-0.732c0.498-0.371,0.826-0.825,0.982-1.362
		c0.107-0.352,0.16-1.021,0.16-2.007V116.091z"/>
	<path d="M193.428,123.562v-21.475h4.115v21.475H193.428z"/>
	<path d="M73.42,159.562v-21.475h9.126c2.295,0,3.963,0.193,5.003,0.578c1.04,0.387,1.872,1.072,2.497,2.059
		s0.938,2.114,0.938,3.384c0,1.611-0.474,2.942-1.421,3.991c-0.947,1.051-2.363,1.712-4.248,1.985
		c0.938,0.547,1.712,1.147,2.322,1.802s1.433,1.816,2.468,3.486l2.622,4.189h-5.186l-3.135-4.673
		c-1.113-1.67-1.875-2.722-2.285-3.157c-0.41-0.434-0.845-0.732-1.304-0.893c-0.459-0.162-1.187-0.242-2.183-0.242h-0.879v8.965
		H73.42z M77.756,147.169h3.208c2.08,0,3.379-0.088,3.896-0.264s0.923-0.479,1.216-0.908s0.439-0.967,0.439-1.611
		c0-0.723-0.192-1.306-0.578-1.75s-0.931-0.726-1.634-0.843c-0.352-0.049-1.406-0.073-3.164-0.073h-3.384V147.169z"/>
	<path d="M104.05,154.61l4.102,0.688c-0.527,1.504-1.359,2.649-2.497,3.435c-1.138,0.787-2.562,1.18-4.271,1.18
		c-2.705,0-4.707-0.884-6.006-2.651c-1.025-1.416-1.538-3.203-1.538-5.361c0-2.578,0.674-4.597,2.021-6.058
		c1.348-1.459,3.052-2.189,5.112-2.189c2.314,0,4.141,0.765,5.479,2.293s1.978,3.869,1.919,7.023H98.059
		c0.029,1.221,0.361,2.171,0.996,2.85s1.426,1.018,2.373,1.018c0.645,0,1.187-0.176,1.626-0.527S103.825,155.392,104.05,154.61z
		 M104.284,150.45c-0.029-1.191-0.337-2.097-0.923-2.717s-1.299-0.931-2.139-0.931c-0.898,0-1.641,0.327-2.227,0.981
		s-0.874,1.543-0.864,2.666H104.284z"/>
	<path d="M111.726,159.562v-21.475h4.116v21.475H111.726z"/>
	<path d="M129.068,154.61l4.102,0.688c-0.527,1.504-1.359,2.649-2.498,3.435c-1.137,0.787-2.56,1.18-4.269,1.18
		c-2.705,0-4.707-0.884-6.006-2.651c-1.025-1.416-1.538-3.203-1.538-5.361c0-2.578,0.674-4.597,2.022-6.058
		c1.348-1.459,3.051-2.189,5.111-2.189c2.314,0,4.14,0.765,5.478,2.293s1.979,3.869,1.92,7.023h-10.312
		c0.029,1.221,0.361,2.171,0.996,2.85s1.426,1.018,2.373,1.018c0.645,0,1.186-0.176,1.625-0.527S128.845,155.392,129.068,154.61z
		 M129.303,150.45c-0.029-1.191-0.335-2.097-0.921-2.717s-1.299-0.931-2.139-0.931c-0.898,0-1.641,0.327-2.227,0.981
		s-0.875,1.543-0.865,2.666H129.303z"/>
	<path d="M139.822,148.751l-3.736-0.674c0.42-1.504,1.143-2.617,2.168-3.34s2.549-1.084,4.57-1.084c1.836,0,3.203,0.218,4.102,0.652
		s1.531,0.986,1.896,1.654c0.367,0.67,0.551,1.897,0.551,3.685l-0.045,4.805c0,1.367,0.066,2.376,0.197,3.024
		c0.133,0.65,0.379,1.346,0.74,2.088h-4.072c-0.107-0.273-0.238-0.679-0.395-1.216c-0.068-0.244-0.117-0.405-0.146-0.483
		c-0.703,0.684-1.455,1.196-2.256,1.538s-1.656,0.513-2.564,0.513c-1.602,0-2.863-0.435-3.787-1.304
		c-0.922-0.869-1.383-1.968-1.383-3.296c0-0.879,0.209-1.662,0.629-2.352c0.42-0.688,1.008-1.215,1.766-1.582
		c0.756-0.365,1.848-0.686,3.273-0.959c1.924-0.361,3.258-0.698,4-1.011V149c0-0.791-0.195-1.354-0.586-1.692
		c-0.391-0.336-1.129-0.505-2.213-0.505c-0.732,0-1.303,0.145-1.713,0.433S140.076,148.028,139.822,148.751z M145.33,152.091
		c-0.527,0.176-1.363,0.386-2.506,0.63s-1.889,0.483-2.24,0.718c-0.537,0.381-0.807,0.864-0.807,1.45
		c0,0.576,0.215,1.074,0.645,1.494s0.977,0.63,1.641,0.63c0.742,0,1.451-0.244,2.125-0.732c0.498-0.371,0.824-0.825,0.98-1.362
		c0.107-0.352,0.162-1.021,0.162-2.007V152.091z"/>
	<path d="M151.979,155.123l4.131-0.63c0.176,0.801,0.533,1.409,1.07,1.824s1.289,0.622,2.256,0.622c1.064,0,1.865-0.195,2.402-0.586
		c0.361-0.273,0.541-0.64,0.541-1.099c0-0.313-0.098-0.571-0.293-0.776c-0.205-0.195-0.664-0.376-1.377-0.542
		c-3.32-0.732-5.424-1.401-6.313-2.007c-1.23-0.84-1.846-2.007-1.846-3.501c0-1.348,0.531-2.48,1.596-3.398s2.715-1.377,4.951-1.377
		c2.129,0,3.711,0.347,4.746,1.04s1.748,1.719,2.139,3.076l-3.881,0.718c-0.166-0.605-0.482-1.069-0.945-1.392
		c-0.465-0.322-1.125-0.483-1.984-0.483c-1.084,0-1.861,0.151-2.33,0.454c-0.313,0.215-0.469,0.493-0.469,0.835
		c0,0.293,0.137,0.542,0.41,0.747c0.371,0.273,1.652,0.659,3.846,1.157c2.191,0.498,3.723,1.108,4.592,1.831
		c0.859,0.732,1.289,1.753,1.289,3.062c0,1.426-0.596,2.651-1.787,3.677s-2.953,1.538-5.287,1.538c-2.119,0-3.797-0.43-5.033-1.289
		C153.168,157.765,152.359,156.598,151.979,155.123z"/>
	<path d="M179.123,154.61l4.102,0.688c-0.527,1.504-1.359,2.649-2.498,3.435c-1.137,0.787-2.561,1.18-4.27,1.18
		c-2.705,0-4.707-0.884-6.006-2.651c-1.025-1.416-1.537-3.203-1.537-5.361c0-2.578,0.674-4.597,2.021-6.058
		c1.348-1.459,3.051-2.189,5.111-2.189c2.314,0,4.141,0.765,5.479,2.293s1.979,3.869,1.92,7.023h-10.313
		c0.029,1.221,0.361,2.171,0.996,2.85s1.426,1.018,2.373,1.018c0.645,0,1.186-0.176,1.625-0.527S178.898,155.392,179.123,154.61z
		 M179.357,150.45c-0.029-1.191-0.336-2.097-0.922-2.717s-1.299-0.931-2.139-0.931c-0.898,0-1.641,0.327-2.227,0.981
		s-0.875,1.543-0.865,2.666H179.357z"/>
</g>
</svg>
