<?xml version="1.0" encoding="utf-8"?>
<!-- Generator: Adobe Illustrator 16.0.0, SVG Export Plug-In . SVG Version: 6.00 Build 0)  -->
<!DOCTYPE svg PUBLIC "-//W3C//DTD SVG 1.1//EN" "http://www.w3.org/Graphics/SVG/1.1/DTD/svg11.dtd">
<svg version="1.1" id="Layer_1" xmlns="http://www.w3.org/2000/svg" xmlns:xlink="http://www.w3.org/1999/xlink" x="0px" y="0px"
	 width="256px" height="256px" viewBox="0 0 256 256" enable-background="new 0 0 256 256" xml:space="preserve">
<g>
	
		<rect x="41.037" y="41.038" transform="matrix(-0.7071 0.7071 -0.7071 -0.7071 309.0193 128.0007)" fill="#FFFFFF" width="173.926" height="173.925"/>
</g>
<g>
	<path d="M128,15.572L240.427,128L128,240.427L15.572,128L128,15.572 M128,0.016L0.016,128L128,255.983L255.983,128L128,0.016
		L128,0.016z"/>
</g>
<g>
	<path d="M59.083,111.178h13.448c2.662,0,4.647,0.111,5.955,0.333c1.309,0.222,2.479,0.685,3.512,1.388
		c1.032,0.704,1.893,1.641,2.582,2.811c0.688,1.171,1.032,2.483,1.032,3.936c0,1.576-0.425,3.022-1.273,4.337
		c-0.85,1.316-2.001,2.303-3.454,2.96c2.05,0.597,3.626,1.614,4.728,3.052c1.102,1.439,1.652,3.129,1.652,5.072
		c0,1.53-0.355,3.018-1.067,4.463c-0.711,1.447-1.683,2.602-2.914,3.467c-1.232,0.863-2.751,1.396-4.556,1.594
		c-1.133,0.123-3.863,0.199-8.193,0.23H59.083V111.178z M65.876,116.778v7.78h4.452c2.646,0,4.292-0.038,4.934-0.115
		c1.163-0.138,2.077-0.539,2.743-1.205c0.665-0.665,0.998-1.541,0.998-2.627c0-1.04-0.287-1.885-0.86-2.536
		c-0.574-0.65-1.427-1.044-2.559-1.182c-0.673-0.076-2.609-0.115-5.806-0.115H65.876z M65.876,130.157v8.996h6.288
		c2.448,0,4.001-0.069,4.658-0.206c1.01-0.184,1.832-0.631,2.468-1.344c0.635-0.711,0.952-1.663,0.952-2.856
		c0-1.01-0.245-1.866-0.734-2.57c-0.49-0.704-1.197-1.216-2.123-1.538c-0.926-0.32-2.934-0.481-6.024-0.481H65.876z"/>
	<path d="M91.625,128.207c0-3.427,0.512-6.303,1.537-8.629c0.765-1.713,1.809-3.251,3.133-4.613
		c1.323-1.361,2.772-2.371,4.349-3.029c2.096-0.887,4.513-1.331,7.252-1.331c4.957,0,8.923,1.538,11.899,4.613
		c2.976,3.075,4.463,7.352,4.463,12.829c0,5.432-1.477,9.681-4.429,12.749c-2.953,3.066-6.9,4.601-11.842,4.601
		c-5.003,0-8.981-1.526-11.934-4.579C93.101,137.766,91.625,133.562,91.625,128.207z M98.625,127.977c0,3.81,0.88,6.698,2.64,8.664
		c1.759,1.966,3.992,2.949,6.701,2.949c2.707,0,4.93-0.977,6.666-2.926c1.736-1.951,2.605-4.877,2.605-8.779
		c0-3.855-0.846-6.731-2.536-8.629c-1.691-1.897-3.937-2.846-6.735-2.846c-2.801,0-5.058,0.96-6.771,2.88
		C99.481,121.211,98.625,124.106,98.625,127.977z"/>
	<path d="M129.469,144.822v-33.644h10.166l6.105,22.949l6.035-22.949h10.189v33.644h-6.311v-26.484l-6.68,26.484h-6.539
		l-6.656-26.484v26.484H129.469z"/>
	<path d="M168.734,111.178h13.449c2.662,0,4.646,0.111,5.955,0.333s2.479,0.685,3.512,1.388c1.031,0.704,1.893,1.641,2.582,2.811
		c0.688,1.171,1.031,2.483,1.031,3.936c0,1.576-0.424,3.022-1.273,4.337c-0.85,1.316-2,2.303-3.453,2.96
		c2.049,0.597,3.625,1.614,4.727,3.052c1.102,1.439,1.652,3.129,1.652,5.072c0,1.53-0.355,3.018-1.066,4.463
		c-0.711,1.447-1.684,2.602-2.914,3.467c-1.232,0.863-2.752,1.396-4.557,1.594c-1.133,0.123-3.863,0.199-8.191,0.23h-11.453V111.178
		z M175.527,116.778v7.78h4.453c2.646,0,4.291-0.038,4.934-0.115c1.162-0.138,2.076-0.539,2.742-1.205
		c0.666-0.665,0.998-1.541,0.998-2.627c0-1.04-0.287-1.885-0.859-2.536c-0.574-0.65-1.428-1.044-2.559-1.182
		c-0.674-0.076-2.609-0.115-5.807-0.115H175.527z M175.527,130.157v8.996h6.289c2.447,0,4-0.069,4.658-0.206
		c1.01-0.184,1.832-0.631,2.467-1.344c0.635-0.711,0.953-1.663,0.953-2.856c0-1.01-0.246-1.866-0.734-2.57
		c-0.49-0.704-1.197-1.216-2.123-1.538c-0.926-0.32-2.934-0.481-6.023-0.481H175.527z"/>
</g>
</svg>
