<?xml version="1.0" encoding="utf-8"?>
<!-- Generator: Adobe Illustrator 16.0.0, SVG Export Plug-In . SVG Version: 6.00 Build 0)  -->
<!DOCTYPE svg PUBLIC "-//W3C//DTD SVG 1.1//EN" "http://www.w3.org/Graphics/SVG/1.1/DTD/svg11.dtd">
<svg version="1.1" id="Layer_1" xmlns="http://www.w3.org/2000/svg" xmlns:xlink="http://www.w3.org/1999/xlink" x="0px" y="0px"
	 width="256px" height="256px" viewBox="0 0 256 256" enable-background="new 0 0 256 256" xml:space="preserve">
<g>
	
		<rect x="41.037" y="41.038" transform="matrix(-0.7071 0.7071 -0.7071 -0.7071 309.0193 128.0007)" fill="#FFFFFF" width="173.926" height="173.925"/>
</g>
<g>
	<path d="M128,15.572L240.427,128L128,240.427L15.572,128L128,15.572 M128,0.016L0.016,128L128,255.983L255.983,128L128,0.016
		L128,0.016z"/>
</g>
<g>
	<path d="M77.551,113.85l4.204,1.333c-0.645,2.344-1.716,4.084-3.215,5.222s-3.401,1.707-5.706,1.707
		c-2.852,0-5.195-0.975-7.031-2.923s-2.754-4.611-2.754-7.99c0-3.574,0.923-6.351,2.769-8.328s4.272-2.966,7.28-2.966
		c2.627,0,4.761,0.776,6.401,2.329c0.977,0.918,1.709,2.236,2.197,3.955l-4.292,1.025c-0.254-1.113-0.784-1.992-1.589-2.637
		s-1.785-0.967-2.937-0.967c-1.592,0-2.883,0.571-3.875,1.714s-1.487,2.993-1.487,5.552c0,2.715,0.488,4.648,1.465,5.801
		s2.246,1.729,3.809,1.729c1.152,0,2.144-0.366,2.974-1.099S77.189,115.422,77.551,113.85z"/>
	<path d="M89.548,100.271v7.896c1.328-1.553,2.915-2.329,4.761-2.329c0.947,0,1.802,0.176,2.563,0.527s1.335,0.801,1.721,1.348
		s0.649,1.152,0.791,1.816s0.212,1.694,0.212,3.091v9.126H95.48v-8.218c0-1.631-0.078-2.666-0.234-3.105s-0.432-0.789-0.828-1.048
		s-0.891-0.388-1.487-0.388c-0.684,0-1.294,0.166-1.831,0.498s-0.93,0.832-1.179,1.501s-0.374,1.658-0.374,2.967v7.793h-4.116
		v-21.475H89.548z"/>
	<path d="M112.78,116.794l4.102,0.688c-0.527,1.504-1.36,2.648-2.498,3.435s-2.561,1.18-4.27,1.18c-2.705,0-4.707-0.884-6.006-2.651
		c-1.025-1.416-1.538-3.203-1.538-5.361c0-2.578,0.674-4.598,2.021-6.058s3.052-2.189,5.112-2.189c2.314,0,4.141,0.764,5.479,2.292
		s1.978,3.87,1.919,7.024h-10.313c0.029,1.221,0.361,2.17,0.996,2.849s1.426,1.019,2.373,1.019c0.645,0,1.187-0.176,1.626-0.527
		S112.556,117.575,112.78,116.794z M113.015,112.634c-0.029-1.191-0.337-2.098-0.923-2.718s-1.299-0.93-2.139-0.93
		c-0.898,0-1.641,0.327-2.227,0.981s-0.874,1.543-0.864,2.666H113.015z"/>
	<path d="M120.148,106.188h3.794v2.124c1.357-1.65,2.974-2.476,4.849-2.476c0.996,0,1.86,0.205,2.593,0.615s1.333,1.03,1.802,1.86
		c0.684-0.83,1.421-1.45,2.212-1.86s1.636-0.615,2.534-0.615c1.143,0,2.109,0.231,2.9,0.695s1.382,1.146,1.772,2.044
		c0.283,0.664,0.425,1.738,0.425,3.223v9.946h-4.116v-8.892c0-1.543-0.142-2.539-0.425-2.988c-0.381-0.586-0.967-0.879-1.758-0.879
		c-0.576,0-1.118,0.176-1.626,0.527s-0.874,0.866-1.099,1.545s-0.337,1.751-0.337,3.216v7.471h-4.116v-8.525
		c0-1.514-0.073-2.49-0.22-2.93s-0.374-0.767-0.681-0.981s-0.725-0.322-1.252-0.322c-0.635,0-1.206,0.171-1.714,0.513
		s-0.872,0.835-1.091,1.479s-0.33,1.714-0.33,3.208v7.559h-4.116V106.188z"/>
	<path d="M147.131,104.079v-3.809h4.116v3.809H147.131z M147.131,121.745v-15.557h4.116v15.557H147.131z"/>
	<path d="M169.03,110.788l-4.058,0.732c-0.137-0.811-0.447-1.421-0.93-1.831c-0.484-0.41-1.111-0.615-1.883-0.615
		c-1.025,0-1.844,0.354-2.453,1.062c-0.611,0.708-0.916,1.893-0.916,3.553c0,1.846,0.311,3.149,0.93,3.911
		c0.621,0.762,1.453,1.143,2.498,1.143c0.781,0,1.421-0.223,1.919-0.667s0.85-1.208,1.055-2.292l4.043,0.688
		c-0.42,1.855-1.226,3.257-2.417,4.204s-2.788,1.421-4.79,1.421c-2.275,0-4.089-0.718-5.442-2.153
		c-1.352-1.436-2.028-3.423-2.028-5.962c0-2.568,0.679-4.568,2.036-5.999s3.193-2.146,5.508-2.146c1.895,0,3.4,0.407,4.52,1.223
		C167.738,107.875,168.542,109.118,169.03,110.788z"/>
	<path d="M175.227,110.935l-3.735-0.674c0.42-1.504,1.143-2.617,2.168-3.34s2.549-1.084,4.57-1.084c1.836,0,3.203,0.217,4.102,0.651
		s1.53,0.986,1.897,1.655c0.365,0.669,0.549,1.897,0.549,3.685l-0.044,4.805c0,1.367,0.065,2.375,0.198,3.024
		c0.131,0.649,0.378,1.346,0.739,2.088h-4.072c-0.107-0.273-0.239-0.679-0.396-1.216c-0.068-0.244-0.117-0.405-0.146-0.483
		c-0.703,0.684-1.455,1.196-2.256,1.538s-1.655,0.513-2.563,0.513c-1.602,0-2.864-0.435-3.786-1.304
		c-0.924-0.869-1.385-1.968-1.385-3.296c0-0.879,0.21-1.663,0.63-2.352s1.009-1.216,1.765-1.582
		c0.758-0.366,1.849-0.686,3.274-0.959c1.924-0.361,3.257-0.698,3.999-1.011v-0.41c0-0.791-0.195-1.355-0.586-1.692
		s-1.128-0.505-2.212-0.505c-0.732,0-1.304,0.144-1.714,0.432S175.48,110.212,175.227,110.935z M180.734,114.274
		c-0.527,0.176-1.362,0.386-2.505,0.63s-1.89,0.483-2.241,0.718c-0.537,0.381-0.806,0.864-0.806,1.45
		c0,0.576,0.215,1.074,0.645,1.494s0.977,0.63,1.641,0.63c0.742,0,1.45-0.244,2.124-0.732c0.498-0.371,0.825-0.825,0.981-1.362
		c0.107-0.352,0.161-1.021,0.161-2.007V114.274z"/>
	<path d="M188.835,121.745v-21.475h4.116v21.475H188.835z"/>
	<path d="M73.808,157.744V136.27h9.126c2.295,0,3.962,0.193,5.002,0.578c1.04,0.387,1.873,1.072,2.498,2.059
		s0.938,2.115,0.938,3.385c0,1.611-0.474,2.941-1.421,3.99c-0.947,1.051-2.363,1.713-4.248,1.986
		c0.938,0.547,1.711,1.146,2.322,1.801s1.433,1.816,2.468,3.486l2.622,4.189h-5.186l-3.135-4.672
		c-1.113-1.67-1.875-2.723-2.285-3.158c-0.41-0.434-0.845-0.732-1.304-0.893c-0.459-0.162-1.187-0.242-2.183-0.242h-0.879v8.965
		H73.808z M78.144,145.352h3.208c2.08,0,3.379-0.088,3.896-0.264s0.923-0.479,1.216-0.908s0.439-0.967,0.439-1.611
		c0-0.723-0.193-1.305-0.579-1.75c-0.386-0.443-0.93-0.725-1.633-0.842c-0.352-0.049-1.406-0.074-3.164-0.074h-3.384V145.352z"/>
	<path d="M104.438,152.793l4.102,0.689c-0.527,1.504-1.36,2.648-2.498,3.434c-1.138,0.787-2.561,1.18-4.27,1.18
		c-2.705,0-4.707-0.883-6.006-2.65c-1.025-1.416-1.538-3.203-1.538-5.361c0-2.578,0.674-4.598,2.021-6.059
		c1.348-1.459,3.052-2.189,5.112-2.189c2.314,0,4.141,0.766,5.479,2.293c1.338,1.529,1.978,3.869,1.919,7.023H98.447
		c0.029,1.221,0.361,2.172,0.996,2.85c0.635,0.68,1.426,1.018,2.373,1.018c0.645,0,1.187-0.176,1.626-0.527
		S104.213,153.574,104.438,152.793z M104.672,148.633c-0.029-1.191-0.337-2.096-0.923-2.717c-0.586-0.619-1.299-0.93-2.139-0.93
		c-0.898,0-1.641,0.326-2.227,0.98s-0.874,1.543-0.864,2.666H104.672z"/>
	<path d="M112.114,157.744V136.27h4.116v21.475H112.114z"/>
	<path d="M129.457,152.793l4.102,0.689c-0.527,1.504-1.359,2.648-2.497,3.434c-1.138,0.787-2.561,1.18-4.27,1.18
		c-2.705,0-4.707-0.883-6.006-2.65c-1.025-1.416-1.538-3.203-1.538-5.361c0-2.578,0.674-4.598,2.021-6.059
		c1.348-1.459,3.052-2.189,5.112-2.189c2.314,0,4.14,0.766,5.478,2.293c1.338,1.529,1.979,3.869,1.92,7.023h-10.313
		c0.029,1.221,0.361,2.172,0.996,2.85c0.635,0.68,1.426,1.018,2.373,1.018c0.645,0,1.187-0.176,1.626-0.527
		S129.232,153.574,129.457,152.793z M129.691,148.633c-0.029-1.191-0.336-2.096-0.922-2.717c-0.586-0.619-1.299-0.93-2.139-0.93
		c-0.898,0-1.641,0.326-2.227,0.98s-0.874,1.543-0.864,2.666H129.691z"/>
	<path d="M140.209,146.934l-3.734-0.674c0.42-1.504,1.143-2.617,2.168-3.34s2.549-1.084,4.57-1.084c1.836,0,3.203,0.219,4.102,0.652
		c0.898,0.436,1.53,0.986,1.896,1.654c0.366,0.67,0.549,1.898,0.549,3.686l-0.043,4.805c0,1.367,0.065,2.375,0.197,3.023
		c0.132,0.65,0.379,1.346,0.74,2.088h-4.072c-0.107-0.273-0.24-0.678-0.396-1.215c-0.068-0.244-0.117-0.406-0.146-0.484
		c-0.703,0.684-1.455,1.197-2.256,1.539s-1.654,0.512-2.563,0.512c-1.602,0-2.864-0.434-3.787-1.303s-1.385-1.969-1.385-3.297
		c0-0.879,0.211-1.662,0.631-2.352c0.42-0.688,1.008-1.215,1.765-1.582c0.757-0.365,1.849-0.686,3.274-0.959
		c1.924-0.361,3.256-0.697,3.998-1.01v-0.41c0-0.791-0.195-1.355-0.586-1.693c-0.391-0.336-1.127-0.504-2.211-0.504
		c-0.732,0-1.305,0.145-1.715,0.432C140.795,145.707,140.463,146.211,140.209,146.934z M145.717,150.273
		c-0.527,0.176-1.361,0.387-2.504,0.631s-1.891,0.482-2.242,0.717c-0.537,0.381-0.805,0.865-0.805,1.451
		c0,0.576,0.215,1.074,0.645,1.494s0.977,0.629,1.641,0.629c0.742,0,1.449-0.244,2.123-0.732c0.498-0.371,0.826-0.824,0.982-1.361
		c0.107-0.352,0.16-1.021,0.16-2.008V150.273z"/>
	<path d="M152.367,153.307l4.131-0.631c0.176,0.801,0.533,1.41,1.07,1.824c0.537,0.416,1.289,0.623,2.256,0.623
		c1.064,0,1.865-0.195,2.402-0.586c0.361-0.273,0.541-0.641,0.541-1.1c0-0.313-0.098-0.57-0.293-0.775
		c-0.205-0.195-0.664-0.377-1.377-0.543c-3.32-0.732-5.424-1.4-6.313-2.006c-1.23-0.84-1.846-2.008-1.846-3.502
		c0-1.348,0.531-2.48,1.596-3.398s2.715-1.377,4.951-1.377c2.129,0,3.711,0.348,4.746,1.041s1.748,1.719,2.139,3.076l-3.881,0.717
		c-0.166-0.605-0.481-1.068-0.945-1.391s-1.125-0.484-1.984-0.484c-1.084,0-1.861,0.152-2.33,0.455
		c-0.313,0.215-0.469,0.492-0.469,0.834c0,0.293,0.137,0.543,0.41,0.748c0.371,0.273,1.653,0.658,3.846,1.156
		s3.723,1.109,4.592,1.832c0.859,0.732,1.289,1.752,1.289,3.061c0,1.426-0.596,2.652-1.787,3.678s-2.953,1.537-5.287,1.537
		c-2.119,0-3.797-0.43-5.032-1.289S152.748,154.781,152.367,153.307z"/>
	<path d="M179.512,152.793l4.102,0.689c-0.527,1.504-1.36,2.648-2.498,3.434c-1.138,0.787-2.561,1.18-4.27,1.18
		c-2.705,0-4.707-0.883-6.006-2.65c-1.025-1.416-1.539-3.203-1.539-5.361c0-2.578,0.674-4.598,2.021-6.059
		c1.348-1.459,3.053-2.189,5.113-2.189c2.314,0,4.141,0.766,5.479,2.293c1.338,1.529,1.977,3.869,1.918,7.023H173.52
		c0.029,1.221,0.361,2.172,0.996,2.85c0.635,0.68,1.426,1.018,2.373,1.018c0.645,0,1.188-0.176,1.627-0.527
		S179.287,153.574,179.512,152.793z M179.746,148.633c-0.029-1.191-0.338-2.096-0.924-2.717c-0.586-0.619-1.299-0.93-2.139-0.93
		c-0.898,0-1.641,0.326-2.227,0.98s-0.873,1.543-0.863,2.666H179.746z"/>
</g>
</svg>
