<?xml version="1.0" encoding="utf-8"?>
<!-- Generator: Adobe Illustrator 16.0.0, SVG Export Plug-In . SVG Version: 6.00 Build 0)  -->
<!DOCTYPE svg PUBLIC "-//W3C//DTD SVG 1.1//EN" "http://www.w3.org/Graphics/SVG/1.1/DTD/svg11.dtd">
<svg version="1.1" id="Layer_1" xmlns="http://www.w3.org/2000/svg" xmlns:xlink="http://www.w3.org/1999/xlink" x="0px" y="0px"
	 width="256px" height="256px" viewBox="0 0 256 256" enable-background="new 0 0 256 256" xml:space="preserve">
<g>
	
		<rect x="41.037" y="41.038" transform="matrix(-0.7071 0.7071 -0.7071 -0.7071 309.0193 128.0007)" fill="#FF3333" width="173.926" height="173.925"/>
</g>
<g>
	<path d="M128,15.572L240.427,128L128,240.427L15.572,128L128,15.572 M128,0.016L0.016,128L128,255.983L255.983,128L128,0.016
		L128,0.016z"/>
</g>
<g>
	<path d="M85.016,108.659l4.484,1.422c-0.688,2.5-1.831,4.357-3.43,5.57c-1.599,1.214-3.628,1.82-6.086,1.82
		c-3.042,0-5.542-1.039-7.5-3.117c-1.958-2.078-2.938-4.919-2.938-8.523c0-3.813,0.984-6.773,2.953-8.883s4.557-3.164,7.766-3.164
		c2.802,0,5.078,0.828,6.828,2.484c1.042,0.979,1.823,2.386,2.344,4.219l-4.578,1.094c-0.271-1.188-0.836-2.125-1.695-2.813
		s-1.904-1.031-3.133-1.031c-1.698,0-3.076,0.609-4.133,1.828c-1.058,1.219-1.586,3.193-1.586,5.922
		c0,2.896,0.521,4.959,1.563,6.188c1.042,1.229,2.396,1.844,4.063,1.844c1.229,0,2.286-0.391,3.172-1.172
		C83.995,111.565,84.63,110.337,85.016,108.659z"/>
	<path d="M92.531,105.769c0-2.333,0.349-4.291,1.047-5.875c0.521-1.166,1.231-2.213,2.133-3.141
		c0.901-0.927,1.888-1.614,2.961-2.063c1.427-0.604,3.073-0.906,4.938-0.906c3.375,0,6.075,1.047,8.102,3.141
		c2.026,2.094,3.039,5.006,3.039,8.734c0,3.698-1.005,6.592-3.016,8.68c-2.011,2.089-4.698,3.133-8.063,3.133
		c-3.406,0-6.115-1.039-8.125-3.117C93.536,112.276,92.531,109.415,92.531,105.769z M97.297,105.612
		c0,2.594,0.599,4.561,1.797,5.898c1.198,1.339,2.719,2.008,4.563,2.008s3.356-0.664,4.539-1.992
		c1.182-1.328,1.773-3.32,1.773-5.977c0-2.625-0.576-4.583-1.727-5.875c-1.151-1.291-2.68-1.938-4.586-1.938
		s-3.443,0.654-4.609,1.961C97.88,101.006,97.297,102.978,97.297,105.612z"/>
	<path d="M118.297,117.081V94.175h6.922l4.156,15.625l4.109-15.625h6.938v22.906h-4.297V99.05l-4.547,18.031h-4.453l-4.531-18.031
		v18.031H118.297z"/>
	<path d="M165.672,117.081h-5.031l-2-5.203h-9.156l-1.891,5.203h-4.906l8.922-22.906h4.891L165.672,117.081z M157.156,108.019
		l-3.156-8.5l-3.094,8.5H157.156z"/>
	<path d="M168.141,117.081V94.175h4.625v9.016h9.063v-9.016h4.625v22.906h-4.625v-10.016h-9.063v10.016H168.141z"/>
	<path d="M81.164,162.216h-3.016c-1.594-2.406-2.808-4.906-3.641-7.5c-0.833-2.594-1.25-5.104-1.25-7.531
		c0-3.01,0.516-5.859,1.547-8.547c0.896-2.333,2.031-4.484,3.406-6.453h3c-1.427,3.156-2.409,5.842-2.945,8.055
		c-0.537,2.214-0.805,4.561-0.805,7.039c0,1.709,0.159,3.459,0.477,5.25c0.317,1.792,0.752,3.494,1.305,5.109
		C79.606,158.7,80.247,160.226,81.164,162.216z"/>
	<path d="M84.539,132.575h4.625v12.406c0,1.969,0.057,3.245,0.172,3.828c0.198,0.938,0.669,1.69,1.414,2.258
		c0.745,0.568,1.763,0.852,3.055,0.852c1.313,0,2.302-0.268,2.969-0.805c0.667-0.536,1.067-1.195,1.203-1.977
		c0.135-0.781,0.203-2.078,0.203-3.891v-12.672h4.625v12.031c0,2.75-0.125,4.693-0.375,5.828c-0.25,1.136-0.711,2.094-1.383,2.875
		s-1.57,1.404-2.695,1.867s-2.594,0.695-4.406,0.695c-2.188,0-3.847-0.253-4.977-0.758c-1.13-0.505-2.023-1.161-2.68-1.969
		c-0.656-0.807-1.089-1.653-1.297-2.539c-0.302-1.313-0.453-3.25-0.453-5.813V132.575z"/>
	<path d="M107.523,138.888h4.094v2.438c0.531-0.833,1.25-1.51,2.156-2.031c0.906-0.521,1.911-0.781,3.016-0.781
		c1.927,0,3.563,0.756,4.906,2.266c1.344,1.511,2.016,3.615,2.016,6.313c0,2.771-0.677,4.925-2.031,6.461
		c-1.354,1.537-2.995,2.305-4.922,2.305c-0.917,0-1.748-0.183-2.492-0.547c-0.745-0.364-1.529-0.989-2.352-1.875v8.359h-4.391
		V138.888z M111.867,146.903c0,1.865,0.37,3.242,1.109,4.133c0.739,0.891,1.641,1.336,2.703,1.336c1.021,0,1.87-0.408,2.547-1.227
		c0.677-0.817,1.016-2.158,1.016-4.023c0-1.739-0.349-3.031-1.047-3.875c-0.698-0.844-1.563-1.266-2.594-1.266
		c-1.073,0-1.964,0.414-2.672,1.242C112.221,144.052,111.867,145.278,111.867,146.903z"/>
	<path d="M127.07,138.888h4.094v2.438c0.531-0.833,1.25-1.51,2.156-2.031c0.906-0.521,1.911-0.781,3.016-0.781
		c1.927,0,3.563,0.756,4.906,2.266c1.344,1.511,2.016,3.615,2.016,6.313c0,2.771-0.678,4.925-2.031,6.461
		c-1.354,1.537-2.995,2.305-4.922,2.305c-0.917,0-1.748-0.183-2.492-0.547c-0.745-0.364-1.529-0.989-2.352-1.875v8.359h-4.391
		V138.888z M131.414,146.903c0,1.865,0.369,3.242,1.109,4.133c0.739,0.891,1.641,1.336,2.703,1.336c1.021,0,1.869-0.408,2.547-1.227
		c0.677-0.817,1.016-2.158,1.016-4.023c0-1.739-0.35-3.031-1.047-3.875c-0.698-0.844-1.563-1.266-2.594-1.266
		c-1.073,0-1.964,0.414-2.672,1.242C131.768,144.052,131.414,145.278,131.414,146.903z"/>
	<path d="M156.352,150.2l4.375,0.734c-0.563,1.604-1.451,2.826-2.664,3.664c-1.214,0.839-2.732,1.258-4.555,1.258
		c-2.886,0-5.021-0.942-6.406-2.828c-1.094-1.51-1.641-3.416-1.641-5.719c0-2.75,0.719-4.903,2.156-6.461
		c1.438-1.557,3.255-2.336,5.453-2.336c2.469,0,4.416,0.815,5.844,2.445c1.427,1.631,2.109,4.128,2.047,7.492h-11
		c0.031,1.303,0.385,2.315,1.063,3.039c0.677,0.725,1.521,1.086,2.531,1.086c0.688,0,1.266-0.188,1.734-0.563
		S156.111,151.034,156.352,150.2z M156.602,145.763c-0.031-1.271-0.359-2.236-0.984-2.898c-0.625-0.661-1.386-0.992-2.281-0.992
		c-0.959,0-1.75,0.35-2.375,1.047c-0.625,0.698-0.933,1.646-0.922,2.844H156.602z"/>
	<path d="M168.742,155.481h-4.391v-16.594h4.078v2.359c0.697-1.114,1.325-1.849,1.883-2.203c0.557-0.354,1.189-0.531,1.898-0.531
		c1,0,1.963,0.276,2.891,0.828l-1.359,3.828c-0.74-0.479-1.428-0.719-2.063-0.719c-0.615,0-1.136,0.17-1.563,0.508
		c-0.428,0.339-0.764,0.951-1.008,1.836c-0.245,0.886-0.367,2.74-0.367,5.563V155.481z"/>
	<path d="M175.773,162.216c0.864-1.854,1.474-3.276,1.828-4.266c0.354-0.99,0.682-2.131,0.984-3.422
		c0.302-1.291,0.525-2.518,0.672-3.68c0.146-1.161,0.219-2.352,0.219-3.57c0-2.479-0.266-4.825-0.797-7.039
		c-0.531-2.213-1.511-4.898-2.938-8.055h2.984c1.572,2.24,2.794,4.615,3.664,7.125c0.869,2.511,1.305,5.058,1.305,7.641
		c0,2.178-0.344,4.511-1.031,7c-0.781,2.791-2.068,5.547-3.859,8.266H175.773z"/>
</g>
</svg>
