<?xml version="1.0" encoding="utf-8"?>
<!-- Generator: Adobe Illustrator 16.0.0, SVG Export Plug-In . SVG Version: 6.00 Build 0)  -->
<!DOCTYPE svg PUBLIC "-//W3C//DTD SVG 1.1//EN" "http://www.w3.org/Graphics/SVG/1.1/DTD/svg11.dtd">
<svg version="1.1" id="Layer_1" xmlns="http://www.w3.org/2000/svg" xmlns:xlink="http://www.w3.org/1999/xlink" x="0px" y="0px"
	 width="256px" height="256px" viewBox="0 0 256 256" enable-background="new 0 0 256 256" xml:space="preserve">
<g>
	
		<rect x="41.037" y="41.038" transform="matrix(-0.7071 0.7071 -0.7071 -0.7071 309.0193 128.0007)" fill="#FFFFFF" width="173.926" height="173.925"/>
</g>
<g>
	<path d="M128,15.572L240.427,128L128,240.427L15.572,128L128,15.572 M128,0.016L0.016,128L128,255.983L255.983,128L128,0.016
		L128,0.016z"/>
</g>
<g>
	<path d="M69.281,95.151h8.453c1.906,0,3.359,0.146,4.359,0.438c1.344,0.396,2.495,1.099,3.453,2.109
		c0.958,1.011,1.688,2.248,2.188,3.711c0.5,1.464,0.75,3.269,0.75,5.414c0,1.886-0.234,3.511-0.703,4.875
		c-0.573,1.667-1.391,3.016-2.453,4.047c-0.802,0.781-1.886,1.391-3.25,1.828c-1.021,0.323-2.386,0.484-4.094,0.484h-8.703V95.151z
		 M73.906,99.026v15.172h3.453c1.292,0,2.224-0.073,2.797-0.219c0.75-0.188,1.372-0.505,1.867-0.953
		c0.495-0.448,0.898-1.185,1.211-2.211c0.313-1.026,0.469-2.424,0.469-4.195c0-1.771-0.156-3.13-0.469-4.078
		c-0.313-0.948-0.75-1.688-1.313-2.219s-1.276-0.891-2.141-1.078c-0.646-0.146-1.912-0.219-3.797-0.219H73.906z"/>
	<path d="M92.375,99.214v-4.063h4.391v4.063H92.375z M92.375,118.058v-16.594h4.391v16.594H92.375z"/>
	<path d="M99.719,113.323l4.406-0.672c0.188,0.854,0.567,1.503,1.141,1.945c0.573,0.443,1.375,0.664,2.406,0.664
		c1.135,0,1.989-0.208,2.563-0.625c0.385-0.292,0.578-0.682,0.578-1.172c0-0.333-0.104-0.609-0.313-0.828
		c-0.219-0.208-0.708-0.401-1.469-0.578c-3.542-0.781-5.787-1.495-6.734-2.141c-1.313-0.896-1.969-2.141-1.969-3.734
		c0-1.438,0.567-2.646,1.703-3.625c1.135-0.979,2.896-1.469,5.281-1.469c2.271,0,3.958,0.37,5.063,1.109
		c1.104,0.74,1.864,1.833,2.281,3.281l-4.141,0.766c-0.177-0.646-0.513-1.141-1.008-1.484c-0.495-0.344-1.201-0.516-2.117-0.516
		c-1.156,0-1.984,0.162-2.484,0.484c-0.333,0.229-0.5,0.526-0.5,0.891c0,0.313,0.146,0.578,0.438,0.797
		c0.396,0.292,1.763,0.703,4.102,1.234c2.338,0.531,3.971,1.183,4.898,1.953c0.917,0.781,1.375,1.87,1.375,3.266
		c0,1.521-0.636,2.828-1.906,3.922c-1.271,1.094-3.151,1.641-5.641,1.641c-2.261,0-4.05-0.458-5.367-1.375
		C100.987,116.141,100.125,114.896,99.719,113.323z"/>
	<path d="M128.672,112.776l4.375,0.734c-0.563,1.604-1.451,2.826-2.664,3.664c-1.214,0.839-2.732,1.258-4.555,1.258
		c-2.886,0-5.021-0.942-6.406-2.828c-1.094-1.51-1.641-3.417-1.641-5.719c0-2.75,0.719-4.903,2.156-6.461
		c1.438-1.557,3.255-2.336,5.453-2.336c2.469,0,4.416,0.815,5.844,2.445c1.427,1.63,2.109,4.128,2.047,7.492h-11
		c0.031,1.302,0.385,2.315,1.063,3.039c0.677,0.724,1.521,1.086,2.531,1.086c0.688,0,1.266-0.188,1.734-0.563
		S128.432,113.61,128.672,112.776z M128.922,108.339c-0.031-1.271-0.359-2.237-0.984-2.898c-0.625-0.661-1.386-0.992-2.281-0.992
		c-0.958,0-1.75,0.349-2.375,1.047c-0.625,0.698-0.933,1.646-0.922,2.844H128.922z"/>
	<path d="M140.141,106.526l-3.984-0.719c0.447-1.604,1.219-2.792,2.313-3.563c1.094-0.771,2.719-1.156,4.875-1.156
		c1.958,0,3.416,0.232,4.375,0.695c0.958,0.464,1.633,1.052,2.023,1.766c0.391,0.714,0.586,2.023,0.586,3.93l-0.047,5.125
		c0,1.458,0.07,2.534,0.211,3.227c0.141,0.693,0.403,1.435,0.789,2.227h-4.344c-0.115-0.292-0.256-0.724-0.422-1.297
		c-0.073-0.26-0.125-0.432-0.156-0.516c-0.75,0.729-1.553,1.276-2.406,1.641c-0.854,0.364-1.766,0.547-2.734,0.547
		c-1.709,0-3.055-0.463-4.039-1.391c-0.984-0.927-1.477-2.099-1.477-3.516c0-0.938,0.224-1.773,0.672-2.508
		c0.447-0.734,1.075-1.297,1.883-1.688c0.807-0.391,1.971-0.731,3.492-1.023c2.052-0.385,3.474-0.745,4.266-1.078v-0.438
		c0-0.844-0.209-1.445-0.625-1.805c-0.417-0.359-1.203-0.539-2.359-0.539c-0.781,0-1.391,0.154-1.828,0.461
		C140.766,105.217,140.411,105.756,140.141,106.526z M146.016,110.089c-0.563,0.188-1.453,0.412-2.672,0.672
		c-1.219,0.261-2.016,0.516-2.391,0.766c-0.573,0.406-0.859,0.922-0.859,1.547c0,0.615,0.229,1.146,0.688,1.594
		c0.458,0.448,1.041,0.672,1.75,0.672c0.791,0,1.547-0.26,2.266-0.781c0.531-0.396,0.88-0.88,1.047-1.453
		c0.114-0.375,0.172-1.088,0.172-2.141V110.089z"/>
	<path d="M153.109,113.323l4.406-0.672c0.188,0.854,0.567,1.503,1.141,1.945c0.572,0.443,1.375,0.664,2.406,0.664
		c1.135,0,1.989-0.208,2.563-0.625c0.385-0.292,0.578-0.682,0.578-1.172c0-0.333-0.104-0.609-0.313-0.828
		c-0.219-0.208-0.709-0.401-1.469-0.578c-3.542-0.781-5.787-1.495-6.734-2.141c-1.313-0.896-1.969-2.141-1.969-3.734
		c0-1.438,0.567-2.646,1.703-3.625c1.135-0.979,2.896-1.469,5.281-1.469c2.271,0,3.958,0.37,5.063,1.109
		c1.104,0.74,1.864,1.833,2.281,3.281l-4.141,0.766c-0.178-0.646-0.514-1.141-1.008-1.484c-0.495-0.344-1.201-0.516-2.117-0.516
		c-1.156,0-1.984,0.162-2.484,0.484c-0.334,0.229-0.5,0.526-0.5,0.891c0,0.313,0.146,0.578,0.438,0.797
		c0.396,0.292,1.763,0.703,4.102,1.234c2.338,0.531,3.971,1.183,4.898,1.953c0.916,0.781,1.375,1.87,1.375,3.266
		c0,1.521-0.636,2.828-1.906,3.922c-1.271,1.094-3.151,1.641-5.641,1.641c-2.261,0-4.05-0.458-5.367-1.375
		C154.377,116.141,153.516,114.896,153.109,113.323z"/>
	<path d="M182.063,112.776l4.375,0.734c-0.563,1.604-1.451,2.826-2.664,3.664c-1.214,0.839-2.732,1.258-4.555,1.258
		c-2.886,0-5.021-0.942-6.406-2.828c-1.094-1.51-1.641-3.417-1.641-5.719c0-2.75,0.719-4.903,2.156-6.461
		c1.438-1.557,3.255-2.336,5.453-2.336c2.469,0,4.416,0.815,5.844,2.445c1.427,1.63,2.109,4.128,2.047,7.492h-11
		c0.031,1.302,0.385,2.315,1.063,3.039c0.677,0.724,1.521,1.086,2.531,1.086c0.688,0,1.266-0.188,1.734-0.563
		S181.822,113.61,182.063,112.776z M182.313,108.339c-0.031-1.271-0.359-2.237-0.984-2.898c-0.625-0.661-1.386-0.992-2.281-0.992
		c-0.959,0-1.75,0.349-2.375,1.047c-0.625,0.698-0.933,1.646-0.922,2.844H182.313z"/>
	<path d="M58.609,145.146c0-2.334,0.349-4.292,1.047-5.875c0.521-1.167,1.231-2.214,2.133-3.141
		c0.901-0.928,1.888-1.615,2.961-2.063c1.427-0.604,3.073-0.906,4.938-0.906c3.375,0,6.075,1.047,8.102,3.141
		c2.026,2.094,3.039,5.005,3.039,8.734c0,3.697-1.005,6.591-3.016,8.68c-2.011,2.088-4.698,3.133-8.063,3.133
		c-3.406,0-6.115-1.039-8.125-3.117C59.614,151.653,58.609,148.791,58.609,145.146z M63.375,144.989c0,2.594,0.599,4.56,1.797,5.898
		c1.198,1.338,2.719,2.008,4.563,2.008s3.356-0.664,4.539-1.992c1.182-1.328,1.773-3.32,1.773-5.977
		c0-2.625-0.576-4.584-1.727-5.875c-1.151-1.292-2.68-1.938-4.586-1.938s-3.443,0.653-4.609,1.961
		C63.958,140.382,63.375,142.354,63.375,144.989z"/>
	<path d="M95.328,156.458v-2.484c-0.604,0.885-1.398,1.584-2.383,2.094s-2.023,0.766-3.117,0.766c-1.115,0-2.115-0.246-3-0.734
		c-0.886-0.49-1.526-1.178-1.922-2.063c-0.396-0.886-0.594-2.109-0.594-3.672v-10.5h4.391v7.625c0,2.333,0.081,3.763,0.242,4.289
		c0.161,0.525,0.456,0.942,0.883,1.25c0.427,0.307,0.969,0.461,1.625,0.461c0.75,0,1.422-0.206,2.016-0.617
		c0.594-0.412,1-0.922,1.219-1.531s0.328-2.102,0.328-4.477v-7h4.391v16.594H95.328z"/>
	<path d="M111.563,139.864v3.5h-3v6.688c0,1.354,0.028,2.143,0.086,2.367c0.057,0.224,0.188,0.408,0.391,0.555
		c0.203,0.146,0.45,0.219,0.742,0.219c0.406,0,0.995-0.141,1.766-0.422l0.375,3.406c-1.021,0.438-2.177,0.656-3.469,0.656
		c-0.792,0-1.505-0.133-2.141-0.398c-0.636-0.266-1.102-0.609-1.398-1.031s-0.503-0.992-0.617-1.711
		c-0.094-0.511-0.141-1.542-0.141-3.094v-7.234h-2.016v-3.5h2.016v-3.297l4.406-2.563v5.859H111.563z"/>
	<path d="M114.422,156.458v-22.906h4.391v8.25c1.354-1.542,2.958-2.313,4.813-2.313c2.021,0,3.692,0.731,5.016,2.195
		c1.322,1.463,1.984,3.564,1.984,6.305c0,2.833-0.675,5.016-2.023,6.547c-1.349,1.531-2.987,2.297-4.914,2.297
		c-0.948,0-1.883-0.238-2.805-0.711c-0.922-0.475-1.716-1.176-2.383-2.102v2.438H114.422z M118.781,147.802
		c0,1.719,0.271,2.989,0.813,3.813c0.76,1.166,1.771,1.75,3.031,1.75c0.969,0,1.794-0.414,2.477-1.242
		c0.682-0.828,1.023-2.133,1.023-3.914c0-1.896-0.344-3.264-1.031-4.102c-0.688-0.839-1.568-1.258-2.641-1.258
		c-1.052,0-1.927,0.408-2.625,1.227C119.13,144.893,118.781,146.135,118.781,147.802z"/>
	<path d="M138.359,156.458h-4.391v-16.594h4.078v2.359c0.697-1.115,1.325-1.85,1.883-2.203c0.557-0.354,1.189-0.531,1.898-0.531
		c1,0,1.963,0.275,2.891,0.828l-1.359,3.828c-0.74-0.479-1.428-0.719-2.063-0.719c-0.615,0-1.136,0.169-1.563,0.508
		c-0.428,0.338-0.764,0.95-1.008,1.836c-0.245,0.885-0.367,2.739-0.367,5.563V156.458z"/>
	<path d="M156.219,151.177l4.375,0.734c-0.563,1.604-1.451,2.824-2.664,3.664c-1.214,0.838-2.732,1.258-4.555,1.258
		c-2.886,0-5.021-0.943-6.406-2.828c-1.094-1.511-1.641-3.417-1.641-5.719c0-2.75,0.719-4.904,2.156-6.461
		c1.438-1.558,3.255-2.336,5.453-2.336c2.469,0,4.416,0.814,5.844,2.445c1.427,1.63,2.109,4.127,2.047,7.492h-11
		c0.031,1.302,0.385,2.314,1.063,3.039c0.677,0.724,1.521,1.086,2.531,1.086c0.688,0,1.266-0.188,1.734-0.563
		S155.979,152.01,156.219,151.177z M156.469,146.739c-0.031-1.271-0.359-2.237-0.984-2.898c-0.625-0.662-1.386-0.992-2.281-0.992
		c-0.959,0-1.75,0.349-2.375,1.047c-0.625,0.697-0.933,1.646-0.922,2.844H156.469z"/>
	<path d="M167.688,144.927l-3.984-0.719c0.447-1.604,1.219-2.792,2.313-3.563c1.094-0.771,2.719-1.156,4.875-1.156
		c1.958,0,3.416,0.231,4.375,0.695c0.958,0.463,1.633,1.052,2.023,1.766c0.391,0.713,0.586,2.023,0.586,3.93l-0.047,5.125
		c0,1.458,0.07,2.533,0.211,3.227c0.141,0.691,0.403,1.436,0.789,2.227h-4.344c-0.115-0.291-0.256-0.725-0.422-1.297
		c-0.073-0.262-0.125-0.434-0.156-0.516c-0.75,0.729-1.553,1.275-2.406,1.641c-0.854,0.363-1.766,0.547-2.734,0.547
		c-1.709,0-3.055-0.463-4.039-1.391s-1.477-2.1-1.477-3.516c0-0.938,0.224-1.773,0.672-2.508c0.447-0.734,1.075-1.297,1.883-1.688
		c0.807-0.391,1.971-0.732,3.492-1.023c2.052-0.386,3.474-0.745,4.266-1.078v-0.438c0-0.844-0.209-1.445-0.625-1.805
		c-0.417-0.359-1.203-0.539-2.359-0.539c-0.781,0-1.391,0.153-1.828,0.461C168.313,143.616,167.958,144.155,167.688,144.927z
		 M173.563,148.489c-0.563,0.188-1.453,0.411-2.672,0.672c-1.219,0.26-2.016,0.516-2.391,0.766
		c-0.573,0.406-0.859,0.922-0.859,1.547c0,0.614,0.229,1.146,0.688,1.594c0.458,0.447,1.041,0.672,1.75,0.672
		c0.791,0,1.547-0.261,2.266-0.781c0.531-0.396,0.88-0.881,1.047-1.453c0.114-0.375,0.172-1.089,0.172-2.141V148.489z"/>
	<path d="M182.047,156.458v-22.906h4.391v12.156l5.141-5.844h5.406l-5.672,6.063l6.078,10.531h-4.734l-4.172-7.453l-2.047,2.141
		v5.313H182.047z"/>
</g>
</svg>
