<?xml version="1.0" encoding="utf-8"?>
<!-- Generator: Adobe Illustrator 16.0.0, SVG Export Plug-In . SVG Version: 6.00 Build 0)  -->
<!DOCTYPE svg PUBLIC "-//W3C//DTD SVG 1.1//EN" "http://www.w3.org/Graphics/SVG/1.1/DTD/svg11.dtd">
<svg version="1.1" id="Layer_1" xmlns="http://www.w3.org/2000/svg" xmlns:xlink="http://www.w3.org/1999/xlink" x="0px" y="0px"
	 width="256px" height="256px" viewBox="0 0 256 256" enable-background="new 0 0 256 256" xml:space="preserve">
<g>
	
		<rect x="41.037" y="41.038" transform="matrix(-0.7071 0.7071 -0.7071 -0.7071 309.0193 128.0007)" fill="#FFFFFF" width="173.926" height="173.925"/>
</g>
<g>
	<path d="M128,15.572L240.427,128L128,240.427L15.572,128L128,15.572 M128,0.016L0.016,128L128,255.983L255.983,128L128,0.016
		L128,0.016z"/>
</g>
<g>
	<path d="M77.374,144.822v-33.645h23.064v5.691H84.167v7.964h14.045v5.691H84.167v14.298H77.374z"/>
	<path d="M105.831,144.822v-33.645h6.793v33.645H105.831z"/>
	<path d="M119.119,144.822v-33.645h14.298c3.595,0,6.207,0.303,7.837,0.906c1.629,0.605,2.934,1.68,3.913,3.225
		c0.979,1.546,1.469,3.313,1.469,5.302c0,2.524-0.743,4.609-2.227,6.253c-1.484,1.646-3.703,2.682-6.655,3.11
		c1.469,0.856,2.681,1.798,3.638,2.822c0.956,1.025,2.245,2.847,3.867,5.462l4.107,6.564h-8.124l-4.911-7.321
		c-1.744-2.616-2.938-4.265-3.58-4.946c-0.643-0.68-1.323-1.147-2.043-1.399c-0.719-0.253-1.858-0.379-3.419-0.379h-1.377v14.046
		H119.119z M125.912,125.406h5.026c3.258,0,5.293-0.138,6.104-0.413c0.812-0.275,1.446-0.749,1.905-1.423
		c0.459-0.673,0.688-1.515,0.688-2.524c0-1.132-0.303-2.046-0.906-2.742c-0.604-0.696-1.457-1.136-2.559-1.319
		c-0.551-0.076-2.203-0.115-4.957-0.115h-5.302V125.406z"/>
	<path d="M153.038,144.822v-33.645h24.945v5.691h-18.152v7.459h16.891v5.668h-16.891v9.157h18.795v5.669H153.038z"/>
</g>
</svg>
