<?xml version="1.0" encoding="utf-8"?>
<!-- Generator: Adobe Illustrator 16.0.0, SVG Export Plug-In . SVG Version: 6.00 Build 0)  -->
<!DOCTYPE svg PUBLIC "-//W3C//DTD SVG 1.1//EN" "http://www.w3.org/Graphics/SVG/1.1/DTD/svg11.dtd">
<svg version="1.1" id="Layer_1" xmlns="http://www.w3.org/2000/svg" xmlns:xlink="http://www.w3.org/1999/xlink" x="0px" y="0px"
	 width="256px" height="256px" viewBox="0 0 256 256" enable-background="new 0 0 256 256" xml:space="preserve">
<g>
	
		<rect x="41.037" y="41.038" transform="matrix(-0.7071 0.7071 -0.7071 -0.7071 309.0193 128.0007)" fill="#FFFFFF" width="173.926" height="173.925"/>
</g>
<g>
	<path d="M128,15.572L240.427,128L128,240.427L15.572,128L128,15.572 M128,0.016L0.016,128L128,255.983L255.983,128L128,0.016
		L128,0.016z"/>
</g>
<g>
	<path d="M63.856,141.6v-27.2h18.647v4.602H69.349v6.438h11.355v4.602H69.349V141.6H63.856z"/>
	<path d="M87.18,141.6v-26.978h5.492v22.396h13.656v4.582H87.18z"/>
	<path d="M109.13,128.167c0-2.771,0.414-5.096,1.243-6.977c0.618-1.385,1.463-2.628,2.533-3.729
		c1.069-1.101,2.241-1.917,3.516-2.449c1.694-0.717,3.649-1.076,5.863-1.076c4.008,0,7.215,1.243,9.621,3.729
		c2.405,2.486,3.608,5.944,3.608,10.372c0,4.392-1.193,7.826-3.58,10.307c-2.389,2.48-5.58,3.721-9.575,3.721
		c-4.045,0-7.261-1.234-9.648-3.703C110.323,135.895,109.13,132.497,109.13,128.167z M114.789,127.981
		c0,3.08,0.711,5.415,2.134,7.003c1.423,1.59,3.229,2.385,5.418,2.385s3.986-0.789,5.391-2.365c1.404-1.577,2.105-3.942,2.105-7.097
		c0-3.117-0.684-5.442-2.05-6.977c-1.367-1.533-3.183-2.301-5.446-2.301s-4.088,0.776-5.474,2.328
		C115.481,122.511,114.789,124.853,114.789,127.981z"/>
	<path d="M138.688,128.167c0-2.771,0.414-5.096,1.242-6.977c0.619-1.385,1.463-2.628,2.533-3.729
		c1.07-1.101,2.242-1.917,3.516-2.449c1.695-0.717,3.649-1.076,5.863-1.076c4.008,0,7.215,1.243,9.621,3.729
		s3.609,5.944,3.609,10.372c0,4.392-1.194,7.826-3.582,10.307c-2.387,2.48-5.578,3.721-9.574,3.721
		c-4.045,0-7.261-1.234-9.648-3.703C139.882,135.895,138.688,132.497,138.688,128.167z M144.347,127.981
		c0,3.08,0.711,5.415,2.135,7.003c1.422,1.59,3.229,2.385,5.418,2.385s3.985-0.789,5.39-2.365c1.403-1.577,2.106-3.942,2.106-7.097
		c0-3.117-0.684-5.442-2.051-6.977c-1.367-1.533-3.182-2.301-5.445-2.301s-4.089,0.776-5.475,2.328
		C145.04,122.511,144.347,124.853,144.347,127.981z"/>
	<path d="M169.341,114.399h10.037c2.264,0,3.99,0.174,5.178,0.52c1.596,0.471,2.962,1.306,4.1,2.505
		c1.139,1.2,2.004,2.669,2.598,4.407c0.594,1.737,0.891,3.881,0.891,6.429c0,2.239-0.277,4.169-0.834,5.789
		c-0.682,1.979-1.652,3.58-2.914,4.805c-0.952,0.928-2.238,1.652-3.859,2.172c-1.212,0.383-2.832,0.574-4.861,0.574h-10.334V114.399
		z M174.833,119.001v18.017h4.1c1.534,0,2.641-0.086,3.322-0.26c0.891-0.223,1.629-0.6,2.217-1.133
		c0.588-0.531,1.066-1.406,1.438-2.624c0.371-1.219,0.557-2.879,0.557-4.982c0-2.103-0.186-3.717-0.557-4.843
		c-0.371-1.125-0.891-2.004-1.559-2.635s-1.516-1.058-2.541-1.28c-0.768-0.173-2.271-0.26-4.51-0.26H174.833z"/>
</g>
</svg>
