<?xml version="1.0" encoding="utf-8"?>
<!-- Generator: Adobe Illustrator 16.0.0, SVG Export Plug-In . SVG Version: 6.00 Build 0)  -->
<!DOCTYPE svg PUBLIC "-//W3C//DTD SVG 1.1//EN" "http://www.w3.org/Graphics/SVG/1.1/DTD/svg11.dtd">
<svg version="1.1" id="Layer_1" xmlns="http://www.w3.org/2000/svg" xmlns:xlink="http://www.w3.org/1999/xlink" x="0px" y="0px"
	 width="256px" height="256px" viewBox="0 0 256 256" enable-background="new 0 0 256 256" xml:space="preserve">
<g>
	
		<rect x="41.037" y="41.038" transform="matrix(-0.7071 0.7071 -0.7071 -0.7071 309.0193 128.0007)" fill="#FFFFFF" width="173.926" height="173.925"/>
</g>
<g>
	<path d="M128,15.572L240.427,128L128,240.427L15.572,128L128,15.572 M128,0.016L0.016,128L128,255.983L255.983,128L128,0.016
		L128,0.016z"/>
</g>
<g>
	<path d="M59.096,140.169v-24.338h4.914v9.579h9.629v-9.579h4.914v24.338h-4.914v-10.642H64.01v10.642H59.096z"/>
	<path d="M105.58,140.169h-5.346l-2.125-5.527h-9.729l-2.009,5.527h-5.213l9.479-24.338h5.196L105.58,140.169z M96.532,130.54
		l-3.354-9.031l-3.287,9.031H96.532z"/>
	<path d="M106.078,140.169v-4.432l12.783-15.789h-11.339v-4.117h17.813v3.818l-13.331,16.42h13.846v4.1H106.078z"/>
	<path d="M128.889,140.169v-24.338h7.354l4.416,16.602l4.367-16.602h7.371v24.338h-4.566v-19.158L143,140.169h-4.732l-4.814-19.158
		v19.158H128.889z"/>
	<path d="M179.225,140.169h-5.346l-2.125-5.527h-9.729l-2.01,5.527h-5.213l9.48-24.338h5.195L179.225,140.169z M170.176,130.54
		l-3.354-9.031l-3.287,9.031H170.176z"/>
	<path d="M184.785,140.169v-20.221h-7.221v-4.117h19.34v4.117h-7.205v20.221H184.785z"/>
</g>
</svg>
