<?xml version="1.0" encoding="utf-8"?>
<!-- Generator: Adobe Illustrator 16.0.0, SVG Export Plug-In . SVG Version: 6.00 Build 0)  -->
<!DOCTYPE svg PUBLIC "-//W3C//DTD SVG 1.1//EN" "http://www.w3.org/Graphics/SVG/1.1/DTD/svg11.dtd">
<svg version="1.1" id="Layer_1" xmlns="http://www.w3.org/2000/svg" xmlns:xlink="http://www.w3.org/1999/xlink" x="0px" y="0px"
	 width="256px" height="256px" viewBox="0 0 256 256" enable-background="new 0 0 256 256" xml:space="preserve">
<g>
	
		<rect x="41.037" y="41.038" transform="matrix(-0.7071 0.7071 -0.7071 -0.7071 309.0193 128.0007)" fill="#FFFFFF" width="173.926" height="173.925"/>
</g>
<g>
	<path d="M128,15.572L240.427,128L128,240.427L15.572,128L128,15.572 M128,0.016L0.016,128L128,255.983L255.983,128L128,0.016
		L128,0.016z"/>
</g>
<g>
	<path d="M77.663,151.264v-46.528h9.395v46.528H77.663z"/>
	<path d="M96.008,151.264v-46.528h34.501v7.871h-25.106v10.315h23.36v7.84h-23.36v12.664h25.995v7.838H96.008z"/>
	<path d="M139.331,104.736h17.17c3.873,0,6.824,0.296,8.855,0.889c2.729,0.804,5.066,2.232,7.014,4.285
		c1.947,2.053,3.428,4.565,4.443,7.538c1.016,2.973,1.523,6.639,1.523,10.998c0,3.83-0.477,7.131-1.428,9.903
		c-1.164,3.385-2.824,6.125-4.982,8.219c-1.631,1.588-3.83,2.824-6.602,3.713c-2.074,0.656-4.846,0.984-8.316,0.984h-17.678V104.736
		z M148.726,112.607v30.819h7.014c2.623,0,4.518-0.148,5.682-0.445c1.523-0.381,2.787-1.025,3.793-1.936
		c1.004-0.91,1.824-2.406,2.459-4.492c0.635-2.083,0.953-4.924,0.953-8.521c0-3.597-0.318-6.358-0.953-8.284
		c-0.635-1.925-1.523-3.428-2.666-4.507s-2.592-1.809-4.348-2.19c-1.313-0.296-3.883-0.444-7.713-0.444H148.726z"/>
</g>
</svg>
