<?xml version="1.0" encoding="utf-8"?>
<!-- Generator: Adobe Illustrator 16.0.0, SVG Export Plug-In . SVG Version: 6.00 Build 0)  -->
<!DOCTYPE svg PUBLIC "-//W3C//DTD SVG 1.1//EN" "http://www.w3.org/Graphics/SVG/1.1/DTD/svg11.dtd">
<svg version="1.1" id="Layer_1" xmlns="http://www.w3.org/2000/svg" xmlns:xlink="http://www.w3.org/1999/xlink" x="0px" y="0px"
	 width="256px" height="256px" viewBox="0 0 256 256" enable-background="new 0 0 256 256" xml:space="preserve">
<g>
	
		<rect x="41.037" y="41.038" transform="matrix(-0.7071 0.7071 -0.7071 -0.7071 309.0193 128.0007)" fill="#FFFFFF" width="173.926" height="173.925"/>
</g>
<g>
	<path d="M128,15.572L240.427,128L128,240.427L15.572,128L128,15.572 M128,0.016L0.016,128L128,255.983L255.983,128L128,0.016
		L128,0.016z"/>
</g>
<g>
	<path d="M61.774,122.562v-21.475H70.9c2.295,0,3.962,0.193,5.002,0.578c1.04,0.387,1.873,1.072,2.498,2.059
		s0.938,2.114,0.938,3.384c0,1.611-0.474,2.942-1.421,3.991c-0.947,1.051-2.363,1.712-4.248,1.985
		c0.938,0.547,1.711,1.147,2.322,1.802s1.433,1.816,2.468,3.486l2.622,4.189h-5.186l-3.135-4.673
		c-1.113-1.67-1.875-2.722-2.285-3.157c-0.41-0.434-0.845-0.732-1.304-0.893c-0.459-0.162-1.187-0.242-2.183-0.242H66.11v8.965
		H61.774z M66.11,110.169h3.208c2.08,0,3.379-0.088,3.896-0.264s0.923-0.479,1.216-0.908s0.439-0.967,0.439-1.611
		c0-0.723-0.193-1.306-0.579-1.75s-0.93-0.726-1.633-0.843c-0.352-0.049-1.406-0.073-3.164-0.073H66.11V110.169z"/>
	<path d="M86.472,111.751l-3.735-0.674c0.42-1.504,1.143-2.617,2.168-3.34s2.549-1.084,4.57-1.084c1.836,0,3.203,0.218,4.102,0.652
		s1.531,0.986,1.897,1.654c0.366,0.67,0.549,1.897,0.549,3.685l-0.044,4.805c0,1.367,0.066,2.376,0.198,3.024
		c0.132,0.65,0.378,1.346,0.74,2.088h-4.072c-0.107-0.273-0.239-0.679-0.396-1.216c-0.068-0.244-0.117-0.405-0.146-0.483
		c-0.703,0.684-1.455,1.196-2.256,1.538s-1.655,0.513-2.563,0.513c-1.602,0-2.864-0.435-3.787-1.304s-1.384-1.968-1.384-3.296
		c0-0.879,0.21-1.662,0.63-2.352c0.42-0.688,1.008-1.215,1.765-1.582c0.757-0.365,1.848-0.686,3.274-0.959
		c1.924-0.361,3.257-0.698,3.999-1.011V112c0-0.791-0.195-1.354-0.586-1.692c-0.391-0.336-1.128-0.505-2.212-0.505
		c-0.732,0-1.304,0.145-1.714,0.433S86.726,111.028,86.472,111.751z M91.979,115.091c-0.527,0.176-1.362,0.386-2.505,0.63
		s-1.89,0.483-2.241,0.718c-0.537,0.381-0.806,0.864-0.806,1.45c0,0.576,0.215,1.074,0.645,1.494s0.977,0.63,1.641,0.63
		c0.742,0,1.45-0.244,2.124-0.732c0.498-0.371,0.825-0.825,0.981-1.362c0.107-0.352,0.161-1.021,0.161-2.007V115.091z"/>
	<path d="M114.348,122.562h-3.823v-2.285c-0.635,0.889-1.384,1.551-2.249,1.984c-0.864,0.435-1.736,0.652-2.615,0.652
		c-1.787,0-3.318-0.72-4.592-2.16s-1.912-3.45-1.912-6.028c0-2.637,0.62-4.641,1.86-6.013s2.808-2.059,4.702-2.059
		c1.738,0,3.242,0.723,4.512,2.168v-7.734h4.116V122.562z M103.361,114.446c0,1.66,0.229,2.861,0.688,3.604
		c0.664,1.074,1.592,1.611,2.783,1.611c0.947,0,1.753-0.402,2.417-1.209c0.664-0.805,0.996-2.009,0.996-3.61
		c0-1.787-0.322-3.073-0.967-3.86c-0.645-0.785-1.47-1.179-2.476-1.179c-0.977,0-1.794,0.388-2.454,1.165
		C103.691,111.743,103.361,112.903,103.361,114.446z"/>
	<path d="M118.405,104.896v-3.809h4.116v3.809H118.405z M118.405,122.562v-15.557h4.116v15.557H118.405z"/>
	<path d="M129.816,111.751l-3.735-0.674c0.42-1.504,1.143-2.617,2.168-3.34s2.549-1.084,4.57-1.084c1.836,0,3.203,0.218,4.102,0.652
		s1.53,0.986,1.897,1.654c0.365,0.67,0.549,1.897,0.549,3.685l-0.044,4.805c0,1.367,0.065,2.376,0.198,3.024
		c0.131,0.65,0.378,1.346,0.739,2.088h-4.072c-0.107-0.273-0.239-0.679-0.396-1.216c-0.068-0.244-0.117-0.405-0.146-0.483
		c-0.703,0.684-1.455,1.196-2.256,1.538s-1.655,0.513-2.563,0.513c-1.602,0-2.864-0.435-3.787-1.304s-1.384-1.968-1.384-3.296
		c0-0.879,0.21-1.662,0.63-2.352c0.42-0.688,1.008-1.215,1.765-1.582c0.757-0.365,1.848-0.686,3.274-0.959
		c1.924-0.361,3.257-0.698,3.999-1.011V112c0-0.791-0.195-1.354-0.586-1.692c-0.391-0.336-1.128-0.505-2.212-0.505
		c-0.732,0-1.304,0.145-1.714,0.433S130.07,111.028,129.816,111.751z M135.324,115.091c-0.527,0.176-1.362,0.386-2.505,0.63
		s-1.89,0.483-2.241,0.718c-0.537,0.381-0.806,0.864-0.806,1.45c0,0.576,0.215,1.074,0.645,1.494s0.977,0.63,1.641,0.63
		c0.742,0,1.45-0.244,2.124-0.732c0.498-0.371,0.825-0.825,0.981-1.362c0.107-0.352,0.161-1.021,0.161-2.007V115.091z"/>
	<path d="M150.559,107.005v3.281h-2.813v6.27c0,1.27,0.027,2.01,0.08,2.219c0.055,0.211,0.176,0.384,0.367,0.521
		c0.189,0.137,0.422,0.205,0.695,0.205c0.381,0,0.933-0.132,1.655-0.396l0.352,3.193c-0.957,0.41-2.041,0.615-3.252,0.615
		c-0.742,0-1.411-0.125-2.007-0.373c-0.596-0.25-1.033-0.572-1.311-0.967c-0.279-0.396-0.472-0.931-0.579-1.604
		c-0.088-0.479-0.132-1.445-0.132-2.9v-6.782h-1.89v-3.281h1.89v-3.091l4.131-2.402v5.493H150.559z"/>
	<path d="M153.415,104.896v-3.809h4.116v3.809H153.415z M153.415,122.562v-15.557h4.116v15.557H153.415z"/>
	<path d="M160.798,114.563c0-1.367,0.337-2.69,1.011-3.97s1.629-2.256,2.863-2.93c1.236-0.674,2.615-1.011,4.139-1.011
		c2.354,0,4.282,0.765,5.786,2.293s2.256,3.459,2.256,5.793c0,2.354-0.759,4.305-2.278,5.852c-1.518,1.549-3.43,2.322-5.734,2.322
		c-1.426,0-2.785-0.322-4.08-0.967c-1.293-0.645-2.277-1.59-2.951-2.834C161.135,117.866,160.798,116.351,160.798,114.563z
		 M165.017,114.783c0,1.543,0.366,2.725,1.099,3.545s1.636,1.23,2.71,1.23s1.976-0.41,2.702-1.23
		c0.729-0.82,1.092-2.012,1.092-3.574c0-1.523-0.363-2.695-1.092-3.516c-0.727-0.82-1.628-1.23-2.702-1.23s-1.978,0.41-2.71,1.23
		S165.017,113.24,165.017,114.783z"/>
	<path d="M194.226,122.562h-4.116v-7.939c0-1.68-0.088-2.766-0.264-3.26c-0.176-0.492-0.461-0.876-0.857-1.149
		c-0.395-0.273-0.871-0.41-1.428-0.41c-0.713,0-1.353,0.195-1.919,0.586s-0.954,0.908-1.165,1.553
		c-0.209,0.645-0.314,1.836-0.314,3.574v7.046h-4.116v-15.557h3.823v2.285c1.357-1.758,3.066-2.637,5.127-2.637
		c0.908,0,1.738,0.164,2.49,0.49c0.752,0.328,1.32,0.745,1.707,1.253c0.385,0.508,0.654,1.084,0.805,1.729
		c0.152,0.645,0.228,1.567,0.228,2.769V122.562z"/>
	<path d="M73.398,158.562v-21.475h9.126c2.295,0,3.962,0.193,5.002,0.578c1.04,0.387,1.873,1.072,2.498,2.059
		s0.938,2.114,0.938,3.384c0,1.611-0.474,2.942-1.421,3.991c-0.947,1.051-2.363,1.712-4.248,1.985
		c0.938,0.547,1.711,1.147,2.322,1.802s1.433,1.816,2.468,3.486l2.622,4.189h-5.186l-3.135-4.673
		c-1.113-1.67-1.875-2.722-2.285-3.157c-0.41-0.434-0.845-0.732-1.304-0.893c-0.459-0.162-1.187-0.242-2.183-0.242h-0.879v8.965
		H73.398z M77.734,146.169h3.208c2.08,0,3.379-0.088,3.896-0.264s0.923-0.479,1.216-0.908s0.439-0.967,0.439-1.611
		c0-0.723-0.193-1.306-0.579-1.75s-0.93-0.726-1.633-0.843c-0.352-0.049-1.406-0.073-3.164-0.073h-3.384V146.169z"/>
	<path d="M104.028,153.61l4.102,0.688c-0.527,1.504-1.36,2.649-2.498,3.435c-1.138,0.787-2.561,1.18-4.27,1.18
		c-2.705,0-4.707-0.884-6.006-2.651c-1.025-1.416-1.538-3.203-1.538-5.361c0-2.578,0.674-4.597,2.021-6.058
		c1.348-1.459,3.052-2.189,5.112-2.189c2.314,0,4.141,0.765,5.479,2.293s1.978,3.869,1.919,7.023H98.037
		c0.029,1.221,0.361,2.171,0.996,2.85s1.426,1.018,2.373,1.018c0.645,0,1.187-0.176,1.626-0.527S103.803,154.392,104.028,153.61z
		 M104.262,149.45c-0.029-1.191-0.337-2.097-0.923-2.717s-1.299-0.931-2.139-0.931c-0.898,0-1.641,0.327-2.227,0.981
		s-0.874,1.543-0.864,2.666H104.262z"/>
	<path d="M111.704,158.562v-21.475h4.116v21.475H111.704z"/>
	<path d="M129.047,153.61l4.102,0.688c-0.527,1.504-1.359,2.649-2.497,3.435c-1.138,0.787-2.561,1.18-4.27,1.18
		c-2.705,0-4.707-0.884-6.006-2.651c-1.025-1.416-1.538-3.203-1.538-5.361c0-2.578,0.674-4.597,2.021-6.058
		c1.348-1.459,3.052-2.189,5.112-2.189c2.314,0,4.14,0.765,5.478,2.293s1.979,3.869,1.92,7.023h-10.313
		c0.029,1.221,0.361,2.171,0.996,2.85s1.426,1.018,2.373,1.018c0.645,0,1.187-0.176,1.626-0.527S128.823,154.392,129.047,153.61z
		 M129.281,149.45c-0.029-1.191-0.336-2.097-0.922-2.717c-0.586-0.62-1.299-0.931-2.139-0.931c-0.898,0-1.641,0.327-2.227,0.981
		s-0.874,1.543-0.864,2.666H129.281z"/>
	<path d="M139.799,147.751l-3.734-0.674c0.42-1.504,1.143-2.617,2.168-3.34s2.549-1.084,4.57-1.084c1.836,0,3.203,0.218,4.102,0.652
		s1.53,0.986,1.896,1.654c0.366,0.67,0.549,1.897,0.549,3.685l-0.043,4.805c0,1.367,0.065,2.376,0.197,3.024
		c0.132,0.65,0.379,1.346,0.74,2.088h-4.072c-0.107-0.273-0.24-0.679-0.396-1.216c-0.068-0.244-0.117-0.405-0.146-0.483
		c-0.703,0.684-1.455,1.196-2.256,1.538s-1.654,0.513-2.563,0.513c-1.602,0-2.864-0.435-3.787-1.304s-1.385-1.968-1.385-3.296
		c0-0.879,0.211-1.662,0.631-2.352c0.42-0.688,1.008-1.215,1.765-1.582c0.757-0.365,1.849-0.686,3.274-0.959
		c1.924-0.361,3.256-0.698,3.998-1.011V148c0-0.791-0.195-1.354-0.586-1.692c-0.391-0.336-1.127-0.505-2.211-0.505
		c-0.732,0-1.305,0.145-1.715,0.433S140.053,147.028,139.799,147.751z M145.307,151.091c-0.527,0.176-1.361,0.386-2.504,0.63
		s-1.891,0.483-2.242,0.718c-0.537,0.381-0.805,0.864-0.805,1.45c0,0.576,0.215,1.074,0.645,1.494s0.977,0.63,1.641,0.63
		c0.742,0,1.449-0.244,2.123-0.732c0.498-0.371,0.826-0.825,0.982-1.362c0.107-0.352,0.16-1.021,0.16-2.007V151.091z"/>
	<path d="M151.957,154.123l4.131-0.63c0.176,0.801,0.533,1.409,1.07,1.824s1.289,0.622,2.256,0.622c1.064,0,1.865-0.195,2.402-0.586
		c0.361-0.273,0.541-0.64,0.541-1.099c0-0.313-0.098-0.571-0.293-0.776c-0.205-0.195-0.664-0.376-1.377-0.542
		c-3.32-0.732-5.424-1.401-6.313-2.007c-1.23-0.84-1.846-2.007-1.846-3.501c0-1.348,0.531-2.48,1.596-3.398s2.715-1.377,4.951-1.377
		c2.129,0,3.711,0.347,4.746,1.04s1.748,1.719,2.139,3.076l-3.881,0.718c-0.166-0.605-0.481-1.069-0.945-1.392
		s-1.125-0.483-1.984-0.483c-1.084,0-1.861,0.151-2.33,0.454c-0.313,0.215-0.469,0.493-0.469,0.835c0,0.293,0.137,0.542,0.41,0.747
		c0.371,0.273,1.653,0.659,3.846,1.157s3.723,1.108,4.592,1.831c0.859,0.732,1.289,1.753,1.289,3.062
		c0,1.426-0.596,2.651-1.787,3.677s-2.953,1.538-5.287,1.538c-2.119,0-3.797-0.43-5.032-1.289S152.338,155.598,151.957,154.123z"/>
	<path d="M179.102,153.61l4.102,0.688c-0.527,1.504-1.36,2.649-2.498,3.435c-1.138,0.787-2.561,1.18-4.27,1.18
		c-2.705,0-4.707-0.884-6.006-2.651c-1.025-1.416-1.539-3.203-1.539-5.361c0-2.578,0.674-4.597,2.021-6.058
		c1.348-1.459,3.053-2.189,5.113-2.189c2.314,0,4.141,0.765,5.479,2.293s1.977,3.869,1.918,7.023h-10.313
		c0.029,1.221,0.361,2.171,0.996,2.85s1.426,1.018,2.373,1.018c0.645,0,1.188-0.176,1.627-0.527S178.877,154.392,179.102,153.61z
		 M179.336,149.45c-0.029-1.191-0.338-2.097-0.924-2.717s-1.299-0.931-2.139-0.931c-0.898,0-1.641,0.327-2.227,0.981
		s-0.873,1.543-0.863,2.666H179.336z"/>
</g>
</svg>
