<?xml version="1.0" encoding="utf-8"?>
<!-- Generator: Adobe Illustrator 16.0.0, SVG Export Plug-In . SVG Version: 6.00 Build 0)  -->
<!DOCTYPE svg PUBLIC "-//W3C//DTD SVG 1.1//EN" "http://www.w3.org/Graphics/SVG/1.1/DTD/svg11.dtd">
<svg version="1.1" id="Layer_1" xmlns="http://www.w3.org/2000/svg" xmlns:xlink="http://www.w3.org/1999/xlink" x="0px" y="0px"
	 width="256px" height="256px" viewBox="0 0 256 256" enable-background="new 0 0 256 256" xml:space="preserve">
<g>
	
		<rect x="41.037" y="41.038" transform="matrix(-0.7071 0.7071 -0.7071 -0.7071 309.0193 128.0007)" fill="#FFFFFF" width="173.926" height="173.925"/>
</g>
<g>
	<path d="M128,15.572L240.427,128L128,240.427L15.572,128L128,15.572 M128,0.016L0.016,128L128,255.983L255.983,128L128,0.016
		L128,0.016z"/>
</g>
<g>
	<path d="M72.011,148.759v-41.518h17.644c4.437,0,7.66,0.373,9.671,1.119c2.011,0.746,3.62,2.072,4.829,3.979
		c1.208,1.907,1.813,4.088,1.813,6.542c0,3.115-0.916,5.688-2.747,7.717c-1.832,2.03-4.569,3.309-8.213,3.837
		c1.813,1.058,3.309,2.219,4.488,3.483s2.771,3.512,4.772,6.74l5.069,8.1H99.312l-6.061-9.034c-2.152-3.229-3.625-5.263-4.418-6.104
		c-0.793-0.84-1.634-1.416-2.521-1.727c-0.888-0.313-2.294-0.468-4.22-0.468h-1.699v17.332H72.011z M80.394,124.8h6.202
		c4.021,0,6.532-0.17,7.533-0.51c1-0.34,1.784-0.925,2.351-1.756c0.566-0.831,0.85-1.869,0.85-3.115
		c0-1.397-0.373-2.525-1.119-3.384c-0.746-0.859-1.798-1.402-3.157-1.628c-0.68-0.094-2.719-0.142-6.117-0.142h-6.542V124.8z"/>
	<path d="M123.214,148.759v-34.494h-12.319v-7.023h32.993v7.023h-12.291v34.494H123.214z"/>
	<path d="M175.86,133.494l8.129,2.577c-1.246,4.531-3.318,7.897-6.217,10.097s-6.574,3.299-11.031,3.299
		c-5.512,0-10.043-1.883-13.594-5.65c-3.549-3.766-5.324-8.916-5.324-15.448c0-6.91,1.785-12.277,5.354-16.1
		s8.26-5.735,14.074-5.735c5.08,0,9.205,1.501,12.377,4.503c1.887,1.775,3.303,4.324,4.248,7.646l-8.299,1.982
		c-0.49-2.152-1.514-3.852-3.072-5.098c-1.557-1.246-3.451-1.869-5.678-1.869c-3.078,0-5.574,1.104-7.49,3.313
		c-1.918,2.209-2.875,5.787-2.875,10.733c0,5.249,0.943,8.987,2.832,11.215c1.887,2.228,4.342,3.342,7.363,3.342
		c2.227,0,4.145-0.708,5.748-2.124C174.011,138.762,175.163,136.534,175.86,133.494z"/>
</g>
</svg>
