<?xml version="1.0" encoding="utf-8"?>
<!-- Generator: Adobe Illustrator 16.0.0, SVG Export Plug-In . SVG Version: 6.00 Build 0)  -->
<!DOCTYPE svg PUBLIC "-//W3C//DTD SVG 1.1//EN" "http://www.w3.org/Graphics/SVG/1.1/DTD/svg11.dtd">
<svg version="1.1" id="Layer_1" xmlns="http://www.w3.org/2000/svg" xmlns:xlink="http://www.w3.org/1999/xlink" x="0px" y="0px"
	 width="256px" height="256px" viewBox="0 0 256 256" enable-background="new 0 0 256 256" xml:space="preserve">
<rect x="15.644" y="4.973" fill="#FFFFFF" width="224.533" height="138.489"/>
<path d="M246.313,0H9.688v150.266h0.056l-0.025,0.029l122.031,105.708l114.506-105.678l-0.055-0.06h0.112V0z M20.688,11h214.625
	v128.266H20.688V11z M131.517,241.249L26.485,150.266H230.1L131.517,241.249z"/>
<g>
	<path d="M111.179,100.264h-10.221l-4.063-10.568H78.298l-3.841,10.568h-9.966l18.123-46.528h9.934L111.179,100.264z M93.881,81.855
		L87.47,64.59l-6.284,17.265H93.881z"/>
	<path d="M116.416,100.264V54.117h9.395v38.308h23.36v7.839H116.416z"/>
	<path d="M155.865,100.264V53.736h15.076c5.713,0,9.438,0.233,11.172,0.698c2.666,0.698,4.898,2.217,6.697,4.555
		s2.697,5.358,2.697,9.061c0,2.856-0.518,5.258-1.555,7.205c-1.037,1.947-2.354,3.476-3.951,4.585
		c-1.598,1.111-3.223,1.848-4.873,2.207c-2.242,0.443-5.49,0.666-9.742,0.666h-6.127v17.551H155.865z M165.26,61.607V74.81h5.143
		c3.703,0,6.178-0.243,7.426-0.73c1.25-0.486,2.229-1.248,2.938-2.285c0.707-1.037,1.063-2.243,1.063-3.618
		c0-1.692-0.498-3.089-1.492-4.189c-0.994-1.1-2.254-1.788-3.777-2.063c-1.121-0.211-3.375-0.317-6.76-0.317H165.26z"/>
</g>
</svg>
