<?xml version="1.0" encoding="utf-8"?>
<!-- Generator: Adobe Illustrator 16.0.0, SVG Export Plug-In . SVG Version: 6.00 Build 0)  -->
<!DOCTYPE svg PUBLIC "-//W3C//DTD SVG 1.1//EN" "http://www.w3.org/Graphics/SVG/1.1/DTD/svg11.dtd">
<svg version="1.1" id="Layer_1" xmlns="http://www.w3.org/2000/svg" xmlns:xlink="http://www.w3.org/1999/xlink" x="0px" y="0px"
	 width="256px" height="256px" viewBox="0 0 256 256" enable-background="new 0 0 256 256" xml:space="preserve">
<rect x="15.644" y="4.973" fill="#FFFFFF" width="224.533" height="138.489"/>
<path d="M246.313,0H9.688v150.266h0.056l-0.025,0.029l122.031,105.708l114.506-105.678l-0.055-0.06h0.112V0z M20.688,11h214.625
	v128.266H20.688V11z M131.517,241.249L26.485,150.266H230.1L131.517,241.249z"/>
<g>
	<path d="M65.299,82.235l8.128,2.577c-1.246,4.531-3.318,7.896-6.216,10.096c-2.898,2.2-6.575,3.3-11.031,3.3
		c-5.513,0-10.044-1.884-13.594-5.649c-3.55-3.768-5.324-8.917-5.324-15.449c0-6.91,1.784-12.277,5.353-16.1
		c3.568-3.824,8.26-5.735,14.075-5.735c5.079,0,9.204,1.501,12.376,4.503c1.888,1.774,3.304,4.323,4.248,7.646l-8.298,1.982
		c-0.491-2.152-1.515-3.852-3.073-5.098s-3.451-1.869-5.678-1.869c-3.078,0-5.575,1.104-7.491,3.313
		C46.858,67.962,45.9,71.54,45.9,76.486c0,5.249,0.944,8.987,2.832,11.215c1.888,2.228,4.342,3.342,7.363,3.342
		c2.228,0,4.144-0.708,5.749-2.124C63.449,87.503,64.601,85.275,65.299,82.235z"/>
	<path d="M86.511,76.6l-7.222-1.303c0.812-2.907,2.209-5.06,4.191-6.457s4.928-2.096,8.836-2.096c3.549,0,6.192,0.42,7.93,1.26
		c1.737,0.841,2.959,1.907,3.667,3.201c0.708,1.293,1.062,3.667,1.062,7.122l-0.085,9.289c0,2.644,0.127,4.593,0.382,5.849
		c0.255,1.255,0.731,2.601,1.43,4.035h-7.873c-0.208-0.528-0.463-1.313-0.765-2.351c-0.132-0.472-0.227-0.783-0.283-0.935
		c-1.359,1.321-2.813,2.313-4.361,2.974c-1.548,0.661-3.2,0.991-4.956,0.991c-3.097,0-5.537-0.84-7.321-2.521
		s-2.676-3.805-2.676-6.372c0-1.699,0.406-3.215,1.218-4.545c0.812-1.332,1.949-2.352,3.413-3.059
		c1.463-0.709,3.573-1.327,6.33-1.855c3.719-0.698,6.296-1.35,7.731-1.954v-0.793c0-1.529-0.378-2.62-1.133-3.271
		c-0.755-0.652-2.181-0.978-4.276-0.978c-1.416,0-2.521,0.278-3.313,0.835C87.644,74.226,87.002,75.202,86.511,76.6z M97.16,83.057
		c-1.02,0.34-2.634,0.746-4.843,1.218s-3.653,0.935-4.333,1.388c-1.039,0.736-1.558,1.671-1.558,2.804
		c0,1.114,0.415,2.077,1.246,2.889c0.831,0.812,1.888,1.218,3.172,1.218c1.435,0,2.804-0.472,4.106-1.416
		c0.963-0.718,1.595-1.596,1.897-2.634c0.208-0.68,0.312-1.973,0.312-3.88V83.057z"/>
	<path d="M110.017,88.919l7.986-1.218c0.34,1.548,1.029,2.724,2.067,3.525c1.038,0.803,2.492,1.204,4.361,1.204
		c2.058,0,3.606-0.378,4.644-1.133c0.699-0.528,1.049-1.236,1.049-2.124c0-0.604-0.189-1.104-0.566-1.501
		c-0.396-0.378-1.285-0.727-2.663-1.048c-6.419-1.416-10.488-2.709-12.206-3.88c-2.379-1.624-3.568-3.88-3.568-6.769
		c0-2.605,1.029-4.796,3.087-6.57s5.249-2.662,9.572-2.662c4.116,0,7.174,0.67,9.176,2.011c2,1.341,3.379,3.323,4.135,5.947
		l-7.506,1.388c-0.32-1.171-0.929-2.067-1.827-2.69c-0.896-0.623-2.176-0.935-3.837-0.935c-2.096,0-3.597,0.293-4.503,0.878
		c-0.604,0.415-0.906,0.953-0.906,1.614c0,0.566,0.265,1.048,0.793,1.444c0.718,0.528,3.195,1.274,7.434,2.237
		c4.239,0.963,7.198,2.143,8.879,3.54c1.66,1.416,2.492,3.389,2.492,5.919c0,2.757-1.152,5.126-3.455,7.108
		c-2.305,1.982-5.711,2.974-10.224,2.974c-4.097,0-7.34-0.831-9.728-2.492C112.316,94.026,110.753,91.77,110.017,88.919z"/>
	<path d="M171.699,82.235l8.127,2.577c-1.246,4.531-3.318,7.896-6.217,10.096c-2.896,2.2-6.574,3.3-11.029,3.3
		c-5.514,0-10.045-1.884-13.594-5.649c-3.551-3.768-5.324-8.917-5.324-15.449c0-6.91,1.783-12.277,5.352-16.1
		c3.568-3.824,8.26-5.735,14.076-5.735c5.078,0,9.203,1.501,12.375,4.503c1.889,1.774,3.305,4.323,4.248,7.646l-8.297,1.982
		c-0.492-2.152-1.516-3.852-3.074-5.098c-1.557-1.246-3.449-1.869-5.678-1.869c-3.076,0-5.574,1.104-7.49,3.313
		s-2.875,5.787-2.875,10.733c0,5.249,0.945,8.987,2.832,11.215c1.889,2.228,4.344,3.342,7.363,3.342c2.229,0,4.145-0.708,5.75-2.124
		C169.848,87.503,171,85.275,171.699,82.235z"/>
	<path d="M184.896,83.991l8.156-0.793c0.49,2.737,1.486,4.748,2.988,6.032c1.5,1.284,3.525,1.926,6.074,1.926
		c2.699,0,4.734-0.571,6.104-1.713c1.367-1.143,2.053-2.479,2.053-4.008c0-0.981-0.289-1.817-0.863-2.506
		c-0.576-0.689-1.582-1.289-3.018-1.799c-0.98-0.34-3.219-0.944-6.711-1.813c-4.494-1.114-7.646-2.482-9.459-4.106
		c-2.549-2.284-3.824-5.069-3.824-8.354c0-2.114,0.6-4.092,1.799-5.934c1.199-1.84,2.926-3.242,5.184-4.205
		c2.256-0.963,4.979-1.444,8.17-1.444c5.211,0,9.133,1.143,11.768,3.427c2.633,2.284,4.016,5.334,4.148,9.147l-8.383,0.368
		c-0.359-2.134-1.129-3.668-2.309-4.602c-1.18-0.936-2.949-1.402-5.311-1.402c-2.436,0-4.342,0.5-5.721,1.501
		c-0.887,0.642-1.33,1.501-1.33,2.577c0,0.981,0.414,1.822,1.246,2.521c1.057,0.888,3.625,1.813,7.703,2.775
		s7.094,1.959,9.049,2.987c1.953,1.029,3.482,2.436,4.588,4.221c1.104,1.783,1.656,3.988,1.656,6.612
		c0,2.379-0.662,4.606-1.982,6.684c-1.322,2.077-3.191,3.62-5.607,4.63c-2.418,1.011-5.428,1.516-9.035,1.516
		c-5.248,0-9.279-1.213-12.092-3.639C187.123,92.171,185.443,88.636,184.896,83.991z"/>
</g>
</svg>
