<?xml version="1.0" encoding="utf-8"?>
<!-- Generator: Adobe Illustrator 16.0.0, SVG Export Plug-In . SVG Version: 6.00 Build 0)  -->
<!DOCTYPE svg PUBLIC "-//W3C//DTD SVG 1.1//EN" "http://www.w3.org/Graphics/SVG/1.1/DTD/svg11.dtd">
<svg version="1.1" id="Layer_1" xmlns="http://www.w3.org/2000/svg" xmlns:xlink="http://www.w3.org/1999/xlink" x="0px" y="0px"
	 width="256px" height="256px" viewBox="0 0 256 256" enable-background="new 0 0 256 256" xml:space="preserve">
<rect x="15.644" y="4.973" fill="#FFFFFF" width="224.533" height="138.489"/>
<path d="M246.313,0H9.688v150.266h0.056l-0.025,0.029l122.031,105.708l114.506-105.678l-0.055-0.06h0.112V0z M20.688,11h214.625
	v128.266H20.688V11z M131.517,241.249L26.485,150.266H230.1L131.517,241.249z"/>
<g>
	<path d="M79.473,82.542l9.108,2.889c-1.396,5.078-3.719,8.85-6.967,11.314c-3.248,2.466-7.368,3.697-12.361,3.697
		c-6.179,0-11.257-2.11-15.234-6.331c-3.979-4.222-5.967-9.992-5.967-17.313c0-7.744,1.999-13.759,5.998-18.043
		c3.999-4.285,9.257-6.428,15.774-6.428c5.691,0,10.314,1.683,13.869,5.047c2.116,1.989,3.703,4.846,4.761,8.569l-9.299,2.222
		c-0.551-2.412-1.698-4.316-3.444-5.713c-1.745-1.396-3.866-2.095-6.363-2.095c-3.449,0-6.247,1.237-8.395,3.714
		c-2.147,2.475-3.222,6.485-3.222,12.028c0,5.883,1.058,10.072,3.174,12.568c2.116,2.497,4.866,3.745,8.252,3.745
		c2.497,0,4.645-0.793,6.443-2.381C77.398,88.446,78.689,85.949,79.473,82.542z"/>
	<path d="M103.244,76.227l-8.093-1.46c0.909-3.258,2.476-5.67,4.697-7.236c2.222-1.565,5.522-2.349,9.901-2.349
		c3.979,0,6.939,0.471,8.887,1.412c1.947,0.942,3.316,2.138,4.111,3.587c0.793,1.449,1.189,4.109,1.189,7.982l-0.096,10.41
		c0,2.962,0.143,5.146,0.43,6.554c0.285,1.407,0.818,2.915,1.602,4.522h-8.822c-0.234-0.592-0.52-1.471-0.857-2.635
		c-0.148-0.528-0.254-0.877-0.316-1.047c-1.523,1.481-3.154,2.592-4.889,3.332c-1.734,0.741-3.586,1.111-5.554,1.111
		c-3.471,0-6.205-0.941-8.204-2.824c-2-1.884-3-4.264-3-7.142c0-1.904,0.455-3.603,1.365-5.094c0.909-1.492,2.185-2.635,3.824-3.428
		c1.64-0.794,4.004-1.486,7.094-2.079c4.168-0.782,7.057-1.513,8.664-2.189v-0.889c0-1.715-0.424-2.937-1.27-3.666
		c-0.846-0.73-2.443-1.096-4.793-1.096c-1.586,0-2.824,0.313-3.713,0.937C104.514,73.566,103.794,74.661,103.244,76.227z
		 M115.178,83.463c-1.143,0.381-2.951,0.836-5.428,1.364c-2.475,0.529-4.094,1.048-4.855,1.556
		c-1.164,0.825-1.745,1.872-1.745,3.142c0,1.249,0.465,2.328,1.396,3.238c0.931,0.909,2.115,1.364,3.554,1.364
		c1.607,0,3.143-0.528,4.604-1.587c1.078-0.804,1.787-1.788,2.125-2.951c0.232-0.762,0.35-2.211,0.35-4.349V83.463z"/>
	<path d="M129.587,90.032l8.95-1.364c0.381,1.735,1.153,3.053,2.317,3.951c1.163,0.899,2.793,1.349,4.887,1.349
		c2.307,0,4.042-0.423,5.205-1.27c0.783-0.592,1.175-1.385,1.175-2.38c0-0.677-0.212-1.237-0.635-1.683
		c-0.444-0.423-1.439-0.813-2.983-1.174c-7.194-1.587-11.754-3.036-13.68-4.348c-2.666-1.82-3.998-4.349-3.998-7.586
		c0-2.92,1.152-5.374,3.459-7.363c2.306-1.988,5.882-2.983,10.728-2.983c4.612,0,8.04,0.751,10.283,2.253
		c2.242,1.503,3.787,3.725,4.634,6.666l-8.41,1.555c-0.36-1.312-1.043-2.316-2.048-3.016c-1.005-0.697-2.438-1.047-4.3-1.047
		c-2.35,0-4.031,0.328-5.047,0.984c-0.678,0.465-1.016,1.068-1.016,1.809c0,0.635,0.296,1.174,0.889,1.619
		c0.804,0.592,3.581,1.428,8.331,2.507s8.066,2.401,9.95,3.968c1.861,1.586,2.793,3.798,2.793,6.633c0,3.09-1.291,5.744-3.872,7.967
		c-2.582,2.221-6.4,3.332-11.458,3.332c-4.591,0-8.226-0.931-10.901-2.793C132.163,95.757,130.412,93.228,129.587,90.032z"/>
	<path d="M168.974,53.121h18.599c3.682,0,6.427,0.153,8.236,0.46c1.809,0.308,3.428,0.947,4.855,1.92
		c1.429,0.974,2.619,2.27,3.57,3.889c0.953,1.618,1.429,3.433,1.429,5.443c0,2.179-0.587,4.179-1.762,5.998
		c-1.174,1.82-2.767,3.185-4.776,4.094c2.835,0.826,5.015,2.233,6.538,4.222c1.523,1.989,2.285,4.327,2.285,7.015
		c0,2.115-0.492,4.173-1.476,6.173c-0.984,1.999-2.328,3.597-4.031,4.792c-1.703,1.196-3.804,1.932-6.3,2.206
		c-1.566,0.17-5.343,0.275-11.331,0.317h-15.837V53.121z M178.368,60.865v10.759h6.157c3.66,0,5.936-0.052,6.824-0.158
		c1.607-0.19,2.872-0.746,3.792-1.666c0.921-0.921,1.381-2.132,1.381-3.635c0-1.438-0.396-2.607-1.19-3.507
		c-0.793-0.898-1.973-1.444-3.539-1.634c-0.931-0.106-3.607-0.159-8.029-0.159H178.368z M178.368,79.368V91.81h8.696
		c3.385,0,5.533-0.095,6.443-0.285c1.396-0.254,2.533-0.873,3.411-1.856c0.878-0.984,1.317-2.302,1.317-3.952
		c0-1.396-0.339-2.581-1.016-3.555c-0.678-0.973-1.656-1.682-2.936-2.126c-1.28-0.444-4.058-0.667-8.332-0.667H178.368z"/>
</g>
</svg>
