<?xml version="1.0" encoding="utf-8"?>
<!-- Generator: Adobe Illustrator 16.0.0, SVG Export Plug-In . SVG Version: 6.00 Build 0)  -->
<!DOCTYPE svg PUBLIC "-//W3C//DTD SVG 1.1//EN" "http://www.w3.org/Graphics/SVG/1.1/DTD/svg11.dtd">
<svg version="1.1" id="Layer_1" xmlns="http://www.w3.org/2000/svg" xmlns:xlink="http://www.w3.org/1999/xlink" x="0px" y="0px"
	 width="256px" height="256px" viewBox="0 0 256 256" enable-background="new 0 0 256 256" xml:space="preserve">
<rect x="15.644" y="4.973" fill="#FFFFFF" width="224.533" height="138.489"/>
<path d="M246.313,0H9.688v150.266h0.056l-0.025,0.029l122.031,105.708l114.506-105.678l-0.055-0.06h0.112V0z M20.688,11h214.625
	v128.266H20.688V11z M131.517,241.249L26.485,150.266H230.1L131.517,241.249z"/>
<g>
	<path d="M59.811,99.265V52.736H94.31v7.871H69.205v10.315h23.359v7.839H69.205v12.663h25.993v7.84H59.811z"/>
	<path d="M103.038,99.265V52.736h14.06l8.442,31.738l8.347-31.738h14.092v46.528h-8.728V62.639l-9.235,36.626h-9.046l-9.204-36.626
		v36.626H103.038z"/>
	<path d="M187.081,82.157l9.108,2.889c-1.396,5.078-3.719,8.85-6.967,11.314c-3.248,2.466-7.368,3.697-12.362,3.697
		c-6.178,0-11.256-2.11-15.234-6.331c-3.978-4.222-5.967-9.992-5.967-17.313c0-7.744,2-13.759,5.999-18.043
		c3.999-4.285,9.257-6.428,15.774-6.428c5.691,0,10.314,1.683,13.869,5.047c2.115,1.989,3.702,4.846,4.761,8.569l-9.3,2.222
		c-0.55-2.412-1.697-4.316-3.443-5.713c-1.745-1.396-3.867-2.095-6.363-2.095c-3.449,0-6.247,1.237-8.395,3.714
		c-2.148,2.475-3.222,6.485-3.222,12.028c0,5.883,1.058,10.072,3.174,12.568c2.115,2.497,4.866,3.745,8.252,3.745
		c2.496,0,4.645-0.793,6.442-2.381C185.007,88.062,186.298,85.564,187.081,82.157z"/>
</g>
</svg>
