<?xml version="1.0" encoding="utf-8"?>
<!-- Generator: Adobe Illustrator 16.0.0, SVG Export Plug-In . SVG Version: 6.00 Build 0)  -->
<!DOCTYPE svg PUBLIC "-//W3C//DTD SVG 1.1//EN" "http://www.w3.org/Graphics/SVG/1.1/DTD/svg11.dtd">
<svg version="1.1" id="Layer_1" xmlns="http://www.w3.org/2000/svg" xmlns:xlink="http://www.w3.org/1999/xlink" x="0px" y="0px"
	 width="256px" height="256px" viewBox="0 0 256 256" enable-background="new 0 0 256 256" xml:space="preserve">
<rect x="15.644" y="4.973" fill="#FFFFFF" width="224.533" height="138.489"/>
<path d="M246.313,0H9.688v150.266h0.056l-0.025,0.029l122.031,105.708l114.506-105.678l-0.055-0.06h0.112V0z M20.688,11h214.625
	v128.266H20.688V11z M131.517,241.249L26.485,150.266H230.1L131.517,241.249z"/>
<g>
	<path d="M48.307,97.419V55.901h30.784v7.023H56.689v9.204h20.844v6.995H56.689v11.3h23.194v6.995H48.307z"/>
	<path d="M86.879,97.419V55.901h12.546l7.533,28.32l7.448-28.32h12.574v41.518h-7.788V64.737l-8.241,32.682h-8.071l-8.213-32.682
		v32.682H86.879z"/>
	<path d="M133.409,81.956c0-2.644,0.651-5.201,1.954-7.675s3.148-4.361,5.536-5.664c2.389-1.303,5.056-1.954,8.001-1.954
		c4.55,0,8.279,1.478,11.187,4.432c2.907,2.955,4.361,6.688,4.361,11.201c0,4.55-1.468,8.321-4.404,11.314
		c-2.936,2.992-6.631,4.488-11.087,4.488c-2.757,0-5.386-0.623-7.888-1.869c-2.501-1.246-4.403-3.072-5.706-5.48
		C134.061,88.343,133.409,85.411,133.409,81.956z M141.565,82.381c0,2.983,0.708,5.268,2.124,6.854s3.162,2.379,5.239,2.379
		s3.818-0.793,5.225-2.379c1.407-1.586,2.11-3.89,2.11-6.91c0-2.945-0.703-5.211-2.11-6.797c-1.406-1.586-3.147-2.379-5.225-2.379
		s-3.823,0.793-5.239,2.379S141.565,79.397,141.565,82.381z"/>
	<path d="M178.297,97.419h-7.958V67.343h7.392v4.276c1.265-2.021,2.402-3.352,3.412-3.993c1.011-0.642,2.157-0.963,3.441-0.963
		c1.813,0,3.559,0.5,5.239,1.501l-2.464,6.938c-1.341-0.868-2.587-1.303-3.738-1.303c-1.114,0-2.058,0.307-2.832,0.92
		c-0.774,0.614-1.383,1.724-1.826,3.328c-0.444,1.604-0.666,4.966-0.666,10.082V97.419z"/>
	<path d="M207.042,67.343v6.344h-5.438v12.121c0,2.454,0.052,3.885,0.156,4.291c0.104,0.405,0.34,0.74,0.707,1.005
		c0.369,0.265,0.817,0.396,1.346,0.396c0.736,0,1.803-0.255,3.2-0.765l0.68,6.174c-1.851,0.793-3.946,1.189-6.287,1.189
		c-1.435,0-2.729-0.24-3.88-0.723c-1.151-0.48-1.996-1.104-2.535-1.869c-0.537-0.764-0.91-1.798-1.118-3.101
		c-0.17-0.925-0.255-2.794-0.255-5.607V73.687h-3.653v-6.344h3.653v-5.976l7.986-4.645v10.62H207.042z"/>
</g>
</svg>
