<?xml version="1.0" encoding="utf-8"?>
<!-- Generator: Adobe Illustrator 16.0.0, SVG Export Plug-In . SVG Version: 6.00 Build 0)  -->
<!DOCTYPE svg PUBLIC "-//W3C//DTD SVG 1.1//EN" "http://www.w3.org/Graphics/SVG/1.1/DTD/svg11.dtd">
<svg version="1.1" id="Layer_1" xmlns="http://www.w3.org/2000/svg" xmlns:xlink="http://www.w3.org/1999/xlink" x="0px" y="0px"
	 width="256px" height="256px" viewBox="0 0 256 256" enable-background="new 0 0 256 256" xml:space="preserve">
<rect x="15.644" y="4.973" fill="#FFFFFF" width="224.533" height="138.489"/>
<path d="M246.313,0H9.688v150.266h0.056l-0.025,0.029l122.031,105.708l114.506-105.678l-0.055-0.06h0.112V0z M20.688,11h214.625
	v128.266H20.688V11z M131.517,241.249L26.485,150.266H230.1L131.517,241.249z"/>
<g>
	<path d="M55.684,97.759V56.241h30.784v7.023H64.067v9.204h20.844v6.995H64.067v11.3h23.194v6.995H55.684z"/>
	<path d="M102.583,97.759L90.461,67.683h8.354l5.664,15.35l1.643,5.126c0.434-1.303,0.708-2.162,0.821-2.577
		c0.264-0.85,0.547-1.699,0.85-2.549l5.721-15.35h8.185l-11.951,30.076H102.583z"/>
	<path d="M164.066,97.759h-9.119l-3.625-9.431h-16.596l-3.428,9.431h-8.892l16.171-41.518h8.863L164.066,97.759z M148.631,81.333
		l-5.721-15.406l-5.607,15.406H148.631z"/>
	<path d="M168.512,97.759V56.241h13.453c5.098,0,8.42,0.208,9.969,0.623c2.379,0.623,4.371,1.978,5.975,4.064
		c1.605,2.086,2.408,4.781,2.408,8.085c0,2.549-0.463,4.691-1.389,6.429c-0.924,1.737-2.1,3.102-3.525,4.092
		c-1.426,0.992-2.875,1.647-4.348,1.969c-2,0.396-4.898,0.595-8.693,0.595h-5.467v15.661H168.512z M176.895,63.265v11.781h4.588
		c3.305,0,5.514-0.217,6.627-0.651c1.115-0.435,1.988-1.114,2.621-2.039c0.631-0.925,0.947-2.001,0.947-3.229
		c0-1.511-0.443-2.757-1.33-3.738c-0.889-0.981-2.012-1.596-3.371-1.841c-1-0.188-3.012-0.283-6.031-0.283H176.895z"/>
</g>
</svg>
