<?xml version="1.0" encoding="utf-8"?>
<!-- Generator: Adobe Illustrator 16.0.0, SVG Export Plug-In . SVG Version: 6.00 Build 0)  -->
<!DOCTYPE svg PUBLIC "-//W3C//DTD SVG 1.1//EN" "http://www.w3.org/Graphics/SVG/1.1/DTD/svg11.dtd">
<svg version="1.1" id="Layer_1" xmlns="http://www.w3.org/2000/svg" xmlns:xlink="http://www.w3.org/1999/xlink" x="0px" y="0px"
	 width="256px" height="256px" viewBox="0 0 256 256" enable-background="new 0 0 256 256" xml:space="preserve">
<rect x="15.644" y="4.973" fill="#FFFFFF" width="224.533" height="138.489"/>
<path d="M246.313,0H9.688v150.266h0.056l-0.025,0.029l122.031,105.708l114.506-105.678l-0.055-0.06h0.112V0z M20.688,11h214.625
	v128.266H20.688V11z M131.517,241.249L26.485,150.266H230.1L131.517,241.249z"/>
<g>
	<path d="M66.888,100.264V53.736h31.897v7.871H76.282V72.62h19.424v7.871H76.282v19.773H66.888z"/>
	<path d="M106.561,53.736h18.599c3.682,0,6.427,0.153,8.237,0.46c1.809,0.308,3.428,0.947,4.855,1.92
		c1.428,0.974,2.619,2.27,3.57,3.889c0.953,1.618,1.428,3.433,1.428,5.443c0,2.179-0.586,4.179-1.762,5.998
		c-1.174,1.82-2.766,3.185-4.775,4.094c2.834,0.826,5.014,2.233,6.537,4.222c1.523,1.988,2.285,4.326,2.285,7.014
		c0,2.115-0.492,4.174-1.475,6.174c-0.984,1.998-2.328,3.596-4.031,4.791c-1.703,1.197-3.805,1.932-6.301,2.207
		c-1.565,0.17-5.343,0.275-11.33,0.316h-15.838V53.736z M115.955,61.48v10.759h6.157c3.66,0,5.936-0.052,6.824-0.158
		c1.607-0.19,2.872-0.746,3.792-1.666c0.922-0.921,1.381-2.132,1.381-3.635c0-1.438-0.396-2.607-1.189-3.507
		c-0.793-0.898-1.974-1.444-3.539-1.634c-0.932-0.106-3.608-0.159-8.03-0.159H115.955z M115.955,79.982v12.441h8.696
		c3.386,0,5.533-0.094,6.443-0.285c1.396-0.254,2.534-0.873,3.411-1.855c0.879-0.984,1.318-2.303,1.318-3.953
		c0-1.396-0.34-2.58-1.016-3.555c-0.678-0.973-1.656-1.682-2.937-2.125c-1.28-0.445-4.058-0.668-8.331-0.668H115.955z"/>
	<path d="M153.47,100.264V53.736h15.076c5.713,0,9.437,0.233,11.172,0.698c2.666,0.698,4.898,2.217,6.697,4.555
		c1.798,2.338,2.697,5.358,2.697,9.061c0,2.857-0.519,5.259-1.555,7.205c-1.037,1.947-2.354,3.476-3.952,4.585
		c-1.598,1.111-3.222,1.848-4.872,2.207c-2.242,0.443-5.49,0.666-9.743,0.666h-6.126v17.551H153.47z M162.864,61.607V74.81h5.143
		c3.702,0,6.178-0.243,7.426-0.729c1.249-0.487,2.228-1.249,2.937-2.285c0.708-1.037,1.063-2.243,1.063-3.619
		c0-1.692-0.498-3.089-1.492-4.189c-0.995-1.1-2.254-1.787-3.777-2.063c-1.121-0.211-3.375-0.317-6.76-0.317H162.864z"/>
</g>
</svg>
