<?xml version="1.0" encoding="utf-8"?>
<!-- Generator: Adobe Illustrator 16.0.0, SVG Export Plug-In . SVG Version: 6.00 Build 0)  -->
<!DOCTYPE svg PUBLIC "-//W3C//DTD SVG 1.1//EN" "http://www.w3.org/Graphics/SVG/1.1/DTD/svg11.dtd">
<svg version="1.1" id="Layer_1" xmlns="http://www.w3.org/2000/svg" xmlns:xlink="http://www.w3.org/1999/xlink" x="0px" y="0px"
	 width="256px" height="256px" viewBox="0 0 256 256" enable-background="new 0 0 256 256" xml:space="preserve">
<rect x="15.644" y="4.973" fill="#FFFFFF" width="224.533" height="138.489"/>
<path d="M246.313,0H9.688v150.266h0.056l-0.025,0.029l122.031,105.708l114.506-105.678l-0.055-0.06h0.112V0z M20.688,11h214.625
	v128.266H20.688V11z M131.517,241.249L26.485,150.266H230.1L131.517,241.249z"/>
<g>
	<path d="M51.082,99.649V58.132h28.462v7.023H59.465v9.827h17.332v7.023H59.465v17.644H51.082z"/>
	<path d="M86.482,99.649V58.132h17.644c4.437,0,7.661,0.373,9.671,1.119c2.011,0.745,3.62,2.071,4.829,3.979
		c1.208,1.907,1.813,4.088,1.813,6.542c0,3.115-0.916,5.688-2.747,7.718c-1.832,2.029-4.569,3.309-8.213,3.837
		c1.813,1.058,3.309,2.219,4.489,3.483c1.18,1.265,2.771,3.512,4.772,6.74l5.069,8.1h-10.025l-6.061-9.034
		c-2.152-3.229-3.625-5.263-4.418-6.103c-0.793-0.841-1.633-1.416-2.521-1.729c-0.888-0.311-2.294-0.467-4.22-0.467h-1.699v17.332
		H86.482z M94.865,75.69h6.202c4.021,0,6.532-0.17,7.533-0.51c1-0.34,1.784-0.925,2.351-1.756s0.85-1.869,0.85-3.115
		c0-1.397-0.373-2.525-1.119-3.385c-0.746-0.858-1.798-1.401-3.158-1.628c-0.68-0.095-2.719-0.142-6.117-0.142h-6.542V75.69z"/>
	<path d="M128.368,99.649V58.132h17.644c4.437,0,7.661,0.373,9.671,1.119c2.012,0.745,3.621,2.071,4.829,3.979
		s1.813,4.088,1.813,6.542c0,3.115-0.916,5.688-2.747,7.718c-1.831,2.029-4.569,3.309-8.213,3.837
		c1.813,1.058,3.309,2.219,4.488,3.483c1.181,1.265,2.771,3.512,4.772,6.74l5.069,8.1h-10.025l-6.061-9.034
		c-2.152-3.229-3.625-5.263-4.418-6.103c-0.793-0.841-1.633-1.416-2.521-1.729c-0.888-0.311-2.294-0.467-4.22-0.467h-1.699v17.332
		H128.368z M136.751,75.69h6.202c4.021,0,6.532-0.17,7.533-0.51s1.784-0.925,2.351-1.756s0.85-1.869,0.85-3.115
		c0-1.397-0.373-2.525-1.119-3.385c-0.745-0.858-1.798-1.401-3.157-1.628c-0.68-0.095-2.719-0.142-6.117-0.142h-6.542V75.69z"/>
	<path d="M196.79,84.385l8.128,2.577c-1.246,4.531-3.318,7.896-6.217,10.096c-2.897,2.2-6.574,3.3-11.03,3.3
		c-5.513,0-10.044-1.884-13.594-5.649c-3.55-3.768-5.324-8.917-5.324-15.449c0-6.91,1.784-12.277,5.353-16.1
		c3.568-3.824,8.26-5.735,14.075-5.735c5.079,0,9.204,1.501,12.376,4.503c1.888,1.774,3.304,4.323,4.248,7.646l-8.298,1.982
		c-0.491-2.152-1.515-3.852-3.073-5.098c-1.557-1.246-3.45-1.869-5.678-1.869c-3.077,0-5.574,1.104-7.49,3.313
		c-1.917,2.209-2.875,5.787-2.875,10.733c0,5.249,0.944,8.987,2.832,11.215s4.343,3.342,7.363,3.342
		c2.228,0,4.145-0.708,5.749-2.124S196.092,87.425,196.79,84.385z"/>
</g>
</svg>
