<?xml version="1.0" encoding="utf-8"?>
<!-- Generator: Adobe Illustrator 16.0.0, SVG Export Plug-In . SVG Version: 6.00 Build 0)  -->
<!DOCTYPE svg PUBLIC "-//W3C//DTD SVG 1.1//EN" "http://www.w3.org/Graphics/SVG/1.1/DTD/svg11.dtd">
<svg version="1.1" id="Layer_1" xmlns="http://www.w3.org/2000/svg" xmlns:xlink="http://www.w3.org/1999/xlink" x="0px" y="0px"
	 width="256px" height="256px" viewBox="0 0 256 256" enable-background="new 0 0 256 256" xml:space="preserve">
<rect x="15.644" y="4.973" fill="#FFFFFF" width="224.533" height="138.489"/>
<path d="M246.313,0H9.688v150.266h0.056l-0.025,0.029l122.031,105.708l114.506-105.678l-0.055-0.06h0.112V0z M20.688,11h214.625
	v128.266H20.688V11z M131.517,241.249L26.485,150.266H230.1L131.517,241.249z"/>
<g>
	<path d="M47.825,99.759V58.241h8.383v16.341h16.426V58.241h8.383v41.518h-8.383V81.605H56.208v18.153H47.825z"/>
	<path d="M89.683,99.759V58.241h30.784v7.023H98.065v9.204h20.844v6.995H98.065v11.3h23.194v6.995H89.683z"/>
	<path d="M126.669,79.255c0-4.229,0.632-7.778,1.897-10.648c0.943-2.114,2.232-4.012,3.865-5.692s3.422-2.927,5.367-3.738
		c2.586-1.095,5.569-1.643,8.949-1.643c6.117,0,11.012,1.897,14.684,5.692c3.673,3.795,5.509,9.072,5.509,15.831
		c0,6.702-1.822,11.946-5.466,15.731c-3.644,3.786-8.516,5.679-14.613,5.679c-6.174,0-11.083-1.884-14.727-5.649
		C128.491,91.05,126.669,85.863,126.669,79.255z M135.307,78.972c0,4.701,1.086,8.265,3.257,10.691
		c2.171,2.426,4.928,3.639,8.27,3.639s6.084-1.203,8.228-3.611c2.143-2.406,3.214-6.018,3.214-10.832
		c0-4.758-1.043-8.308-3.13-10.648c-2.086-2.341-4.856-3.512-8.312-3.512s-6.24,1.185-8.354,3.555
		C136.363,70.622,135.307,74.195,135.307,78.972z"/>
	<path d="M200.047,84.494l8.128,2.577c-1.246,4.531-3.318,7.896-6.217,10.096c-2.897,2.2-6.574,3.3-11.03,3.3
		c-5.513,0-10.044-1.884-13.594-5.649c-3.55-3.768-5.324-8.917-5.324-15.449c0-6.91,1.784-12.277,5.353-16.1
		c3.568-3.824,8.26-5.735,14.075-5.735c5.079,0,9.204,1.501,12.376,4.503c1.888,1.774,3.304,4.323,4.248,7.646l-8.298,1.982
		c-0.491-2.152-1.515-3.852-3.073-5.098c-1.557-1.246-3.45-1.869-5.678-1.869c-3.077,0-5.574,1.104-7.49,3.313
		c-1.917,2.209-2.875,5.787-2.875,10.733c0,5.249,0.944,8.987,2.832,11.215s4.343,3.342,7.363,3.342
		c2.228,0,4.145-0.708,5.749-2.124S199.349,87.534,200.047,84.494z"/>
</g>
</svg>
