<?xml version="1.0" encoding="utf-8"?>
<!-- Generator: Adobe Illustrator 16.0.0, SVG Export Plug-In . SVG Version: 6.00 Build 0)  -->
<!DOCTYPE svg PUBLIC "-//W3C//DTD SVG 1.1//EN" "http://www.w3.org/Graphics/SVG/1.1/DTD/svg11.dtd">
<svg version="1.1" id="Layer_1" xmlns="http://www.w3.org/2000/svg" xmlns:xlink="http://www.w3.org/1999/xlink" x="0px" y="0px"
	 width="256px" height="256px" viewBox="0 0 256 256" enable-background="new 0 0 256 256" xml:space="preserve">
<rect x="15.644" y="4.973" fill="#FFFFFF" width="224.533" height="138.489"/>
<path d="M246.313,0H9.688v150.266h0.056l-0.025,0.029l122.031,105.708l114.506-105.678l-0.055-0.06h0.112V0z M20.688,11h214.625
	v128.266H20.688V11z M131.517,241.249L26.485,150.266H230.1L131.517,241.249z"/>
<g>
	<path d="M47.754,99.744V58.227h8.383v16.341h16.426V58.227h8.383v41.517h-8.383V81.592H56.137v18.152H47.754z"/>
	<path d="M89.612,99.744V58.227h30.784v7.023H97.995v9.204h20.844v6.995H97.995V92.75h23.194v6.994H89.612z"/>
	<path d="M128.184,99.744V58.227h12.546l7.533,28.32l7.447-28.32h12.574v41.517h-7.787V67.063l-8.242,32.681h-8.07l-8.213-32.681
		v32.681H128.184z"/>
	<path d="M174.488,86.236l8.156-0.793c0.49,2.736,1.486,4.748,2.988,6.031c1.5,1.285,3.525,1.926,6.074,1.926
		c2.699,0,4.734-0.57,6.104-1.713c1.367-1.143,2.053-2.479,2.053-4.008c0-0.98-0.289-1.816-0.863-2.506
		c-0.576-0.689-1.582-1.289-3.018-1.799c-0.98-0.34-3.219-0.943-6.711-1.813c-4.494-1.113-7.646-2.482-9.459-4.106
		c-2.549-2.284-3.824-5.069-3.824-8.354c0-2.114,0.6-4.092,1.799-5.934c1.199-1.84,2.926-3.242,5.184-4.205
		c2.256-0.963,4.979-1.444,8.17-1.444c5.211,0,9.133,1.143,11.768,3.427c2.633,2.284,4.016,5.334,4.148,9.147l-8.383,0.368
		c-0.359-2.134-1.129-3.668-2.309-4.602c-1.18-0.936-2.949-1.402-5.311-1.402c-2.436,0-4.342,0.5-5.721,1.501
		c-0.887,0.642-1.33,1.501-1.33,2.577c0,0.981,0.414,1.822,1.246,2.521c1.057,0.888,3.625,1.813,7.703,2.775
		s7.094,1.959,9.049,2.987c1.953,1.029,3.482,2.436,4.588,4.22c1.104,1.783,1.656,3.988,1.656,6.613
		c0,2.379-0.662,4.605-1.982,6.684c-1.322,2.076-3.191,3.619-5.607,4.629c-2.418,1.012-5.428,1.516-9.035,1.516
		c-5.248,0-9.279-1.213-12.092-3.639C176.715,94.416,175.035,90.881,174.488,86.236z"/>
</g>
</svg>
