<?xml version="1.0" encoding="utf-8"?>
<!-- Generator: Adobe Illustrator 16.0.0, SVG Export Plug-In . SVG Version: 6.00 Build 0)  -->
<!DOCTYPE svg PUBLIC "-//W3C//DTD SVG 1.1//EN" "http://www.w3.org/Graphics/SVG/1.1/DTD/svg11.dtd">
<svg version="1.1" id="Layer_1" xmlns="http://www.w3.org/2000/svg" xmlns:xlink="http://www.w3.org/1999/xlink" x="0px" y="0px"
	 width="256px" height="256px" viewBox="0 0 256 256" enable-background="new 0 0 256 256" xml:space="preserve">
<rect x="15.644" y="4.973" fill="#FFFFFF" width="224.533" height="138.489"/>
<path d="M246.313,0H9.688v150.266h0.056l-0.025,0.029l122.031,105.708l114.506-105.678l-0.055-0.06h0.112V0z M20.688,11h214.625
	v128.266H20.688V11z M131.517,241.249L26.485,150.266H230.1L131.517,241.249z"/>
<g>
	<path d="M46.588,96.279V62.635h6.793v13.241h13.311V62.635h6.793v33.644h-6.793V81.568H53.381v14.711H46.588z"/>
	<path d="M110.846,96.279h-7.39l-2.938-7.643H87.07l-2.777,7.643h-7.206l13.104-33.644h7.183L110.846,96.279z M98.338,82.968
		l-4.636-12.484l-4.544,12.484H98.338z"/>
	<path d="M144.787,96.279h-7.389l-2.938-7.643h-13.449l-2.777,7.643h-7.206l13.104-33.644h7.183L144.787,96.279z M132.28,82.968
		l-4.636-12.484l-4.544,12.484H132.28z"/>
	<path d="M148.368,62.635h12.416c2.799,0,4.934,0.215,6.402,0.643c1.974,0.582,3.664,1.614,5.072,3.099
		c1.407,1.483,2.479,3.301,3.213,5.45s1.102,4.8,1.102,7.952c0,2.769-0.345,5.155-1.033,7.16c-0.842,2.447-2.043,4.429-3.604,5.943
		c-1.178,1.147-2.769,2.043-4.773,2.686c-1.499,0.474-3.503,0.711-6.012,0.711h-12.783V62.635z M155.161,68.327v22.284h5.072
		c1.896,0,3.266-0.107,4.107-0.322c1.102-0.275,2.016-0.741,2.742-1.399c0.727-0.657,1.32-1.74,1.779-3.247s0.688-3.561,0.688-6.162
		c0-2.601-0.229-4.598-0.688-5.99c-0.459-1.392-1.102-2.479-1.928-3.258c-0.826-0.781-1.875-1.309-3.145-1.584
		c-0.949-0.214-2.808-0.321-5.576-0.321H155.161z"/>
	<path d="M182.355,96.279V62.635h14.298c3.595,0,6.207,0.303,7.837,0.906c1.629,0.604,2.934,1.68,3.913,3.225
		c0.979,1.546,1.469,3.313,1.469,5.302c0,2.523-0.743,4.608-2.227,6.253c-1.484,1.646-3.703,2.682-6.655,3.11
		c1.469,0.856,2.681,1.798,3.638,2.822c0.956,1.025,2.245,2.846,3.867,5.462l4.107,6.563h-8.124l-4.911-7.32
		c-1.744-2.617-2.938-4.265-3.58-4.946c-0.643-0.681-1.323-1.147-2.043-1.399c-0.719-0.253-1.858-0.379-3.419-0.379h-1.377v14.045
		H182.355z M189.148,76.864h5.026c3.258,0,5.293-0.138,6.104-0.413c0.812-0.275,1.446-0.749,1.905-1.423
		c0.459-0.673,0.688-1.515,0.688-2.524c0-1.132-0.303-2.046-0.906-2.742c-0.604-0.696-1.457-1.137-2.559-1.32
		c-0.551-0.076-2.203-0.114-4.957-0.114h-5.302V76.864z"/>
</g>
</svg>
