<?xml version="1.0" encoding="utf-8"?>
<!-- Generator: Adobe Illustrator 16.0.0, SVG Export Plug-In . SVG Version: 6.00 Build 0)  -->
<!DOCTYPE svg PUBLIC "-//W3C//DTD SVG 1.1//EN" "http://www.w3.org/Graphics/SVG/1.1/DTD/svg11.dtd">
<svg version="1.1" id="Layer_1" xmlns="http://www.w3.org/2000/svg" xmlns:xlink="http://www.w3.org/1999/xlink" x="0px" y="0px"
	 width="256px" height="256px" viewBox="0 0 256 256" enable-background="new 0 0 256 256" xml:space="preserve">
<rect x="15.644" y="4.973" fill="#FFFFFF" width="224.533" height="138.489"/>
<path d="M246.313,0H9.688v150.266h0.056l-0.025,0.029l122.031,105.708l114.506-105.678l-0.055-0.06h0.112V0z M20.688,11h214.625
	v128.266H20.688V11z M131.517,241.249L26.485,150.266H230.1L131.517,241.249z"/>
<g>
	<path d="M61.635,101.265V54.736h9.395V73.05h18.408V54.736h9.395v46.528h-9.395V80.921H71.03v20.344H61.635z"/>
	<path d="M150.502,101.265h-10.219l-4.063-10.568h-18.599l-3.84,10.568h-9.966l18.123-46.528h9.934L150.502,101.265z
		 M133.205,82.856l-6.411-17.266l-6.284,17.266H133.205z"/>
	<path d="M185.256,84.157l9.109,2.889c-1.396,5.078-3.719,8.85-6.967,11.314c-3.248,2.466-7.369,3.697-12.363,3.697
		c-6.178,0-11.256-2.11-15.234-6.331c-3.977-4.222-5.967-9.992-5.967-17.313c0-7.744,2-13.759,6-18.043
		c3.998-4.285,9.256-6.428,15.773-6.428c5.691,0,10.314,1.683,13.869,5.047c2.115,1.989,3.703,4.846,4.762,8.569l-9.301,2.222
		c-0.549-2.412-1.697-4.316-3.443-5.713c-1.744-1.396-3.867-2.095-6.363-2.095c-3.449,0-6.246,1.237-8.395,3.714
		c-2.148,2.475-3.221,6.485-3.221,12.028c0,5.883,1.057,10.072,3.174,12.568c2.115,2.497,4.865,3.745,8.252,3.745
		c2.496,0,4.645-0.793,6.441-2.381C183.182,90.062,184.473,87.564,185.256,84.157z"/>
</g>
</svg>
