<?xml version="1.0" encoding="utf-8"?>
<!-- Generator: Adobe Illustrator 16.0.0, SVG Export Plug-In . SVG Version: 6.00 Build 0)  -->
<!DOCTYPE svg PUBLIC "-//W3C//DTD SVG 1.1//EN" "http://www.w3.org/Graphics/SVG/1.1/DTD/svg11.dtd">
<svg version="1.1" id="Layer_1" xmlns="http://www.w3.org/2000/svg" xmlns:xlink="http://www.w3.org/1999/xlink" x="0px" y="0px"
	 width="256px" height="256px" viewBox="0 0 256 256" enable-background="new 0 0 256 256" xml:space="preserve">
<rect x="15.644" y="4.973" fill="#FFFFFF" width="224.533" height="138.489"/>
<path d="M246.313,0H9.688v150.266h0.056l-0.025,0.029l122.031,105.708l114.506-105.678l-0.055-0.06h0.112V0z M20.688,11h214.625
	v128.266H20.688V11z M131.517,241.249L26.485,150.266H230.1L131.517,241.249z"/>
<g>
	<path d="M59.854,59.143h7.346v23.109c0,3.021-0.266,5.346-0.797,6.973c-0.714,2.125-2.009,3.831-3.885,5.117
		c-1.876,1.287-4.35,1.931-7.421,1.931c-3.603,0-6.375-1.009-8.317-3.026c-1.942-2.017-2.922-4.976-2.938-8.878l6.948-0.797
		c0.083,2.092,0.39,3.57,0.921,4.434c0.797,1.312,2.008,1.967,3.636,1.967c1.644,0,2.805-0.469,3.486-1.407
		c0.681-0.938,1.021-2.884,1.021-5.839V59.143z"/>
	<path d="M75.045,95.649V59.143h27.069v6.176H82.416v8.093h18.328v6.151H82.416v9.937h20.395v6.15H75.045z"/>
	<path d="M107.194,83.771l7.172-0.697c0.432,2.408,1.308,4.176,2.627,5.305c1.32,1.129,3.101,1.693,5.342,1.693
		c2.374,0,4.163-0.502,5.366-1.507c1.204-1.004,1.805-2.179,1.805-3.523c0-0.863-0.253-1.598-0.759-2.204
		c-0.506-0.605-1.391-1.133-2.652-1.581c-0.863-0.299-2.831-0.83-5.902-1.594c-3.951-0.979-6.724-2.183-8.317-3.61
		c-2.241-2.009-3.362-4.458-3.362-7.347c0-1.859,0.527-3.599,1.582-5.217c1.054-1.619,2.573-2.852,4.557-3.698
		s4.379-1.27,7.185-1.27c4.582,0,8.031,1.004,10.347,3.013s3.531,4.69,3.648,8.044L128.46,69.9
		c-0.315-1.876-0.992-3.225-2.029-4.047c-1.038-0.821-2.594-1.232-4.669-1.232c-2.142,0-3.819,0.44-5.03,1.319
		c-0.781,0.565-1.17,1.32-1.17,2.267c0,0.863,0.365,1.603,1.096,2.216c0.93,0.781,3.188,1.594,6.773,2.441
		c3.586,0.846,6.238,1.722,7.957,2.627s3.063,2.142,4.033,3.71c0.973,1.569,1.457,3.508,1.457,5.815
		c0,2.092-0.581,4.051-1.742,5.877c-1.162,1.826-2.807,3.184-4.932,4.071s-4.772,1.332-7.943,1.332c-4.616,0-8.16-1.066-10.633-3.2
		C109.152,90.964,107.675,87.854,107.194,83.771z"/>
	<path d="M166.436,82.228l7.147,2.266c-1.096,3.984-2.918,6.944-5.466,8.878c-2.549,1.934-5.782,2.901-9.699,2.901
		c-4.849,0-8.833-1.656-11.953-4.969c-3.122-3.312-4.682-7.84-4.682-13.584c0-6.076,1.568-10.795,4.706-14.157
		c3.138-3.361,7.263-5.042,12.376-5.042c4.466,0,8.094,1.319,10.883,3.959c1.66,1.561,2.905,3.802,3.735,6.724l-7.296,1.743
		c-0.433-1.893-1.333-3.387-2.702-4.482c-1.37-1.096-3.034-1.644-4.993-1.644c-2.706,0-4.902,0.972-6.587,2.913
		c-1.685,1.943-2.527,5.089-2.527,9.438c0,4.615,0.83,7.902,2.49,9.861s3.818,2.938,6.475,2.938c1.959,0,3.644-0.623,5.056-1.867
		C164.809,86.858,165.821,84.9,166.436,82.228z"/>
	<path d="M203.267,82.228l7.147,2.266c-1.096,3.984-2.918,6.944-5.466,8.878c-2.549,1.934-5.782,2.901-9.699,2.901
		c-4.849,0-8.833-1.656-11.953-4.969c-3.122-3.312-4.682-7.84-4.682-13.584c0-6.076,1.568-10.795,4.706-14.157
		c3.138-3.361,7.263-5.042,12.376-5.042c4.466,0,8.094,1.319,10.883,3.959c1.66,1.561,2.905,3.802,3.735,6.724l-7.296,1.743
		c-0.433-1.893-1.333-3.387-2.702-4.482c-1.37-1.096-3.034-1.644-4.993-1.644c-2.706,0-4.902,0.972-6.587,2.913
		c-1.685,1.943-2.527,5.089-2.527,9.438c0,4.615,0.83,7.902,2.49,9.861s3.818,2.938,6.475,2.938c1.959,0,3.644-0.623,5.056-1.867
		C201.64,86.858,202.652,84.9,203.267,82.228z"/>
</g>
</svg>
