<?xml version="1.0" encoding="utf-8"?>
<!-- Generator: Adobe Illustrator 16.0.0, SVG Export Plug-In . SVG Version: 6.00 Build 0)  -->
<!DOCTYPE svg PUBLIC "-//W3C//DTD SVG 1.1//EN" "http://www.w3.org/Graphics/SVG/1.1/DTD/svg11.dtd">
<svg version="1.1" id="Layer_1" xmlns="http://www.w3.org/2000/svg" xmlns:xlink="http://www.w3.org/1999/xlink" x="0px" y="0px"
	 width="256px" height="256px" viewBox="0 0 256 256" enable-background="new 0 0 256 256" xml:space="preserve">
<rect x="15.644" y="4.973" fill="#FFFFFF" width="224.533" height="138.489"/>
<path d="M246.313,0H9.688v150.266h0.056l-0.025,0.029l122.031,105.708l114.506-105.678l-0.055-0.06h0.112V0z M20.688,11h214.625
	v128.266H20.688V11z M131.517,241.249L26.485,150.266H230.1L131.517,241.249z"/>
<g>
	<path d="M47.75,100.279V53.75h14.06l8.442,31.738l8.347-31.738h14.092v46.528h-8.728V63.653l-9.236,36.626h-9.045l-9.204-36.626
		v36.626H47.75z"/>
	<path d="M101.736,100.279V53.75h9.395v46.528H101.736z"/>
	<path d="M120.113,100.279V53.75h19.773c4.972,0,8.585,0.418,10.839,1.254s4.057,2.322,5.411,4.459
		c1.354,2.138,2.031,4.581,2.031,7.331c0,3.492-1.026,6.375-3.079,8.649s-5.12,3.708-9.203,4.3c2.031,1.186,3.707,2.487,5.029,3.904
		c1.322,1.418,3.105,3.936,5.349,7.554l5.681,9.077h-11.234l-6.793-10.125c-2.412-3.617-4.063-5.897-4.951-6.839
		s-1.83-1.587-2.824-1.937c-0.994-0.349-2.57-0.523-4.729-0.523h-1.904v19.424H120.113z M129.508,73.428h6.95
		c4.507,0,7.321-0.19,8.442-0.571s2-1.036,2.635-1.968c0.635-0.931,0.951-2.095,0.951-3.491c0-1.565-0.418-2.83-1.254-3.793
		c-0.836-0.962-2.015-1.57-3.538-1.824c-0.762-0.106-3.047-0.159-6.855-0.159h-7.331V73.428z"/>
	<path d="M188.668,83.171v-7.839h20.248v18.535c-1.967,1.904-4.818,3.581-8.553,5.03s-7.518,2.174-11.347,2.174
		c-4.866,0-9.108-1.021-12.728-3.063c-3.617-2.041-6.337-4.961-8.156-8.76c-1.82-3.798-2.729-7.929-2.729-12.394
		c0-4.845,1.016-9.151,3.047-12.917c2.031-3.767,5.004-6.654,8.919-8.665c2.982-1.544,6.696-2.317,11.14-2.317
		c5.776,0,10.288,1.212,13.536,3.635s5.338,5.771,6.269,10.045l-9.331,1.746c-0.656-2.285-1.889-4.089-3.697-5.412
		c-1.81-1.322-4.068-1.983-6.776-1.983c-4.104,0-7.368,1.302-9.791,3.903c-2.423,2.604-3.634,6.465-3.634,11.585
		c0,5.522,1.227,9.664,3.682,12.426c2.453,2.761,5.67,4.142,9.648,4.142c1.967,0,3.939-0.386,5.919-1.158
		c1.978-0.772,3.676-1.709,5.094-2.809v-5.904H188.668z"/>
</g>
</svg>
