<?xml version="1.0" encoding="utf-8"?>
<!-- Generator: Adobe Illustrator 16.0.0, SVG Export Plug-In . SVG Version: 6.00 Build 0)  -->
<!DOCTYPE svg PUBLIC "-//W3C//DTD SVG 1.1//EN" "http://www.w3.org/Graphics/SVG/1.1/DTD/svg11.dtd">
<svg version="1.1" id="Layer_1" xmlns="http://www.w3.org/2000/svg" xmlns:xlink="http://www.w3.org/1999/xlink" x="0px" y="0px"
	 width="256px" height="256px" viewBox="0 0 256 256" enable-background="new 0 0 256 256" xml:space="preserve">
<rect x="15.644" y="4.973" fill="#FFFFFF" width="224.533" height="138.489"/>
<path d="M246.313,0H9.688v150.266h0.056l-0.025,0.029l122.031,105.708l114.506-105.678l-0.055-0.06h0.112V0z M20.688,11h214.625
	v128.266H20.688V11z M131.517,241.249L26.485,150.266H230.1L131.517,241.249z"/>
<g>
	<path d="M41.359,70.916V48.01h6.922l4.156,15.625l4.109-15.625h6.938v22.906h-4.297V52.885l-4.547,18.031h-4.453l-4.531-18.031
		v18.031H41.359z"/>
	<path d="M71.328,59.385l-3.984-0.719c0.448-1.604,1.219-2.791,2.313-3.563c1.094-0.771,2.719-1.156,4.875-1.156
		c1.958,0,3.417,0.232,4.375,0.695c0.958,0.464,1.633,1.053,2.023,1.766c0.391,0.714,0.586,2.023,0.586,3.93l-0.047,5.125
		c0,1.459,0.07,2.534,0.211,3.227c0.141,0.693,0.403,1.436,0.789,2.227h-4.344c-0.115-0.291-0.255-0.724-0.422-1.297
		c-0.073-0.26-0.125-0.432-0.156-0.516c-0.75,0.729-1.552,1.276-2.406,1.641c-0.854,0.364-1.766,0.547-2.734,0.547
		c-1.708,0-3.055-0.463-4.039-1.391c-0.984-0.927-1.477-2.099-1.477-3.516c0-0.938,0.224-1.773,0.672-2.508
		c0.448-0.734,1.075-1.297,1.883-1.688c0.807-0.391,1.971-0.731,3.492-1.023c2.052-0.385,3.474-0.744,4.266-1.078V59.65
		c0-0.844-0.208-1.445-0.625-1.805c-0.417-0.359-1.203-0.539-2.359-0.539c-0.781,0-1.391,0.154-1.828,0.461
		C71.953,58.075,71.599,58.614,71.328,59.385z M77.203,62.947c-0.563,0.188-1.453,0.412-2.672,0.672
		c-1.219,0.261-2.016,0.516-2.391,0.766c-0.573,0.406-0.859,0.922-0.859,1.547c0,0.615,0.229,1.146,0.688,1.594
		c0.458,0.448,1.042,0.672,1.75,0.672c0.792,0,1.547-0.26,2.266-0.781c0.531-0.396,0.88-0.88,1.047-1.453
		c0.114-0.375,0.172-1.088,0.172-2.141V62.947z"/>
	<path d="M90.047,70.916h-4.391V54.322h4.078v2.359c0.698-1.114,1.325-1.849,1.883-2.203c0.557-0.354,1.19-0.531,1.898-0.531
		c1,0,1.963,0.276,2.891,0.828l-1.359,3.828c-0.74-0.479-1.427-0.719-2.063-0.719c-0.615,0-1.136,0.17-1.563,0.508
		c-0.427,0.339-0.763,0.951-1.008,1.836c-0.245,0.886-0.367,2.74-0.367,5.563V70.916z"/>
	<path d="M96.75,66.182l4.406-0.672c0.188,0.854,0.567,1.503,1.141,1.945c0.573,0.443,1.375,0.664,2.406,0.664
		c1.135,0,1.989-0.208,2.563-0.625c0.385-0.291,0.578-0.682,0.578-1.172c0-0.333-0.104-0.609-0.313-0.828
		c-0.219-0.208-0.708-0.4-1.469-0.578c-3.542-0.781-5.787-1.494-6.734-2.141c-1.313-0.896-1.969-2.141-1.969-3.734
		c0-1.438,0.567-2.646,1.703-3.625c1.135-0.979,2.896-1.469,5.281-1.469c2.271,0,3.958,0.37,5.063,1.109
		c1.104,0.74,1.864,1.834,2.281,3.281l-4.141,0.766c-0.177-0.646-0.513-1.141-1.008-1.484c-0.495-0.344-1.201-0.516-2.117-0.516
		c-1.156,0-1.984,0.162-2.484,0.484c-0.333,0.229-0.5,0.526-0.5,0.891c0,0.313,0.146,0.578,0.438,0.797
		c0.396,0.292,1.763,0.703,4.102,1.234c2.338,0.531,3.971,1.183,4.898,1.953c0.917,0.781,1.375,1.87,1.375,3.266
		c0,1.521-0.636,2.828-1.906,3.922c-1.271,1.094-3.151,1.641-5.641,1.641c-2.261,0-4.05-0.458-5.367-1.375
		C98.018,69,97.156,67.755,96.75,66.182z"/>
	<path d="M120.469,48.01v8.422c1.417-1.656,3.109-2.484,5.078-2.484c1.01,0,1.922,0.188,2.734,0.563s1.424,0.854,1.836,1.438
		c0.411,0.584,0.692,1.229,0.844,1.938c0.15,0.709,0.227,1.808,0.227,3.297v9.734h-4.391V62.15c0-1.739-0.083-2.844-0.25-3.313
		c-0.167-0.469-0.461-0.841-0.883-1.117c-0.422-0.275-0.951-0.414-1.586-0.414c-0.729,0-1.38,0.178-1.953,0.531
		c-0.573,0.354-0.992,0.889-1.258,1.602c-0.266,0.714-0.398,1.769-0.398,3.164v8.313h-4.391V48.01H120.469z"/>
	<path d="M138.922,59.385l-3.984-0.719c0.447-1.604,1.219-2.791,2.313-3.563c1.094-0.771,2.719-1.156,4.875-1.156
		c1.958,0,3.416,0.232,4.375,0.695c0.958,0.464,1.633,1.053,2.023,1.766c0.391,0.714,0.586,2.023,0.586,3.93l-0.047,5.125
		c0,1.459,0.07,2.534,0.211,3.227c0.141,0.693,0.403,1.436,0.789,2.227h-4.344c-0.115-0.291-0.256-0.724-0.422-1.297
		c-0.073-0.26-0.125-0.432-0.156-0.516c-0.75,0.729-1.553,1.276-2.406,1.641c-0.854,0.364-1.766,0.547-2.734,0.547
		c-1.709,0-3.055-0.463-4.039-1.391c-0.984-0.927-1.477-2.099-1.477-3.516c0-0.938,0.224-1.773,0.672-2.508
		c0.447-0.734,1.075-1.297,1.883-1.688c0.807-0.391,1.971-0.731,3.492-1.023c2.052-0.385,3.474-0.744,4.266-1.078V59.65
		c0-0.844-0.209-1.445-0.625-1.805c-0.417-0.359-1.203-0.539-2.359-0.539c-0.781,0-1.391,0.154-1.828,0.461
		C139.547,58.075,139.192,58.614,138.922,59.385z M144.797,62.947c-0.563,0.188-1.453,0.412-2.672,0.672
		c-1.219,0.261-2.016,0.516-2.391,0.766c-0.573,0.406-0.859,0.922-0.859,1.547c0,0.615,0.229,1.146,0.688,1.594
		c0.458,0.448,1.041,0.672,1.75,0.672c0.791,0,1.547-0.26,2.266-0.781c0.531-0.396,0.88-0.88,1.047-1.453
		c0.114-0.375,0.172-1.088,0.172-2.141V62.947z"/>
	<path d="M153.438,70.916V48.01h4.391v22.906H153.438z"/>
	<path d="M162.328,70.916V48.01h4.391v22.906H162.328z"/>
	<path d="M171.219,52.072V48.01h4.391v4.063H171.219z M171.219,70.916V54.322h4.391v16.594H171.219z"/>
	<path d="M195.203,70.916h-4.391v-8.469c0-1.791-0.094-2.95-0.281-3.477c-0.188-0.525-0.492-0.935-0.914-1.227
		c-0.422-0.291-0.93-0.438-1.523-0.438c-0.761,0-1.443,0.209-2.047,0.625c-0.604,0.417-1.019,0.969-1.242,1.656
		c-0.225,0.688-0.336,1.959-0.336,3.813v7.516h-4.391V54.322h4.078v2.438c1.447-1.875,3.271-2.813,5.469-2.813
		c0.969,0,1.854,0.175,2.656,0.523c0.802,0.35,1.408,0.795,1.82,1.336c0.411,0.542,0.697,1.156,0.859,1.844
		c0.161,0.688,0.242,1.672,0.242,2.953V70.916z"/>
	<path d="M199.25,72.01l5.016,0.609c0.083,0.583,0.275,0.984,0.578,1.203c0.416,0.313,1.072,0.469,1.969,0.469
		c1.146,0,2.005-0.172,2.578-0.516c0.385-0.229,0.677-0.6,0.875-1.109c0.135-0.365,0.203-1.037,0.203-2.016v-2.422
		c-1.313,1.792-2.969,2.688-4.969,2.688c-2.229,0-3.995-0.942-5.297-2.828c-1.021-1.489-1.531-3.344-1.531-5.563
		c0-2.781,0.669-4.906,2.008-6.375c1.338-1.469,3.002-2.203,4.992-2.203c2.052,0,3.744,0.901,5.078,2.703v-2.328h4.109v14.891
		c0,1.958-0.162,3.422-0.484,4.391c-0.323,0.969-0.776,1.729-1.359,2.281c-0.584,0.552-1.362,0.984-2.336,1.297
		c-0.975,0.313-2.206,0.469-3.695,0.469c-2.813,0-4.808-0.482-5.984-1.445c-1.178-0.964-1.766-2.186-1.766-3.664
		C199.234,72.395,199.239,72.218,199.25,72.01z M203.172,62.275c0,1.761,0.341,3.05,1.023,3.867
		c0.682,0.818,1.523,1.227,2.523,1.227c1.072,0,1.979-0.419,2.719-1.258c0.739-0.838,1.109-2.08,1.109-3.727
		c0-1.719-0.354-2.994-1.063-3.828c-0.709-0.833-1.604-1.25-2.688-1.25c-1.053,0-1.92,0.409-2.602,1.227
		C203.513,59.352,203.172,60.599,203.172,62.275z"/>
	<path d="M115.406,109.316h-5.031l-2-5.203h-9.156l-1.891,5.203h-4.906l8.922-22.906h4.891L115.406,109.316z M106.891,100.254
		l-3.156-8.5l-3.094,8.5H106.891z"/>
	<path d="M122.031,109.316h-4.391V92.723h4.078v2.359c0.698-1.114,1.325-1.849,1.883-2.203c0.557-0.354,1.19-0.531,1.898-0.531
		c1,0,1.963,0.276,2.891,0.828l-1.359,3.828c-0.74-0.479-1.427-0.719-2.063-0.719c-0.615,0-1.136,0.17-1.563,0.508
		c-0.427,0.339-0.763,0.951-1.008,1.836c-0.245,0.886-0.367,2.74-0.367,5.563V109.316z"/>
	<path d="M139.891,104.035l4.375,0.734c-0.563,1.604-1.451,2.826-2.664,3.664c-1.214,0.839-2.732,1.258-4.555,1.258
		c-2.886,0-5.021-0.942-6.406-2.828c-1.094-1.51-1.641-3.416-1.641-5.719c0-2.75,0.719-4.903,2.156-6.461
		c1.438-1.557,3.255-2.336,5.453-2.336c2.469,0,4.416,0.815,5.844,2.445c1.427,1.631,2.109,4.128,2.047,7.492h-11
		c0.031,1.303,0.385,2.315,1.063,3.039c0.677,0.725,1.521,1.086,2.531,1.086c0.688,0,1.266-0.188,1.734-0.563
		S139.65,104.869,139.891,104.035z M140.141,99.598c-0.031-1.271-0.359-2.236-0.984-2.898c-0.625-0.661-1.386-0.992-2.281-0.992
		c-0.959,0-1.75,0.35-2.375,1.047c-0.625,0.698-0.933,1.646-0.922,2.844H140.141z"/>
	<path d="M151.359,97.785l-3.984-0.719c0.447-1.604,1.219-2.791,2.313-3.563c1.094-0.771,2.719-1.156,4.875-1.156
		c1.958,0,3.416,0.232,4.375,0.695c0.958,0.464,1.633,1.053,2.023,1.766c0.391,0.714,0.586,2.023,0.586,3.93l-0.047,5.125
		c0,1.459,0.07,2.534,0.211,3.227c0.141,0.693,0.403,1.436,0.789,2.227h-4.344c-0.115-0.291-0.256-0.724-0.422-1.297
		c-0.073-0.26-0.125-0.432-0.156-0.516c-0.75,0.729-1.553,1.276-2.406,1.641c-0.854,0.364-1.766,0.547-2.734,0.547
		c-1.709,0-3.055-0.463-4.039-1.391c-0.984-0.927-1.477-2.099-1.477-3.516c0-0.938,0.224-1.773,0.672-2.508
		c0.447-0.734,1.075-1.297,1.883-1.688c0.807-0.391,1.971-0.731,3.492-1.023c2.052-0.385,3.474-0.744,4.266-1.078v-0.438
		c0-0.844-0.209-1.445-0.625-1.805c-0.417-0.359-1.203-0.539-2.359-0.539c-0.781,0-1.391,0.154-1.828,0.461
		C151.984,96.476,151.63,97.015,151.359,97.785z M157.234,101.348c-0.563,0.188-1.453,0.412-2.672,0.672
		c-1.219,0.261-2.016,0.516-2.391,0.766c-0.573,0.406-0.859,0.922-0.859,1.547c0,0.615,0.229,1.146,0.688,1.594
		c0.458,0.448,1.041,0.672,1.75,0.672c0.791,0,1.547-0.26,2.266-0.781c0.531-0.396,0.88-0.88,1.047-1.453
		c0.114-0.375,0.172-1.088,0.172-2.141V101.348z"/>
</g>
</svg>
