<?xml version="1.0" encoding="utf-8"?>
<!-- Generator: Adobe Illustrator 16.0.0, SVG Export Plug-In . SVG Version: 6.00 Build 0)  -->
<!DOCTYPE svg PUBLIC "-//W3C//DTD SVG 1.1//EN" "http://www.w3.org/Graphics/SVG/1.1/DTD/svg11.dtd">
<svg version="1.1" id="Layer_1" xmlns="http://www.w3.org/2000/svg" xmlns:xlink="http://www.w3.org/1999/xlink" x="0px" y="0px"
	 width="256px" height="256px" viewBox="0 0 256 256" enable-background="new 0 0 256 256" xml:space="preserve">
<rect x="15.644" y="4.973" fill="#FFFFFF" width="224.533" height="138.489"/>
<path d="M246.313,0H9.688v150.266h0.056l-0.025,0.029l122.031,105.708l114.506-105.678l-0.055-0.06h0.112V0z M20.688,11h214.625
	v128.266H20.688V11z M131.517,241.249L26.485,150.266H230.1L131.517,241.249z"/>
<g>
	<path d="M51.002,95.279V58.772h11.031l6.624,24.902l6.55-24.902h11.057v36.507h-6.849V66.542l-7.246,28.737h-7.098L57.85,66.542
		v28.737H51.002z"/>
	<path d="M93.585,95.279V58.772h27.068v6.176h-19.697v8.093h18.328v6.151h-18.328v9.937h20.395v6.15H93.585z"/>
	<path d="M127.626,95.279V58.772h15.515c3.9,0,6.735,0.328,8.504,0.983c1.768,0.656,3.184,1.822,4.246,3.499
		c1.062,1.677,1.594,3.595,1.594,5.753c0,2.738-0.807,5.001-2.416,6.785c-1.61,1.785-4.018,2.91-7.222,3.375
		c1.594,0.93,2.909,1.95,3.947,3.063c1.037,1.112,2.437,3.088,4.196,5.927l4.457,7.122h-8.815l-5.329-7.943
		c-1.893-2.84-3.188-4.628-3.885-5.367c-0.697-0.738-1.436-1.245-2.217-1.519c-0.78-0.274-2.017-0.411-3.71-0.411h-1.494v15.24
		H127.626z M134.997,74.211h5.454c3.535,0,5.743-0.149,6.623-0.448c0.881-0.299,1.569-0.813,2.067-1.544s0.747-1.644,0.747-2.739
		c0-1.229-0.328-2.22-0.983-2.976c-0.656-0.756-1.581-1.233-2.776-1.433c-0.598-0.082-2.391-0.124-5.379-0.124h-5.753V74.211z"/>
	<path d="M164.207,95.279V58.772h7.371v36.507H164.207z"/>
	<path d="M186.818,95.279V64.948h-10.832v-6.176h29.012v6.176h-10.809v30.331H186.818z"/>
</g>
</svg>
