<?xml version="1.0" encoding="utf-8"?>
<!-- Generator: Adobe Illustrator 16.0.0, SVG Export Plug-In . SVG Version: 6.00 Build 0)  -->
<!DOCTYPE svg PUBLIC "-//W3C//DTD SVG 1.1//EN" "http://www.w3.org/Graphics/SVG/1.1/DTD/svg11.dtd">
<svg version="1.1" id="Layer_1" xmlns="http://www.w3.org/2000/svg" xmlns:xlink="http://www.w3.org/1999/xlink" x="0px" y="0px"
	 width="256px" height="256px" viewBox="0 0 256 256" enable-background="new 0 0 256 256" xml:space="preserve">
<rect x="15.644" y="4.973" fill="#FFFFFF" width="224.533" height="138.489"/>
<path d="M246.313,0H9.688v150.266h0.056l-0.025,0.029l122.031,105.708l114.506-105.678l-0.055-0.06h0.112V0z M20.688,11h214.625
	v128.266H20.688V11z M131.517,241.249L26.485,150.266H230.1L131.517,241.249z"/>
<g>
	<path d="M63.19,100.264V53.736h14.06l8.442,31.739l8.347-31.739h14.092v46.528h-8.728V63.638l-9.236,36.625h-9.045l-9.204-36.625
		v36.625H63.19z"/>
	<path d="M117.717,100.264V54.117h9.395v38.307h23.359v7.84H117.717z"/>
	<path d="M157.168,100.264V53.736h15.075c5.713,0,9.437,0.233,11.172,0.698c2.666,0.698,4.897,2.217,6.696,4.555
		s2.698,5.358,2.698,9.061c0,2.857-0.519,5.259-1.556,7.205c-1.037,1.947-2.354,3.476-3.951,4.585
		c-1.598,1.111-3.221,1.848-4.871,2.207c-2.244,0.443-5.491,0.666-9.744,0.666h-6.125v17.551H157.168z M166.563,61.607V74.81h5.141
		c3.703,0,6.179-0.243,7.428-0.729c1.248-0.487,2.227-1.249,2.936-2.285c0.709-1.037,1.063-2.243,1.063-3.619
		c0-1.692-0.497-3.089-1.491-4.189c-0.995-1.1-2.253-1.787-3.776-2.063c-1.122-0.211-3.375-0.317-6.761-0.317H166.563z"/>
</g>
</svg>
