<?xml version="1.0" encoding="utf-8"?>
<!-- Generator: Adobe Illustrator 16.0.0, SVG Export Plug-In . SVG Version: 6.00 Build 0)  -->
<!DOCTYPE svg PUBLIC "-//W3C//DTD SVG 1.1//EN" "http://www.w3.org/Graphics/SVG/1.1/DTD/svg11.dtd">
<svg version="1.1" id="Layer_1" xmlns="http://www.w3.org/2000/svg" xmlns:xlink="http://www.w3.org/1999/xlink" x="0px" y="0px"
	 width="256px" height="256px" viewBox="0 0 256 256" enable-background="new 0 0 256 256" xml:space="preserve">
<rect x="15.644" y="4.973" fill="#FFFFFF" width="224.533" height="138.489"/>
<path d="M246.313,0H9.688v150.266h0.056l-0.025,0.029l122.031,105.708l114.506-105.678l-0.055-0.06h0.112V0z M20.688,11h214.625
	v128.266H20.688V11z M131.517,241.249L26.485,150.266H230.1L131.517,241.249z"/>
<g>
	<path d="M43.593,93.649V60.006H53.76l6.104,22.949l6.035-22.949h10.189v33.644h-6.311V67.166L63.1,93.649h-6.54l-6.655-26.483
		v26.483H43.593z"/>
	<path d="M113.175,93.649h-7.39l-2.938-7.643H89.399l-2.776,7.643h-7.206l13.104-33.644h7.184L113.175,93.649z M100.668,80.339
		l-4.636-12.484l-4.544,12.484H100.668z"/>
	<path d="M115.057,82.702l6.609-0.643c0.397,2.219,1.205,3.849,2.421,4.889c1.217,1.041,2.857,1.561,4.923,1.561
		c2.188,0,3.836-0.463,4.945-1.389c1.109-0.925,1.664-2.008,1.664-3.247c0-0.795-0.232-1.473-0.699-2.031
		c-0.467-0.558-1.281-1.044-2.444-1.457c-0.796-0.275-2.608-0.765-5.439-1.469c-3.642-0.902-6.196-2.012-7.665-3.327
		c-2.065-1.852-3.098-4.108-3.098-6.771c0-1.713,0.485-3.316,1.457-4.808c0.972-1.492,2.371-2.628,4.199-3.408
		s4.035-1.17,6.621-1.17c4.223,0,7.402,0.926,9.535,2.776c2.135,1.852,3.256,4.322,3.363,7.413l-6.793,0.298
		c-0.291-1.729-0.915-2.972-1.871-3.729c-0.956-0.757-2.391-1.136-4.303-1.136c-1.974,0-3.52,0.405-4.636,1.216
		c-0.72,0.521-1.079,1.217-1.079,2.089c0,0.796,0.337,1.477,1.01,2.042c0.856,0.72,2.938,1.469,6.242,2.25
		c3.305,0.779,5.75,1.587,7.332,2.421c1.584,0.834,2.824,1.974,3.719,3.419c0.895,1.446,1.342,3.232,1.342,5.359
		c0,1.928-0.535,3.732-1.605,5.416c-1.072,1.683-2.586,2.934-4.545,3.752c-1.958,0.818-4.398,1.228-7.32,1.228
		c-4.254,0-7.521-0.982-9.8-2.949C116.862,89.331,115.5,86.466,115.057,82.702z"/>
	<path d="M148.15,93.649V60.006h6.793v13.241h13.311V60.006h6.793v33.644h-6.793V78.938h-13.311v14.711H148.15z"/>
	<path d="M212.407,93.649h-7.389l-2.938-7.643h-13.448l-2.777,7.643h-7.206l13.104-33.644h7.183L212.407,93.649z M199.9,80.339
		l-4.636-12.484l-4.544,12.484H199.9z"/>
</g>
</svg>
