<?xml version="1.0" encoding="utf-8"?>
<!-- Generator: Adobe Illustrator 16.0.0, SVG Export Plug-In . SVG Version: 6.00 Build 0)  -->
<!DOCTYPE svg PUBLIC "-//W3C//DTD SVG 1.1//EN" "http://www.w3.org/Graphics/SVG/1.1/DTD/svg11.dtd">
<svg version="1.1" id="Layer_1" xmlns="http://www.w3.org/2000/svg" xmlns:xlink="http://www.w3.org/1999/xlink" x="0px" y="0px"
	 width="256px" height="256px" viewBox="0 0 256 256" enable-background="new 0 0 256 256" xml:space="preserve">
<rect x="15.644" y="4.973" fill="#FFFFFF" width="224.533" height="138.489"/>
<path d="M246.313,0H9.688v150.266h0.056l-0.025,0.029l122.031,105.708l114.506-105.678l-0.055-0.06h0.112V0z M20.688,11h214.625
	v128.266H20.688V11z M131.517,241.249L26.485,150.266H230.1L131.517,241.249z"/>
<g>
	<path d="M44.88,99.649V58.132h8.156l16.992,27.726V58.132h7.788v41.518h-8.411L52.668,72.575v27.074H44.88z"/>
	<path d="M86.681,99.649V58.132h30.784v7.023H95.063v9.204h20.844v6.995H95.063v11.3h23.194v6.995H86.681z"/>
	<path d="M125.253,99.649V58.132h12.545l7.533,28.32l7.449-28.32h12.574v41.518h-7.789V66.968l-8.24,32.682h-8.072l-8.213-32.682
		v32.682H125.253z"/>
	<path d="M211.12,99.649h-9.119l-3.625-9.431H181.78l-3.428,9.431h-8.893l16.172-41.518h8.863L211.12,99.649z M195.685,83.224
		l-5.721-15.406l-5.607,15.406H195.685z"/>
</g>
</svg>
