<?xml version="1.0" encoding="utf-8"?>
<!-- Generator: Adobe Illustrator 16.0.0, SVG Export Plug-In . SVG Version: 6.00 Build 0)  -->
<!DOCTYPE svg PUBLIC "-//W3C//DTD SVG 1.1//EN" "http://www.w3.org/Graphics/SVG/1.1/DTD/svg11.dtd">
<svg version="1.1" id="Layer_1" xmlns="http://www.w3.org/2000/svg" xmlns:xlink="http://www.w3.org/1999/xlink" x="0px" y="0px"
	 width="256px" height="256px" viewBox="0 0 256 256" enable-background="new 0 0 256 256" xml:space="preserve">
<rect x="15.644" y="4.973" fill="#FFFFFF" width="224.533" height="138.489"/>
<path d="M246.313,0H9.688v150.266h0.056l-0.025,0.029l122.031,105.708l114.506-105.678l-0.055-0.06h0.112V0z M20.688,11h214.625
	v128.266H20.688V11z M131.517,241.249L26.485,150.266H230.1L131.517,241.249z"/>
<g>
	<path d="M79.473,101.264V54.736h15.075c5.713,0,9.437,0.233,11.172,0.698c2.666,0.698,4.898,2.217,6.697,4.555
		c1.798,2.338,2.697,5.358,2.697,9.061c0,2.857-0.519,5.259-1.555,7.205c-1.037,1.947-2.354,3.476-3.952,4.585
		c-1.598,1.111-3.221,1.848-4.871,2.207c-2.243,0.443-5.491,0.666-9.744,0.666h-6.125v17.551H79.473z M88.867,62.607V75.81h5.142
		c3.702,0,6.178-0.243,7.427-0.729c1.248-0.487,2.227-1.249,2.936-2.285c0.709-1.037,1.063-2.243,1.063-3.619
		c0-1.692-0.498-3.089-1.492-4.189c-0.994-1.1-2.253-1.787-3.776-2.063c-1.122-0.211-3.375-0.317-6.761-0.317H88.867z"/>
	<path d="M122.541,101.264V54.736h9.395v46.528H122.541z"/>
	<path d="M140.886,101.264V54.736h15.075c5.713,0,9.438,0.233,11.172,0.698c2.666,0.698,4.898,2.217,6.697,4.555
		s2.697,5.358,2.697,9.061c0,2.857-0.518,5.259-1.555,7.205c-1.037,1.947-2.354,3.476-3.951,4.585
		c-1.598,1.111-3.222,1.848-4.872,2.207c-2.243,0.443-5.491,0.666-9.743,0.666h-6.126v17.551H140.886z M150.28,62.607V75.81h5.142
		c3.703,0,6.178-0.243,7.427-0.729c1.248-0.487,2.227-1.249,2.937-2.285c0.708-1.037,1.063-2.243,1.063-3.619
		c0-1.692-0.498-3.089-1.492-4.189c-0.994-1.1-2.253-1.787-3.776-2.063c-1.122-0.211-3.375-0.317-6.761-0.317H150.28z"/>
</g>
</svg>
