<?xml version="1.0" encoding="utf-8"?>
<!-- Generator: Adobe Illustrator 16.0.0, SVG Export Plug-In . SVG Version: 6.00 Build 0)  -->
<!DOCTYPE svg PUBLIC "-//W3C//DTD SVG 1.1//EN" "http://www.w3.org/Graphics/SVG/1.1/DTD/svg11.dtd">
<svg version="1.1" id="Layer_1" xmlns="http://www.w3.org/2000/svg" xmlns:xlink="http://www.w3.org/1999/xlink" x="0px" y="0px"
	 width="256px" height="256px" viewBox="0 0 256 256" enable-background="new 0 0 256 256" xml:space="preserve">
<rect x="15.644" y="4.973" fill="#FFFFFF" width="224.533" height="138.489"/>
<path d="M246.313,0H9.688v150.266h0.056l-0.025,0.029l122.031,105.708l114.506-105.678l-0.055-0.06h0.112V0z M20.688,11h214.625
	v128.266H20.688V11z M131.517,241.249L26.485,150.266H230.1L131.517,241.249z"/>
<g>
	<path d="M35.744,100.649V67.006h14.297c3.595,0,6.208,0.303,7.837,0.906c1.629,0.604,2.933,1.68,3.913,3.225
		c0.979,1.546,1.469,3.313,1.469,5.302c0,2.523-0.742,4.608-2.226,6.253c-1.484,1.646-3.703,2.682-6.655,3.11
		c1.469,0.856,2.681,1.798,3.638,2.822c0.956,1.025,2.245,2.846,3.867,5.462l4.108,6.563h-8.124l-4.911-7.32
		c-1.744-2.617-2.938-4.265-3.58-4.946c-0.643-0.681-1.324-1.147-2.042-1.399c-0.719-0.253-1.859-0.379-3.419-0.379h-1.377v14.045
		H35.744z M42.537,81.234h5.026c3.259,0,5.293-0.138,6.104-0.413c0.811-0.275,1.446-0.749,1.905-1.423
		c0.459-0.673,0.688-1.515,0.688-2.524c0-1.132-0.302-2.046-0.906-2.742c-0.605-0.696-1.458-1.137-2.559-1.32
		c-0.551-0.076-2.203-0.114-4.957-0.114h-5.301V81.234z"/>
	<path d="M100.002,100.649h-7.39l-2.938-7.643H76.227l-2.777,7.643h-7.206l13.104-33.644h7.183L100.002,100.649z M87.495,87.339
		l-4.636-12.484l-4.544,12.484H87.495z"/>
	<path d="M108.126,100.649v-14.16L95.802,67.006h7.963l7.917,13.311l7.757-13.311h7.826l-12.37,19.53v14.113H108.126z"/>
	<path d="M130.708,100.649V67.006h6.609l13.77,22.468V67.006h6.311v33.644h-6.815L137.019,78.71v21.939H130.708z"/>
	<path d="M164.581,100.649V67.006h24.945v5.691h-18.152v7.458h16.891v5.669h-16.891v9.157h18.795v5.668H164.581z"/>
	<path d="M203.503,100.649V72.697h-9.982v-5.691h26.735v5.691h-9.96v27.952H203.503z"/>
</g>
</svg>
