<?xml version="1.0" encoding="utf-8"?>
<!-- Generator: Adobe Illustrator 16.0.0, SVG Export Plug-In . SVG Version: 6.00 Build 0)  -->
<!DOCTYPE svg PUBLIC "-//W3C//DTD SVG 1.1//EN" "http://www.w3.org/Graphics/SVG/1.1/DTD/svg11.dtd">
<svg version="1.1" id="Layer_1" xmlns="http://www.w3.org/2000/svg" xmlns:xlink="http://www.w3.org/1999/xlink" x="0px" y="0px"
	 width="256px" height="256px" viewBox="0 0 256 256" enable-background="new 0 0 256 256" xml:space="preserve">
<rect x="15.644" y="4.973" fill="#FFFFFF" width="224.533" height="138.489"/>
<path d="M246.313,0H9.688v150.266h0.056l-0.025,0.029l122.031,105.708l114.506-105.678l-0.055-0.06h0.112V0z M20.688,11h214.625
	v128.266H20.688V11z M131.517,241.249L26.485,150.266H230.1L131.517,241.249z"/>
<g>
	<path d="M65.634,101.264V54.736h19.773c4.972,0,8.585,0.418,10.838,1.254c2.254,0.836,4.057,2.322,5.412,4.459
		c1.354,2.138,2.031,4.581,2.031,7.331c0,3.492-1.026,6.375-3.079,8.649c-2.053,2.274-5.121,3.708-9.204,4.299
		c2.031,1.186,3.708,2.488,5.03,3.904c1.322,1.418,3.105,3.936,5.348,7.555l5.681,9.076H96.23l-6.792-10.125
		c-2.412-3.617-4.063-5.896-4.951-6.838s-1.831-1.588-2.825-1.938c-0.995-0.348-2.571-0.523-4.729-0.523h-1.904v19.424H65.634z
		 M75.029,74.414h6.951c4.507,0,7.321-0.19,8.442-0.571c1.121-0.381,2-1.036,2.634-1.968c0.635-0.931,0.952-2.095,0.952-3.491
		c0-1.565-0.418-2.83-1.254-3.793c-0.836-0.962-2.015-1.57-3.539-1.824c-0.762-0.106-3.047-0.159-6.855-0.159h-7.332V74.414z"/>
	<path d="M123.239,101.264l-16.631-46.528h10.188l11.775,34.436l11.394-34.436h9.967l-16.663,46.528H123.239z"/>
	<path d="M154.724,101.264V54.736h15.075c5.713,0,9.438,0.233,11.172,0.698c2.666,0.698,4.898,2.217,6.697,4.555
		s2.697,5.358,2.697,9.061c0,2.857-0.518,5.259-1.555,7.205c-1.037,1.947-2.354,3.476-3.951,4.585
		c-1.598,1.111-3.222,1.848-4.872,2.207c-2.243,0.443-5.491,0.666-9.743,0.666h-6.126v17.551H154.724z M164.118,62.607V75.81h5.142
		c3.703,0,6.178-0.243,7.427-0.729c1.248-0.487,2.227-1.249,2.937-2.285c0.708-1.037,1.063-2.243,1.063-3.619
		c0-1.692-0.498-3.089-1.492-4.189c-0.994-1.1-2.253-1.787-3.776-2.063c-1.122-0.211-3.375-0.317-6.761-0.317H164.118z"/>
</g>
</svg>
