<?xml version="1.0" encoding="utf-8"?>
<!-- Generator: Adobe Illustrator 16.0.0, SVG Export Plug-In . SVG Version: 6.00 Build 0)  -->
<!DOCTYPE svg PUBLIC "-//W3C//DTD SVG 1.1//EN" "http://www.w3.org/Graphics/SVG/1.1/DTD/svg11.dtd">
<svg version="1.1" id="Layer_1" xmlns="http://www.w3.org/2000/svg" xmlns:xlink="http://www.w3.org/1999/xlink" x="0px" y="0px"
	 width="256px" height="256px" viewBox="0 0 256 256" enable-background="new 0 0 256 256" xml:space="preserve">
<rect x="16.597" y="5.395" fill="#FFFFFF" width="222.054" height="166.938"/>
<path d="M246.313,0H9.672v179.266h0.288l-0.08,0.123L128,255.944l118.129-76.541l-0.089-0.138h0.272V0z M20.672,117H85.84v51.266
	H20.672V117z M92.84,117h70.284v51.266H92.84V117z M170.124,117h65.188v51.266h-65.188V117z M235.313,11v95H20.672V11H235.313z
	 M128,242.837l-98.086-63.571H226.11L128,242.837z"/>
<g>
	<path d="M65.634,82V35.472h19.773c4.972,0,8.585,0.418,10.838,1.254c2.254,0.836,4.057,2.322,5.412,4.459
		c1.354,2.137,2.031,4.581,2.031,7.332c0,3.491-1.026,6.375-3.079,8.649c-2.053,2.274-5.121,3.708-9.204,4.3
		c2.031,1.185,3.708,2.486,5.03,3.904c1.322,1.418,3.105,3.936,5.348,7.554L107.465,82H96.23l-6.792-10.125
		c-2.412-3.618-4.063-5.898-4.951-6.839s-1.831-1.587-2.825-1.937c-0.995-0.349-2.571-0.523-4.729-0.523h-1.904V82H65.634z
		 M75.029,55.149h6.951c4.507,0,7.321-0.19,8.442-0.571c1.121-0.381,2-1.037,2.634-1.968c0.635-0.931,0.952-2.095,0.952-3.491
		c0-1.565-0.418-2.83-1.254-3.793c-0.836-0.962-2.015-1.571-3.539-1.825c-0.762-0.105-3.047-0.159-6.855-0.159h-7.332V55.149z"/>
	<path d="M123.239,82l-16.631-46.528h10.188l11.775,34.436l11.394-34.436h9.967L133.268,82H123.239z"/>
	<path d="M154.723,82V35.472h15.076c5.713,0,9.438,0.233,11.172,0.698c2.666,0.698,4.898,2.217,6.697,4.555s2.697,5.358,2.697,9.061
		c0,2.856-0.518,5.258-1.555,7.205c-1.037,1.947-2.354,3.476-3.951,4.586c-1.598,1.111-3.223,1.847-4.873,2.206
		c-2.242,0.444-5.49,0.667-9.742,0.667h-6.127V82H154.723z M164.117,43.343v13.203h5.143c3.703,0,6.178-0.243,7.426-0.73
		c1.248-0.486,2.227-1.248,2.938-2.285c0.707-1.037,1.063-2.243,1.063-3.618c0-1.692-0.498-3.089-1.492-4.189
		c-0.994-1.1-2.254-1.788-3.777-2.063c-1.121-0.211-3.375-0.317-6.76-0.317H164.117z"/>
</g>
<g>
	<path d="M40.522,159v-33.644h10.901c4.131,0,6.823,0.169,8.078,0.505c1.928,0.505,3.542,1.603,4.842,3.293
		c1.3,1.691,1.951,3.875,1.951,6.553c0,2.064-0.375,3.802-1.125,5.209c-0.75,1.408-1.702,2.513-2.857,3.316
		c-1.156,0.803-2.33,1.335-3.523,1.595c-1.622,0.321-3.97,0.481-7.045,0.481h-4.429V159H40.522z M47.315,131.048v9.547h3.718
		c2.677,0,4.467-0.176,5.37-0.528c0.902-0.352,1.61-0.902,2.123-1.652c0.513-0.749,0.769-1.621,0.769-2.615
		c0-1.225-0.36-2.234-1.079-3.029c-0.719-0.796-1.629-1.293-2.731-1.492c-0.811-0.152-2.44-0.229-4.888-0.229H47.315z"/>
</g>
<g>
	<path d="M116.293,159v-33.644h23.064v5.691h-16.271v7.964h14.045v5.691h-14.045V159H116.293z"/>
</g>
<g>
	<path d="M219.086,159h-7.389l-2.938-7.643h-13.449L192.534,159h-7.206l13.104-33.644h7.184L219.086,159z M206.579,145.689
		l-4.636-12.484l-4.544,12.484H206.579z"/>
</g>
</svg>
