<?xml version="1.0" encoding="utf-8"?>
<!-- Generator: Adobe Illustrator 16.0.0, SVG Export Plug-In . SVG Version: 6.00 Build 0)  -->
<!DOCTYPE svg PUBLIC "-//W3C//DTD SVG 1.1//EN" "http://www.w3.org/Graphics/SVG/1.1/DTD/svg11.dtd">
<svg version="1.1" id="Layer_1" xmlns="http://www.w3.org/2000/svg" xmlns:xlink="http://www.w3.org/1999/xlink" x="0px" y="0px"
	 width="256px" height="256px" viewBox="0 0 256 256" enable-background="new 0 0 256 256" xml:space="preserve">
<rect x="15.644" y="4.973" fill="#FFFFFF" width="224.533" height="138.489"/>
<path d="M246.313,0H9.688v150.266h0.056l-0.025,0.029l122.031,105.708l114.506-105.678l-0.055-0.06h0.112V0z M20.688,11h214.625
	v128.266H20.688V11z M131.517,241.249L26.485,150.266H230.1L131.517,241.249z"/>
<g>
	<path d="M75.207,105.667V48.401h24.336c6.119,0,10.566,0.515,13.34,1.543c2.773,1.029,4.993,2.858,6.66,5.488
		c1.666,2.631,2.5,5.639,2.5,9.023c0,4.297-1.264,7.846-3.789,10.645c-2.526,2.8-6.303,4.564-11.328,5.293
		c2.5,1.459,4.563,3.061,6.191,4.805c1.627,1.745,3.821,4.844,6.582,9.297l6.992,11.172h-13.828l-8.359-12.461
		c-2.969-4.453-5-7.259-6.094-8.418c-1.094-1.158-2.253-1.953-3.477-2.383c-1.225-0.43-3.164-0.645-5.82-0.645H86.77v23.906H75.207z
		 M86.77,72.62h8.555c5.547,0,9.01-0.234,10.391-0.703c1.38-0.469,2.461-1.275,3.242-2.422c0.781-1.146,1.172-2.578,1.172-4.297
		c0-1.927-0.515-3.482-1.543-4.668c-1.029-1.185-2.48-1.934-4.355-2.246c-0.938-0.13-3.75-0.195-8.438-0.195H86.77V72.62z"/>
	<path d="M169.582,84.612l11.211,3.555c-1.719,6.25-4.577,10.893-8.574,13.926c-3.998,3.034-9.069,4.551-15.215,4.551
		c-7.604,0-13.854-2.598-18.75-7.793c-4.896-5.195-7.344-12.298-7.344-21.309c0-9.531,2.461-16.934,7.383-22.207
		s11.393-7.91,19.414-7.91c7.005,0,12.695,2.07,17.07,6.211c2.604,2.448,4.557,5.964,5.859,10.547l-11.445,2.734
		c-0.678-2.969-2.09-5.313-4.238-7.031s-4.76-2.578-7.832-2.578c-4.245,0-7.689,1.523-10.332,4.57
		c-2.644,3.047-3.965,7.982-3.965,14.805c0,7.24,1.302,12.396,3.906,15.469c2.604,3.073,5.989,4.609,10.156,4.609
		c3.072,0,5.716-0.977,7.93-2.93C167.029,91.878,168.618,88.806,169.582,84.612z"/>
</g>
</svg>
