<?xml version="1.0" encoding="utf-8"?>
<!-- Generator: Adobe Illustrator 16.0.0, SVG Export Plug-In . SVG Version: 6.00 Build 0)  -->
<!DOCTYPE svg PUBLIC "-//W3C//DTD SVG 1.1//EN" "http://www.w3.org/Graphics/SVG/1.1/DTD/svg11.dtd">
<svg version="1.1" id="Layer_1" xmlns="http://www.w3.org/2000/svg" xmlns:xlink="http://www.w3.org/1999/xlink" x="0px" y="0px"
	 width="256px" height="256px" viewBox="0 0 256 256" enable-background="new 0 0 256 256" xml:space="preserve">
<rect x="15.644" y="4.973" fill="#FFFFFF" width="224.533" height="138.489"/>
<path d="M246.313,0H9.688v150.266h0.056l-0.025,0.029l122.031,105.708l114.506-105.678l-0.055-0.06h0.112V0z M20.688,11h214.625
	v128.266H20.688V11z M131.517,241.249L26.485,150.266H230.1L131.517,241.249z"/>
<g>
	<path d="M56.668,100.264V53.736h19.773c4.972,0,8.585,0.418,10.838,1.254c2.254,0.836,4.058,2.322,5.412,4.459
		c1.354,2.138,2.031,4.581,2.031,7.331c0,3.492-1.026,6.375-3.079,8.649s-5.12,3.708-9.204,4.299
		c2.031,1.186,3.708,2.488,5.03,3.904c1.322,1.418,3.105,3.936,5.349,7.555l5.681,9.076H87.264l-6.792-10.125
		c-2.412-3.617-4.063-5.896-4.951-6.838s-1.83-1.588-2.824-1.938c-0.995-0.348-2.571-0.523-4.729-0.523h-1.904v19.424H56.668z
		 M66.063,73.414h6.951c4.507,0,7.32-0.19,8.442-0.571c1.121-0.381,1.999-1.036,2.634-1.968c0.635-0.931,0.952-2.095,0.952-3.491
		c0-1.565-0.418-2.83-1.254-3.793c-0.836-0.962-2.015-1.57-3.538-1.824c-0.762-0.106-3.047-0.159-6.855-0.159h-7.332V73.414z"/>
	<path d="M103.673,100.264V53.736h9.141l19.043,31.071V53.736h8.728v46.528h-9.426L112.4,69.922v30.341H103.673z"/>
	<path d="M150.772,100.264V54.117h9.395v38.307h23.359v7.84H150.772z"/>
	<path d="M189.938,100.264V53.736h9.395v46.528H189.938z"/>
</g>
</svg>
