<?xml version="1.0" encoding="utf-8"?>
<!-- Generator: Adobe Illustrator 16.0.0, SVG Export Plug-In . SVG Version: 6.00 Build 0)  -->
<!DOCTYPE svg PUBLIC "-//W3C//DTD SVG 1.1//EN" "http://www.w3.org/Graphics/SVG/1.1/DTD/svg11.dtd">
<svg version="1.1" id="Layer_1" xmlns="http://www.w3.org/2000/svg" xmlns:xlink="http://www.w3.org/1999/xlink" x="0px" y="0px"
	 width="256px" height="256px" viewBox="0 0 256 256" enable-background="new 0 0 256 256" xml:space="preserve">
<rect x="15.644" y="4.973" fill="#FFFFFF" width="224.533" height="138.489"/>
<path d="M246.313,0H9.688v150.266h0.056l-0.025,0.029l122.031,105.708l114.506-105.678l-0.055-0.06h0.112V0z M20.688,11h214.625
	v128.266H20.688V11z M131.517,241.249L26.485,150.266H230.1L131.517,241.249z"/>
<g>
	<path d="M60.683,85.109l9.141-0.889c0.55,3.068,1.666,5.322,3.349,6.76c1.682,1.439,3.951,2.158,6.808,2.158
		c3.025,0,5.305-0.639,6.84-1.92c1.534-1.279,2.301-2.777,2.301-4.49c0-1.1-0.323-2.037-0.968-2.809
		c-0.646-0.773-1.772-1.445-3.38-2.016c-1.101-0.381-3.608-1.059-7.522-2.031c-5.036-1.248-8.569-2.783-10.601-4.603
		c-2.856-2.56-4.285-5.681-4.285-9.362c0-2.369,0.671-4.586,2.015-6.649c1.344-2.063,3.28-3.634,5.809-4.713
		c2.528-1.079,5.58-1.619,9.156-1.619c5.84,0,10.235,1.281,13.188,3.841c2.951,2.561,4.501,5.978,4.649,10.251l-9.395,0.413
		c-0.402-2.391-1.265-4.11-2.587-5.157c-1.322-1.048-3.306-1.571-5.951-1.571c-2.729,0-4.867,0.561-6.411,1.683
		c-0.995,0.719-1.492,1.682-1.492,2.888c0,1.101,0.465,2.042,1.396,2.825c1.185,0.994,4.063,2.031,8.633,3.109
		c4.57,1.08,7.95,2.196,10.141,3.349c2.189,1.153,3.903,2.729,5.142,4.729c1.237,2,1.856,4.471,1.856,7.41
		c0,2.666-0.741,5.164-2.222,7.49c-1.481,2.328-3.576,4.059-6.284,5.189c-2.708,1.133-6.083,1.699-10.125,1.699
		c-5.882,0-10.4-1.359-13.552-4.078C63.18,94.277,61.296,90.314,60.683,85.109z"/>
	<path d="M106.45,100.248V53.72h9.395v18.313h18.408V53.72h9.395v46.528h-9.395V79.904h-18.408v20.344H106.45z"/>
	<path d="M195.316,100.248h-10.219l-4.063-10.568h-18.6l-3.84,10.568h-9.966l18.122-46.528h9.935L195.316,100.248z M178.02,81.84
		l-6.411-17.265l-6.284,17.265H178.02z"/>
</g>
</svg>
