<?xml version="1.0" encoding="utf-8"?>
<!-- Generator: Adobe Illustrator 16.0.0, SVG Export Plug-In . SVG Version: 6.00 Build 0)  -->
<!DOCTYPE svg PUBLIC "-//W3C//DTD SVG 1.1//EN" "http://www.w3.org/Graphics/SVG/1.1/DTD/svg11.dtd">
<svg version="1.1" id="Layer_1" xmlns="http://www.w3.org/2000/svg" xmlns:xlink="http://www.w3.org/1999/xlink" x="0px" y="0px"
	 width="256px" height="256px" viewBox="0 0 256 256" enable-background="new 0 0 256 256" xml:space="preserve">
<rect x="15.644" y="4.973" fill="#FFFFFF" width="224.533" height="138.489"/>
<path d="M246.313,0H9.688v150.266h0.056l-0.025,0.029l122.031,105.708l114.506-105.678l-0.055-0.06h0.112V0z M20.688,11h214.625
	v128.266H20.688V11z M131.517,241.249L26.485,150.266H230.1L131.517,241.249z"/>
<g>
	<path d="M51.592,86.141l8.156-0.793c0.491,2.737,1.487,4.748,2.988,6.032s3.525,1.926,6.074,1.926c2.7,0,4.734-0.571,6.104-1.713
		c1.368-1.143,2.053-2.479,2.053-4.008c0-0.981-0.288-1.817-0.863-2.506c-0.576-0.689-1.582-1.289-3.017-1.799
		c-0.981-0.34-3.219-0.944-6.712-1.813c-4.493-1.114-7.646-2.482-9.459-4.106c-2.549-2.284-3.823-5.069-3.823-8.354
		c0-2.114,0.6-4.092,1.799-5.934c1.198-1.84,2.926-3.242,5.183-4.205c2.256-0.963,4.979-1.444,8.17-1.444
		c5.211,0,9.134,1.143,11.768,3.427s4.017,5.334,4.148,9.147l-8.383,0.368c-0.358-2.134-1.128-3.668-2.308-4.602
		c-1.181-0.936-2.95-1.402-5.311-1.402c-2.436,0-4.343,0.5-5.721,1.501c-0.888,0.642-1.331,1.501-1.331,2.577
		c0,0.981,0.415,1.822,1.246,2.521c1.058,0.888,3.625,1.813,7.703,2.775s7.095,1.959,9.049,2.987
		c1.954,1.029,3.483,2.436,4.588,4.221c1.104,1.783,1.656,3.988,1.656,6.612c0,2.379-0.661,4.606-1.982,6.684s-3.19,3.62-5.607,4.63
		c-2.417,1.011-5.428,1.516-9.034,1.516c-5.249,0-9.279-1.213-12.093-3.639C53.819,94.32,52.14,90.785,51.592,86.141z"/>
	<path d="M112.141,99.649v-4.503c-1.095,1.604-2.534,2.87-4.318,3.795s-3.668,1.388-5.65,1.388c-2.021,0-3.833-0.443-5.438-1.331
		s-2.766-2.134-3.483-3.738s-1.076-3.823-1.076-6.655V69.573h7.958v13.82c0,4.229,0.146,6.82,0.439,7.773
		c0.292,0.954,0.825,1.709,1.6,2.266c0.774,0.558,1.756,0.836,2.945,0.836c1.359,0,2.577-0.373,3.653-1.119
		c1.076-0.745,1.813-1.67,2.209-2.775c0.396-1.104,0.595-3.809,0.595-8.113V69.573h7.958v30.076H112.141z"/>
	<path d="M127.858,99.649V58.132h17.644c4.438,0,7.661,0.373,9.672,1.119c2.011,0.745,3.62,2.071,4.828,3.979
		c1.209,1.907,1.813,4.088,1.813,6.542c0,3.115-0.916,5.688-2.746,7.718c-1.832,2.029-4.57,3.309-8.213,3.837
		c1.813,1.058,3.309,2.219,4.488,3.483s2.771,3.512,4.771,6.74l5.07,8.1H155.16l-6.061-9.034c-2.152-3.229-3.625-5.263-4.418-6.103
		c-0.793-0.841-1.634-1.416-2.521-1.729c-0.887-0.311-2.293-0.467-4.219-0.467h-1.699v17.332H127.858z M136.242,75.69h6.201
		c4.021,0,6.533-0.17,7.533-0.51c1.001-0.34,1.785-0.925,2.352-1.756s0.85-1.869,0.85-3.115c0-1.397-0.373-2.525-1.119-3.385
		c-0.746-0.858-1.799-1.401-3.158-1.628c-0.68-0.095-2.719-0.142-6.117-0.142h-6.541V75.69z"/>
	<path d="M196.281,84.385l8.127,2.577c-1.246,4.531-3.318,7.896-6.217,10.096c-2.896,2.2-6.574,3.3-11.029,3.3
		c-5.514,0-10.045-1.884-13.594-5.649c-3.551-3.768-5.324-8.917-5.324-15.449c0-6.91,1.783-12.277,5.352-16.1
		c3.568-3.824,8.26-5.735,14.076-5.735c5.078,0,9.203,1.501,12.375,4.503c1.889,1.774,3.305,4.323,4.248,7.646l-8.297,1.982
		c-0.492-2.152-1.516-3.852-3.074-5.098c-1.557-1.246-3.449-1.869-5.678-1.869c-3.077,0-5.574,1.104-7.49,3.313
		s-2.875,5.787-2.875,10.733c0,5.249,0.944,8.987,2.832,11.215c1.889,2.228,4.343,3.342,7.363,3.342c2.229,0,4.145-0.708,5.75-2.124
		C194.43,89.652,195.582,87.425,196.281,84.385z"/>
</g>
</svg>
