<?xml version="1.0" encoding="utf-8"?>
<!-- Generator: Adobe Illustrator 16.0.0, SVG Export Plug-In . SVG Version: 6.00 Build 0)  -->
<!DOCTYPE svg PUBLIC "-//W3C//DTD SVG 1.1//EN" "http://www.w3.org/Graphics/SVG/1.1/DTD/svg11.dtd">
<svg version="1.1" id="Layer_1" xmlns="http://www.w3.org/2000/svg" xmlns:xlink="http://www.w3.org/1999/xlink" x="0px" y="0px"
	 width="256px" height="256px" viewBox="0 0 256 256" enable-background="new 0 0 256 256" xml:space="preserve">
<rect x="15.644" y="4.973" fill="#FFFFFF" width="224.533" height="138.489"/>
<path d="M246.313,0H9.688v150.266h0.056l-0.025,0.029l122.031,105.708l114.506-105.678l-0.055-0.06h0.112V0z M20.688,11h214.625
	v128.266H20.688V11z M131.517,241.249L26.485,150.266H230.1L131.517,241.249z"/>
<g>
	<path d="M49.992,57.447h8.383v22.486c0,3.568,0.104,5.881,0.312,6.938c0.358,1.699,1.213,3.063,2.563,4.093
		c1.35,1.028,3.195,1.543,5.537,1.543c2.379,0,4.172-0.486,5.381-1.459c1.208-0.972,1.935-2.166,2.181-3.582
		c0.245-1.416,0.368-3.767,0.368-7.052V57.447h8.383v21.807c0,4.984-0.227,8.506-0.68,10.563s-1.289,3.795-2.506,5.211
		s-2.846,2.544-4.885,3.384c-2.039,0.841-4.701,1.261-7.986,1.261c-3.965,0-6.972-0.458-9.02-1.374
		c-2.049-0.915-3.667-2.104-4.857-3.568c-1.189-1.463-1.973-2.997-2.351-4.602c-0.548-2.379-0.821-5.891-0.821-10.535V57.447z"/>
	<path d="M89.81,85.456l8.156-0.793c0.491,2.737,1.487,4.748,2.988,6.032s3.526,1.926,6.075,1.926c2.7,0,4.734-0.571,6.103-1.713
		c1.369-1.143,2.053-2.479,2.053-4.008c0-0.981-0.288-1.817-0.864-2.506c-0.576-0.689-1.582-1.289-3.016-1.799
		c-0.982-0.34-3.219-0.944-6.712-1.813c-4.494-1.114-7.646-2.482-9.459-4.106c-2.549-2.284-3.823-5.069-3.823-8.354
		c0-2.114,0.599-4.092,1.798-5.934c1.199-1.84,2.926-3.242,5.183-4.205c2.256-0.963,4.979-1.444,8.17-1.444
		c5.211,0,9.133,1.143,11.767,3.427s4.017,5.334,4.149,9.147l-8.383,0.368c-0.359-2.134-1.128-3.668-2.308-4.602
		c-1.18-0.936-2.95-1.402-5.31-1.402c-2.436,0-4.343,0.5-5.721,1.501c-0.888,0.642-1.331,1.501-1.331,2.577
		c0,0.981,0.415,1.822,1.246,2.521c1.057,0.888,3.625,1.813,7.703,2.775s7.094,1.959,9.048,2.987
		c1.954,1.029,3.483,2.436,4.588,4.221c1.104,1.783,1.657,3.988,1.657,6.612c0,2.379-0.661,4.606-1.982,6.684
		c-1.322,2.077-3.191,3.62-5.607,4.63c-2.417,1.011-5.428,1.516-9.034,1.516c-5.249,0-9.28-1.213-12.093-3.639
		C92.038,93.635,90.357,90.1,89.81,85.456z"/>
	<path d="M168.059,98.964h-9.119l-3.625-9.431h-16.596l-3.426,9.431H126.4l16.17-41.518h8.865L168.059,98.964z M152.625,82.539
		l-5.721-15.406l-5.607,15.406H152.625z"/>
	<path d="M172.533,98.964V57.447h17.645c4.436,0,7.66,0.373,9.671,1.119c2.011,0.745,3.62,2.071,4.829,3.979
		c1.207,1.907,1.813,4.088,1.813,6.542c0,3.115-0.916,5.688-2.748,7.718c-1.831,2.029-4.568,3.309-8.213,3.837
		c1.813,1.058,3.309,2.219,4.489,3.483c1.18,1.265,2.771,3.512,4.772,6.74l5.068,8.1h-10.025l-6.061-9.034
		c-2.152-3.229-3.625-5.263-4.418-6.103c-0.793-0.841-1.633-1.416-2.52-1.729c-0.889-0.311-2.295-0.467-4.221-0.467h-1.699v17.332
		H172.533z M180.916,75.005h6.203c4.021,0,6.531-0.17,7.533-0.51c1-0.34,1.783-0.925,2.35-1.756s0.85-1.869,0.85-3.115
		c0-1.397-0.373-2.525-1.118-3.385c-0.746-0.858-1.798-1.401-3.157-1.628c-0.68-0.095-2.719-0.142-6.117-0.142h-6.543V75.005z"/>
</g>
</svg>
