<?xml version="1.0" encoding="utf-8"?>
<!-- Generator: Adobe Illustrator 16.0.0, SVG Export Plug-In . SVG Version: 6.00 Build 0)  -->
<!DOCTYPE svg PUBLIC "-//W3C//DTD SVG 1.1//EN" "http://www.w3.org/Graphics/SVG/1.1/DTD/svg11.dtd">
<svg version="1.1" id="Layer_1" xmlns="http://www.w3.org/2000/svg" xmlns:xlink="http://www.w3.org/1999/xlink" x="0px" y="0px"
	 width="256px" height="256px" viewBox="0 0 256 256" enable-background="new 0 0 256 256" xml:space="preserve">
<rect x="15.5" y="5" fill="#FFFFFF" width="224.5" height="168"/>
<path d="M246.313,0H9.688v172.5H9.672V256h11v-76.75h225.641V0z M235.313,11v95H20.688V11H235.313z M162.833,117v51.25H92.5V117
	H162.833z M20.688,117H85.5v51.25H20.688V117z M169.833,168.25V117h65.479v51.25H169.833z"/>
<g display="none">
	<path display="inline" d="M40.194,159v-33.644h10.901c4.131,0,6.823,0.169,8.078,0.505c1.928,0.505,3.542,1.603,4.842,3.293
		c1.3,1.691,1.951,3.875,1.951,6.553c0,2.064-0.375,3.802-1.125,5.209c-0.75,1.408-1.702,2.513-2.857,3.316
		c-1.156,0.803-2.33,1.335-3.523,1.595c-1.622,0.321-3.97,0.481-7.045,0.481h-4.429V159H40.194z M46.987,131.048v9.547h3.718
		c2.677,0,4.467-0.176,5.37-0.528c0.902-0.352,1.61-0.902,2.123-1.652c0.513-0.749,0.769-1.621,0.769-2.615
		c0-1.225-0.36-2.234-1.079-3.029c-0.719-0.796-1.629-1.293-2.731-1.492c-0.811-0.152-2.44-0.229-4.888-0.229H46.987z"/>
</g>
<g display="none">
	<path display="inline" d="M115.965,159v-33.644h23.064v5.691h-16.271v7.964h14.044v5.691h-14.044V159H115.965z"/>
</g>
<g>
	<path d="M218.758,159h-7.389l-2.938-7.643h-13.449L192.206,159H185l13.104-33.644h7.184L218.758,159z M206.251,145.689
		l-4.636-12.484l-4.544,12.484H206.251z"/>
</g>
<g>
	<path d="M71.063,39.241h16.596c3.285,0,5.734,0.137,7.349,0.41c1.614,0.274,3.059,0.846,4.333,1.714s2.337,2.024,3.187,3.47
		c0.85,1.443,1.274,3.063,1.274,4.856c0,1.944-0.524,3.729-1.572,5.353s-2.469,2.842-4.262,3.653
		c2.529,0.736,4.475,1.992,5.834,3.767s2.039,3.861,2.039,6.259c0,1.888-0.439,3.724-1.317,5.509
		c-0.878,1.783-2.077,3.209-3.597,4.275c-1.52,1.067-3.394,1.724-5.621,1.969c-1.397,0.151-4.768,0.245-10.11,0.283H71.063V39.241z
		 M79.445,46.151v9.601h5.494c3.266,0,5.296-0.047,6.089-0.142c1.435-0.17,2.563-0.666,3.384-1.486
		c0.821-0.822,1.232-1.902,1.232-3.243c0-1.284-0.354-2.327-1.063-3.13c-0.708-0.802-1.761-1.288-3.157-1.458
		c-0.831-0.095-3.22-0.142-7.165-0.142H79.445z M79.445,62.662v11.102h7.76c3.021,0,4.937-0.085,5.749-0.255
		c1.246-0.227,2.261-0.779,3.044-1.656c0.783-0.879,1.176-2.054,1.176-3.526c0-1.246-0.303-2.304-0.906-3.172
		c-0.604-0.868-1.478-1.501-2.62-1.897s-3.62-0.595-7.434-0.595H79.445z"/>
	<path d="M112.948,80.759V39.241h17.644c4.437,0,7.66,0.373,9.671,1.119c2.012,0.745,3.621,2.071,4.828,3.979
		c1.209,1.907,1.813,4.088,1.813,6.542c0,3.115-0.916,5.688-2.746,7.718c-1.832,2.029-4.57,3.309-8.213,3.837
		c1.813,1.058,3.309,2.219,4.488,3.483s2.771,3.512,4.771,6.74l5.07,8.1h-10.025l-6.061-9.034c-2.152-3.229-3.625-5.263-4.418-6.103
		c-0.793-0.841-1.634-1.416-2.521-1.729c-0.888-0.311-2.294-0.467-4.22-0.467h-1.699v17.332H112.948z M121.331,56.8h6.202
		c4.021,0,6.532-0.17,7.533-0.51c1-0.34,1.784-0.925,2.351-1.756s0.85-1.869,0.85-3.115c0-1.397-0.373-2.525-1.119-3.385
		c-0.746-0.858-1.798-1.401-3.157-1.628c-0.68-0.095-2.719-0.142-6.117-0.142h-6.542V56.8z"/>
	<path d="M151.208,80.759v-7.562l21.807-26.933h-19.343v-7.023h30.388v6.514l-22.741,28.009h23.619v6.995H151.208z"/>
</g>
</svg>
