<?xml version="1.0" encoding="utf-8"?>
<!-- Generator: Adobe Illustrator 16.0.0, SVG Export Plug-In . SVG Version: 6.00 Build 0)  -->
<!DOCTYPE svg PUBLIC "-//W3C//DTD SVG 1.1//EN" "http://www.w3.org/Graphics/SVG/1.1/DTD/svg11.dtd">
<svg version="1.1" id="Layer_1" xmlns="http://www.w3.org/2000/svg" xmlns:xlink="http://www.w3.org/1999/xlink" x="0px" y="0px"
	 width="256px" height="256px" viewBox="0 0 256 256" enable-background="new 0 0 256 256" xml:space="preserve">
<rect x="16" y="6" fill="#FFFFFF" width="224.5" height="137"/>
<path d="M246.319,0H9.686v149.764H9.681V256h11V150.268h225.639V0z M235.319,139.268H20.686V11h214.634V139.268z"/>
<g>
	<path d="M77.872,67.964V31.458h27.069v6.176H85.243v8.093h18.328v6.151H85.243v9.937h20.395v6.15H77.872z"/>
	<path d="M135.247,54.542l7.147,2.266c-1.096,3.984-2.918,6.944-5.467,8.878s-5.781,2.901-9.699,2.901
		c-4.848,0-8.832-1.656-11.953-4.969c-3.122-3.312-4.682-7.84-4.682-13.584c0-6.076,1.569-10.795,4.707-14.157
		c3.138-3.361,7.263-5.042,12.376-5.042c4.466,0,8.093,1.319,10.882,3.959c1.66,1.561,2.905,3.802,3.736,6.724l-7.297,1.743
		c-0.432-1.893-1.332-3.387-2.701-4.482c-1.371-1.096-3.035-1.644-4.994-1.644c-2.706,0-4.902,0.972-6.587,2.913
		c-1.685,1.943-2.527,5.089-2.527,9.438c0,4.615,0.83,7.902,2.49,9.861c1.66,1.959,3.818,2.938,6.475,2.938
		c1.958,0,3.644-0.623,5.055-1.867C133.619,59.173,134.633,57.215,135.247,54.542z"/>
	<path d="M172.077,54.542l7.147,2.266c-1.096,3.984-2.918,6.944-5.466,8.878c-2.549,1.934-5.782,2.901-9.699,2.901
		c-4.849,0-8.833-1.656-11.954-4.969c-3.121-3.312-4.682-7.84-4.682-13.584c0-6.076,1.569-10.795,4.707-14.157
		c3.138-3.361,7.263-5.042,12.376-5.042c4.466,0,8.094,1.319,10.883,3.959c1.66,1.561,2.905,3.802,3.735,6.724l-7.296,1.743
		c-0.433-1.893-1.333-3.387-2.702-4.482c-1.37-1.096-3.034-1.644-4.993-1.644c-2.706,0-4.901,0.972-6.587,2.913
		c-1.686,1.943-2.527,5.089-2.527,9.438c0,4.615,0.83,7.902,2.49,9.861s3.818,2.938,6.475,2.938c1.959,0,3.644-0.623,5.056-1.867
		C170.45,59.173,171.463,57.215,172.077,54.542z"/>
</g>
<g>
	<path d="M98.024,123.964V87.756h7.371v30.058h18.328v6.15H98.024z"/>
	<path d="M161.898,123.964h-8.018l-3.188-8.293H136.1l-3.013,8.293h-7.819l14.219-36.507h7.795L161.898,123.964z M148.327,109.521
		l-5.03-13.547l-4.931,13.547H148.327z"/>
</g>
</svg>
