<?xml version="1.0" encoding="utf-8"?>
<!-- Generator: Adobe Illustrator 16.0.0, SVG Export Plug-In . SVG Version: 6.00 Build 0)  -->
<!DOCTYPE svg PUBLIC "-//W3C//DTD SVG 1.1//EN" "http://www.w3.org/Graphics/SVG/1.1/DTD/svg11.dtd">
<svg version="1.1" id="Layer_1" xmlns="http://www.w3.org/2000/svg" xmlns:xlink="http://www.w3.org/1999/xlink" x="0px" y="0px"
	 width="256px" height="256px" viewBox="0 0 256 256" enable-background="new 0 0 256 256" xml:space="preserve">
<rect x="15.5" y="5" fill="#FFFFFF" width="224.5" height="168"/>
<path d="M246.313,0H9.688v172.5H9.672V256h11v-76.75h225.641V0z M235.313,11v95H20.688V11H235.313z M162.833,117v51.25H92.5V117
	H162.833z M20.688,117H85.5v51.25H20.688V117z M169.833,168.25V117h65.479v51.25H169.833z"/>
<g display="none">
	<path display="inline" d="M40.194,159v-33.644h10.901c4.131,0,6.823,0.169,8.078,0.505c1.928,0.505,3.542,1.603,4.842,3.293
		c1.3,1.691,1.951,3.875,1.951,6.553c0,2.064-0.375,3.802-1.125,5.209c-0.75,1.408-1.702,2.513-2.857,3.316
		c-1.156,0.803-2.33,1.335-3.523,1.595c-1.622,0.321-3.97,0.481-7.045,0.481h-4.429V159H40.194z M46.987,131.048v9.547h3.718
		c2.677,0,4.467-0.176,5.37-0.528c0.902-0.352,1.61-0.902,2.123-1.652c0.513-0.749,0.769-1.621,0.769-2.615
		c0-1.225-0.36-2.234-1.079-3.029c-0.719-0.796-1.629-1.293-2.731-1.492c-0.811-0.152-2.44-0.229-4.888-0.229H46.987z"/>
</g>
<g>
	<path d="M115.965,159v-33.644h23.064v5.691h-16.271v7.964h14.044v5.691h-14.044V159H115.965z"/>
</g>
<g display="none">
	<path display="inline" d="M218.758,159h-7.389l-2.938-7.643h-13.449L192.206,159H185l13.104-33.644h7.184L218.758,159z
		 M206.251,145.689l-4.636-12.484l-4.544,12.484H206.251z"/>
</g>
<g>
	<path d="M68.379,82.649V36.121h31.897v7.871H77.774v11.013h19.424v7.871H77.774v19.773H68.379z"/>
	<path d="M137.792,65.542l9.107,2.889c-1.396,5.078-3.719,8.85-6.967,11.314c-3.248,2.466-7.367,3.697-12.361,3.697
		c-6.178,0-11.256-2.11-15.234-6.331c-3.979-4.222-5.967-9.992-5.967-17.313c0-7.744,2-13.759,5.998-18.043
		c4-4.285,9.258-6.428,15.775-6.428c5.691,0,10.314,1.683,13.869,5.047c2.115,1.989,3.701,4.846,4.76,8.569l-9.299,2.222
		c-0.551-2.412-1.697-4.316-3.443-5.713s-3.867-2.095-6.363-2.095c-3.449,0-6.248,1.237-8.395,3.714
		c-2.148,2.475-3.223,6.485-3.223,12.028c0,5.883,1.059,10.072,3.174,12.568c2.115,2.497,4.867,3.745,8.252,3.745
		c2.496,0,4.645-0.793,6.443-2.381C135.718,71.446,137.009,68.949,137.792,65.542z"/>
	<path d="M154.961,82.649V36.121h15.076c5.713,0,9.437,0.233,11.172,0.698c2.666,0.698,4.898,2.217,6.697,4.555
		c1.798,2.338,2.697,5.358,2.697,9.061c0,2.857-0.519,5.259-1.555,7.205c-1.037,1.947-2.354,3.476-3.952,4.586
		c-1.598,1.111-3.222,1.847-4.872,2.206c-2.242,0.444-5.49,0.667-9.743,0.667h-6.126v17.551H154.961z M164.355,43.992v13.203h5.143
		c3.702,0,6.178-0.243,7.426-0.729c1.249-0.487,2.228-1.249,2.937-2.285c0.708-1.037,1.063-2.243,1.063-3.619
		c0-1.692-0.498-3.089-1.492-4.189c-0.995-1.1-2.254-1.787-3.777-2.063c-1.121-0.211-3.375-0.317-6.76-0.317H164.355z"/>
</g>
</svg>
