<?xml version="1.0" encoding="utf-8"?>
<!-- Generator: Adobe Illustrator 16.0.0, SVG Export Plug-In . SVG Version: 6.00 Build 0)  -->
<!DOCTYPE svg PUBLIC "-//W3C//DTD SVG 1.1//EN" "http://www.w3.org/Graphics/SVG/1.1/DTD/svg11.dtd">
<svg version="1.1" id="Layer_1" xmlns="http://www.w3.org/2000/svg" xmlns:xlink="http://www.w3.org/1999/xlink" x="0px" y="0px"
	 width="256px" height="256px" viewBox="0 0 256 256" enable-background="new 0 0 256 256" xml:space="preserve">
<rect x="15.5" y="5" fill="#FFFFFF" width="224.5" height="168"/>
<path d="M246.313,0H9.688v172.5H9.672V256h11v-76.75h225.641V0z M235.313,11v95H20.688V11H235.313z M162.833,117v51.25H92.5V117
	H162.833z M20.688,117H85.5v51.25H20.688V117z M169.833,168.25V117h65.479v51.25H169.833z"/>
<g display="none">
	<path display="inline" d="M40.194,159v-33.644h10.901c4.131,0,6.823,0.169,8.078,0.505c1.928,0.505,3.542,1.603,4.842,3.293
		c1.3,1.691,1.951,3.875,1.951,6.553c0,2.064-0.375,3.802-1.125,5.209c-0.75,1.408-1.702,2.513-2.857,3.316
		c-1.156,0.803-2.33,1.335-3.523,1.595c-1.622,0.321-3.97,0.481-7.045,0.481h-4.429V159H40.194z M46.987,131.048v9.547h3.718
		c2.677,0,4.467-0.176,5.37-0.528c0.902-0.352,1.61-0.902,2.123-1.652c0.513-0.749,0.769-1.621,0.769-2.615
		c0-1.225-0.36-2.234-1.079-3.029c-0.719-0.796-1.629-1.293-2.731-1.492c-0.811-0.152-2.44-0.229-4.888-0.229H46.987z"/>
</g>
<g>
	<path d="M115.965,159v-33.644h23.064v5.691h-16.271v7.964h14.044v5.691h-14.044V159H115.965z"/>
</g>
<g>
	<path d="M218.758,159h-7.389l-2.938-7.643h-13.449L192.206,159H185l13.104-33.644h7.184L218.758,159z M206.251,145.689
		l-4.636-12.484l-4.544,12.484H206.251z"/>
</g>
<g>
	<path d="M67.763,65.735V58.74h18.068v16.539c-1.756,1.699-4.3,3.195-7.632,4.488c-3.333,1.294-6.708,1.94-10.125,1.94
		c-4.343,0-8.128-0.911-11.356-2.733c-3.229-1.821-5.655-4.427-7.278-7.816c-1.624-3.389-2.436-7.075-2.436-11.059
		c0-4.323,0.906-8.166,2.719-11.526s4.465-5.938,7.958-7.731c2.662-1.378,5.976-2.067,9.94-2.067c5.154,0,9.18,1.081,12.079,3.243
		c2.898,2.161,4.762,5.149,5.593,8.963l-8.326,1.558c-0.585-2.039-1.685-3.648-3.299-4.829c-1.614-1.18-3.63-1.77-6.046-1.77
		c-3.663,0-6.575,1.161-8.737,3.483c-2.162,2.322-3.243,5.768-3.243,10.337c0,4.928,1.095,8.623,3.285,11.088
		c2.19,2.463,5.06,3.695,8.609,3.695c1.756,0,3.516-0.345,5.282-1.033c1.765-0.689,3.28-1.525,4.545-2.507v-5.268H67.763z"/>
	<path d="M91.863,60.496c0-4.229,0.632-7.778,1.897-10.648c0.944-2.114,2.232-4.012,3.866-5.692
		c1.633-1.681,3.422-2.927,5.367-3.738c2.587-1.095,5.569-1.643,8.949-1.643c6.117,0,11.012,1.897,14.684,5.692
		c3.673,3.795,5.509,9.072,5.509,15.831c0,6.702-1.822,11.946-5.466,15.731c-3.644,3.786-8.515,5.679-14.613,5.679
		c-6.174,0-11.083-1.884-14.727-5.649C93.685,72.291,91.863,67.104,91.863,60.496z M100.501,60.213
		c0,4.701,1.085,8.265,3.257,10.691c2.171,2.426,4.928,3.639,8.27,3.639s6.084-1.203,8.228-3.611
		c2.143-2.406,3.214-6.018,3.214-10.832c0-4.758-1.043-8.308-3.13-10.648c-2.086-2.341-4.856-3.512-8.312-3.512
		s-6.24,1.185-8.354,3.555C101.558,51.863,100.501,55.437,100.501,60.213z"/>
	<path d="M138.903,81V39.822h8.383v34.183h20.844V81H138.903z"/>
	<path d="M174.077,39.482h15.321c3.455,0,6.089,0.265,7.901,0.793c2.436,0.718,4.521,1.992,6.259,3.823s3.059,4.073,3.965,6.726
		c0.906,2.653,1.359,5.924,1.359,9.813c0,3.417-0.425,6.362-1.274,8.836c-1.038,3.021-2.521,5.466-4.446,7.335
		c-1.454,1.416-3.417,2.521-5.891,3.313c-1.851,0.585-4.323,0.878-7.42,0.878h-15.774V39.482z M182.46,46.506v27.499h6.259
		c2.341,0,4.031-0.132,5.069-0.396c1.359-0.34,2.487-0.916,3.385-1.728c0.896-0.812,1.628-2.147,2.194-4.008
		c0.566-1.859,0.85-4.394,0.85-7.604s-0.283-5.674-0.85-7.392s-1.359-3.059-2.379-4.021s-2.313-1.614-3.88-1.954
		c-1.171-0.265-3.465-0.396-6.882-0.396H182.46z"/>
</g>
</svg>
