<?xml version="1.0" encoding="utf-8"?>
<!-- Generator: Adobe Illustrator 16.0.0, SVG Export Plug-In . SVG Version: 6.00 Build 0)  -->
<!DOCTYPE svg PUBLIC "-//W3C//DTD SVG 1.1//EN" "http://www.w3.org/Graphics/SVG/1.1/DTD/svg11.dtd">
<svg version="1.1" id="Layer_1" xmlns="http://www.w3.org/2000/svg" xmlns:xlink="http://www.w3.org/1999/xlink" x="0px" y="0px"
	 width="256px" height="256px" viewBox="0 0 256 256" enable-background="new 0 0 256 256" xml:space="preserve">
<rect x="16" y="6" fill="#FFFFFF" width="224.5" height="137"/>
<path d="M246.319,0H9.686v149.764H9.681V256h11V150.268h225.639V0z M235.319,139.268H20.686V11h214.634V139.268z"/>
<g>
	<path d="M51.167,99.759V58.581h8.383v34.183h20.844v6.995H51.167z"/>
	<path d="M86.341,58.241h15.321c3.455,0,6.089,0.265,7.901,0.793c2.436,0.718,4.521,1.992,6.259,3.823s3.059,4.073,3.965,6.726
		c0.906,2.653,1.359,5.924,1.359,9.813c0,3.417-0.425,6.362-1.274,8.836c-1.038,3.021-2.521,5.466-4.446,7.335
		c-1.454,1.416-3.417,2.521-5.891,3.313c-1.851,0.585-4.323,0.878-7.42,0.878H86.341V58.241z M94.724,65.265v27.499h6.259
		c2.341,0,4.031-0.132,5.069-0.396c1.359-0.34,2.487-0.916,3.385-1.728c0.896-0.812,1.628-2.147,2.194-4.008
		c0.566-1.859,0.85-4.394,0.85-7.604s-0.283-5.674-0.85-7.392s-1.359-3.059-2.379-4.021s-2.313-1.614-3.88-1.954
		c-1.171-0.265-3.465-0.396-6.882-0.396H94.724z"/>
	<path d="M154.819,84.494l8.128,2.577c-1.246,4.531-3.318,7.896-6.217,10.096c-2.897,2.2-6.574,3.3-11.03,3.3
		c-5.513,0-10.044-1.884-13.594-5.649c-3.55-3.768-5.324-8.917-5.324-15.449c0-6.91,1.784-12.277,5.353-16.1
		c3.568-3.824,8.26-5.735,14.075-5.735c5.079,0,9.204,1.501,12.376,4.503c1.888,1.774,3.304,4.323,4.248,7.646l-8.298,1.982
		c-0.491-2.152-1.515-3.852-3.073-5.098c-1.557-1.246-3.45-1.869-5.678-1.869c-3.077,0-5.574,1.104-7.49,3.313
		c-1.917,2.209-2.875,5.787-2.875,10.733c0,5.249,0.944,8.987,2.832,11.215s4.343,3.342,7.363,3.342
		c2.228,0,4.145-0.708,5.749-2.124S154.121,87.534,154.819,84.494z"/>
	<path d="M196.705,84.494l8.128,2.577c-1.246,4.531-3.318,7.896-6.217,10.096c-2.897,2.2-6.574,3.3-11.03,3.3
		c-5.513,0-10.044-1.884-13.594-5.649c-3.55-3.768-5.324-8.917-5.324-15.449c0-6.91,1.784-12.277,5.353-16.1
		c3.568-3.824,8.26-5.735,14.075-5.735c5.079,0,9.204,1.501,12.376,4.503c1.888,1.774,3.304,4.323,4.248,7.646l-8.298,1.982
		c-0.491-2.152-1.515-3.852-3.073-5.098c-1.557-1.246-3.45-1.869-5.678-1.869c-3.077,0-5.574,1.104-7.49,3.313
		c-1.917,2.209-2.875,5.787-2.875,10.733c0,5.249,0.944,8.987,2.832,11.215s4.343,3.342,7.363,3.342
		c2.228,0,4.145-0.708,5.749-2.124S196.007,87.534,196.705,84.494z"/>
</g>
</svg>
