<?xml version="1.0" encoding="utf-8"?>
<!-- Generator: Adobe Illustrator 16.0.0, SVG Export Plug-In . SVG Version: 6.00 Build 0)  -->
<!DOCTYPE svg PUBLIC "-//W3C//DTD SVG 1.1//EN" "http://www.w3.org/Graphics/SVG/1.1/DTD/svg11.dtd">
<svg version="1.1" id="Layer_1" xmlns="http://www.w3.org/2000/svg" xmlns:xlink="http://www.w3.org/1999/xlink" x="0px" y="0px"
	 width="256px" height="256px" viewBox="0 0 256 256" enable-background="new 0 0 256 256" xml:space="preserve">
<rect x="16" y="6" fill="#FFFFFF" width="224.5" height="137"/>
<path d="M246.319,0H9.686v149.764H9.681V256h11V150.268h225.639V0z M235.319,139.268H20.686V11h214.634V139.268z"/>
<g>
	<path d="M44.554,99.759V58.241H57.1l7.533,28.32l7.448-28.32h12.574v41.518h-7.788V67.077l-8.241,32.682h-8.071l-8.213-32.682
		v32.682H44.554z"/>
	<path d="M93.01,99.759V58.241h17.644c4.438,0,7.662,0.373,9.672,1.119c2.012,0.745,3.621,2.071,4.828,3.979
		c1.209,1.907,1.813,4.088,1.813,6.542c0,3.115-0.916,5.688-2.746,7.718c-1.832,2.029-4.57,3.309-8.213,3.837
		c1.813,1.058,3.309,2.219,4.488,3.483s2.771,3.512,4.771,6.74l5.07,8.1h-10.025l-6.061-9.034c-2.152-3.229-3.625-5.263-4.419-6.103
		c-0.793-0.841-1.633-1.416-2.521-1.729c-0.888-0.311-2.294-0.467-4.22-0.467h-1.699v17.332H93.01z M101.393,75.8h6.202
		c4.021,0,6.533-0.17,7.533-0.51c1.002-0.34,1.785-0.925,2.352-1.756s0.85-1.869,0.85-3.115c0-1.397-0.373-2.525-1.119-3.385
		c-0.746-0.858-1.799-1.401-3.158-1.628c-0.68-0.095-2.719-0.142-6.117-0.142h-6.542V75.8z"/>
	<path d="M161.432,84.494l8.128,2.577c-1.246,4.531-3.318,7.896-6.217,10.096c-2.897,2.2-6.574,3.3-11.03,3.3
		c-5.513,0-10.044-1.884-13.594-5.649c-3.55-3.768-5.324-8.917-5.324-15.449c0-6.91,1.784-12.277,5.353-16.1
		c3.568-3.824,8.26-5.735,14.075-5.735c5.079,0,9.204,1.501,12.376,4.503c1.888,1.774,3.304,4.323,4.248,7.646l-8.298,1.982
		c-0.491-2.152-1.515-3.852-3.073-5.098c-1.557-1.246-3.45-1.869-5.678-1.869c-3.077,0-5.574,1.104-7.49,3.313
		c-1.917,2.209-2.875,5.787-2.875,10.733c0,5.249,0.944,8.987,2.832,11.215s4.343,3.342,7.363,3.342
		c2.228,0,4.145-0.708,5.749-2.124S160.733,87.534,161.432,84.494z"/>
	<path d="M203.318,84.494l8.128,2.577c-1.246,4.531-3.318,7.896-6.217,10.096c-2.897,2.2-6.574,3.3-11.03,3.3
		c-5.513,0-10.044-1.884-13.594-5.649c-3.55-3.768-5.324-8.917-5.324-15.449c0-6.91,1.784-12.277,5.353-16.1
		c3.568-3.824,8.26-5.735,14.075-5.735c5.079,0,9.204,1.501,12.376,4.503c1.888,1.774,3.304,4.323,4.248,7.646l-8.298,1.982
		c-0.491-2.152-1.515-3.852-3.073-5.098c-1.557-1.246-3.45-1.869-5.678-1.869c-3.077,0-5.574,1.104-7.49,3.313
		c-1.917,2.209-2.875,5.787-2.875,10.733c0,5.249,0.944,8.987,2.832,11.215s4.343,3.342,7.363,3.342
		c2.228,0,4.145-0.708,5.749-2.124S202.62,87.534,203.318,84.494z"/>
</g>
</svg>
