<?xml version="1.0" encoding="utf-8"?>
<!-- Generator: Adobe Illustrator 16.0.0, SVG Export Plug-In . SVG Version: 6.00 Build 0)  -->
<!DOCTYPE svg PUBLIC "-//W3C//DTD SVG 1.1//EN" "http://www.w3.org/Graphics/SVG/1.1/DTD/svg11.dtd">
<svg version="1.1" id="Layer_1" xmlns="http://www.w3.org/2000/svg" xmlns:xlink="http://www.w3.org/1999/xlink" x="0px" y="0px"
	 width="256px" height="256px" viewBox="0 0 256 256" enable-background="new 0 0 256 256" xml:space="preserve">
<rect x="16" y="6" fill="#FFFFFF" width="224.5" height="137"/>
<path d="M246.319,0H9.686v149.764H9.681V256h11V150.268h225.639V0z M235.319,139.268H20.686V11h214.634V139.268z"/>
<g>
	<path d="M57.954,100.265V53.736h14.06l8.442,31.738l8.348-31.738h14.092v46.528h-8.729V63.639l-9.235,36.626h-9.046l-9.204-36.626
		v36.626H57.954z"/>
	<path d="M112.258,100.265V53.736h19.772c4.973,0,8.586,0.418,10.839,1.254c2.254,0.836,4.058,2.322,5.411,4.459
		c1.354,2.138,2.031,4.581,2.031,7.331c0,3.492-1.026,6.375-3.078,8.649c-2.053,2.274-5.121,3.708-9.204,4.3
		c2.031,1.186,3.708,2.487,5.03,3.904c1.322,1.418,3.105,3.936,5.348,7.554l5.682,9.077h-11.235l-6.792-10.125
		c-2.412-3.617-4.063-5.897-4.951-6.839s-1.83-1.587-2.824-1.937c-0.995-0.349-2.571-0.523-4.729-0.523h-1.904v19.424H112.258z
		 M121.652,73.414h6.95c4.508,0,7.321-0.19,8.443-0.571c1.121-0.381,1.999-1.036,2.634-1.968c0.635-0.931,0.952-2.095,0.952-3.491
		c0-1.565-0.418-2.83-1.254-3.793c-0.836-0.962-2.016-1.57-3.539-1.824c-0.762-0.106-3.047-0.159-6.855-0.159h-7.331V73.414z"/>
	<path d="M188.938,83.157l9.108,2.889c-1.396,5.078-3.719,8.85-6.967,11.314c-3.248,2.466-7.368,3.697-12.362,3.697
		c-6.178,0-11.256-2.11-15.234-6.331c-3.978-4.222-5.967-9.992-5.967-17.313c0-7.744,2-13.759,5.999-18.043
		c3.999-4.285,9.257-6.428,15.774-6.428c5.691,0,10.314,1.683,13.869,5.047c2.115,1.989,3.702,4.846,4.761,8.569l-9.3,2.222
		c-0.55-2.412-1.697-4.316-3.443-5.713c-1.745-1.396-3.867-2.095-6.363-2.095c-3.449,0-6.247,1.237-8.395,3.714
		c-2.148,2.475-3.222,6.485-3.222,12.028c0,5.883,1.058,10.072,3.174,12.568c2.115,2.497,4.866,3.745,8.252,3.745
		c2.496,0,4.645-0.793,6.442-2.381C186.863,89.062,188.154,86.564,188.938,83.157z"/>
</g>
</svg>
