<?xml version="1.0" encoding="utf-8"?>
<!-- Generator: Adobe Illustrator 16.0.0, SVG Export Plug-In . SVG Version: 6.00 Build 0)  -->
<!DOCTYPE svg PUBLIC "-//W3C//DTD SVG 1.1//EN" "http://www.w3.org/Graphics/SVG/1.1/DTD/svg11.dtd">
<svg version="1.1" id="Layer_1" xmlns="http://www.w3.org/2000/svg" xmlns:xlink="http://www.w3.org/1999/xlink" x="0px" y="0px"
	 width="256px" height="256px" viewBox="0 0 256 256" enable-background="new 0 0 256 256" xml:space="preserve">
<rect x="16" y="6" fill="#FFFFFF" width="224.5" height="137"/>
<path d="M246.319,0H9.686v149.764H9.681V256h11V150.268h225.639V0z M235.319,139.268H20.686V11h214.634V139.268z"/>
<g>
	<path d="M60.128,100.265V53.736h19.773c4.972,0,8.585,0.418,10.838,1.254c2.254,0.836,4.057,2.322,5.412,4.459
		c1.354,2.138,2.031,4.581,2.031,7.331c0,3.492-1.026,6.375-3.079,8.649c-2.053,2.274-5.121,3.708-9.204,4.3
		c2.031,1.186,3.708,2.487,5.03,3.904c1.322,1.418,3.105,3.936,5.348,7.554l5.681,9.077H90.724L83.932,90.14
		c-2.412-3.617-4.063-5.897-4.951-6.839s-1.831-1.587-2.825-1.937c-0.995-0.349-2.571-0.523-4.729-0.523h-1.904v19.424H60.128z
		 M69.522,73.414h6.951c4.507,0,7.321-0.19,8.442-0.571c1.121-0.381,2-1.036,2.634-1.968c0.635-0.931,0.952-2.095,0.952-3.491
		c0-1.565-0.418-2.83-1.254-3.793c-0.836-0.962-2.015-1.57-3.539-1.824c-0.762-0.106-3.047-0.159-6.855-0.159h-7.332V73.414z"/>
	<path d="M136.809,83.157l9.107,2.889c-1.396,5.078-3.719,8.85-6.967,11.314c-3.248,2.466-7.367,3.697-12.361,3.697
		c-6.179,0-11.257-2.11-15.234-6.331c-3.978-4.222-5.967-9.992-5.967-17.313c0-7.744,2-13.759,5.999-18.043
		c3.999-4.285,9.257-6.428,15.775-6.428c5.691,0,10.314,1.683,13.869,5.047c2.115,1.989,3.701,4.846,4.76,8.569l-9.299,2.222
		c-0.551-2.412-1.697-4.316-3.443-5.713s-3.867-2.095-6.363-2.095c-3.45,0-6.248,1.237-8.395,3.714
		c-2.148,2.475-3.222,6.485-3.222,12.028c0,5.883,1.058,10.072,3.174,12.568c2.116,2.497,4.866,3.745,8.251,3.745
		c2.496,0,4.645-0.793,6.443-2.381C134.734,89.062,136.025,86.564,136.809,83.157z"/>
	<path d="M175.624,83.157v-7.839h20.248v18.535c-1.967,1.904-4.818,3.581-8.553,5.03c-3.735,1.449-7.518,2.174-11.347,2.174
		c-4.867,0-9.108-1.021-12.728-3.063c-3.617-2.041-6.337-4.961-8.156-8.76c-1.82-3.798-2.729-7.929-2.729-12.394
		c0-4.845,1.016-9.151,3.047-12.917c2.031-3.767,5.004-6.654,8.919-8.665c2.982-1.544,6.696-2.317,11.14-2.317
		c5.776,0,10.288,1.212,13.536,3.635s5.337,5.771,6.269,10.045l-9.331,1.746c-0.656-2.285-1.889-4.089-3.697-5.412
		c-1.81-1.322-4.068-1.983-6.776-1.983c-4.105,0-7.369,1.302-9.791,3.903c-2.423,2.604-3.634,6.465-3.634,11.585
		c0,5.522,1.227,9.664,3.682,12.426c2.454,2.761,5.67,4.142,9.648,4.142c1.967,0,3.94-0.386,5.919-1.158
		c1.978-0.772,3.676-1.709,5.094-2.809v-5.904H175.624z"/>
</g>
</svg>
