<?xml version="1.0" encoding="utf-8"?>
<!-- Generator: Adobe Illustrator 16.0.0, SVG Export Plug-In . SVG Version: 6.00 Build 0)  -->
<!DOCTYPE svg PUBLIC "-//W3C//DTD SVG 1.1//EN" "http://www.w3.org/Graphics/SVG/1.1/DTD/svg11.dtd">
<svg version="1.1" id="Layer_1" xmlns="http://www.w3.org/2000/svg" xmlns:xlink="http://www.w3.org/1999/xlink" x="0px" y="0px"
	 width="256px" height="256px" viewBox="0 0 256 256" enable-background="new 0 0 256 256" xml:space="preserve">
<rect x="16" y="6" fill="#FFFFFF" width="224.5" height="137"/>
<path d="M246.319,0H9.686v149.764H9.681V256h11V150.268h225.639V0z M235.319,139.268H20.686V11h214.634V139.268z"/>
<g>
	<path d="M75.929,68.5V31.993h15.514c3.901,0,6.736,0.328,8.504,0.983c1.768,0.656,3.183,1.822,4.246,3.499
		c1.062,1.677,1.594,3.595,1.594,5.753c0,2.738-0.806,5.001-2.416,6.785c-1.61,1.785-4.018,2.91-7.222,3.375
		c1.594,0.93,2.909,1.95,3.947,3.063c1.037,1.112,2.436,3.088,4.196,5.927l4.458,7.122h-8.815l-5.329-7.943
		c-1.893-2.84-3.188-4.628-3.885-5.367c-0.697-0.738-1.436-1.245-2.216-1.519c-0.781-0.274-2.017-0.411-3.71-0.411H83.3V68.5H75.929
		z M83.3,47.433h5.454c3.536,0,5.744-0.149,6.624-0.448c0.88-0.299,1.569-0.813,2.067-1.544s0.747-1.644,0.747-2.739
		c0-1.229-0.328-2.22-0.983-2.976c-0.656-0.756-1.582-1.233-2.777-1.433c-0.598-0.082-2.391-0.124-5.379-0.124H83.3V47.433z"/>
	<path d="M136.094,55.078l7.146,2.266c-1.096,3.984-2.918,6.944-5.466,8.878c-2.549,1.934-5.782,2.901-9.7,2.901
		c-4.848,0-8.832-1.656-11.953-4.969c-3.122-3.312-4.682-7.84-4.682-13.584c0-6.076,1.569-10.795,4.707-14.157
		c3.138-3.361,7.263-5.042,12.376-5.042c4.465,0,8.093,1.319,10.882,3.959c1.659,1.561,2.905,3.802,3.735,6.724l-7.297,1.743
		c-0.432-1.893-1.332-3.387-2.701-4.482c-1.37-1.096-3.035-1.644-4.993-1.644c-2.706,0-4.902,0.972-6.587,2.913
		c-1.685,1.943-2.527,5.089-2.527,9.438c0,4.615,0.83,7.902,2.49,9.861c1.66,1.959,3.818,2.938,6.475,2.938
		c1.959,0,3.645-0.623,5.055-1.867C134.466,59.709,135.479,57.751,136.094,55.078z"/>
	<path d="M172.924,55.078l7.146,2.266c-1.096,3.984-2.918,6.944-5.465,8.878c-2.549,1.934-5.783,2.901-9.699,2.901
		c-4.849,0-8.833-1.656-11.954-4.969c-3.122-3.312-4.682-7.84-4.682-13.584c0-6.076,1.569-10.795,4.706-14.157
		c3.139-3.361,7.264-5.042,12.377-5.042c4.465,0,8.094,1.319,10.883,3.959c1.66,1.561,2.904,3.802,3.734,6.724l-7.295,1.743
		c-0.434-1.893-1.334-3.387-2.703-4.482s-3.033-1.644-4.992-1.644c-2.707,0-4.902,0.972-6.588,2.913
		c-1.685,1.943-2.527,5.089-2.527,9.438c0,4.615,0.83,7.902,2.49,9.861s3.818,2.938,6.475,2.938c1.959,0,3.645-0.623,5.057-1.867
		C171.297,59.709,172.309,57.751,172.924,55.078z"/>
</g>
<g>
	<path d="M93.137,123.5V86.993h7.371v14.368h14.443V86.993h7.371V123.5h-7.371v-15.963h-14.443V123.5H93.137z"/>
	<path d="M162.863,123.5h-8.018l-3.188-8.293h-14.594l-3.013,8.293h-7.819l14.219-36.507h7.795L162.863,123.5z M149.292,109.057
		l-5.03-13.547l-4.931,13.547H149.292z"/>
</g>
</svg>
