<?xml version="1.0" encoding="utf-8"?>
<!-- Generator: Adobe Illustrator 16.0.0, SVG Export Plug-In . SVG Version: 6.00 Build 0)  -->
<!DOCTYPE svg PUBLIC "-//W3C//DTD SVG 1.1//EN" "http://www.w3.org/Graphics/SVG/1.1/DTD/svg11.dtd">
<svg version="1.1" id="Layer_1" xmlns="http://www.w3.org/2000/svg" xmlns:xlink="http://www.w3.org/1999/xlink" x="0px" y="0px"
	 width="256px" height="256px" viewBox="0 0 256 256" enable-background="new 0 0 256 256" xml:space="preserve">
<rect x="16" y="6" fill="#FFFFFF" width="224.5" height="137"/>
<path d="M246.319,0H9.686v149.764H9.681V256h11V150.268h225.639V0z M235.319,139.268H20.686V11h214.634V139.268z"/>
<g>
	<path d="M46.382,95.279V58.772h15.514c3.901,0,6.736,0.328,8.504,0.983c1.768,0.656,3.183,1.822,4.246,3.499
		c1.062,1.677,1.594,3.595,1.594,5.753c0,2.738-0.806,5.001-2.416,6.785c-1.61,1.785-4.018,2.91-7.222,3.375
		c1.594,0.93,2.909,1.95,3.947,3.063c1.037,1.112,2.436,3.088,4.196,5.927l4.458,7.122h-8.815l-5.329-7.943
		c-1.893-2.84-3.188-4.628-3.885-5.367c-0.697-0.738-1.436-1.245-2.216-1.519c-0.781-0.274-2.017-0.411-3.71-0.411h-1.494v15.24
		H46.382z M53.753,74.211h5.454c3.536,0,5.744-0.149,6.624-0.448c0.88-0.299,1.569-0.813,2.067-1.544s0.747-1.644,0.747-2.739
		c0-1.229-0.328-2.22-0.983-2.976c-0.656-0.756-1.582-1.233-2.777-1.433c-0.598-0.082-2.391-0.124-5.379-0.124h-5.752V74.211z"/>
	<path d="M98.453,86.862l6.973,1.171c-0.896,2.557-2.312,4.503-4.246,5.839c-1.934,1.337-4.354,2.005-7.259,2.005
		c-4.599,0-8.002-1.502-10.21-4.508c-1.743-2.406-2.615-5.444-2.615-9.113c0-4.383,1.146-7.815,3.437-10.298
		c2.291-2.481,5.188-3.723,8.691-3.723c3.935,0,7.039,1.299,9.313,3.897c2.274,2.599,3.362,6.578,3.262,11.94H88.268
		c0.05,2.075,0.614,3.689,1.693,4.844c1.079,1.154,2.424,1.73,4.034,1.73c1.096,0,2.017-0.299,2.764-0.896
		S98.071,88.19,98.453,86.862z M98.852,79.79c-0.05-2.025-0.573-3.564-1.569-4.619s-2.208-1.581-3.636-1.581
		c-1.528,0-2.789,0.556-3.785,1.668s-1.486,2.623-1.469,4.532H98.852z"/>
	<path d="M109.037,87.734l7.022-1.071c0.299,1.361,0.905,2.395,1.818,3.101c0.913,0.706,2.191,1.059,3.835,1.059
		c1.809,0,3.171-0.332,4.084-0.996c0.614-0.465,0.921-1.088,0.921-1.868c0-0.531-0.166-0.972-0.498-1.319
		c-0.349-0.332-1.129-0.64-2.341-0.922c-5.645-1.245-9.223-2.382-10.733-3.412c-2.092-1.427-3.138-3.411-3.138-5.951
		c0-2.291,0.905-4.217,2.714-5.777c1.809-1.561,4.615-2.341,8.417-2.341c3.619,0,6.309,0.59,8.068,1.769
		c1.76,1.179,2.973,2.922,3.637,5.229l-6.6,1.221c-0.283-1.029-0.818-1.818-1.606-2.365c-0.789-0.549-1.914-0.822-3.375-0.822
		c-1.843,0-3.163,0.258-3.959,0.771c-0.532,0.366-0.797,0.839-0.797,1.42c0,0.498,0.232,0.922,0.697,1.27
		c0.631,0.466,2.81,1.121,6.537,1.968c3.727,0.847,6.329,1.885,7.807,3.112c1.459,1.246,2.191,2.98,2.191,5.205
		c0,2.424-1.014,4.508-3.039,6.25c-2.025,1.744-5.021,2.615-8.989,2.615c-3.603,0-6.454-0.73-8.554-2.191
		S109.684,90.241,109.037,87.734z"/>
	<path d="M163.273,81.857l7.146,2.266c-1.096,3.984-2.918,6.944-5.465,8.878c-2.549,1.934-5.781,2.901-9.699,2.901
		c-4.848,0-8.832-1.656-11.953-4.969c-3.123-3.312-4.682-7.84-4.682-13.584c0-6.076,1.568-10.795,4.705-14.157
		c3.139-3.361,7.264-5.042,12.377-5.042c4.467,0,8.094,1.319,10.883,3.959c1.66,1.561,2.904,3.802,3.734,6.724l-7.295,1.743
		c-0.434-1.893-1.334-3.387-2.703-4.482s-3.033-1.644-4.992-1.644c-2.707,0-4.902,0.972-6.588,2.913
		c-1.684,1.943-2.527,5.089-2.527,9.438c0,4.615,0.83,7.902,2.49,9.861s3.818,2.938,6.475,2.938c1.959,0,3.645-0.623,5.057-1.867
		C161.646,86.488,162.66,84.53,163.273,81.857z"/>
	<path d="M193.729,81.857v-6.151h15.889v14.543c-1.545,1.494-3.781,2.811-6.711,3.947s-5.898,1.706-8.902,1.706
		c-3.818,0-7.148-0.801-9.986-2.403c-2.84-1.603-4.973-3.894-6.4-6.873s-2.141-6.222-2.141-9.725c0-3.802,0.797-7.18,2.391-10.136
		c1.594-2.954,3.926-5.221,6.996-6.798c2.342-1.212,5.256-1.817,8.742-1.817c4.531,0,8.072,0.95,10.621,2.851
		c2.547,1.901,4.188,4.528,4.918,7.882l-7.322,1.369c-0.514-1.793-1.48-3.208-2.9-4.245s-3.191-1.557-5.316-1.557
		c-3.221,0-5.781,1.021-7.684,3.063c-1.9,2.041-2.852,5.071-2.852,9.089c0,4.333,0.963,7.583,2.889,9.749
		c1.926,2.167,4.449,3.25,7.57,3.25c1.545,0,3.092-0.303,4.645-0.909c1.553-0.605,2.885-1.34,3.998-2.204v-4.631H193.729z"/>
</g>
</svg>
