<?xml version="1.0" encoding="utf-8"?>
<!-- Generator: Adobe Illustrator 16.0.0, SVG Export Plug-In . SVG Version: 6.00 Build 0)  -->
<!DOCTYPE svg PUBLIC "-//W3C//DTD SVG 1.1//EN" "http://www.w3.org/Graphics/SVG/1.1/DTD/svg11.dtd">
<svg version="1.1" id="Layer_1" xmlns="http://www.w3.org/2000/svg" xmlns:xlink="http://www.w3.org/1999/xlink" x="0px" y="0px"
	 width="256px" height="256px" viewBox="0 0 256 256" enable-background="new 0 0 256 256" xml:space="preserve">
<rect x="16" y="6" fill="#FFFFFF" width="224.5" height="137"/>
<path d="M246.319,0H9.686v149.764H9.681V256h11V150.268h225.639V0z M235.319,139.268H20.686V11h214.634V139.268z"/>
<g>
	<path d="M63.143,85.109l9.141-0.889c0.55,3.068,1.666,5.322,3.349,6.76c1.682,1.439,3.951,2.158,6.808,2.158
		c3.025,0,5.305-0.639,6.84-1.92c1.534-1.279,2.301-2.777,2.301-4.49c0-1.1-0.323-2.037-0.968-2.809
		c-0.646-0.773-1.772-1.445-3.38-2.016c-1.101-0.381-3.608-1.059-7.522-2.031c-5.036-1.248-8.569-2.783-10.601-4.603
		c-2.856-2.56-4.285-5.681-4.285-9.362c0-2.369,0.671-4.586,2.015-6.649c1.344-2.063,3.28-3.634,5.809-4.713
		c2.528-1.079,5.58-1.619,9.156-1.619c5.84,0,10.235,1.281,13.188,3.841c2.951,2.561,4.501,5.978,4.649,10.251l-9.395,0.413
		c-0.402-2.391-1.265-4.11-2.587-5.157c-1.322-1.048-3.306-1.571-5.951-1.571c-2.729,0-4.867,0.561-6.411,1.683
		c-0.995,0.719-1.492,1.682-1.492,2.888c0,1.101,0.465,2.042,1.396,2.825c1.185,0.994,4.063,2.031,8.633,3.109
		c4.57,1.08,7.95,2.196,10.141,3.349c2.189,1.153,3.903,2.729,5.142,4.729c1.237,2,1.856,4.471,1.856,7.41
		c0,2.666-0.741,5.164-2.222,7.49c-1.481,2.328-3.576,4.059-6.284,5.189c-2.708,1.133-6.083,1.699-10.125,1.699
		c-5.882,0-10.4-1.359-13.552-4.078C65.64,94.277,63.756,90.314,63.143,85.109z"/>
	<path d="M138.648,83.141l9.109,2.889c-1.396,5.078-3.719,8.85-6.967,11.314c-3.248,2.467-7.369,3.697-12.363,3.697
		c-6.178,0-11.256-2.109-15.234-6.33c-3.978-4.223-5.967-9.992-5.967-17.314c0-7.744,2-13.759,5.999-18.043
		c3.999-4.285,9.257-6.428,15.774-6.428c5.691,0,10.314,1.683,13.869,5.047c2.115,1.989,3.703,4.846,4.762,8.569l-9.301,2.222
		c-0.549-2.412-1.697-4.316-3.443-5.713c-1.744-1.396-3.867-2.095-6.363-2.095c-3.449,0-6.247,1.237-8.395,3.714
		c-2.148,2.475-3.222,6.485-3.222,12.028c0,5.883,1.058,10.073,3.174,12.569c2.115,2.496,4.866,3.744,8.252,3.744
		c2.497,0,4.645-0.793,6.442-2.381C136.574,89.045,137.865,86.549,138.648,83.141z"/>
	<path d="M155.756,53.72h9.395v25.2c0,4,0.115,6.592,0.348,7.775c0.402,1.904,1.359,3.434,2.873,4.588
		c1.512,1.152,3.58,1.729,6.205,1.729c2.666,0,4.676-0.545,6.029-1.635c1.354-1.088,2.17-2.428,2.445-4.014
		c0.273-1.588,0.412-4.223,0.412-7.904V53.72h9.395v24.438c0,5.586-0.254,9.533-0.762,11.838c-0.508,2.307-1.445,4.254-2.809,5.84
		c-1.365,1.588-3.189,2.852-5.475,3.793s-5.27,1.412-8.951,1.412c-4.443,0-7.813-0.512-10.109-1.539
		c-2.295-1.025-4.109-2.357-5.441-3.998c-1.334-1.641-2.213-3.359-2.635-5.158c-0.615-2.666-0.92-6.602-0.92-11.807V53.72z"/>
</g>
</svg>
