<?xml version="1.0" encoding="utf-8"?>
<!-- Generator: Adobe Illustrator 16.0.0, SVG Export Plug-In . SVG Version: 6.00 Build 0)  -->
<!DOCTYPE svg PUBLIC "-//W3C//DTD SVG 1.1//EN" "http://www.w3.org/Graphics/SVG/1.1/DTD/svg11.dtd">
<svg version="1.1" id="Layer_1" xmlns="http://www.w3.org/2000/svg" xmlns:xlink="http://www.w3.org/1999/xlink" x="0px" y="0px"
	 width="256px" height="256px" viewBox="0 0 256 256" enable-background="new 0 0 256 256" xml:space="preserve">
<rect x="15.5" y="5" fill="#FFFFFF" width="224.5" height="168"/>
<path d="M246.313,0H9.688v172.5H9.672V256h11v-76.75h225.641V0z M235.313,11v95H20.688V11H235.313z M162.833,117v51.25H92.5V117
	H162.833z M20.688,117H85.5v51.25H20.688V117z M169.833,168.25V117h65.479v51.25H169.833z"/>
<g>
	<path d="M40.194,159v-33.644h10.901c4.131,0,6.823,0.169,8.078,0.505c1.928,0.505,3.542,1.603,4.842,3.293
		c1.3,1.691,1.951,3.875,1.951,6.553c0,2.064-0.375,3.802-1.125,5.209c-0.75,1.408-1.702,2.513-2.857,3.316
		c-1.156,0.803-2.33,1.335-3.523,1.595c-1.622,0.321-3.97,0.481-7.045,0.481h-4.429V159H40.194z M46.987,131.048v9.547h3.718
		c2.677,0,4.467-0.176,5.37-0.528c0.902-0.352,1.61-0.902,2.123-1.652c0.513-0.749,0.769-1.621,0.769-2.615
		c0-1.225-0.36-2.234-1.079-3.029c-0.719-0.796-1.629-1.293-2.731-1.492c-0.811-0.152-2.44-0.229-4.888-0.229H46.987z"/>
</g>
<g>
	<path d="M115.965,159v-33.644h23.064v5.691h-16.271v7.964h14.044v5.691h-14.044V159H115.965z"/>
</g>
<g>
	<path d="M218.758,159h-7.389l-2.938-7.643h-13.449L192.206,159H185l13.104-33.644h7.184L218.758,159z M206.251,145.689
		l-4.636-12.484l-4.544,12.484H206.251z"/>
</g>
<g>
	<path d="M66.771,67.236l8.156-0.793c0.491,2.736,1.487,4.748,2.988,6.031c1.501,1.285,3.526,1.926,6.075,1.926
		c2.7,0,4.734-0.57,6.103-1.713c1.369-1.143,2.053-2.479,2.053-4.008c0-0.98-0.288-1.816-0.864-2.506
		c-0.576-0.689-1.582-1.289-3.016-1.799c-0.982-0.34-3.219-0.943-6.712-1.813c-4.494-1.113-7.646-2.482-9.459-4.106
		c-2.549-2.284-3.823-5.069-3.823-8.354c0-2.114,0.599-4.092,1.798-5.934c1.199-1.84,2.926-3.242,5.183-4.205
		c2.256-0.963,4.979-1.444,8.17-1.444c5.211,0,9.133,1.143,11.767,3.427s4.017,5.334,4.149,9.147l-8.383,0.368
		c-0.359-2.134-1.128-3.668-2.308-4.602c-1.18-0.936-2.95-1.402-5.31-1.402c-2.436,0-4.343,0.5-5.721,1.501
		c-0.888,0.642-1.331,1.501-1.331,2.577c0,0.981,0.415,1.822,1.246,2.521c1.057,0.888,3.625,1.813,7.703,2.775
		s7.094,1.959,9.048,2.987c1.954,1.029,3.483,2.436,4.588,4.22c1.104,1.783,1.657,3.988,1.657,6.613
		c0,2.379-0.661,4.605-1.982,6.684c-1.322,2.076-3.191,3.619-5.607,4.629c-2.417,1.012-5.428,1.516-9.034,1.516
		c-5.249,0-9.28-1.213-12.093-3.639C68.999,75.416,67.319,71.881,66.771,67.236z"/>
	<path d="M107.326,80.744V39.227h8.383v41.517H107.326z"/>
	<path d="M123.922,80.744V39.567h8.383V73.75h20.844v6.994H123.922z"/>
	<path d="M165.411,80.744l-14.84-41.517h9.091l10.507,30.728l10.167-30.728h8.893L174.36,80.744H165.411z"/>
</g>
</svg>
