<?xml version="1.0" encoding="utf-8"?>
<!-- Generator: Adobe Illustrator 16.0.0, SVG Export Plug-In . SVG Version: 6.00 Build 0)  -->
<!DOCTYPE svg PUBLIC "-//W3C//DTD SVG 1.1//EN" "http://www.w3.org/Graphics/SVG/1.1/DTD/svg11.dtd">
<svg version="1.1" id="Layer_1" xmlns="http://www.w3.org/2000/svg" xmlns:xlink="http://www.w3.org/1999/xlink" x="0px" y="0px"
	 width="256px" height="256px" viewBox="0 0 256 256" enable-background="new 0 0 256 256" xml:space="preserve">
<rect x="16" y="6" fill="#FFFFFF" width="224.5" height="137"/>
<path d="M246.319,0H9.686v149.764H9.681V256h11V150.268h225.639V0z M235.319,139.268H20.686V11h214.634V139.268z"/>
<g>
	<path d="M60.716,85.109l9.141-0.889c0.55,3.068,1.666,5.321,3.349,6.76c1.682,1.439,3.951,2.158,6.808,2.158
		c3.025,0,5.305-0.64,6.84-1.92c1.533-1.28,2.301-2.777,2.301-4.491c0-1.1-0.323-2.036-0.968-2.809
		c-0.646-0.772-1.772-1.444-3.381-2.016c-1.101-0.381-3.607-1.058-7.521-2.031c-5.036-1.248-8.569-2.782-10.601-4.602
		c-2.856-2.561-4.285-5.682-4.285-9.363c0-2.369,0.672-4.586,2.016-6.649c1.344-2.063,3.279-3.634,5.809-4.713
		c2.527-1.079,5.58-1.618,9.156-1.618c5.84,0,10.235,1.28,13.188,3.84c2.951,2.561,4.501,5.978,4.649,10.252l-9.395,0.412
		c-0.402-2.391-1.265-4.11-2.587-5.157c-1.322-1.048-3.307-1.571-5.951-1.571c-2.729,0-4.866,0.562-6.411,1.683
		c-0.994,0.72-1.491,1.682-1.491,2.888c0,1.101,0.465,2.042,1.396,2.825c1.185,0.994,4.063,2.031,8.633,3.11
		s7.95,2.195,10.141,3.348c2.189,1.154,3.903,2.729,5.142,4.729c1.237,1.999,1.856,4.47,1.856,7.411c0,2.666-0.741,5.163-2.222,7.49
		c-1.481,2.327-3.576,4.058-6.284,5.188c-2.709,1.132-6.084,1.698-10.125,1.698c-5.882,0-10.399-1.359-13.552-4.078
		C63.212,94.276,61.329,90.314,60.716,85.109z"/>
	<path d="M136.222,83.142l9.107,2.888c-1.396,5.078-3.719,8.851-6.967,11.314c-3.248,2.466-7.367,3.698-12.361,3.698
		c-6.178,0-11.256-2.111-15.234-6.332c-3.978-4.222-5.967-9.992-5.967-17.313c0-7.744,2-13.759,5.999-18.043
		c3.999-4.285,9.257-6.427,15.774-6.427c5.691,0,10.314,1.682,13.869,5.046c2.115,1.989,3.701,4.846,4.76,8.569l-9.299,2.222
		c-0.551-2.412-1.697-4.316-3.443-5.713s-3.867-2.095-6.363-2.095c-3.449,0-6.247,1.238-8.395,3.714
		c-2.148,2.476-3.222,6.485-3.222,12.028c0,5.883,1.058,10.072,3.174,12.568c2.115,2.497,4.866,3.745,8.252,3.745
		c2.496,0,4.644-0.793,6.442-2.38S135.438,86.548,136.222,83.142z"/>
	<path d="M175.036,83.142v-7.84h20.248v18.535c-1.967,1.904-4.818,3.582-8.553,5.03c-3.734,1.449-7.518,2.175-11.346,2.175
		c-4.867,0-9.109-1.021-12.729-3.063c-3.617-2.041-6.336-4.961-8.156-8.76c-1.82-3.797-2.729-7.929-2.729-12.394
		c0-4.845,1.016-9.15,3.047-12.917s5.004-6.654,8.918-8.665c2.982-1.544,6.697-2.316,11.141-2.316
		c5.775,0,10.287,1.211,13.535,3.634s5.338,5.771,6.27,10.045l-9.332,1.746c-0.656-2.285-1.889-4.089-3.697-5.412
		c-1.809-1.321-4.068-1.983-6.775-1.983c-4.105,0-7.369,1.302-9.791,3.904c-2.424,2.603-3.635,6.464-3.635,11.584
		c0,5.522,1.227,9.664,3.682,12.426c2.455,2.761,5.67,4.142,9.648,4.142c1.967,0,3.941-0.386,5.92-1.158
		c1.977-0.772,3.676-1.708,5.094-2.809v-5.903H175.036z"/>
</g>
</svg>
