<?xml version="1.0" encoding="utf-8"?>
<!-- Generator: Adobe Illustrator 16.0.0, SVG Export Plug-In . SVG Version: 6.00 Build 0)  -->
<!DOCTYPE svg PUBLIC "-//W3C//DTD SVG 1.1//EN" "http://www.w3.org/Graphics/SVG/1.1/DTD/svg11.dtd">
<svg version="1.1" id="Layer_1" xmlns="http://www.w3.org/2000/svg" xmlns:xlink="http://www.w3.org/1999/xlink" x="0px" y="0px"
	 width="256px" height="256px" viewBox="0 0 256 256" enable-background="new 0 0 256 256" xml:space="preserve">
<rect x="16" y="6" fill="#FFFFFF" width="224.5" height="137"/>
<path d="M246.319,0H9.686v149.764H9.681V256h11V150.268h225.639V0z M235.319,139.268H20.686V11h214.634V139.268z"/>
<g>
	<path d="M75.87,100.265V61.607H62.064v-7.871h36.975v7.871H85.265v38.657H75.87z"/>
	<path d="M134.873,83.157l9.107,2.889c-1.396,5.078-3.719,8.85-6.967,11.314c-3.248,2.466-7.367,3.697-12.362,3.697
		c-6.178,0-11.256-2.11-15.234-6.331c-3.978-4.222-5.967-9.992-5.967-17.313c0-7.744,2-13.759,5.999-18.043
		c3.999-4.285,9.257-6.428,15.774-6.428c5.692,0,10.315,1.683,13.87,5.047c2.115,1.989,3.701,4.846,4.76,8.569l-9.299,2.222
		c-0.551-2.412-1.697-4.316-3.443-5.713s-3.868-2.095-6.364-2.095c-3.449,0-6.247,1.237-8.395,3.714
		c-2.148,2.475-3.222,6.485-3.222,12.028c0,5.883,1.058,10.072,3.174,12.568c2.115,2.497,4.866,3.745,8.252,3.745
		c2.496,0,4.644-0.793,6.443-2.381C132.799,89.062,134.09,86.564,134.873,83.157z"/>
	<path d="M173.688,83.157v-7.839h20.248v18.535c-1.967,1.904-4.818,3.581-8.553,5.03s-7.518,2.174-11.346,2.174
		c-4.867,0-9.109-1.021-12.729-3.063c-3.617-2.041-6.336-4.961-8.156-8.76c-1.82-3.798-2.729-7.929-2.729-12.394
		c0-4.845,1.016-9.151,3.047-12.917c2.031-3.767,5.004-6.654,8.918-8.665c2.982-1.544,6.697-2.317,11.141-2.317
		c5.775,0,10.287,1.212,13.535,3.635s5.338,5.771,6.27,10.045l-9.332,1.746c-0.656-2.285-1.889-4.089-3.697-5.412
		c-1.809-1.322-4.068-1.983-6.775-1.983c-4.105,0-7.369,1.302-9.791,3.903c-2.424,2.604-3.635,6.465-3.635,11.585
		c0,5.522,1.227,9.664,3.682,12.426c2.455,2.761,5.67,4.142,9.648,4.142c1.967,0,3.941-0.386,5.92-1.158
		c1.977-0.772,3.676-1.709,5.094-2.809v-5.904H173.688z"/>
</g>
</svg>
