<?xml version="1.0" encoding="utf-8"?>
<!-- Generator: Adobe Illustrator 16.0.0, SVG Export Plug-In . SVG Version: 6.00 Build 0)  -->
<!DOCTYPE svg PUBLIC "-//W3C//DTD SVG 1.1//EN" "http://www.w3.org/Graphics/SVG/1.1/DTD/svg11.dtd">
<svg version="1.1" id="Layer_1" xmlns="http://www.w3.org/2000/svg" xmlns:xlink="http://www.w3.org/1999/xlink" x="0px" y="0px"
	 width="256px" height="256px" viewBox="0 0 256 256" enable-background="new 0 0 256 256" xml:space="preserve">
<polygon fill="#FF3333" points="67.973,74.408 128.756,222.021 188.405,77.05 "/>
<path d="M176.355,81.396l-48.354,124.658L79.646,81.396H176.355 M202.736,63.333h0.004H202.736z M202.736,63.333H53.266L128.001,256
	L202.736,63.333L202.736,63.333z"/>
<g>
	<path d="M40.371,32.183l9.141-0.889c0.55,3.068,1.666,5.322,3.349,6.76c1.682,1.439,3.951,2.158,6.808,2.158
		c3.025,0,5.305-0.64,6.84-1.92c1.533-1.28,2.301-2.777,2.301-4.491c0-1.1-0.323-2.036-0.968-2.809
		c-0.646-0.772-1.772-1.444-3.381-2.016c-1.101-0.381-3.607-1.058-7.521-2.031c-5.036-1.248-8.569-2.782-10.601-4.602
		c-2.856-2.56-4.285-5.681-4.285-9.363c0-2.37,0.672-4.586,2.016-6.649c1.344-2.063,3.279-3.634,5.809-4.713
		C52.404,0.54,55.457,0,59.033,0c5.84,0,10.235,1.28,13.188,3.84c2.951,2.561,4.501,5.978,4.649,10.251l-9.395,0.413
		c-0.402-2.391-1.265-4.11-2.587-5.157c-1.322-1.048-3.307-1.571-5.951-1.571c-2.729,0-4.866,0.561-6.411,1.682
		c-0.994,0.72-1.491,1.682-1.491,2.888c0,1.101,0.465,2.042,1.396,2.825c1.185,0.995,4.063,2.031,8.633,3.11
		s7.95,2.195,10.141,3.348c2.189,1.154,3.903,2.729,5.142,4.729c1.237,1.999,1.856,4.47,1.856,7.411c0,2.666-0.741,5.163-2.222,7.49
		c-1.481,2.328-3.576,4.058-6.284,5.189c-2.709,1.132-6.084,1.698-10.125,1.698c-5.882,0-10.399-1.359-13.552-4.078
		C42.867,41.35,40.984,37.388,40.371,32.183z"/>
	<path d="M128.063,47.322h-10.22l-4.063-10.569H95.183l-3.84,10.569h-9.966L99.499,0.793h9.935L128.063,47.322z M110.767,28.914
		l-6.411-17.266l-6.284,17.266H110.767z"/>
	<path d="M162.818,30.215l9.107,2.888c-1.396,5.078-3.719,8.85-6.967,11.314c-3.248,2.465-7.367,3.698-12.361,3.698
		c-6.18,0-11.258-2.111-15.234-6.332c-3.979-4.222-5.967-9.992-5.967-17.313c0-7.744,1.999-13.759,5.998-18.043
		C141.394,2.142,146.651,0,153.168,0c5.693,0,10.316,1.682,13.871,5.046c2.115,1.989,3.701,4.846,4.76,8.569l-9.299,2.222
		c-0.551-2.412-1.697-4.316-3.443-5.713s-3.867-2.095-6.364-2.095c-3.449,0-6.247,1.238-8.395,3.713s-3.222,6.485-3.222,12.029
		c0,5.882,1.058,10.072,3.174,12.568c2.115,2.497,4.866,3.745,8.252,3.745c2.496,0,4.645-0.793,6.443-2.38
		S162.035,33.622,162.818,30.215z"/>
	<path d="M179.986,47.322V0.793h15.076c5.713,0,9.438,0.233,11.172,0.698c2.666,0.698,4.898,2.217,6.697,4.555
		s2.697,5.358,2.697,9.061c0,2.856-0.518,5.258-1.555,7.205c-1.037,1.947-2.354,3.476-3.951,4.586
		c-1.598,1.111-3.223,1.847-4.873,2.206c-2.242,0.444-5.49,0.667-9.742,0.667h-6.127v17.551H179.986z M189.381,8.665v13.203h5.143
		c3.703,0,6.178-0.243,7.426-0.73c1.25-0.486,2.229-1.248,2.938-2.285c0.707-1.037,1.063-2.243,1.063-3.618
		c0-1.692-0.498-3.089-1.492-4.189c-0.994-1.1-2.254-1.788-3.777-2.063c-1.121-0.211-3.375-0.317-6.76-0.317H189.381z"/>
</g>
</svg>
